ply
format ascii 1.0
element vertex 256
comment vertices
property float x
property float y
property float z
end_header
-0.593348264694213867 2.41677021980285645 -0.586280107498168945
2.72957611083984375 7.53025245666503906 0.852619051933288574
-0.990584254264831543 7.13090705871582031 3.45504903793334961
-2.55377984046936035 3.12600803375244141 -0.393195033073425293
2.00367474555969238 3.45430636405944824 0.630937457084655762
1.58965504169464111 3.04353475570678711 -0.74643629789352417
3.1011650562286377 4.84679603576660156 -0.328297168016433716
-0.546446263790130615 3.76826643943786621 0.633251607418060303
1.16648983955383301 6.56730270385742188 3.80135583877563477
-0.749431848526000977 2.58595895767211914 -0.61372065544128418
-0.0963974595069885254 2.63080835342407227 -0.445886552333831787
3.36063337326049805 5.7672276496887207 3.22184133529663086
-0.475654661655426025 2.36026978492736816 -0.651438713073730469
1.54953408241271973 3.18379831314086914 -0.542497932910919189
-0.875663995742797852 2.57435393333435059 -0.110561847686767578
0.85852658748626709 3.13170647621154785 0.348866939544677734
-1.96121788024902344 3.0598442554473877 -0.730902671813964844
-0.63394397497177124 2.43364930152893066 -0.504308044910430908
-0.456293582916259766 2.48167133331298828 -0.611679136753082275
0.0279673933982849121 2.61205029487609863 -0.664817333221435547
0.284912079572677612 7.23776674270629883 2.14361119270324707
2.28393220901489258 6.77443027496337891 2.70491170883178711
1.36710584163665771 2.89480972290039062 -0.735039889812469482
-0.221846401691436768 2.53061175346374512 -0.0988761186599731445
1.35406827926635742 3.50417852401733398 -0.22001272439956665
-0.419072866439819336 2.4853365421295166 -0.59841078519821167
-1.43566346168518066 2.58782768249511719 -0.506424486637115479
-2.14459443092346191 3.39234232902526855 -0.263109147548675537
3.14974045753479004 4.30618810653686523 0.9693603515625
-0.521117091178894043 2.30139923095703125 -0.581559240818023682
1.42315542697906494 3.11221051216125488 -0.714304685592651367
-0.581386327743530273 2.61116242408752441 -0.568787515163421631
-2.05855774879455566 4.09361171722412109 -0.5987396240234375
-1.29878365993499756 3.91051292419433594 0.644674479961395264
1.89370119571685791 7.37811374664306641 0.351302266120910645
1.96211814880371094 2.9654228687286377 -0.529695868492126465
1.73415076732635498 3.29248833656311035 -0.651194453239440918
-1.79079127311706543 3.68362283706665039 0.169273853302001953
1.2166287899017334 2.61615133285522461 -0.385901540517807007
-0.232108473777770996 2.40746331214904785 -0.635551810264587402
0.0168682336807250977 2.77794718742370605 -0.101554393768310547
-0.0962106287479400635 3.96138215065002441 1.12537646293640137
-0.375026792287826538 2.4995415210723877 -0.573515892028808594
2.02600598335266113 3.0910184383392334 -0.154897034168243408
-0.554796457290649414 2.32602643966674805 -0.655598282814025879
-0.0840221643447875977 2.48356127738952637 -0.259838461875915527
2.50512266159057617 4.94421577453613281 -0.332085251808166504
1.4146345853805542 3.3062596321105957 0.71251678466796875
-1.59115469455718994 2.93863868713378906 -0.256092220544815063
1.4479062557220459 2.79510235786437988 -0.672335028648376465
-0.60852360725402832 2.46502089500427246 -0.622047603130340576
1.76165461540222168 3.03780460357666016 -0.713259875774383545
0.421363681554794312 2.89372682571411133 0.197001039981842041
0.645577013492584229 7.2217555046081543 2.03413653373718262
-0.624014854431152344 2.59168529510498047 -0.594485104084014893
-0.526660144329071045 7.79408073425292969 2.44738864898681641
-0.485756218433380127 2.31084823608398438 -0.580413699150085449
1.14810967445373535 2.9813225269317627 -0.864732801914215088
-0.432340085506439209 2.27588677406311035 -0.687102735042572021
-1.64687097072601318 3.43769645690917969 -0.756235063076019287
-0.413994461297988892 2.4499201774597168 -0.591091156005859375
1.54629385471343994 2.237274169921875 -0.784438669681549072
-0.542766153812408447 2.26338911056518555 -0.550561785697937012
1.67114937305450439 2.95853781700134277 -0.514301061630249023
-0.823842048645019531 2.38470649719238281 -0.355967074632644653
-1.64076817035675049 3.61806821823120117 0.186996936798095703
-0.674426555633544922 2.4670720100402832 -0.652801334857940674
1.12676727771759033 2.51013755798339844 -0.277625143527984619
1.73492896556854248 3.53256368637084961 0.354600995779037476
-0.383190125226974487 2.5994105339050293 -0.520135998725891113
1.34237205982208252 3.5988922119140625 -0.320987999439239502
1.64511752128601074 6.91299295425415039 2.63603615760803223
-0.490298748016357422 2.45520424842834473 -0.585049211978912354
-0.483475565910339355 2.55466270446777344 -0.63365095853805542
-0.667881608009338379 2.44105911254882812 -0.573308825492858887
1.2119753360748291 2.88893723487854004 -0.669336259365081787
-0.514912664890289307 2.50426745414733887 -0.617913484573364258
1.43658745288848877 2.76894927024841309 -0.640548050403594971
-0.721184909343719482 2.686676025390625 -0.212294727563858032
1.25690996646881104 3.0803980827331543 -0.484746336936950684
-1.75092601776123047 2.83545041084289551 -0.436494827270507812
2.99731659889221191 4.57134914398193359 -0.298108190298080444
-0.270072519779205322 3.06312990188598633 0.358618617057800293
1.8563765287399292 2.91583895683288574 -0.62150871753692627
-0.566157281398773193 2.46753478050231934 -0.613090634346008301
-0.00704634189605712891 3.06569600105285645 0.189678013324737549
1.36606323719024658 2.97165322303771973 -0.862478554248809814
-0.637957215309143066 2.47383928298950195 -0.631238400936126709
0.0238473415374755859 2.83419132232666016 -0.745054244995117188
1.2323453426361084 2.75180721282958984 -0.300879031419754028
1.45391583442687988 2.7732548713684082 0.0494934320449829102
-0.56267082691192627 2.64960002899169922 -0.0277981758117675781
1.38294541835784912 2.97318577766418457 -0.7814292311668396
-0.487786471843719482 2.94541168212890625 0.151726007461547852
-0.977550625801086426 2.4466862678527832 -0.465345054864883423
1.47429072856903076 2.58326601982116699 -0.695740818977355957
-1.59711217880249023 3.30428719520568848 -0.134401023387908936
-2.42596817016601562 3.64868783950805664 -0.554103732109069824
-0.585602402687072754 2.53995466232299805 -0.55239492654800415
2.33081245422363281 7.44205093383789062 1.13400578498840332
-1.23673009872436523 2.64231276512145996 -0.271143227815628052
-0.450747907161712646 2.39737486839294434 -0.610046327114105225
-0.419294238090515137 2.52154040336608887 -0.652146637439727783
-0.721286773681640625 2.42084765434265137 -0.523429691791534424
1.09359300136566162 2.41394901275634766 -0.235382974147796631
0.0652880072593688965 3.3568115234375 0.574828982353210449
0.745474934577941895 2.97784042358398438 0.112724423408508301
1.96422755718231201 3.4476621150970459 0.369915395975112915
-2.2923588752746582 3.28855729103088379 -0.22550666332244873
-0.0640224218368530273 2.60698628425598145 -0.403381526470184326
0.399415433406829834 3.39725208282470703 0.554560840129852295
1.50722372531890869 3.2380223274230957 -0.0605325102806091309
-0.961596190929412842 2.43442702293395996 -0.630210995674133301
0.990899503231048584 3.46955323219299316 0.662583827972412109
2.17730855941772461 3.20846796035766602 -0.53612285852432251
1.17759263515472412 2.92219996452331543 -0.804809808731079102
-0.695546925067901611 2.61895132064819336 -0.584663033485412598
-0.608026981353759766 2.39098024368286133 -0.553144693374633789
-0.429711997509002686 2.5835566520690918 -0.602814912796020508
1.69167780876159668 3.03767633438110352 -0.348572909832000732
1.18898606300354004 2.94280672073364258 -0.408347457647323608
-0.164238393306732178 2.5442054271697998 -0.538638889789581299
1.68499457836151123 2.93783998489379883 -0.589640676975250244
1.63442683219909668 2.56872987747192383 -0.638788700103759766
1.17323315143585205 2.9422454833984375 -0.845077872276306152
-2.21646952629089355 3.12454700469970703 -0.478864848613739014
-0.626330137252807617 2.43495082855224609 -0.622912168502807617
-0.35986638069152832 2.4272153377532959 -0.561009228229522705
-0.187942177057266235 2.45797514915466309 -0.0671219229698181152
0.118780016899108887 2.61445522308349609 -0.688428819179534912
1.53479897975921631 3.00369548797607422 -0.663677990436553955
1.77582049369812012 2.94500184059143066 -0.750985860824584961
1.51096630096435547 2.8727576732635498 -0.768746614456176758
-0.115264654159545898 2.5677649974822998 -0.505987823009490967
0.228702768683433533 2.67588615417480469 -0.067612767219543457
1.4824601411819458 2.99878168106079102 0.300178766250610352
-0.621936559677124023 2.40634822845458984 -0.544444084167480469
1.48570716381072998 3.33126497268676758 0.604184925556182861
1.23583626747131348 2.68570756912231445 -0.445259332656860352
-0.643450379371643066 2.39592313766479492 -0.649406313896179199
-0.553403735160827637 2.40459632873535156 -0.559438526630401611
2.08312344551086426 3.03110408782958984 -0.583603739738464355
1.62072658538818359 3.46779751777648926 -0.274300754070281982
1.24588978290557861 2.85877180099487305 -0.471511721611022949
-0.348269611597061157 2.6916954517364502 0.0259865224361419678
-1.59604179859161377 2.75574970245361328 -0.383375316858291626
1.12764143943786621 2.32132244110107422 -0.794511675834655762
-0.626966714859008789 2.49035024642944336 -0.561264634132385254
-1.76573193073272705 3.14519739151000977 -0.155174732208251953
-0.499427288770675659 2.33571624755859375 -0.583093762397766113
-0.317484825849533081 2.48581075668334961 -0.575278580188751221
1.51215636730194092 3.06483674049377441 -0.795115828514099121
2.94733452796936035 4.88621807098388672 -0.332693368196487427
-0.101190924644470215 2.62698125839233398 -0.663968324661254883
1.59297537803649902 3.10130906105041504 -0.483691513538360596
-1.61736369132995605 2.73444080352783203 -0.554436206817626953
-0.55741584300994873 2.57163739204406738 -0.560069084167480469
-0.399874627590179443 2.48239302635192871 -0.598184466361999512
-0.129173174500465393 7.48387289047241211 2.06523418426513672
-0.379580974578857422 2.90805530548095703 -0.10964202880859375
0.602001488208770752 3.75156307220458984 0.678996086120605469
-0.501182675361633301 2.54118108749389648 -0.602363944053649902
-0.550339043140411377 2.43463659286499023 -0.558387815952301025
1.27581691741943359 2.99227023124694824 -0.813019394874572754
1.27702951431274414 2.9770514965057373 -0.854784727096557617
-0.314337253570556641 2.46414995193481445 -0.605828344821929932
-0.418738096952438354 2.50877928733825684 -0.553129971027374268
-0.189611583948135376 3.32496237754821777 0.30350196361541748
2.69068479537963867 5.11347866058349609 -0.338132351636886597
-0.705822348594665527 7.72195053100585938 2.23058080673217773
1.53014254570007324 3.53565120697021484 -0.194292366504669189
-1.06649339199066162 2.54593682289123535 -0.263131767511367798
1.45855772495269775 3.11246180534362793 0.24823373556137085
-0.242471516132354736 2.77345180511474609 -0.557985782623291016
3.12423992156982422 4.78124141693115234 -0.319175064563751221
1.80548107624053955 3.03610467910766602 0.241498649120330811
1.6051485538482666 2.8108818531036377 -0.841120243072509766
-1.3799736499786377 3.71183180809020996 0.364300370216369629
0.357816129922866821 2.03716015815734863 -0.697254061698913574
-0.515772104263305664 2.33062744140625 -0.583628833293914795
-2.31119012832641602 3.09476637840270996 -0.469384938478469849
-0.467249006032943726 2.4457862377166748 -0.63778609037399292
-0.647318065166473389 2.521270751953125 -0.621310114860534668
-2.46255326271057129 2.97014522552490234 -0.119561165571212769
-1.51718854904174805 3.4983832836151123 -0.0462650656700134277
-0.793924808502197266 2.52917861938476562 -0.219855576753616333
-0.368320196866989136 2.51193451881408691 -0.590641975402832031
1.32517683506011963 2.93284797668457031 -0.658870458602905273
-0.273972272872924805 2.53173184394836426 -0.470533490180969238
1.41918098926544189 3.08871936798095703 -0.445919036865234375
-0.437986314296722412 2.39274311065673828 -0.595710635185241699
-0.567904233932495117 2.50849652290344238 -0.617876827716827393
-0.479533851146697998 2.35281825065612793 -0.568281054496765137
-0.466239631175994873 2.54784440994262695 -0.610012054443359375
-0.875401139259338379 2.44939279556274414 -0.637887239456176758
0.290065348148345947 2.4531397819519043 -0.366518557071685791
-1.70662546157836914 3.38331460952758789 0.000479042530059814453
-0.482917487621307373 2.53751826286315918 -0.648280143737792969
-0.0960577726364135742 2.93451738357543945 0.118189632892608643
2.97569823265075684 4.48975658416748047 -0.230027318000793457
-0.568513274192810059 2.60164642333984375 -0.121088802814483643
0.0295394212007522583 3.13106679916381836 0.129079163074493408
2.06242752075195312 6.83842563629150391 2.26746273040771484
-0.356571614742279053 2.38014316558837891 -0.668990910053253174
1.63803887367248535 3.12508058547973633 -0.0421455502510070801
-0.61808323860168457 2.43412995338439941 -0.623264431953430176
-0.348364114761352539 2.4720771312713623 -0.628477394580841064
1.11854004859924316 3.67448759078979492 -0.208763152360916138
1.51875555515289307 2.90530037879943848 -0.281345278024673462
0.0883849859237670898 3.3340907096862793 0.337875306606292725
1.99819934368133545 3.04168343544006348 -0.516485810279846191
-0.309682071208953857 2.56343674659729004 -0.61677086353302002
-0.77906334400177002 3.66723537445068359 0.578015804290771484
1.72074472904205322 2.88464093208312988 -0.607858121395111084
1.41745126247406006 2.93311858177185059 -0.820003986358642578
1.130340576171875 2.94687294960021973 -0.79007112979888916
0.684624552726745605 3.01663875579833984 -0.00613772869110107422
-0.930916488170623779 3.66739106178283691 0.606294929981231689
2.03245067596435547 2.97809481620788574 -0.779176771640777588
1.87984871864318848 2.98387312889099121 -0.792422652244567871
1.74883031845092773 3.38464975357055664 -0.578478038311004639
2.75874733924865723 7.27742910385131836 0.95561981201171875
1.38372719287872314 2.73867130279541016 -0.598242700099945068
-0.597235798835754395 2.43983650207519531 -0.61601722240447998
-0.543236613273620605 2.62510538101196289 -0.60934603214263916
-1.99359273910522461 3.8582608699798584 0.346838891506195068
-0.486681520938873291 2.39827251434326172 -0.609229683876037598
-0.45293310284614563 2.45945453643798828 -0.627614676952362061
-1.67072629928588867 3.09276723861694336 -0.562087297439575195
-0.64680182933807373 2.38973307609558105 -0.68089449405670166
-0.856722474098205566 2.44173383712768555 -0.577771186828613281
-0.463383525609970093 2.50428223609924316 -0.543064355850219727
-1.78231585025787354 3.03782367706298828 -0.297534525394439697
0.185658380389213562 3.47594380378723145 0.660136222839355469
-0.502411842346191406 2.43680620193481445 -0.608493447303771973
-0.330717206001281738 2.47690153121948242 -0.734007537364959717
-1.0467536449432373 2.69649887084960938 -0.294435620307922363
0.979179799556732178 2.5539546012878418 -0.76163250207901001
1.26363348960876465 2.74686431884765625 -0.351775288581848145
1.59916365146636963 2.91186857223510742 -0.80600285530090332
1.56398630142211914 2.9675755500793457 0.112927556037902832
1.41919183731079102 3.00984001159667969 -0.78998953104019165
-0.521490097045898438 2.42447638511657715 -0.632138848304748535
-0.224273219704627991 3.41867971420288086 0.445515811443328857
-1.93082237243652344 2.92846441268920898 -0.406856000423431396
-0.100147336721420288 2.64915251731872559 0.000712633132934570312
-0.756478428840637207 3.48015856742858887 0.433284878730773926
-0.435264468193054199 2.60517215728759766 -0.629656672477722168
-0.49052882194519043 2.22338652610778809 -0.653238058090209961
1.57237279415130615 2.8003849983215332 -0.579406499862670898
0.187749683856964111 2.71995639801025391 -0.654136896133422852
1.61860060691833496 2.98940467834472656 -0.77832186222076416
-0.199483722448348999 2.67446160316467285 -0.102743327617645264
0.194909840822219849 3.84600472450256348 1.32611119747161865
-0.501183629035949707 2.4382178783416748 -0.619555056095123291
-1.68458974361419678 4.22834205627441406 0.559593081474304199
