ply
format ascii 1.0
element vertex 256
comment vertices
property float x
property float y
property float z
end_header
0.0812653154134750366 2.55387520790100098 -0.467691183090209961
-3.27356505393981934 6.8822627067565918 2.72907471656799316
-0.236508786678314209 4.08265590667724609 2.74124646186828613
-1.8602374792098999 5.44749355316162109 -0.45656391978263855
1.94131124019622803 1.55305755138397217 -0.342659056186676025
-1.84406816959381104 3.14606165885925293 -0.598923683166503906
-3.16666221618652344 5.02843999862670898 0.905097007751464844
-0.0798757895827293396 3.89263272285461426 -0.666065335273742676
-0.921370327472686768 6.35659170150756836 0.480840712785720825
1.59744811058044434 2.28539657592773438 -0.687805712223052979
-0.585058808326721191 5.08230733871459961 -0.433291316032409668
-1.35161471366882324 5.11878108978271484 3.09199047088623047
0.711610794067382812 2.57216048240661621 -0.0903153717517852783
-0.981697142124176025 2.86215543746948242 -0.646142005920410156
-0.104460835456848145 1.30245113372802734 -0.827167987823486328
-3.80925083160400391 4.76262617111206055 -0.235746294260025024
0.0742374733090400696 2.54604840278625488 -0.459425389766693115
-2.0758965015411377 6.32389259338378906 1.57515871524810791
-0.628833770751953125 3.7340998649597168 -0.285482078790664673
0.0899987965822219849 2.50336337089538574 -0.411089628934860229
-1.26672244071960449 4.55932140350341797 0.0880949497222900391
0.0625199154019355774 2.55697059631347656 -0.420520007610321045
0.0649723559617996216 2.52411150932312012 -0.51233285665512085
0.0050315558910369873 2.5194542407989502 -0.379445761442184448
-1.80500125885009766 3.13514232635498047 -0.603409051895141602
-0.544830024242401123 4.33764934539794922 -0.59891277551651001
-2.50619864463806152 5.30548906326293945 1.18139934539794922
-1.15312886238098145 5.63429880142211914 -0.348760068416595459
-1.10558700561523438 5.35824012756347656 0.953254103660583496
1.09085094928741455 3.57183122634887695 0.961960792541503906
-2.4403526782989502 4.83257007598876953 -0.00721801584586501122
-2.65257811546325684 4.58503484725952148 -0.329538285732269287
-0.603715479373931885 2.35018157958984375 -0.617971837520599365
0.481663823127746582 3.51317691802978516 2.39678621292114258
-0.795620739459991455 5.36483621597290039 1.81197857856750488
-0.565409958362579346 2.78001809120178223 -0.356030404567718506
0.0450428426265716553 2.5370638370513916 -0.430731087923049927
-2.14325714111328125 5.27624416351318359 -0.380037963390350342
-1.75706183910369873 3.25837349891662598 -0.592922985553741455
1.63184225559234619 2.10236430168151855 -0.630400538444519043
0.0755215063691139221 2.54745578765869141 -0.451674938201904297
-2.62330460548400879 5.49298810958862305 4.2491912841796875
0.0732654035091400146 2.5534358024597168 -0.44684174656867981
-1.83421087265014648 3.12131667137145996 -0.586585700511932373
-1.31664085388183594 6.28084897994995117 -0.329101383686065674
0.534121513366699219 3.27612996101379395 -0.0314496755599975586
0.0300670117139816284 2.63439536094665527 -0.266863018274307251
0.0570689886808395386 2.55750060081481934 -0.517059624195098877
-2.56714391708374023 5.27348804473876953 0.449547052383422852
-3.45192694664001465 3.64627718925476074 -0.185113817453384399
1.15224087238311768 0.306900739669799805 -0.594910085201263428
-0.691058456897735596 5.2986297607421875 -0.187690138816833496
-1.94961285591125488 5.41284751892089844 3.19455313682556152
-2.16431260108947754 5.69639110565185547 1.05426990985870361
0.0480139106512069702 2.57062435150146484 -0.470852911472320557
0.00147461891174316406 3.82648897171020508 -0.44226527214050293
0.0635783076286315918 2.55087041854858398 -0.479906857013702393
-0.924617290496826172 3.31118083000183105 -0.593408405780792236
0.0819095522165298462 2.49904704093933105 -0.315022557973861694
0.0623757988214492798 2.60506892204284668 -0.405269891023635864
0.0463328957557678223 2.53975319862365723 -0.420290499925613403
-2.18632912635803223 6.5272831916809082 1.70660996437072754
0.54849618673324585 3.83703804016113281 1.73325026035308838
-1.82083821296691895 3.12933969497680664 -0.600870132446289062
-0.417501270771026611 4.22611522674560547 -0.692839920520782471
-0.973125159740447998 5.01219558715820312 1.11416029930114746
0.589325010776519775 3.80083465576171875 -0.56611400842666626
0.0659128949046134949 2.55394887924194336 -0.466948181390762329
0.070367179811000824 2.54459095001220703 -0.464009672403335571
-0.910925984382629395 4.48107433319091797 -0.626416802406311035
-0.371484577655792236 3.47281289100646973 -0.442980349063873291
-2.68642950057983398 4.45810031890869141 -0.0565952993929386139
0.014554142951965332 1.8343813419342041 -0.641004085540771484
0.0417157560586929321 2.5691993236541748 -0.455940574407577515
-1.37508738040924072 1.20932543277740479 -0.546034872531890869
0.0568921454250812531 2.58171343803405762 -0.555144190788269043
0.0562953054904937744 2.51190471649169922 -0.311762183904647827
-0.904531955718994141 3.78207826614379883 -0.718710780143737793
0.575270295143127441 3.39322090148925781 0.253734856843948364
0.0642004907131195068 2.56610393524169922 -0.43753698468208313
-0.204321682453155518 2.68446707725524902 -0.317306667566299438
0.0607010573148727417 2.54439663887023926 -0.432554662227630615
-1.98703348636627197 4.92489528656005859 -0.415988117456436157
-2.60951781272888184 4.44390153884887695 -0.292967855930328369
0.0746584385633468628 2.55839133262634277 -0.485661178827285767
0.827155172824859619 2.42122650146484375 -0.0642514228820800781
-0.124739766120910645 4.95107460021972656 -0.587749123573303223
-1.79736769199371338 3.14977741241455078 -0.601778566837310791
-3.42505764961242676 5.41780233383178711 -0.230825021862983704
1.58473992347717285 2.27555346488952637 -0.659733951091766357
-0.728632211685180664 2.29166340827941895 -0.432496607303619385
-2.57990360260009766 4.9463658332824707 0.728146374225616455
0.0526821017265319824 2.56229329109191895 -0.452203243970870972
0.0722036659717559814 2.57567358016967773 -0.499253779649734497
1.77887344360351562 3.22300553321838379 0.563453733921051025
1.57543110847473145 2.2667241096496582 -0.629703879356384277
-1.13947820663452148 5.80651569366455078 1.69934630393981934
0.0776892527937889099 2.55067205429077148 -0.486291706562042236
-0.199962735176086426 2.83741474151611328 -0.442447513341903687
-1.25662398338317871 3.33839607238769531 -0.449407577514648438
1.69548940658569336 2.15335392951965332 -0.606651723384857178
-2.56383204460144043 4.51120758056640625 -0.298568665981292725
-1.84582281112670898 3.11320161819458008 -0.618905484676361084
0.389050126075744629 3.36302447319030762 -0.160980939865112305
0.0729532390832901001 2.55002665519714355 -0.445552676916122437
-2.53709793090820312 4.97562456130981445 0.0434630140662193298
-0.164896488189697266 3.90129518508911133 0.481896042823791504
-0.398621141910552979 3.05918049812316895 -0.199916064739227295
-0.652713656425476074 3.2901153564453125 -0.282508790493011475
-1.91225194931030273 6.71328496932983398 1.71984481811523438
-2.78128767013549805 6.12953615188598633 3.5180814266204834
0.0419284403324127197 2.5617673397064209 -0.480508089065551758
-2.45090723037719727 3.82684516906738281 0.0877621918916702271
0.0292483381927013397 4.25322675704956055 1.79951417446136475
0.453012526035308838 2.30428552627563477 -0.619862854480743408
0.0628266483545303345 2.5532534122467041 -0.473607957363128662
-0.369636237621307373 5.16791391372680664 1.57146000862121582
0.975345492362976074 3.23416352272033691 0.450459659099578857
0.0497411787509918213 2.54500842094421387 -0.457225382328033447
-1.25921845436096191 3.70412349700927734 -0.519602537155151367
-1.81698238849639893 3.13079309463500977 -0.60002511739730835
0.0838644057512283325 2.54236888885498047 -0.263826847076416016
0.0713175982236862183 2.54978442192077637 -0.446831792593002319
0.886155366897583008 1.55370593070983887 -0.574537217617034912
-1.21607303619384766 4.9132695198059082 2.87686252593994141
0.0327014178037643433 2.50136828422546387 -0.196377560496330261
0.0754010602831840515 2.54238247871398926 -0.517980694770812988
-1.22389006614685059 2.26144504547119141 -0.847540855407714844
-0.587148785591125488 3.54521727561950684 -0.347033232450485229
0.0465999282896518707 2.53685903549194336 -0.430006086826324463
-2.51200366020202637 5.11935901641845703 0.0766676738858222961
0.0762742459774017334 2.55026960372924805 -0.490462779998779297
0.0689562857151031494 2.46844100952148438 -0.208125784993171692
-1.5572739839553833 3.71967315673828125 -0.532240808010101318
-1.49552750587463379 5.99552392959594727 0.929531455039978027
-0.00874691084027290344 2.5430142879486084 -0.421283364295959473
1.10359394550323486 2.10135912895202637 -0.109286338090896606
0.135766506195068359 4.29762744903564453 -0.540720939636230469
-1.81314432621002197 3.17297935485839844 -0.584209561347961426
1.61820113658905029 2.29542136192321777 -0.659721970558166504
-2.16178154945373535 4.62993478775024414 0.0711075738072395325
-0.864322662353515625 6.16775894165039062 0.0689992606639862061
-0.718242883682250977 2.42366719245910645 -0.579765021800994873
-0.806137502193450928 3.09794259071350098 -0.070991218090057373
-2.13701701164245605 6.69726896286010742 1.74712753295898438
0.0570399202406406403 2.5496366024017334 -0.465289384126663208
0.0641155317425727844 2.55882024765014648 -0.438042253255844116
1.55382621288299561 2.29515624046325684 -0.667437851428985596
-3.64290857315063477 3.87994289398193359 -0.311389774084091187
0.0691367089748382568 2.54788661003112793 -0.532324671745300293
1.11820268630981445 3.49049830436706543 0.50582575798034668
-0.258814573287963867 3.43039798736572266 -0.465266227722167969
-2.92777729034423828 4.49758625030517578 0.502697587013244629
0.0717180818319320679 2.54759788513183594 -0.427228569984436035
-1.82482004165649414 3.12810111045837402 -0.593547463417053223
0.0694899559020996094 2.55671906471252441 -0.491591095924377441
0.0368008017539978027 2.52924776077270508 -0.407279789447784424
-1.13138771057128906 5.33784341812133789 -0.43545195460319519
-2.29326987266540527 4.01796436309814453 -0.644494950771331787
0.0843162834644317627 2.53791618347167969 -0.502212643623352051
0.0771986022591590881 2.55420041084289551 -0.485957920551300049
-2.36026787757873535 5.56523323059082031 1.23956489562988281
-2.61262893676757812 4.27801752090454102 -0.311092019081115723
-2.58597373962402344 5.32239913940429688 0.617014229297637939
1.27176547050476074 3.36183357238769531 1.00301587581634521
-0.835368573665618896 5.08442258834838867 0.299789935350418091
-1.84427070617675781 3.10950899124145508 -0.600112199783325195
0.0486889965832233429 2.52111625671386719 -0.362208187580108643
0.0216959435492753983 2.56225228309631348 -0.443923234939575195
0.186599284410476685 3.84203457832336426 -0.481118470430374146
-1.84548938274383545 6.06819915771484375 2.60261845588684082
0.779222786426544189 1.88011407852172852 -0.60266578197479248
0.0661202892661094666 2.57927608489990234 -0.523810625076293945
0.0747056752443313599 2.55595278739929199 -0.458837956190109253
1.43052065372467041 1.78580522537231445 -0.372379928827285767
-0.696170270442962646 3.27856063842773438 -0.264262020587921143
0.0739760473370552063 2.54474496841430664 -0.410418868064880371
-3.68969440460205078 4.39540672302246094 -0.263670533895492554
-0.259010165929794312 2.88920807838439941 -0.406443417072296143
0.230320215225219727 3.77293705940246582 0.674240171909332275
-1.09187197685241699 5.22515773773193359 1.04026460647583008
-0.0218850821256637573 2.49160289764404297 -0.487140059471130371
-0.975770652294158936 4.97090816497802734 -0.317565441131591797
1.56674790382385254 2.28472995758056641 -0.713816225528717041
0.0689109265804290771 2.5554044246673584 -0.456232577562332153
-2.47324252128601074 6.96797609329223633 1.93245267868041992
-1.66639363765716553 5.13349199295043945 3.33257722854614258
-0.949798703193664551 4.9390254020690918 1.07442784309387207
-0.00282534956932067871 2.50332021713256836 -0.369768381118774414
-0.317734658718109131 4.14621353149414062 -0.622649848461151123
1.06693458557128906 1.96091377735137939 -0.221976399421691895
0.0748858153820037842 2.55873560905456543 -0.478283345699310303
0.0743957757949829102 2.55624485015869141 -0.463551759719848633
0.554140329360961914 3.70879578590393066 1.8097764253616333
-2.01838445663452148 5.62365388870239258 -0.405838966369628906
-1.08600759506225586 5.51584339141845703 1.76212310791015625
-2.38440203666687012 4.99441337585449219 0.236071676015853882
0.0697298794984817505 2.46165943145751953 -0.346265465021133423
-0.137058019638061523 5.90423727035522461 -0.448504924774169922
0.0675082504749298096 2.5515286922454834 -0.488904744386672974
-2.80109047889709473 5.41314077377319336 -0.204752996563911438
1.12801957130432129 2.88424992561340332 0.463357865810394287
-0.889267921447753906 5.60503339767456055 -0.448423862457275391
0.0481535047292709351 2.54695796966552734 -0.478990793228149414
-0.260165631771087646 2.6378014087677002 -0.315125972032546997
0.0742549002170562744 2.55733036994934082 -0.466370314359664917
0.0719085410237312317 2.55725669860839844 -0.476848632097244263
-0.234871268272399902 3.69283366203308105 0.0528935790061950684
1.6152721643447876 2.29532337188720703 -0.673653781414031982
-2.62535977363586426 5.1339874267578125 0.244803160429000854
-0.184450849890708923 3.2874906063079834 -0.465876519680023193
0.0552693307399749756 2.55264115333557129 -0.473137736320495605
-3.03673410415649414 4.774688720703125 -0.273074150085449219
0.0555017590522766113 2.55083179473876953 -0.511345326900482178
0.183150365948677063 2.57529664039611816 -0.124385267496109009
-1.99192512035369873 5.99399852752685547 1.3891226053237915
0.0639831870794296265 2.5376441478729248 -0.448060184717178345
0.951703786849975586 3.96532106399536133 -0.517148017883300781
0.194778025150299072 4.02422094345092773 0.596695899963378906
-1.80991518497467041 3.14494442939758301 -0.601058602333068848
0.0675205811858177185 2.54715967178344727 -0.431726664304733276
0.0234395116567611694 1.35286879539489746 -0.386495649814605713
-1.53450226783752441 4.46143531799316406 -0.464798033237457275
0.0802857130765914917 2.55432820320129395 -0.489966839551925659
-0.24338260293006897 3.53841996192932129 -0.356878697872161865
-0.462286084890365601 6.22754287719726562 -0.228485226631164551
0.0569899119436740875 2.53541803359985352 -0.284081935882568359
-1.03117942810058594 5.0569758415222168 -0.488362044095993042
0.0414329022169113159 2.52481341361999512 -0.376240521669387817
-0.237973436713218689 2.83754587173461914 -0.276075065135955811
-1.84962153434753418 3.08142209053039551 -0.622622191905975342
-0.722310423851013184 2.66374325752258301 -0.447686910629272461
-1.77997267246246338 5.35645103454589844 -0.545701980590820312
-0.262166976928710938 4.26188182830810547 -0.623252689838409424
-1.67750799655914307 2.6698157787322998 -0.594377815723419189
-0.587921619415283203 4.44681835174560547 2.77038812637329102
0.284850835800170898 2.48692750930786133 -0.239988923072814941
-1.17925930023193359 2.91020488739013672 -0.448363840579986572
-0.0462408848106861115 4.80308246612548828 1.27421033382415771
0.0557577833533287048 2.55033707618713379 -0.479180485010147095
0.959494054317474365 3.26128053665161133 0.03585052490234375
-2.48926210403442383 2.79948520660400391 -0.12249910831451416
-2.00144124031066895 6.22011232376098633 1.49532020092010498
1.5845876932144165 2.27401876449584961 -0.641815185546875
0.0112913250923156738 2.49597883224487305 -0.353463143110275269
0.0720179229974746704 2.55605649948120117 -0.457231372594833374
-1.25718426704406738 5.94546651840209961 1.28406763076782227
0.37031257152557373 2.21843624114990234 -0.739480793476104736
0.0747086554765701294 2.54714798927307129 -0.425202846527099609
-0.736090898513793945 3.56829500198364258 -0.283953368663787842
-0.108156681060791016 3.72852253913879395 -0.533842504024505615
-0.987136781215667725 5.68665981292724609 -0.259906560182571411
-2.27330517768859863 4.80252742767333984 -0.388908803462982178
0.27594989538192749 2.2354896068572998 -0.413012385368347168
0.434582531452178955 2.72227621078491211 -0.111744284629821777
-0.401278853416442871 2.60391092300415039 -0.516939997673034668
