ply
format ascii 1.0
element vertex 256
comment vertices
property float x
property float y
property float z
end_header
-1.40487635135650635 3.22794890403747559 -0.644418835639953613
3.33389711380004883 7.50551939010620117 3.62691330909729004
-1.68207883834838867 7.98009490966796875 3.37286615371704102
2.72802352905273438 4.06870174407958984 0.254090279340744019
1.15111398696899414 3.22156667709350586 -0.834447741508483887
0.601385891437530518 5.81581640243530273 2.03588533401489258
-0.254804015159606934 2.54045486450195312 -0.775385677814483643
-2.73271441459655762 4.46006250381469727 0.81648409366607666
1.21961474418640137 8.45558547973632812 1.95013189315795898
3.27955985069274902 6.14075422286987305 -0.324939191341400146
0.687099874019622803 4.01187276840209961 0.377327263355255127
2.57292771339416504 3.98762702941894531 -0.78264617919921875
-2.47724056243896484 4.18457508087158203 -0.62691795825958252
2.58752036094665527 6.57197904586791992 2.54164361953735352
-0.0573197007179260254 3.56057500839233398 -0.817866683006286621
-0.113220229744911194 7.09530258178710938 2.08436203002929688
-0.777397751808166504 4.61385345458984375 0.780188441276550293
-0.10987921804189682 3.26633930206298828 -0.620891034603118896
-1.16242170333862305 3.50421857833862305 -0.669004678726196289
-1.57718384265899658 6.71276712417602539 2.14426827430725098
1.99216163158416748 3.97343826293945312 -0.502876400947570801
-1.9849083423614502 3.39551782608032227 -0.501201927661895752
0.0951080471277236938 4.84083700180053711 -0.373699545860290527
1.42771494388580322 6.73798942565917969 1.97144341468811035
1.45132768154144287 3.91590452194213867 -0.839767694473266602
1.9332880973815918 4.13594245910644531 0.451754152774810791
-2.83080816268920898 7.53870105743408203 3.36894893646240234
2.41781759262084961 8.46426486968994141 2.1445767879486084
-0.346819877624511719 3.05425620079040527 -0.679243147373199463
1.52657365798950195 5.77014446258544922 2.74936509132385254
-0.24129776656627655 3.21752381324768066 -0.627497076988220215
0.0801066756248474121 3.19704794883728027 -0.477773845195770264
-0.153463393449783325 6.65615224838256836 2.25236630439758301
-0.346470177173614502 3.06293725967407227 -0.644769489765167236
0.582510888576507568 6.5163722038269043 2.0283353328704834
0.307394623756408691 8.10817050933837891 1.98613202571868896
-1.54299759864807129 3.92232227325439453 0.401384890079498291
-0.280488252639770508 3.31148409843444824 -0.520003795623779297
-0.181031942367553711 3.14594817161560059 -0.617952048778533936
-1.78512394428253174 4.06195783615112305 -0.754354596138000488
2.61262273788452148 7.46152687072753906 2.32003617286682129
-0.235825806856155396 2.93587589263916016 -0.355448722839355469
-0.516569197177886963 8.14378452301025391 2.25264644622802734
-1.0719153881072998 6.85950422286987305 2.09453916549682617
-0.202972888946533203 3.1949923038482666 -0.567319095134735107
2.42482805252075195 3.87512326240539551 -0.719009876251220703
-0.154568016529083252 4.31787633895874023 0.59664386510848999
-2.89408159255981445 3.88834190368652344 0.0265700221061706543
2.1882326602935791 2.88455581665039062 -0.869191527366638184
1.60156285762786865 3.74545717239379883 -0.173545718193054199
1.78243780136108398 4.0849146842956543 -0.761642158031463623
0.182716012001037598 3.0436398983001709 -0.773626148700714111
3.45253491401672363 5.32082557678222656 1.38053882122039795
1.45082581043243408 3.95540571212768555 -0.837044835090637207
-1.8265984058380127 4.11045217514038086 -0.785822510719299316
0.0434853285551071167 3.06583929061889648 -0.51075434684753418
-0.64409714937210083 3.26776885986328125 -0.623485028743743896
2.02788782119750977 7.53299522399902344 1.83492684364318848
1.18676412105560303 7.20225048065185547 2.10233545303344727
-1.84741711616516113 7.57815647125244141 3.08019113540649414
-1.36463165283203125 3.9163048267364502 -0.807878613471984863
-1.52149474620819092 3.71445465087890625 -0.215131461620330811
-0.223836436867713928 3.18712162971496582 -0.624381303787231445
2.19956040382385254 3.8384242057800293 -0.529405534267425537
-0.261177420616149902 3.11576414108276367 -0.762182950973510742
1.93194055557250977 3.95946860313415527 -0.75860595703125
-0.432509273290634155 3.1442725658416748 -0.746868371963500977
-2.28129339218139648 3.61579179763793945 -0.0176132917404174805
1.94101738929748535 5.84905004501342773 3.56252574920654297
2.41482996940612793 4.05891323089599609 0.517069220542907715
-2.12862586975097656 4.08997392654418945 -0.609323620796203613
1.12350046634674072 6.31807947158813477 2.10288667678833008
2.12195563316345215 3.94316816329956055 -0.746007621288299561
-1.61847913265228271 3.81426644325256348 -0.606788158416748047
1.1332317590713501 3.98060178756713867 -0.986456871032714844
0.328188925981521606 7.32377910614013672 1.99440610408782959
-0.199140802025794983 3.21800613403320312 -0.568845272064208984
1.92292225360870361 8.43105220794677734 2.00988006591796875
-0.0947717726230621338 3.1123807430267334 -0.545086264610290527
2.25388550758361816 3.79092216491699219 0.0528925061225891113
2.07657599449157715 6.46699619293212891 1.90292453765869141
1.19466280937194824 4.43011236190795898 0.582617521286010742
-0.246071889996528625 8.06100654602050781 1.98695540428161621
-0.354712843894958496 3.15949869155883789 -0.480026215314865112
-1.33355486392974854 7.84275436401367188 2.13291740417480469
-0.180759131908416748 3.2213137149810791 -0.652895152568817139
0.35771477222442627 6.29906129837036133 2.1671295166015625
-1.62960553169250488 3.77966880798339844 -0.224165380001068115
1.07349693775177002 4.13375663757324219 -0.576072812080383301
-0.200294137001037598 3.36384463310241699 -0.614829301834106445
2.29778623580932617 4.17435789108276367 -0.675400197505950928
0.348369479179382324 3.30634117126464844 -0.0982071161270141602
-2.39661931991577148 7.48647880554199219 2.47519421577453613
-0.362123936414718628 3.20325183868408203 -0.637336313724517822
-0.233074367046356201 3.22342419624328613 -0.591031432151794434
-0.177077263593673706 3.36305379867553711 -0.630377650260925293
1.64483606815338135 3.02111315727233887 -0.893556952476501465
-0.80274498462677002 7.41973543167114258 2.15188694000244141
1.07578277587890625 6.18698549270629883 2.26382780075073242
2.03238368034362793 3.8977959156036377 -0.802176952362060547
-0.394276678562164307 6.57198667526245117 2.1223900318145752
1.9743049144744873 3.53325748443603516 -0.170174896717071533
0.376087933778762817 3.20644950866699219 -0.116112947463989258
0.29446721076965332 3.34782505035400391 -0.108450829982757568
0.18060341477394104 3.90277862548828125 -0.809820950031280518
0.979125261306762695 3.9739983081817627 -0.803082942962646484
-0.195379525423049927 3.12882876396179199 -0.625908374786376953
-1.46023225784301758 7.42900371551513672 2.02342486381530762
2.98223495483398438 8.21770954132080078 3.31559085845947266
-0.109378635883331299 3.18307328224182129 -0.697982668876647949
-0.0844706892967224121 3.75005507469177246 0.176844298839569092
-2.25099992752075195 4.46076822280883789 0.7237967848777771
-1.36289525032043457 4.04852581024169922 0.613092958927154541
-0.224373221397399902 2.69455957412719727 -0.818417668342590332
-0.477557122707366943 3.09156394004821777 -0.395648956298828125
1.49316728115081787 7.29334545135498047 1.98335123062133789
-0.218778073787689209 3.204742431640625 -0.622676968574523926
0.993476390838623047 6.62115049362182617 2.01525473594665527
-1.67449712753295898 4.07033205032348633 -0.839148581027984619
-1.81391036510467529 2.81889748573303223 -0.817108273506164551
0.76999509334564209 7.54541206359863281 2.002044677734375
-1.38961219787597656 4.02342033386230469 -0.687120378017425537
-0.247844263911247253 3.2290349006652832 -0.597869336605072021
0.406359255313873291 3.73480772972106934 -0.77447509765625
1.48793888092041016 5.85712003707885742 3.49717950820922852
1.84804332256317139 3.7756803035736084 -0.783710479736328125
1.13929545879364014 4.08072042465209961 -0.337354838848114014
1.3999321460723877 3.83040332794189453 -0.371602684259414673
2.70122432708740234 7.28380060195922852 3.3755497932434082
2.19902801513671875 3.48265624046325684 -0.729964494705200195
2.19974875450134277 3.78779864311218262 -0.763785481452941895
0.15517878532409668 6.13021183013916016 2.20625066757202148
0.503920972347259521 3.9010004997253418 0.326657712459564209
-2.80626869201660156 3.46100735664367676 -0.19787481427192688
1.78199636936187744 6.08071756362915039 1.98832833766937256
-0.0574825704097747803 3.18802356719970703 -0.507841229438781738
-1.01833844184875488 4.11631107330322266 0.190125346183776855
0.215463250875473022 6.79247903823852539 2.11544322967529297
-1.43789923191070557 3.47206449508666992 -0.499608635902404785
-0.150924190878868103 3.36765027046203613 -0.639700055122375488
0.134844943881034851 7.55023670196533203 1.99738264083862305
1.69746756553649902 7.08893632888793945 1.89701366424560547
1.78159153461456299 4.16776132583618164 -0.743318498134613037
1.6653817892074585 4.07492685317993164 0.148750782012939453
-0.204779118299484253 3.17651033401489258 -0.622990250587463379
-0.253368198871612549 3.2555997371673584 -0.637435972690582275
1.05056226253509521 4.03190898895263672 -0.884015440940856934
-1.3905487060546875 3.87181353569030762 -0.643103599548339844
-0.19269898533821106 3.12628316879272461 -0.501311182975769043
-0.621548950672149658 6.2346343994140625 2.06488251686096191
-1.85178041458129883 3.97847127914428711 -0.652751386165618896
-0.922745585441589355 3.40069293975830078 -0.54139244556427002
-0.137961924076080322 3.07133889198303223 -0.458786666393280029
0.642532765865325928 6.24352264404296875 2.06854414939880371
2.79343080520629883 6.68406486511230469 2.83391928672790527
2.12374448776245117 3.77367067337036133 0.00572186708450317383
-0.432600140571594238 2.79800200462341309 -0.688042759895324707
-0.343749254941940308 7.49603414535522461 2.1169884204864502
1.97681760787963867 3.98588967323303223 -0.789247691631317139
2.23439598083496094 7.60512351989746094 2.01104855537414551
0.950916647911071777 3.60050415992736816 -0.759939312934875488
-0.195555269718170166 3.15507793426513672 -0.681348800659179688
2.22298932075500488 3.99539542198181152 -0.789639115333557129
1.38543796539306641 4.02904224395751953 -0.873772859573364258
-1.47733449935913086 3.75705409049987793 -0.771657347679138184
-1.25842857360839844 7.96633291244506836 3.13232088088989258
-0.259166687726974487 3.12303853034973145 -0.747402369976043701
-0.164923667907714844 3.56714296340942383 -0.314444750547409058
-0.769837141036987305 3.08397221565246582 -0.540694832801818848
1.54711353778839111 8.21650886535644531 1.9714207649230957
-2.8603358268737793 4.23442983627319336 0.224012970924377441
1.20774507522583008 3.96429729461669922 0.167207837104797363
-0.0748910903930664062 3.20750141143798828 -0.712052464485168457
0.68644106388092041 6.94057607650756836 2.00561189651489258
1.1870959997177124 4.00338125228881836 -0.819117307662963867
1.88965702056884766 2.99517631530761719 -0.924981117248535156
0.880393445491790771 5.54689168930053711 2.0872647762298584
-1.64634978771209717 3.68577718734741211 -0.742457687854766846
-0.630514800548553467 7.14039373397827148 2.08386778831481934
1.03834307193756104 3.95389342308044434 -0.493895828723907471
-0.246913909912109375 3.0109555721282959 -0.70874178409576416
-0.313862413167953491 4.23620939254760742 0.578705906867980957
2.4612278938293457 3.77692294120788574 0.181216597557067871
-2.06785416603088379 3.98866701126098633 -0.610583662986755371
-0.148450687527656555 3.16544771194458008 -0.698858201503753662
-0.187230587005615234 3.18474006652832031 -0.681556940078735352
-0.276226162910461426 3.20365071296691895 -0.643578052520751953
0.841020345687866211 6.04300785064697266 2.0509951114654541
2.39266490936279297 3.88857126235961914 0.311425983905792236
-1.42626678943634033 3.47504901885986328 -0.492730498313903809
-0.11194649338722229 3.17394733428955078 -0.629220843315124512
-0.194944530725479126 3.32656669616699219 -0.606633245944976807
1.15017306804656982 4.07478427886962891 -0.765694797039031982
-1.3040236234664917 3.9466557502746582 0.279032051563262939
-0.557800471782684326 3.19029808044433594 -0.630106627941131592
1.93440079689025879 3.96381878852844238 -0.803050696849822998
-2.3835604190826416 4.04375314712524414 0.460105240345001221
0.553992092609405518 3.01285219192504883 -0.759653925895690918
-0.500255286693572998 3.09142446517944336 -0.246280968189239502
-0.227235138416290283 3.08939576148986816 -0.680167078971862793
-0.101648613810539246 3.10862827301025391 -0.62502288818359375
2.19494366645812988 3.97343254089355469 -0.534120857715606689
-0.850241243839263916 7.76613950729370117 2.10003876686096191
-1.60888552665710449 3.57726001739501953 -0.234576821327209473
2.4965975284576416 8.41727828979492188 2.90618681907653809
2.0567162036895752 7.11712074279785156 1.89937174320220947
-2.12881803512573242 4.14972066879272461 -0.627595305442810059
1.07356607913970947 7.794586181640625 1.94235432147979736
-0.996484518051147461 3.13174104690551758 -0.712337017059326172
-1.98378252983093262 4.06044578552246094 -0.738746285438537598
-0.359934955835342407 3.20923900604248047 -0.623739242553710938
-2.0193932056427002 3.89973282814025879 -0.559554517269134521
-0.126977205276489258 3.27925825119018555 -0.54211127758026123
-0.166966140270233154 3.12643003463745117 -0.577198028564453125
2.13618922233581543 3.90876913070678711 -0.160428404808044434
1.14935839176177979 4.0222468376159668 -0.575856208801269531
2.07367515563964844 3.99997067451477051 -0.462817788124084473
-1.54073894023895264 8.11449813842773438 2.26484155654907227
-0.329911410808563232 3.05515384674072266 -0.475820720195770264
2.24194622039794922 3.74225807189941406 -0.695525467395782471
-1.61964809894561768 4.06282806396484375 -0.71127694845199585
-1.39603805541992188 6.88979053497314453 2.07598495483398438
1.44985055923461914 3.91140484809875488 -0.809166312217712402
-1.69270896911621094 3.47796940803527832 -0.587751984596252441
2.07451868057250977 3.59667134284973145 -0.788918197154998779
0.394495397806167603 7.69136762619018555 1.98657631874084473
-0.35685420036315918 3.10634207725524902 -0.507049083709716797
-1.85512840747833252 4.36814451217651367 0.774208188056945801
-0.160249590873718262 3.2360069751739502 -0.625853836536407471
1.41333270072937012 6.44225931167602539 1.9607388973236084
0.839625716209411621 8.04839801788330078 1.97833704948425293
0.33810049295425415 4.39087152481079102 0.608390331268310547
0.185031458735466003 3.20253133773803711 -0.389842689037322998
2.62750864028930664 4.26437616348266602 0.414798080921173096
-1.93002772331237793 4.13959074020385742 -0.795354008674621582
0.342489302158355713 3.41310405731201172 -0.487204194068908691
-0.303993940353393555 3.23836541175842285 -0.54122459888458252
-1.80258488655090332 4.02174234390258789 0.35099261999130249
-0.105839788913726807 3.21296143531799316 -0.640727043151855469
0.3067818284034729 4.0159001350402832 -0.830990850925445557
0.523721456527709961 3.53065633773803711 0.129989922046661377
-0.0230020582675933838 3.16161012649536133 -0.421237587928771973
0.283599555492401123 6.25478267669677734 1.98480725288391113
-0.186097949743270874 3.32866692543029785 -0.644378304481506348
-0.203544557094573975 3.11104345321655273 -0.660689473152160645
0.996853232383728027 4.10646390914916992 -0.799003958702087402
-0.221544116735458374 3.2490687370300293 -0.601823151111602783
1.84698724746704102 6.6973576545715332 1.99055814743041992
0.694967210292816162 4.00470924377441406 0.0518037080764770508
0.0439075678586959839 7.32243680953979492 2.14743208885192871
1.61431467533111572 8.63421726226806641 2.26490116119384766
2.76980352401733398 8.25667381286621094 2.10525727272033691
-2.49776530265808105 3.74347066879272461 0.025681912899017334
-0.248078525066375732 3.1740422248840332 -0.63707202672958374
0.82590949535369873 4.41056060791015625 0.5775565505027771
-0.0906038284301757812 3.2882227897644043 -0.622513890266418457
