ply
format ascii 1.0
element vertex 17
comment vertices
property float x
property float y
property float z
end_header
1.18612635135650635 3.86958122253417969 -0.632132351398468018
1.17641317844390869 3.93630647659301758 -0.621338427066802979
2.43637394905090332 4.91871786117553711 -0.856140732765197754
1.24067866802215576 3.95048880577087402 -0.518373429775238037
1.13152110576629639 3.88532090187072754 -0.668782234191894531
1.16458427906036377 3.97529745101928711 -0.464884430170059204
1.18964922428131104 3.94690442085266113 -0.473768323659896851
1.20600259304046631 3.89098882675170898 -0.547915637493133545
1.18385457992553711 3.93992137908935547 -0.543481171131134033
2.3665306568145752 4.92540454864501953 -0.659849643707275391
1.18697869777679443 3.91783571243286133 -0.554147958755493164
0.96026688814163208 3.31791949272155762 -0.67416834831237793
1.00378227233886719 3.56023550033569336 -0.639864027500152588
1.22995924949645996 3.9062507152557373 -0.626048505306243896
2.44368076324462891 4.92896890640258789 -0.830644667148590088
1.23496294021606445 3.84135961532592773 -0.661426842212677002
1.27885949611663818 3.90732955932617188 -0.579295158386230469
