ply
format ascii 1.0
element vertex 87
comment vertices
property float x
property float y
property float z
end_header
0.294832915067672729 2.50962543487548828 -0.487050116062164307
0.299593180418014526 2.51755142211914062 -0.462213039398193359
0.312211334705352783 2.51169180870056152 -0.420526564121246338
-1.5462493896484375 3.20090222358703613 -0.501044690608978271
0.297001838684082031 2.51117229461669922 -0.477404981851577759
1.52290356159210205 3.27858209609985352 -0.744426429271697998
0.327947825193405151 2.48781013488769531 -0.4732532799243927
0.298571020364761353 2.50689697265625 -0.430323123931884766
0.330026149749755859 2.52809429168701172 -0.471489280462265015
0.299774199724197388 2.52659130096435547 -0.496445298194885254
0.311553269624710083 2.5147850513458252 -0.422822266817092896
0.386133104562759399 2.51508355140686035 -0.382749557495117188
0.299788981676101685 2.48979973793029785 -0.472962617874145508
0.299903452396392822 2.50727534294128418 -0.497174978256225586
0.302942335605621338 2.51296639442443848 -0.468086183071136475
0.300055712461471558 2.51468300819396973 -0.520810782909393311
0.301396191120147705 2.49172568321228027 -0.459709197282791138
0.292659640312194824 2.50637483596801758 -0.515696406364440918
0.305012673139572144 2.50970196723937988 -0.457222878932952881
0.294496476650238037 2.50611639022827148 -0.457168161869049072
0.310126066207885742 2.51497316360473633 -0.489752590656280518
0.317147374153137207 2.51644992828369141 -0.441538512706756592
0.277781963348388672 2.49903273582458496 -0.335253268480300903
0.316241234540939331 2.52643561363220215 -0.442498952150344849
0.322174370288848877 2.4943385124206543 -0.478132456541061401
0.3012886643409729 2.51492929458618164 -0.479873746633529663
0.292252659797668457 2.49768710136413574 -0.50241386890411377
0.309914946556091309 2.48988151550292969 -0.529520153999328613
0.34621584415435791 2.49010181427001953 -0.331089675426483154
0.32552570104598999 2.52727222442626953 -0.472444236278533936
0.310176253318786621 2.50875973701477051 -0.386532336473464966
0.324400663375854492 2.48376655578613281 -0.481907546520233154
0.328511059284210205 2.50738334655761719 -0.47216525673866272
0.305195242166519165 2.51583027839660645 -0.494440287351608276
0.318897783756256104 2.52370381355285645 -0.422479510307312012
0.318618506193161011 2.51285576820373535 -0.366961956024169922
0.326753407716751099 2.42174935340881348 -0.265481412410736084
0.325000941753387451 2.52618718147277832 -0.470883041620254517
0.313626378774642944 2.5172119140625 -0.461010962724685669
0.316514462232589722 2.52082991600036621 -0.431981950998306274
0.313265442848205566 2.51560592651367188 -0.475206941366195679
0.289472758769989014 2.50539541244506836 -0.485542833805084229
0.299143284559249878 2.50840163230895996 -0.426187753677368164
0.313474386930465698 2.52196502685546875 -0.431920439004898071
0.296879053115844727 2.49664473533630371 -0.495539814233779907
0.303432673215866089 2.52104735374450684 -0.468423038721084595
0.300442934036254883 2.51057147979736328 -0.457594096660614014
0.313076168298721313 2.52804899215698242 -0.378246724605560303
0.327513456344604492 2.52605724334716797 -0.468246221542358398
0.312908411026000977 2.5400998592376709 -0.422260105609893799
0.299156993627548218 2.5051577091217041 -0.470199495553970337
0.318309694528579712 2.51715683937072754 -0.417806267738342285
0.3358345627784729 2.50144720077514648 -0.477412045001983643
0.313139736652374268 2.5236210823059082 -0.447546571493148804
0.307766348123550415 2.49633216857910156 -0.497351735830307007
0.309310495853424072 2.50949501991271973 -0.394384682178497314
0.316736757755279541 2.51760458946228027 -0.451979160308837891
0.323230177164077759 2.51575136184692383 -0.364745885133743286
0.300501585006713867 2.51147222518920898 -0.488310754299163818
0.298441171646118164 2.51783990859985352 -0.485152304172515869
0.312155038118362427 2.52127552032470703 -0.471831679344177246
0.298234492540359497 2.51303434371948242 -0.46386834979057312
0.296727269887924194 2.50968170166015625 -0.433472752571105957
0.30526396632194519 2.5254518985748291 -0.487143337726593018
0.315348058938980103 2.5205385684967041 -0.449007242918014526
-0.556128978729248047 2.62064623832702637 -0.689502954483032227
0.298481404781341553 2.51111412048339844 -0.460738837718963623
0.292803823947906494 2.49738669395446777 -0.494940429925918579
0.3191109299659729 2.52980828285217285 -0.446962505578994751
0.304243236780166626 2.51869487762451172 -0.453705698251724243
0.354170739650726318 2.48718070983886719 -0.50296860933303833
0.318404346704483032 2.52411746978759766 -0.456882774829864502
0.294071793556213379 2.50303816795349121 -0.466412186622619629
0.311296284198760986 2.46307015419006348 -0.435133606195449829
0.320377528667449951 2.50078940391540527 -0.470603466033935547
0.318451762199401855 2.50456404685974121 -0.487763851881027222
0.313025146722793579 2.51947474479675293 -0.455323576927185059
0.329778850078582764 2.46342253684997559 -0.295356035232543945
0.298517107963562012 2.50785636901855469 -0.487779587507247925
0.302792966365814209 2.52150154113769531 -0.464827954769134521
0.313794851303100586 2.50921511650085449 -0.392400979995727539
0.305417239665985107 2.48647880554199219 -0.521125316619873047
0.298221319913864136 2.51192402839660645 -0.470681250095367432
-1.42514848709106445 3.299896240234375 -0.51611936092376709
0.317613720893859863 2.52118945121765137 -0.441051334142684937
0.317027509212493896 2.51663088798522949 -0.378524065017700195
0.310036808252334595 2.51695084571838379 -0.45069354772567749
