ply
format ascii 1.0
element vertex 21
comment vertices
property float x
property float y
property float z
end_header
-1.01121950149536133 1.86501574516296387 -0.0852789878845214844
1.21920526027679443 3.9634253978729248 -0.404666334390640259
2.44014644622802734 4.89078664779663086 -0.832572996616363525
1.18048584461212158 3.99354887008666992 -0.460586011409759521
-1.15127182006835938 2.024688720703125 0.141512751579284668
-1.07818782329559326 1.69689404964447021 -0.203039586544036865
0.902898192405700684 4.04600191116333008 -0.512285828590393066
1.15081250667572021 4.0713353157043457 -0.457559823989868164
0.962495982646942139 4.00286769866943359 -0.479452908039093018
1.01566565036773682 4.05042505264282227 -0.499134451150894165
1.26391720771789551 3.98980307579040527 -0.409071087837219238
0.982528388500213623 4.05106115341186523 -0.391657024621963501
-0.949835658073425293 1.96953713893890381 0.042757771909236908
2.46833324432373047 4.89543342590332031 -0.71181023120880127
1.11805129051208496 4.0373539924621582 -0.373658537864685059
1.15890157222747803 4.01942300796508789 -0.417061030864715576
2.35180425643920898 4.89119815826416016 -0.68939518928527832
1.01959586143493652 4.10885095596313477 -0.344439059495925903
1.16845941543579102 4.13127756118774414 -0.348011791706085205
-1.02146542072296143 1.8697131872177124 -0.133688151836395264
1.0612257719039917 4.12215852737426758 -0.344030410051345825
