ply
format ascii 1.0
element vertex 100
comment vertices
property float x
property float y
property float z
end_header
1.03273165225982666 3.39530754089355469 -0.53421175479888916
0.879534244537353516 3.30741715431213379 -0.664156556129455566
0.957094311714172363 3.36731171607971191 -0.605839192867279053
-0.893030881881713867 3.68811345100402832 -0.624502837657928467
0.968140602111816406 3.37441277503967285 -0.587464392185211182
0.893386900424957275 3.15686869621276855 -0.325048863887786865
0.924194097518920898 3.31797075271606445 -0.461500048637390137
0.950859427452087402 3.34685444831848145 -0.538793206214904785
-0.922794163227081299 3.68108510971069336 -0.667083024978637695
0.948799967765808105 3.34920763969421387 -0.530046045780181885
0.946200251579284668 3.33348846435546875 -0.425735890865325928
0.963762462139129639 3.34123539924621582 -0.63161015510559082
0.97164762020111084 3.3740851879119873 -0.587222695350646973
0.959156394004821777 3.37497687339782715 -0.51916205883026123
0.970695853233337402 3.3542783260345459 -0.548788189888000488
0.959779858589172363 3.39142417907714844 -0.554169893264770508
0.950015068054199219 3.3441004753112793 -0.553484797477722168
-0.809793829917907715 3.72395968437194824 -0.622866392135620117
0.927038490772247314 3.19848418235778809 -0.269992351531982422
0.952277243137359619 3.38179588317871094 -0.535762667655944824
0.93001401424407959 3.33589863777160645 -0.514941751956939697
-0.836526453495025635 3.68381738662719727 -0.494445383548736572
-1.00868427753448486 3.67758059501647949 -0.627846598625183105
0.967286348342895508 3.25960969924926758 -0.626866996288299561
1.91387128829956055 4.5608067512512207 -0.760914087295532227
0.970136046409606934 3.39031791687011719 -0.552133142948150635
0.957512974739074707 3.36318826675415039 -0.528092920780181885
1.87706124782562256 4.56049966812133789 -0.638754785060882568
-0.837964951992034912 3.72500801086425781 -0.701102197170257568
0.915988683700561523 3.33424925804138184 -0.553633749485015869
0.973011791706085205 3.36710810661315918 -0.63667595386505127
0.901035726070404053 3.24472522735595703 -0.348235517740249634
0.948268651962280273 3.34798073768615723 -0.527912795543670654
0.9467926025390625 3.35408926010131836 -0.554354310035705566
0.978021502494812012 3.34281444549560547 -0.516599357128143311
-0.823488414287567139 3.6288142204284668 -0.421915739774703979
-1.2162402868270874 3.56369113922119141 -0.617253661155700684
-1.16589260101318359 3.6261746883392334 -0.584118187427520752
0.965982735157012939 3.36992454528808594 -0.537069559097290039
0.960396051406860352 3.36582159996032715 -0.558982372283935547
-1.03800249099731445 3.6522364616394043 -0.65857398509979248
0.891155600547790527 3.37197303771972656 -0.483719557523727417
0.970492839813232422 3.3862156867980957 -0.584762871265411377
0.933572232723236084 3.3140406608581543 -0.618597030639648438
0.976968705654144287 3.37855982780456543 -0.491513669490814209
1.68986296653747559 4.65263271331787109 -0.75458371639251709
0.958387196063995361 3.38850498199462891 -0.5557212233543396
0.918162822723388672 3.33942222595214844 -0.620358407497406006
0.94721609354019165 3.35423469543457031 -0.553069114685058594
0.944435060024261475 3.31509232521057129 -0.626249074935913086
0.918648421764373779 3.33199119567871094 -0.524836301803588867
0.96636587381362915 3.35247611999511719 -0.563503026962280273
0.900865137577056885 3.32816219329833984 -0.566384255886077881
0.947703361511230469 3.35296988487243652 -0.53789365291595459
0.952417671680450439 3.34003925323486328 -0.548611581325531006
0.964155435562133789 3.37109947204589844 -0.450407654047012329
0.950564742088317871 3.37725567817687988 -0.551592409610748291
0.936766564846038818 3.3187863826751709 -0.519050240516662598
-0.850812554359436035 3.72620058059692383 -0.655869364738464355
-0.918777108192443848 3.71032094955444336 -0.670396268367767334
0.958553969860076904 3.38926815986633301 -0.569326341152191162
-0.806027650833129883 3.66037964820861816 -0.514868795871734619
0.95284956693649292 3.35358691215515137 -0.531534969806671143
-0.989689648151397705 3.67094779014587402 -0.642781436443328857
-0.994757592678070068 3.6719667911529541 -0.583846986293792725
1.92298293113708496 4.56854009628295898 -0.708068966865539551
0.947266101837158203 3.35392642021179199 -0.549428224563598633
-0.861675024032592773 3.66433548927307129 -0.365926444530487061
-0.88613361120223999 3.66649484634399414 -0.670533120632171631
-0.800933778285980225 3.68992352485656738 -0.644105494022369385
0.967193782329559326 3.35588479042053223 -0.552198469638824463
-0.909590244293212891 3.66759443283081055 -0.616429269313812256
-0.705032944679260254 3.74381566047668457 -0.72578275203704834
0.975044488906860352 3.37384152412414551 -0.484610259532928467
0.873574256896972656 3.24905014038085938 -0.387219250202178955
-0.819809496402740479 3.71617937088012695 -0.628612279891967773
0.812149882316589355 3.3067469596862793 -0.582286953926086426
-1.1753699779510498 3.6330878734588623 -0.570058107376098633
-0.814256429672241211 3.6583869457244873 -0.571643054485321045
0.951799869537353516 3.35134720802307129 -0.534989893436431885
0.973578035831451416 3.36603999137878418 -0.574152350425720215
-1.0384061336517334 3.67585372924804688 -0.643192768096923828
-0.884912669658660889 3.6857907772064209 -0.578200876712799072
0.959051191806793213 3.38901233673095703 -0.559346139430999756
0.965271592140197754 3.38451671600341797 -0.573974668979644775
0.950922071933746338 3.3448641300201416 -0.543843626976013184
-1.10461938381195068 3.64216518402099609 -0.602807521820068359
-0.915335297584533691 3.67053103446960449 -0.675316691398620605
0.971285820007324219 3.36653971672058105 -0.624961495399475098
0.951220154762268066 3.34057736396789551 -0.55187380313873291
0.949567556381225586 3.37813711166381836 -0.583944320678710938
0.950490474700927734 3.3859868049621582 -0.586919248104095459
0.9614449143409729 3.33707571029663086 -0.65213245153427124
0.957367360591888428 3.36514163017272949 -0.482009798288345337
0.94624483585357666 3.35383200645446777 -0.544044971466064453
0.923877596855163574 3.31568050384521484 -0.579921245574951172
0.913986444473266602 3.31331491470336914 -0.611292183399200439
-1.14414322376251221 3.64013457298278809 -0.637305676937103271
0.944520175457000732 3.37284708023071289 -0.515610098838806152
0.968895077705383301 3.34542417526245117 -0.509328842163085938
