ply
format ascii 1.0
element vertex 256
comment vertices
property float x
property float y
property float z
end_header
-0.244926393032073975 3.09906172752380371 0.0344864130020141602
2.64801740646362305 5.98638534545898438 4.16084575653076172
2.69190645217895508 3.47815656661987305 -0.897803068161010742
0.591910243034362793 2.35328102111816406 -0.454088300466537476
1.66246712207794189 3.7307429313659668 0.530726373195648193
-1.66521120071411133 2.17895245552062988 -0.688926041126251221
0.355548292398452759 2.53904318809509277 -0.490316867828369141
-2.39663290977478027 3.09873652458190918 -0.552691161632537842
-0.0548698902130126953 2.99145030975341797 -0.486254274845123291
1.26865303516387939 6.67151355743408203 3.92774057388305664
0.242092907428741455 2.6099398136138916 -0.45701444149017334
0.451528251171112061 3.2320704460144043 0.562406718730926514
2.27394819259643555 3.59498310089111328 -0.349569737911224365
-1.83089995384216309 2.82147455215454102 0.270596444606781006
-0.283486843109130859 1.1414954662322998 -0.700259089469909668
1.32669925689697266 2.29637670516967773 -0.190766632556915283
0.287198573350906372 2.55846405029296875 -0.370047897100448608
-1.44947910308837891 3.16058349609375 -0.405544906854629517
0.336042940616607666 2.53234982490539551 -0.476844578981399536
-1.2619701623916626 2.73640871047973633 -0.690936684608459473
1.59129321575164795 3.26291179656982422 -0.69576650857925415
0.262735724449157715 2.3566594123840332 -0.494608521461486816
0.36083531379699707 2.47366189956665039 -0.411207735538482666
-0.809623837471008301 4.05028581619262695 0.175269931554794312
2.42443966865539551 3.17054319381713867 -0.0377455949783325195
0.255084514617919922 2.47272348403930664 -0.491741299629211426
-0.198627352714538574 3.4397280216217041 0.602717161178588867
1.01752078533172607 2.30229067802429199 -0.415222644805908203
0.628476500511169434 2.32851815223693848 -0.0285531282424926758
1.6901928186416626 3.21718192100524902 -0.50602877140045166
-0.291066855192184448 2.46396541595458984 -0.282488495111465454
1.50693249702453613 3.38900136947631836 -0.237054288387298584
1.24850082397460938 3.38535690307617188 0.608793079853057861
-1.3323138952255249 3.54274630546569824 0.591677725315093994
-0.656700193881988525 2.67287254333496094 -0.705649018287658691
0.247139215469360352 2.64953231811523438 -0.512512445449829102
-1.83611428737640381 3.04311919212341309 -0.62425696849822998
-2.03049802780151367 3.51482677459716797 -0.113939225673675537
0.273744642734527588 2.5223696231842041 -0.386680334806442261
0.463416069746017456 2.30373048782348633 -0.0651413202285766602
0.532298624515533447 2.52949976921081543 -0.33510318398475647
0.249382302165031433 1.64974498748779297 -0.574597656726837158
0.419120430946350098 2.44352006912231445 -0.468245089054107666
0.329120755195617676 2.47763299942016602 -0.514902770519256592
0.305574476718902588 2.53394389152526855 -0.46453896164894104
1.90226590633392334 2.84478425979614258 0.0467541813850402832
0.270154684782028198 2.6361842155456543 -0.543685972690582275
-0.0537923574447631836 2.56945967674255371 -0.469836920499801636
-0.168262183666229248 2.60357975959777832 -0.359413087368011475
0.328050076961517334 3.04001379013061523 0.316591441631317139
-1.17706429958343506 2.57975482940673828 -0.155065536499023438
2.10474681854248047 3.70644855499267578 -0.598865807056427002
0.383169591426849365 2.4118809700012207 -0.455943465232849121
1.81009125709533691 3.07499980926513672 -0.561548531055450439
-0.877002954483032227 3.49758362770080566 0.621048390865325928
-1.48132884502410889 2.44733428955078125 -0.709120512008666992
0.334831953048706055 2.54834651947021484 -0.535333752632141113
0.822735071182250977 2.83271574974060059 0.271293401718139648
-1.57793378829956055 2.08616018295288086 -0.577843666076660156
-1.44026994705200195 3.24619412422180176 0.454033792018890381
0.483180224895477295 2.30071663856506348 -0.302545934915542603
-0.621773362159729004 2.94059443473815918 -0.517506718635559082
-0.381670176982879639 2.42562031745910645 -0.631041765213012695
0.311246722936630249 2.56121993064880371 -0.433277815580368042
1.60351693630218506 3.30839848518371582 0.193506956100463867
0.397547334432601929 2.50111651420593262 -0.44737774133682251
0.263574987649917603 2.58787775039672852 -0.500533461570739746
1.60099434852600098 3.04789018630981445 -0.210999608039855957
-1.16516613960266113 2.98626708984375 -0.314006149768829346
-1.23398780822753906 2.92644309997558594 -0.533211946487426758
0.301531732082366943 2.44193601608276367 -0.438504636287689209
0.186448097229003906 2.42193984985351562 -0.259673058986663818
-0.597277164459228516 3.28454017639160156 0.172263860702514648
-0.3197212815284729 2.83049631118774414 -0.572541356086730957
1.62968945503234863 3.20223283767700195 -0.226037085056304932
2.08333134651184082 3.67244672775268555 0.364075720310211182
1.08585703372955322 2.6674647331237793 -0.487377822399139404
-0.121523261070251465 2.90830445289611816 -0.372060447931289673
0.230907797813415527 2.5064544677734375 -0.450998872518539429
0.314386248588562012 2.37350654602050781 -0.502298951148986816
0.61794888973236084 2.32301592826843262 -0.231938302516937256
-1.49977827072143555 3.28740811347961426 0.189860522747039795
0.30337601900100708 2.64288234710693359 -0.458091884851455688
0.0593951940536499023 3.09684038162231445 0.234360396862030029
0.399220466613769531 2.49903321266174316 -0.511744379997253418
1.50077342987060547 3.24280905723571777 -0.459930956363677979
2.28324055671691895 3.76228880882263184 -0.620560884475708008
0.449684441089630127 2.47381305694580078 -0.550659775733947754
2.49923038482666016 3.32922458648681641 -0.343475103378295898
-0.913951992988586426 2.96517419815063477 -0.661980330944061279
0.394782006740570068 2.39730644226074219 -0.236329227685928345
0.266837149858474731 2.48596882820129395 -0.490648388862609863
1.2436835765838623 3.03303408622741699 -0.638554215431213379
1.52062833309173584 3.37648177146911621 -0.355845510959625244
0.349059522151947021 2.54852199554443359 -0.317018359899520874
0.445709943771362305 2.37814044952392578 -0.479159414768218994
1.63437628746032715 2.81505203247070312 -0.5396575927734375
-1.723183274269104 3.17609286308288574 -0.426434934139251709
0.594198644161224365 3.57287502288818359 0.545025885105133057
1.42804265022277832 3.33907556533813477 0.575933575630187988
-1.2951500415802002 2.73754358291625977 -0.640363812446594238
0.115401051938533783 3.31556510925292969 0.571625769138336182
-0.457651436328887939 2.23394918441772461 -0.650061726570129395
0.236967921257019043 2.39721202850341797 -0.499212205410003662
1.51412606239318848 2.54068493843078613 0.15406876802444458
0.290918409824371338 2.61065125465393066 -0.501706838607788086
0.218234390020370483 2.45858502388000488 -0.430975973606109619
-1.05796349048614502 3.67482233047485352 -0.162745118141174316
-0.217113897204399109 1.21185100078582764 -0.667499899864196777
1.62016975879669189 3.24546933174133301 0.0512076616287231445
0.546833932399749756 1.9515528678894043 -0.576027989387512207
1.44745814800262451 3.2372288703918457 -0.597747445106506348
0.28290906548500061 2.4746851921081543 -0.294295847415924072
-0.917397916316986084 1.91690564155578613 -0.61623990535736084
0.353766351938247681 2.4200739860534668 -0.188410401344299316
0.264961719512939453 2.49439811706542969 -0.48727831244468689
0.249110132455825806 2.60776209831237793 -0.452568143606185913
0.282009899616241455 2.46269607543945312 -0.425352185964584351
-0.913356900215148926 2.52371788024902344 -0.689651906490325928
0.50956273078918457 2.5975651741027832 0.017851412296295166
0.380118668079376221 2.28129363059997559 -0.473676115274429321
0.264138907194137573 2.57563447952270508 -0.479247450828552246
0.895413219928741455 2.45708823204040527 0.169319987297058105
1.94211983680725098 3.41317391395568848 -0.504641532897949219
1.72994744777679443 3.4933772087097168 0.369993269443511963
-0.897036910057067871 2.97285556793212891 0.382847428321838379
0.355949729681015015 2.51856589317321777 -0.491713613271713257
-1.73608803749084473 2.94087743759155273 0.147339165210723877
-0.961125314235687256 3.81496858596801758 -0.0178631246089935303
-1.25420296192169189 2.88648438453674316 -0.495652168989181519
2.41541218757629395 3.31020092964172363 -0.190062224864959717
0.349037408828735352 2.47533226013183594 -0.405197769403457642
0.733257055282592773 2.40654563903808594 -0.0439274907112121582
1.57265913486480713 3.4033973217010498 -0.28447258472442627
0.22505614161491394 2.54860377311706543 -0.424544006586074829
2.24181771278381348 3.34156250953674316 0.0813345909118652344
0.372861742973327637 2.44783425331115723 -0.50523221492767334
0.278767645359039307 2.64161062240600586 -0.44000321626663208
0.357367396354675293 2.55091643333435059 -0.433497220277786255
-0.920486807823181152 2.76773262023925781 -0.367185920476913452
0.144506573677062988 2.53217959403991699 -0.323597252368927002
-2.15925788879394531 3.49976325035095215 -0.402217864990234375
-0.424339115619659424 2.88993692398071289 -0.652798891067504883
0.241334766149520874 2.50566387176513672 -0.483968913555145264
-0.700419068336486816 2.73953962326049805 -0.248587608337402344
0.547626495361328125 2.80582070350646973 0.238589107990264893
0.338512122631072998 2.37584400177001953 -0.13570702075958252
2.11512231826782227 3.5697321891784668 -0.498032748699188232
-0.981418251991271973 3.16052341461181641 0.234362781047821045
-2.41632890701293945 3.0776362419128418 -0.556305944919586182
0.396443098783493042 1.76671195030212402 -0.604363679885864258
-1.08194255828857422 2.6459808349609375 -0.690983414649963379
-0.875096678733825684 3.20300102233886719 -0.576491653919219971
-0.3982810378074646 3.26358890533447266 0.56391376256942749
0.239910125732421875 2.65300989151000977 -0.388528943061828613
-1.25951206684112549 2.92462635040283203 -0.585466623306274414
0.325945109128952026 2.26472640037536621 -0.4605216383934021
0.340439707040786743 2.45911288261413574 -0.472249448299407959
1.16609275341033936 2.97724056243896484 0.351014256477355957
-1.7046133279800415 2.53764104843139648 -0.779545068740844727
-0.607215344905853271 3.00519084930419922 0.0256340503692626953
-1.81510519981384277 3.06653070449829102 0.308657407760620117
0.290154606103897095 2.43868637084960938 -0.405672222375869751
0.971503198146820068 2.33412885665893555 -0.349951356649398804
0.484845846891403198 2.50375699996948242 -0.470692962408065796
1.95148801803588867 3.37653255462646484 0.260476768016815186
2.33458781242370605 3.49076032638549805 -0.600728929042816162
0.210414007306098938 2.56362199783325195 -0.449084222316741943
1.73272621631622314 3.55964279174804688 -0.528662323951721191
1.95152711868286133 3.13145303726196289 -0.0917040109634399414
0.358923584222793579 2.40885329246520996 -0.512219727039337158
1.35268282890319824 2.29878091812133789 -0.295425206422805786
0.347286373376846313 2.54007816314697266 -0.331451117992401123
-1.07237303256988525 3.62845444679260254 0.267200231552124023
0.601121902465820312 2.38722944259643555 -0.280660152435302734
-0.335993558168411255 3.15269136428833008 0.34388655424118042
-0.0301088690757751465 2.50432324409484863 -0.481899023056030273
2.30396318435668945 3.47672510147094727 -0.264174014329910278
0.300501912832260132 2.44841957092285156 -0.452836692333221436
0.322601467370986938 2.46658849716186523 -0.276848167181015015
0.615854203701019287 3.07878756523132324 0.471379399299621582
1.5548936128616333 6.4564814567565918 4.09005355834960938
0.314367473125457764 2.53989648818969727 -0.495725303888320923
-0.851193606853485107 2.39803838729858398 -0.29408910870552063
-0.505507946014404297 3.09809684753417969 -0.0484176874160766602
0.296803176403045654 2.65026235580444336 -0.471268385648727417
0.665382444858551025 2.36954498291015625 0.0303263664245605469
-0.684480011463165283 2.31139993667602539 -0.676942706108093262
0.288618087768554688 2.4938359260559082 -0.480823040008544922
1.47581243515014648 2.42208576202392578 -0.23699498176574707
-1.94169044494628906 3.43876194953918457 0.43559873104095459
1.89621639251708984 2.67080521583557129 0.0850493907928466797
1.54894793033599854 3.33796119689941406 0.0424349308013916016
-1.00283432006835938 2.60141825675964355 -0.700699806213378906
0.333365142345428467 2.52099061012268066 -0.457005679607391357
1.47927248477935791 3.40741229057312012 0.433450460433959961
0.370850026607513428 2.50201010704040527 -0.410034298896789551
1.5344998836517334 3.32027745246887207 -0.32700502872467041
-1.50969088077545166 2.03214836120605469 -0.726135373115539551
-1.22406041622161865 3.18305230140686035 0.489456295967102051
0.294666528701782227 2.64875316619873047 -0.492745071649551392
0.266192585229873657 2.50408267974853516 -0.445563256740570068
0.0478299856185913086 3.18687629699707031 0.482245743274688721
1.66538679599761963 3.14783692359924316 -0.597231507301330566
1.91627299785614014 2.715911865234375 0.016157686710357666
0.218882143497467041 2.07358503341674805 -0.425235748291015625
-1.26693940162658691 3.34031891822814941 -0.236668527126312256
0.414701700210571289 2.55968856811523438 -0.43774762749671936
-1.12873339653015137 3.36445450782775879 0.508624911308288574
1.83869326114654541 2.79591631889343262 -0.302632004022598267
0.400821447372436523 2.49204301834106445 -0.50041574239730835
0.198026776313781738 2.488677978515625 -0.462220430374145508
0.241607740521430969 2.58691549301147461 -0.450286984443664551
-0.977105498313903809 3.11779546737670898 0.375336050987243652
0.514397144317626953 2.47678327560424805 -0.506440162658691406
1.0796428918838501 2.26562118530273438 -0.25283735990524292
-0.77739185094833374 3.03537464141845703 -0.454803049564361572
0.219433903694152832 2.45023584365844727 -0.481319725513458252
0.402600020170211792 2.49585747718811035 -0.459584176540374756
0.280471861362457275 2.2768256664276123 -0.429628908634185791
0.460841864347457886 2.50102424621582031 -0.460335612297058105
0.428883761167526245 2.61141395568847656 -0.477017253637313843
-0.508422195911407471 2.55548644065856934 -0.61758124828338623
2.42468523979187012 3.60691666603088379 -0.734937548637390137
-0.0637469440698623657 1.41692018508911133 -0.666780829429626465
-1.44628643989562988 2.39321398735046387 -0.728878617286682129
0.273772448301315308 2.50846505165100098 -0.453484535217285156
2.03244829177856445 3.72107219696044922 1.03175067901611328
-1.44791591167449951 2.32786798477172852 -0.730251491069793701
-0.590153932571411133 3.0929877758026123 -0.471879303455352783
-1.71764540672302246 3.53000879287719727 0.0283974409103393555
-0.201517626643180847 1.25459349155426025 -0.622993290424346924
-0.647642612457275391 2.56553053855895996 -0.444467514753341675
0.306531727313995361 2.38974547386169434 -0.224848479032516479
0.336938709020614624 2.57349705696105957 -0.488385379314422607
0.00459182262420654297 2.34854817390441895 -0.521588504314422607
0.0824721232056617737 3.2954409122467041 0.652616262435913086
0.701894164085388184 2.77498006820678711 0.351995527744293213
1.34383523464202881 2.71471118927001953 -0.497101515531539917
0.217683464288711548 2.6041414737701416 -0.465460121631622314
0.639701485633850098 2.28080320358276367 -0.108489692211151123
0.32020103931427002 2.5548095703125 -0.324094027280807495
0.401391923427581787 2.40936732292175293 -0.541130542755126953
0.32949453592300415 2.52810215950012207 -0.466697484254837036
1.82342469692230225 3.20873928070068359 -0.521770477294921875
-1.4302065372467041 3.38329267501831055 -0.392632454633712769
0.249531984329223633 2.51762938499450684 -0.434118539094924927
-1.0325702428817749 3.9301762580871582 0.130102783441543579
-0.176290214061737061 2.72034740447998047 -0.431555569171905518
1.59848856925964355 3.34722137451171875 0.282525956630706787
1.6529998779296875 3.23406529426574707 -0.434235483407974243
-0.0667058229446411133 2.46933174133300781 -0.339761614799499512
2.53102493286132812 3.24187207221984863 -0.243490368127822876
0.351275354623794556 2.42847299575805664 -0.340881079435348511
0.258206069469451904 2.60896611213684082 -0.41668429970741272
0.348834127187728882 2.33542609214782715 -0.11024320125579834
