ply
format ascii 1.0
element vertex 240
comment vertices
property float x
property float y
property float z
end_header
0.1424570232629776 2.13801431655883789 0.0835351347923278809
-4.12704181671142578 7.41105508804321289 -4.03311777114868164
-2.33004212379455566 8.22639751434326172 3.25115084648132324
-2.58868408203125 4.32012653350830078 -0.552295386791229248
-0.424412548542022705 0.0441461801528930664 -0.468937516212463379
2.1461327075958252 7.02589702606201172 3.80219793319702148
1.53611183166503906 2.40319132804870605 -0.750780045986175537
0.112040907144546509 5.22708034515380859 2.02803635597229004
-0.892878055572509766 5.35972213745117188 -0.0877170413732528687
-0.997853279113769531 2.70074892044067383 0.184393376111984253
0.477080166339874268 8.03320884704589844 3.17175698280334473
0.233745217323303223 3.33349108695983887 -0.501157104969024658
-1.98090469837188721 4.50530433654785156 1.20765256881713867
-0.667721927165985107 3.57137203216552734 -0.691486477851867676
1.64134860038757324 2.29539227485656738 -0.425310194492340088
0.650404572486877441 5.78391599655151367 0.975196182727813721
-1.2973334789276123 3.41581320762634277 1.5208430290222168
0.919092178344726562 4.40420007705688477 -0.484056174755096436
1.45126771926879883 5.62772083282470703 2.08872175216674805
-1.20340466499328613 6.18236541748046875 1.75853395462036133
-1.38546192646026611 4.41435813903808594 -0.554721474647521973
1.87284564971923828 4.78841304779052734 1.50126242637634277
0.227419599890708923 3.33605098724365234 -0.509963154792785645
1.4633793830871582 2.99820590019226074 0.76412731409072876
-0.893673241138458252 5.15830802917480469 1.24249851703643799
0.239781767129898071 3.29737520217895508 -0.477633357048034668
0.241289496421813965 3.32843351364135742 -0.449813187122344971
0.174799010157585144 3.34638404846191406 3.98889493942260742
0.458616167306900024 5.66105985641479492 1.90022695064544678
0.63395392894744873 4.94609260559082031 -0.302903443574905396
0.316111326217651367 2.97043657302856445 -0.649043798446655273
-1.57689046859741211 2.7129368782043457 -0.740181684494018555
1.87377715110778809 7.90737819671630859 2.01850390434265137
-1.74056243896484375 4.49304723739624023 -0.735981583595275879
1.23385000228881836 3.00652241706848145 -0.615545451641082764
-1.61220216751098633 2.9214637279510498 -0.514671862125396729
-2.16000676155090332 4.68393516540527344 0.148890674114227295
-0.825001776218414307 2.91735434532165527 -0.365842640399932861
0.0222260039299726486 4.72753429412841797 -0.223674565553665161
1.72190380096435547 2.12264895439147949 -0.673500895500183105
0.236258849501609802 3.34257411956787109 -0.590923786163330078
2.87670707702636719 6.65163087844848633 3.5725705623626709
1.13344097137451172 3.05432248115539551 -0.286056935787200928
0.951701819896697998 3.47440505027770996 2.46366691589355469
-0.925487816333770752 5.2777094841003418 -0.216663837432861328
0.234992936253547668 3.32997560501098633 -0.531394302845001221
-1.75825750827789307 4.27930784225463867 -0.593377351760864258
0.447926878929138184 5.65889644622802734 2.1826939582824707
0.713776886463165283 4.69472408294677734 0.940095186233520508
-1.5891650915145874 5.92181682586669922 1.83210885524749756
0.252649247646331787 3.35152029991149902 -0.480540007352828979
-0.454906642436981201 5.45674037933349609 0.797949552536010742
-1.06880056858062744 6.23205661773681641 2.24450993537902832
-0.686492681503295898 0.88493502140045166 -0.161286324262619019
0.241073697805404663 3.32314968109130859 -0.575392663478851318
-1.1706768274307251 4.70073890686035156 -0.680340588092803955
0.241336211562156677 3.3481903076171875 -0.587780892848968506
0.226679444313049316 3.33089542388916016 -0.478249222040176392
0.490803390741348267 3.51778221130371094 1.70872402191162109
0.223186999559402466 3.33153319358825684 -0.499078869819641113
-0.705435872077941895 4.83728981018066406 -0.320584923028945923
-0.396764397621154785 6.68797731399536133 2.01790618896484375
0.251588761806488037 3.3314979076385498 -0.365036606788635254
1.1487281322479248 6.45360374450683594 1.93682551383972168
1.67723536491394043 2.13325357437133789 -0.588034570217132568
0.225991830229759216 3.33502459526062012 -0.489508271217346191
-2.15903973579406738 7.09073257446289062 2.30864453315734863
-2.25365257263183594 2.62734031677246094 -0.138412892818450928
-1.45437812805175781 4.66844415664672852 1.11167240142822266
-0.0894925743341445923 5.27115154266357422 -0.274731278419494629
-1.57976078987121582 1.39009439945220947 -0.737552940845489502
-1.89058125019073486 4.89300203323364258 -0.399342983961105347
-0.965487182140350342 4.542205810546875 1.75133538246154785
0.255093961954116821 3.33493256568908691 -0.490980952978134155
-0.435073494911193848 5.33942508697509766 0.20659850537776947
-0.185975462198257446 5.53481578826904297 1.30307459831237793
-0.874429583549499512 3.41095137596130371 -0.359160482883453369
2.40740656852722168 -1.0359501838684082 -0.733333170413970947
-2.00581717491149902 2.03390693664550781 -0.69494938850402832
-0.628139495849609375 5.61187839508056641 1.99502825736999512
-2.64251565933227539 4.45954370498657227 -0.184378683567047119
0.227239936590194702 5.13383674621582031 0.488702297210693359
0.314374297857284546 3.28601670265197754 -0.618490636348724365
0.68490135669708252 4.30738496780395508 1.35535967350006104
-0.317217081785202026 8.57237339019775391 2.77943563461303711
0.238146185874938965 3.32251763343811035 -0.530969738960266113
-0.738030672073364258 0.957493364810943604 -0.681179523468017578
0.301791936159133911 3.13962602615356445 0.39286881685256958
2.1043083667755127 2.61517190933227539 -0.546488285064697266
1.02009952068328857 5.78744411468505859 3.2365872859954834
-1.99247217178344727 2.47446727752685547 -0.730895340442657471
0.0493710190057754517 4.48190021514892578 -0.445838660001754761
0.839730739593505859 5.34002113342285156 1.94714844226837158
0.251562178134918213 3.33078598976135254 -0.529179692268371582
0.245600327849388123 3.32823538780212402 -0.494851499795913696
-1.2072073221206665 4.18076086044311523 -0.741715312004089355
-0.363944172859191895 3.26638102531433105 -0.0323714017868041992
0.231698334217071533 6.11856269836425781 1.88612961769104004
-1.92097187042236328 5.03471183776855469 -0.531245589256286621
0.253203034400939941 3.30853533744812012 -0.569977283477783203
0.234484732151031494 3.34546899795532227 -0.573345303535461426
0.246501535177230835 5.65854406356811523 2.12090444564819336
0.239408671855926514 3.37120199203491211 -0.477450191974639893
1.30445218086242676 5.04455947875976562 1.95085287094116211
-2.11657500267028809 4.67674350738525391 0.0114065855741500854
-0.445656508207321167 0.829521536827087402 -0.17147374153137207
0.964471817016601562 3.98969221115112305 0.0979484021663665771
-1.40636909008026123 4.49217510223388672 -0.616952836513519287
0.253267079591751099 3.33893656730651855 -0.497170776128768921
-1.35456311702728271 8.3121490478515625 2.15086698532104492
-1.72910559177398682 2.8137364387512207 -0.438350409269332886
-1.30969917774200439 4.17631673812866211 0.131818771362304688
0.236413463950157166 3.32275724411010742 -0.475493729114532471
-0.411727786064147949 4.40950107574462891 -0.572670936584472656
0.78235548734664917 3.77251601219177246 3.078704833984375
0.242134317755699158 3.32551240921020508 -0.494402199983596802
-0.447707533836364746 5.40813302993774414 -0.122166447341442108
-0.253689736127853394 4.65602922439575195 -0.397242099046707153
-1.26855230331420898 5.67831039428710938 2.12925243377685547
-0.864192187786102295 5.26135492324829102 0.247519999742507935
-2.2521970272064209 4.66934776306152344 -0.0971155539155006409
0.219159588217735291 3.33542108535766602 -0.507549524307250977
1.03941166400909424 5.00767183303833008 -0.622783184051513672
0.248572677373886108 3.33483242988586426 -0.557277500629425049
1.14782500267028809 3.30458903312683105 1.14650499820709229
1.72647356986999512 2.03682565689086914 0.0215205848217010498
1.03171622753143311 6.94904518127441406 2.07192754745483398
-1.86398017406463623 4.05108880996704102 -0.760893881320953369
1.0280226469039917 7.67362356185913086 3.54781222343444824
0.249385863542556763 3.34471750259399414 -0.59511411190032959
-0.106755271553993225 5.98060703277587891 1.87291908264160156
1.90672338008880615 2.7436060905456543 -0.732363522052764893
0.811683535575866699 2.87647604942321777 -0.313489735126495361
-1.5536949634552002 4.33601570129394531 -0.563472270965576172
0.241753935813903809 3.33808088302612305 -0.555128633975982666
0.194159343838691711 4.69742298126220703 1.84960377216339111
-0.602171599864959717 5.23756122589111328 1.26506996154785156
0.746624648571014404 4.01680517196655273 1.20295405387878418
-1.30481934547424316 4.63039064407348633 -0.608303189277648926
0.243721261620521545 3.33561444282531738 -0.556613385677337646
1.74145221710205078 1.46660327911376953 -0.399838268756866455
0.252352923154830933 3.33264589309692383 -0.49706682562828064
-0.449180841445922852 0.913397908210754395 -0.205318927764892578
0.216003656387329102 6.22003984451293945 1.00113010406494141
0.234585210680961609 3.32418537139892578 -0.510477125644683838
-2.62049603462219238 6.87248516082763672 2.07098007202148438
0.683347761631011963 4.96600818634033203 1.88129234313964844
0.634075343608856201 4.48763656616210938 -0.465270191431045532
0.551530897617340088 5.2987217903137207 1.34452378749847412
0.00667822360992431641 3.79952859878540039 0.49941718578338623
0.278656631708145142 3.30523061752319336 -0.359504103660583496
2.49719071388244629 7.28703069686889648 3.07119154930114746
0.226608991622924805 3.33872556686401367 -0.588128507137298584
2.6382756233215332 2.28874492645263672 -0.69425731897354126
1.04040670394897461 5.93485641479492188 1.81099092960357666
0.174637258052825928 6.29455089569091797 1.89034008979797363
-1.41198253631591797 4.53678560256958008 -0.702862322330474854
0.244190871715545654 3.3368074893951416 -0.482470005750656128
0.0269349515438079834 2.94442391395568848 -0.719682097434997559
0.247402071952819824 3.34926414489746094 -0.529304683208465576
0.110316917300224304 4.87551355361938477 -0.207556501030921936
-1.80554461479187012 4.38760757446289062 0.199921190738677979
-1.8251265287399292 3.167755126953125 -0.709065437316894531
-2.54256606101989746 5.17442131042480469 1.83437418937683105
0.242998331785202026 3.32281088829040527 -0.494113534688949585
-1.22567892074584961 4.68425083160400391 -0.268991917371749878
-0.861999630928039551 5.37401533126831055 0.170350804924964905
0.245901510119438171 3.34417128562927246 -0.50998687744140625
0.245802581310272217 3.3527977466583252 -0.496491044759750366
-1.56474745273590088 6.86415624618530273 2.19441890716552734
-0.876206636428833008 5.27569341659545898 -0.156835407018661499
-1.21222913265228271 2.98736333847045898 -0.694776654243469238
0.230294257402420044 3.3309786319732666 -0.560513138771057129
0.231626510620117188 3.34170079231262207 -0.530350744724273682
0.473982751369476318 7.06856346130371094 2.09655451774597168
-0.548190832138061523 5.48609304428100586 0.0746185779571533203
0.195062115788459778 3.05584526062011719 -0.515755116939544678
0.251271694898605347 3.33581328392028809 -0.493259996175765991
-0.384285032749176025 2.85386371612548828 1.44714391231536865
1.8440021276473999 2.1727592945098877 -0.629649102687835693
2.48475909233093262 6.05624485015869141 1.69562292098999023
-2.13842678070068359 4.71088981628417969 0.0284450501203536987
1.06646966934204102 3.59080886840820312 -0.161773115396499634
-0.186873137950897217 5.4896855354309082 0.932120084762573242
2.30819344520568848 3.68508791923522949 -0.459478825330734253
-0.728417634963989258 5.62294387817382812 1.91019701957702637
0.220667198300361633 3.34139442443847656 -0.502390861511230469
-0.397122383117675781 3.34450531005859375 -0.653401613235473633
0.16961178183555603 4.11134719848632812 -0.439642906188964844
0.626484155654907227 4.87200450897216797 1.54723334312438965
0.244497552514076233 3.34760332107543945 -0.530895054340362549
-1.22165536880493164 5.25350141525268555 -0.418217003345489502
0.423165351152420044 4.39252948760986328 1.83034586906433105
-0.702874720096588135 5.29819297790527344 0.616858243942260742
0.184095412492752075 4.88381719589233398 -0.003353118896484375
-0.713061153888702393 6.62873697280883789 1.92831599712371826
0.225470259785652161 3.33871722221374512 -0.505313575267791748
0.24531148374080658 3.32983636856079102 -0.50449293851852417
-1.59727048873901367 3.63642454147338867 -0.334521472454071045
-1.21926641464233398 6.60899114608764648 2.37621808052062988
0.238742098212242126 3.33898615837097168 -0.526225566864013672
-0.551282942295074463 4.21613454818725586 1.67911553382873535
-0.490843355655670166 0.896431267261505127 -0.193853616714477539
2.3846895694732666 1.5933537483215332 0.0228666067123413086
0.225940436124801636 3.20157933235168457 -0.083894684910774231
0.246922582387924194 3.18856906890869141 -0.459557950496673584
0.734133124351501465 8.02685356140136719 2.13726520538330078
1.13866031169891357 3.94218683242797852 -0.159982651472091675
-0.162126556038856506 5.1697845458984375 1.99302947521209717
-1.11757993698120117 4.92330265045166016 1.18345236778259277
0.299338698387145996 5.38607978820800781 1.88746368885040283
0.383300513029098511 5.70692014694213867 2.15427207946777344
-1.68825614452362061 4.60384654998779297 -0.52500450611114502
-1.73120629787445068 4.53895378112792969 1.23787927627563477
-0.820335209369659424 5.39417695999145508 -0.0653629302978515625
-0.460857689380645752 3.0074310302734375 -0.646372795104980469
0.09409332275390625 3.60215187072753906 -0.334410041570663452
0.374534547328948975 5.09903955459594727 2.02885937690734863
1.00096893310546875 1.42955684661865234 -0.446689218282699585
-1.5329587459564209 5.78672599792480469 2.01253533363342285
0.245874091982841492 3.32510924339294434 -0.482762694358825684
-0.743772387504577637 4.01158523559570312 -0.675494372844696045
0.0503119230270385742 6.17222881317138672 1.85884952545166016
-1.53502213954925537 4.20523262023925781 -0.738798320293426514
0.880899727344512939 4.71093273162841797 0.205147773027420044
-1.45004439353942871 4.46025323867797852 -0.570557117462158203
-1.54687416553497314 2.76901960372924805 -0.67110055685043335
0.812993288040161133 3.97937798500061035 1.70407938957214355
0.966651618480682373 3.66065716743469238 1.29785430431365967
0.242463350296020508 3.33589649200439453 -0.477065026760101318
0.0704888999462127686 4.88390970230102539 -0.440036535263061523
0.714140176773071289 5.20530939102172852 1.86151266098022461
0.944977104663848877 1.369637131690979 -0.453206568956375122
-1.4177166223526001 1.98553097248077393 -0.44566836953163147
-0.431921660900115967 5.97092771530151367 1.8644871711730957
-1.83320069313049316 3.00260257720947266 -0.471343487501144409
1.38967013359069824 5.75574398040771484 1.63542211055755615
1.45602405071258545 5.512176513671875 1.79201185703277588
-0.909131288528442383 6.23733997344970703 2.18153667449951172
-0.0363761186599731445 4.89639377593994141 -0.573031902313232422
