ply
format ascii 1.0
element vertex 78
comment vertices
property float x
property float y
property float z
end_header
-0.180659323930740356 3.19755649566650391 -0.629056036472320557
-0.220980122685432434 3.17128896713256836 -0.643406510353088379
-0.209035292267799377 3.18939685821533203 -0.614552438259124756
-0.105099186301231384 3.17853808403015137 -0.553741991519927979
-0.217290282249450684 3.17815351486206055 -0.612498223781585693
-0.198396801948547363 3.22397255897521973 -0.546790599822998047
-0.199768900871276855 3.18262910842895508 -0.609804093837738037
-1.73300206661224365 4.08866262435913086 -0.822239696979522705
-0.218368545174598694 3.05897378921508789 -0.375358760356903076
-0.19825136661529541 3.18312525749206543 -0.584268867969512939
-0.0275430232286453247 3.06769275665283203 -0.70287621021270752
-1.77101683616638184 4.08919811248779297 -0.856706798076629639
-0.135826185345649719 3.14267992973327637 -0.541304230690002441
-0.516820549964904785 3.22219347953796387 -0.612136483192443848
-1.47267580032348633 3.99894142150878906 -0.792173027992248535
-0.206907987594604492 3.1919245719909668 -0.611370086669921875
-0.208599865436553955 3.19827127456665039 -0.707725048065185547
-0.266730964183807373 3.18533778190612793 -0.684370160102844238
1.16056942939758301 3.9917445182800293 -0.977772235870361328
-0.191846206784248352 3.19063067436218262 -0.584496021270751953
-0.186619341373443604 3.1755983829498291 -0.575006544589996338
-0.215910241007804871 3.18588423728942871 -0.523825585842132568
-0.213043838739395142 3.18996620178222656 -0.630061209201812744
1.15548884868621826 4.06938076019287109 -0.697719454765319824
-0.201903387904167175 3.21931743621826172 -0.615842044353485107
-0.201144471764564514 3.19151544570922852 -0.611957192420959473
-0.208894282579421997 3.18699955940246582 -0.596710860729217529
-0.187956154346466064 3.2295687198638916 -0.6340484619140625
1.14128947257995605 4.03593349456787109 -0.92914879322052002
-0.198964983224868774 3.1833345890045166 -0.611548423767089844
-0.190063849091529846 3.18453001976013184 -0.668937146663665771
-0.346731066703796387 3.15213346481323242 -0.469387471675872803
-0.20941413938999176 3.18915772438049316 -0.612723290920257568
-1.62894153594970703 4.05961704254150391 -0.827629268169403076
-1.4330751895904541 4.03327798843383789 -0.759051859378814697
-0.209400981664657593 3.18775057792663574 -0.599675595760345459
-0.175403684377670288 3.18622708320617676 -0.533444225788116455
-0.180661588907241821 3.22784423828125 -0.626389086246490479
-0.201851770281791687 3.1833033561706543 -0.613549768924713135
-0.214196443557739258 3.18257713317871094 -0.621979057788848877
1.17127454280853271 4.01826238632202148 -0.95262444019317627
-1.48832178115844727 3.98906087875366211 -0.730685889720916748
-0.191087812185287476 3.18730664253234863 -0.541237175464630127
-0.192943647503852844 3.17796778678894043 -0.513893723487854004
-0.209295168519020081 3.18800616264343262 -0.641133368015289307
1.22962772846221924 3.98763728141784668 -0.948858201503753662
-0.208107516169548035 3.18674421310424805 -0.684640109539031982
-0.715233981609344482 3.0660698413848877 -0.606884241104125977
-0.199134990572929382 3.1956641674041748 -0.683927595615386963
1.16612076759338379 4.0063328742980957 -0.930210649967193604
-0.215049326419830322 3.1519322395324707 -0.667467355728149414
-0.202966943383216858 3.17864894866943359 -0.664478480815887451
-0.211865067481994629 3.18821978569030762 -0.64176023006439209
-0.204682186245918274 3.19489908218383789 -0.618114471435546875
-0.1898183673620224 3.18752789497375488 -0.624110996723175049
-0.19413149356842041 3.20800399780273438 -0.611246764659881592
1.16744589805603027 4.0158085823059082 -0.880673587322235107
-0.372949689626693726 3.17545175552368164 -0.605721175670623779
-0.428936123847961426 3.04633188247680664 -0.342094749212265015
-0.201807230710983276 3.18547177314758301 -0.642508149147033691
-0.190114706754684448 3.1789553165435791 -0.618912398815155029
-0.201044157147407532 3.19081544876098633 -0.604371488094329834
-0.175645798444747925 3.20011520385742188 -0.556092143058776855
-0.187971025705337524 3.19056534767150879 -0.585141599178314209
1.16185116767883301 4.05789661407470703 -0.695436716079711914
-0.206036776304244995 3.17569422721862793 -0.499637007713317871
-1.57012784481048584 4.09054756164550781 -0.792953372001647949
-0.213393658399581909 3.18181324005126953 -0.527094900608062744
-0.191523358225822449 3.18951725959777832 -0.622261583805084229
-0.212071001529693604 3.18800759315490723 -0.569183826446533203
-0.181861802935600281 3.1918938159942627 -0.638268470764160156
-0.18051011860370636 3.18137264251708984 -0.508616030216217041
-0.196517497301101685 3.20550131797790527 -0.631591320037841797
-0.200067028403282166 3.18136930465698242 -0.630584120750427246
1.14645111560821533 4.02304840087890625 -0.896848440170288086
-0.212715506553649902 3.18359470367431641 -0.60590749979019165
-0.203659951686859131 3.19521164894104004 -0.615021705627441406
-0.178140923380851746 3.19710993766784668 -0.635124564170837402
