ply
format ascii 1.0
element vertex 84
comment vertices
property float x
property float y
property float z
end_header
-0.551442205905914307 2.53169369697570801 -0.551498532295227051
-0.630587339401245117 2.55690264701843262 -0.587890326976776123
-0.519883394241333008 2.47570991516113281 -0.601598203182220459
-0.564677774906158447 2.50508022308349609 -0.488598227500915527
-0.518272280693054199 2.51677727699279785 -0.589421749114990234
1.28577256202697754 2.922821044921875 -0.776662290096282959
-0.522054374217987061 2.5090484619140625 -0.58301931619644165
-0.526709616184234619 2.44674539566040039 -0.568441033363342285
1.36987876892089844 2.98164129257202148 -0.832364439964294434
-0.549398124217987061 2.57259368896484375 -0.576561093330383301
-0.518644213676452637 2.5031578540802002 -0.567580640316009521
-0.526220619678497314 2.47747898101806641 -0.596060752868652344
-0.548723995685577393 2.55105996131896973 -0.58236241340637207
-0.546176016330718994 2.58124518394470215 -0.591696202754974365
-0.533181071281433105 2.42949724197387695 -0.576396465301513672
1.26078391075134277 2.95040345191955566 -0.885680079460144043
-0.521744668483734131 2.50190138816833496 -0.574717938899993896
-0.539777278900146484 2.42149782180786133 -0.543713867664337158
-0.58301246166229248 2.54944849014282227 -0.61410832405090332
-0.482479721307754517 2.52871799468994141 -0.558683156967163086
-0.553992569446563721 2.53778839111328125 -0.565931499004364014
-0.54726111888885498 2.56177616119384766 -0.607564926147460938
-0.570065498352050781 2.51789736747741699 -0.531889498233795166
1.28847289085388184 2.95227169990539551 -0.782432734966278076
-0.547637879848480225 2.55513358116149902 -0.592509031295776367
-0.550036489963531494 2.54993367195129395 -0.575477540493011475
1.28210043907165527 2.94933557510375977 -0.882742643356323242
-0.555164694786071777 2.55481195449829102 -0.591290056705474854
1.27151250839233398 2.92233800888061523 -0.812352240085601807
-0.557635247707366943 2.55154967308044434 -0.54462897777557373
-0.521439790725708008 2.48918533325195312 -0.579859614372253418
-0.522296607494354248 2.52529335021972656 -0.62519603967666626
-0.616868376731872559 2.49472522735595703 -0.494504541158676147
1.25892043113708496 2.96042609214782715 -0.865439951419830322
-0.59891819953918457 2.57864999771118164 -0.564450681209564209
-0.556389212608337402 2.51998686790466309 -0.525507211685180664
-0.519580245018005371 2.54185676574707031 -0.595152318477630615
1.26458120346069336 2.95845723152160645 -0.878589928150177002
-0.551421940326690674 2.54249978065490723 -0.580439090728759766
-0.513267874717712402 2.46847677230834961 -0.555258572101593018
1.37403202056884766 2.89784717559814453 -0.778232812881469727
-0.564141511917114258 2.52349185943603516 -0.520936489105224609
-0.559074878692626953 2.53019046783447266 -0.595183253288269043
-0.554665505886077881 2.52210545539855957 -0.532128095626831055
-0.561158359050750732 2.54494333267211914 -0.544580280780792236
-0.521863818168640137 2.46395111083984375 -0.552337527275085449
-0.498411118984222412 2.48317217826843262 -0.573850870132446289
1.39787757396697998 2.95409297943115234 -0.855556249618530273
-0.551873445510864258 2.56422305107116699 -0.558695673942565918
-0.522245585918426514 2.5053868293762207 -0.583234310150146484
-0.555655419826507568 2.55845355987548828 -0.58033829927444458
-0.556102275848388672 2.53200125694274902 -0.534894466400146484
1.27687180042266846 2.95156049728393555 -0.87097620964050293
1.2644730806350708 2.94261503219604492 -0.883146703243255615
-0.474646627902984619 2.46724867820739746 -0.608893871307373047
-0.52556157112121582 2.50959682464599609 -0.554078936576843262
-0.52148061990737915 2.46410632133483887 -0.55185544490814209
-0.514806568622589111 2.51307272911071777 -0.60191112756729126
-0.557022809982299805 2.56383824348449707 -0.591301798820495605
-0.507218718528747559 2.51199746131896973 -0.579539716243743896
1.26221680641174316 2.92441725730895996 -0.75095665454864502
-0.428210020065307617 2.47618865966796875 -0.552416622638702393
-0.521690487861633301 2.48498964309692383 -0.570767104625701904
-0.549525201320648193 2.56186890602111816 -0.584588408470153809
-0.52448570728302002 2.4682610034942627 -0.545004427433013916
-0.549633383750915527 2.55478334426879883 -0.59173893928527832
-0.544627547264099121 2.55972456932067871 -0.615362942218780518
-0.487326145172119141 2.45249533653259277 -0.64520949125289917
-0.548464298248291016 2.54243803024291992 -0.579941093921661377
-0.497505456209182739 2.48653173446655273 -0.60599827766418457
-0.457431882619857788 2.50124812126159668 -0.621881842613220215
1.28643715381622314 2.91634559631347656 -0.821637749671936035
1.26243710517883301 2.96726155281066895 -0.868529677391052246
-0.54913020133972168 2.54247784614562988 -0.574578523635864258
-0.548151552677154541 2.5774378776550293 -0.602614402770996094
-0.52271425724029541 2.49105501174926758 -0.577431201934814453
-0.515950977802276611 2.51318836212158203 -0.597565352916717529
-0.571874260902404785 2.52205896377563477 -0.620705962181091309
-0.526225090026855469 2.51284265518188477 -0.545438826084136963
-0.551129162311553955 2.53568840026855469 -0.579121232032775879
1.27372205257415771 2.92348527908325195 -0.820942223072052002
-0.547383427619934082 2.53266167640686035 -0.593208611011505127
-0.504462063312530518 2.54983377456665039 -0.62417900562286377
-0.549569487571716309 2.53694963455200195 -0.587052047252655029
