ply
format ascii 1.0
element vertex 224
comment vertices
property float x
property float y
property float z
end_header
-1.3354872465133667 3.20658421516418457 -0.692994296550750732
3.32117104530334473 7.90144920349121094 3.38544034957885742
-1.6911928653717041 8.36666774749755859 3.1345057487487793
2.82689237594604492 4.0626530647277832 0.188182622194290161
1.10763609409332275 3.27921652793884277 -0.823000848293304443
0.785764217376708984 3.72101163864135742 1.57093369960784912
-0.0301610380411148071 2.52527618408203125 -0.752703845500946045
-2.80222940444946289 4.15655994415283203 1.1766054630279541
1.47159135341644287 8.38226890563964844 2.0324397087097168
3.39004111289978027 6.05023670196533203 -0.417498171329498291
0.794203400611877441 3.99128913879394531 0.443784743547439575
2.72630667686462402 3.89337420463562012 -0.804444074630737305
-2.91171073913574219 4.19135808944702148 -0.650757849216461182
2.6032567024230957 6.8287205696105957 2.2816162109375
-0.090400397777557373 5.8815159797668457 1.87247586250305176
-0.656063854694366455 4.58030462265014648 0.797292232513427734
-0.180659323930740356 3.19755649566650391 -0.629056036472320557
-1.16199517250061035 3.5359041690826416 -0.698496162891387939
-1.48503720760345459 4.27992820739746094 1.48770689964294434
2.04330945014953613 3.93854784965515137 -0.676556050777435303
-2.12093663215637207 2.86712002754211426 -0.637757241725921631
0.115885511040687561 4.8764042854309082 -0.486680865287780762
1.68102526664733887 5.23090744018554688 1.51214694976806641
1.98904287815093994 3.97377872467041016 0.651977896690368652
-2.83673191070556641 7.91632890701293945 3.12837958335876465
2.45417451858520508 8.45362377166748047 2.19518375396728516
-0.220980122685432434 3.17128896713256836 -0.643406510353088379
1.54803371429443359 6.09102201461791992 2.51016879081726074
-0.209035292267799377 3.18939685821533203 -0.614552438259124756
-0.105099186301231384 3.17853808403015137 -0.553741991519927979
0.135914057493209839 5.85134363174438477 2.01177096366882324
-0.217290282249450684 3.17815351486206055 -0.612498223781585693
0.645792901515960693 5.35778617858886719 1.73719608783721924
-0.285343170166015625 7.16059732437133789 1.94902777671813965
-1.43284440040588379 3.86455059051513672 0.29673430323600769
-0.198396801948547363 3.22397255897521973 -0.546790599822998047
-0.199768900871276855 3.18262910842895508 -0.609804093837738037
-1.73300206661224365 4.08866262435913086 -0.822239696979522705
2.75861620903015137 7.67343807220458984 2.07356405258178711
-0.218368545174598694 3.05897378921508789 -0.375358760356903076
-0.337620347738265991 7.94097471237182617 2.25128293037414551
-0.392102539539337158 5.08127880096435547 1.50101566314697266
-0.19825136661529541 3.18312525749206543 -0.584268867969512939
2.31787323951721191 3.86486339569091797 -0.753795742988586426
-0.0508467108011245728 4.03852319717407227 0.940367043018341064
-3.21479511260986328 3.01116108894348145 -0.125364840030670166
2.72447919845581055 2.62063169479370117 -0.839532196521759033
2.18180227279663086 2.91937971115112305 -0.658721506595611572
1.87520515918731689 4.01688289642333984 -0.844485223293304443
3.44974517822265625 5.72307300567626953 1.14708983898162842
-1.77101683616638184 4.08919811248779297 -0.856706798076629639
-0.135826185345649719 3.14267992973327637 -0.541304230690002441
2.42516708374023438 6.96619224548339844 1.75938713550567627
1.32128000259399414 6.2819976806640625 1.83674502372741699
-1.85130906105041504 7.957763671875 2.85510158538818359
-0.206907987594604492 3.1919245719909668 -0.611370086669921875
2.18459606170654297 3.8501582145690918 -0.665210723876953125
-0.208599865436553955 3.19827127456665039 -0.707725048065185547
1.96325182914733887 3.94463038444519043 -0.809794783592224121
-0.547251582145690918 0.00939702987670898438 -0.975504398345947266
1.92583703994750977 6.24449872970581055 3.32256555557250977
2.39881300926208496 3.9338219165802002 0.748554587364196777
1.20995748043060303 5.80006742477416992 2.02232837677001953
2.09374570846557617 3.95486712455749512 -0.818795502185821533
-1.54545259475708008 3.98541092872619629 -0.668507039546966553
1.16056942939758301 3.9917445182800293 -0.977772235870361328
0.891425848007202148 5.61258029937744141 1.45471596717834473
-0.191846206784248352 3.19063067436218262 -0.584496021270751953
1.82145380973815918 8.47956371307373047 2.09366774559020996
-0.186619341373443604 3.1755983829498291 -0.575006544589996338
2.38489437103271484 3.5811760425567627 -0.201198011636734009
3.18395829200744629 3.94689011573791504 1.23986363410949707
1.34244740009307861 4.34285831451416016 0.703233659267425537
-0.734438896179199219 7.12799692153930664 1.89387238025665283
-0.215910241007804871 3.18588423728942871 -0.523825585842132568
-1.44314920902252197 6.31491899490356445 2.09794831275939941
-0.213043838739395142 3.18996620178222656 -0.630061209201812744
0.61903071403503418 5.52068376541137695 2.010345458984375
-0.201903387904167175 3.21931743621826172 -0.615842044353485107
2.2691047191619873 4.08278179168701172 -0.769589841365814209
0.403000742197036743 3.00593423843383789 -0.325387090444564819
-2.18959212303161621 7.6268305778503418 2.19683933258056641
-0.201144471764564514 3.19151544570922852 -0.611957192420959473
-0.208894282579421997 3.18699955940246582 -0.596710860729217529
-0.187956154346466064 3.2295687198638916 -0.6340484619140625
1.53112685680389404 2.70881915092468262 -0.864361584186553955
-1.05810916423797607 6.83962059020996094 2.1326451301574707
1.16926896572113037 5.57068157196044922 2.01312828063964844
2.03264617919921875 3.91528439521789551 -0.82311481237411499
-0.667500138282775879 5.58789634704589844 1.95864331722259521
2.72949671745300293 2.0897986888885498 -0.657497704029083252
0.669693350791931152 2.38664817810058594 -0.398383826017379761
0.355486482381820679 3.16885590553283691 -0.303952127695083618
0.0856984257698059082 3.88895726203918457 -0.82260739803314209
1.14128947257995605 4.03593349456787109 -0.92914879322052002
-0.198964983224868774 3.1833345890045166 -0.611548423767089844
-1.05783927440643311 6.51159811019897461 1.9118037223815918
2.9707801342010498 8.61015987396240234 3.07485508918762207
-0.190063849091529846 3.18453001976013184 -0.668937146663665771
-0.050548255443572998 2.33539819717407227 -0.358580946922302246
-2.22252798080444336 4.17891454696655273 1.12979435920715332
-1.11407577991485596 3.84196281433105469 0.677425503730773926
1.86632513999938965 5.93311166763305664 1.69854378700256348
-0.20941413938999176 3.18915772438049316 -0.612723290920257568
0.938598096370697021 5.24196767807006836 1.53725147247314453
-1.62894153594970703 4.05961704254150391 -0.827629268169403076
-1.91319465637207031 2.77284908294677734 -0.788294017314910889
0.781986057758331299 6.03797340393066406 1.60751175880432129
-1.4330751895904541 4.03327798843383789 -0.759051859378814697
-0.209400981664657593 3.18775057792663574 -0.599675595760345459
0.252369880676269531 3.70431876182556152 -0.797068893909454346
1.47306716442108154 6.25094985961914062 3.25686049461364746
1.90303027629852295 3.88891863822937012 -0.806482553482055664
1.09832000732421875 4.10013914108276367 -0.467703491449356079
1.54491162300109863 3.54042840003967285 -0.693911075592041016
2.68988466262817383 7.6759648323059082 3.13731122016906738
2.30922508239746094 3.45180153846740723 -0.75236356258392334
2.19947123527526855 3.89356827735900879 -0.786644041538238525
0.0497986525297164917 5.00906658172607422 1.94011354446411133
0.820670366287231445 3.75032949447631836 0.225193485617637634
-3.52525711059570312 1.58435463905334473 -0.632031619548797607
2.03522205352783203 2.31102585792541504 1.10755228996276855
-0.175403684377670288 3.18622708320617676 -0.533444225788116455
-0.959596216678619385 3.90033268928527832 0.252558469772338867
0.174985945224761963 5.43563175201416016 1.83656978607177734
-1.42560899257659912 3.42994165420532227 -0.608228325843811035
-0.180661588907241821 3.22784423828125 -0.626389086246490479
0.0906459242105484009 6.2664337158203125 1.70630526542663574
1.70690274238586426 6.10721063613891602 1.63204646110534668
1.88590121269226074 4.06364870071411133 -0.826994240283966064
2.8892209529876709 2.67869973182678223 -0.336823970079421997
-0.201851770281791687 3.1833033561706543 -0.613549768924713135
-0.214196443557739258 3.18257713317871094 -0.621979057788848877
1.17127454280853271 4.01826238632202148 -0.95262444019317627
-1.48832178115844727 3.98906087875366211 -0.730685889720916748
-0.191087812185287476 3.18730664253234863 -0.541237175464630127
-0.333364695310592651 2.66972923278808594 1.18077242374420166
-1.74568057060241699 4.07819986343383789 -0.772723913192749023
-0.8419303297996521 3.39490890502929688 -0.583890616893768311
-0.192943647503852844 3.17796778678894043 -0.513893723487854004
0.819545507431030273 5.22791051864624023 1.78125226497650146
2.79572701454162598 7.06616020202636719 2.60060811042785645
2.27578496932983398 3.59467649459838867 -0.191398784518241882
-0.191401630640029907 6.82688426971435547 2.0098874568939209
1.97648608684539795 3.95018267631530762 -0.822034001350402832
2.48960232734680176 7.18416786193847656 1.99132323265075684
-0.209295168519020081 3.18800616264343262 -0.641133368015289307
2.19239568710327148 3.96300387382507324 -0.835999965667724609
-1.26156055927276611 8.35038566589355469 2.89575433731079102
-0.208107516169548035 3.18674421310424805 -0.684640109539031982
1.55276978015899658 7.63699436187744141 2.09272432327270508
-2.98559021949768066 3.87838006019592285 0.531147003173828125
1.81922435760498047 2.93283319473266602 -0.132568031549453735
-0.199134990572929382 3.1956641674041748 -0.683927595615386963
0.911135435104370117 5.32965421676635742 1.49461901187896729
1.16612076759338379 4.0063328742980957 -0.930210649967193604
2.20562362670898438 2.69020390510559082 -0.870157778263092041
1.30083727836608887 2.70727944374084473 1.46384286880493164
-0.57469475269317627 6.04584074020385742 1.78475141525268555
-0.215049326419830322 3.1519322395324707 -0.667467355728149414
-0.220683053135871887 4.01413202285766602 0.873217225074768066
2.95644474029541016 3.12881970405578613 -0.171198546886444092
-0.202966943383216858 3.17864894866943359 -0.664478480815887451
-0.211865067481994629 3.18821978569030762 -0.64176023006439209
-0.204682186245918274 3.19489908218383789 -0.618114471435546875
0.977206289768218994 4.73187589645385742 1.75730788707733154
2.3883659839630127 3.94028115272521973 0.286062628030776978
-1.41625881195068359 3.42759156227111816 -0.607548952102661133
-0.1898183673620224 3.18752789497375488 -0.624110996723175049
-0.19413149356842041 3.20800399780273438 -0.611246764659881592
1.16744589805603027 4.0158085823059082 -0.880673587322235107
-1.05073654651641846 3.85301327705383301 0.202976137399673462
1.95885086059570312 3.95106029510498047 -0.791692256927490234
-2.4985504150390625 3.34898233413696289 0.497276484966278076
0.48466336727142334 3.01972079277038574 -0.742883622646331787
-0.201807230710983276 3.18547177314758301 -0.642508149147033691
-0.190114706754684448 3.1789553165435791 -0.618912398815155029
2.16565895080566406 3.90179324150085449 -0.662878811359405518
-0.904194176197052002 6.68074464797973633 1.98222827911376953
-1.25898241996765137 3.04123330116271973 -0.580193459987640381
2.4938046932220459 8.77788257598876953 2.66403460502624512
2.16576123237609863 6.27005767822265625 1.68287193775177002
1.45233869552612305 6.15067815780639648 1.53542971611022949
-0.932502985000610352 3.13490104675292969 -0.713849544525146484
-0.201044157147407532 3.19081544876098633 -0.604371488094329834
-0.175645798444747925 3.20011520385742188 -0.556092143058776855
-0.187971025705337524 3.19056534767150879 -0.585141599178314209
2.29298639297485352 3.8032691478729248 -0.330446600914001465
2.09679961204528809 3.95995187759399414 -0.593142449855804443
-1.30459463596343994 7.7798914909362793 2.30946445465087891
-0.206036776304244995 3.17569422721862793 -0.499637007713317871
2.24430537223815918 3.84600424766540527 -0.757261097431182861
-1.57012784481048584 4.09054756164550781 -0.792953372001647949
-1.67334377765655518 5.73022317886352539 1.71834123134613037
-1.67924392223358154 3.49956965446472168 -0.621588468551635742
2.03221249580383301 3.66267585754394531 -0.78583061695098877
0.861396133899688721 6.16604328155517578 1.59066951274871826
-0.213393658399581909 3.18181324005126953 -0.527094900608062744
-1.92719817161560059 4.0676732063293457 1.10284483432769775
-0.191523358225822449 3.18951725959777832 -0.622261583805084229
2.23430490493774414 4.43838691711425781 1.28968632221221924
0.531294107437133789 7.19627857208251953 1.93519341945648193
0.355807840824127197 4.22498226165771484 0.877767205238342285
2.64365911483764648 4.19350671768188477 0.570045113563537598
-0.212071001529693604 3.18800759315490723 -0.569183826446533203
-1.36568832397460938 3.44115972518920898 0.225663557648658752
-0.181861802935600281 3.1918938159942627 -0.638268470764160156
0.288615167140960693 4.10599088668823242 -0.856608390808105469
1.65125548839569092 1.89103925228118896 -0.429005742073059082
-0.18051011860370636 3.18137264251708984 -0.508616030216217041
0.467593789100646973 5.52151966094970703 1.90026223659515381
-0.196517497301101685 3.20550131797790527 -0.631591320037841797
-0.200067028403282166 3.18136930465698242 -0.630584120750427246
1.14645111560821533 4.02304840087890625 -0.896848440170288086
-0.212715506553649902 3.18359470367431641 -0.60590749979019165
1.92484569549560547 4.77731418609619141 1.46761131286621094
1.81339097023010254 3.00736093521118164 -0.318742424249649048
0.270344555377960205 6.19721317291259766 1.78595864772796631
1.70398485660552979 8.60920047760009766 2.26725983619689941
2.93744587898254395 7.81390047073364258 2.0011448860168457
-3.0394134521484375 1.84150326251983643 -0.53517615795135498
-0.203659951686859131 3.19521164894104004 -0.615021705627441406
0.706300735473632812 4.15483665466308594 0.851094365119934082
-0.178140923380851746 3.19710993766784668 -0.635124564170837402
