ply
format ascii 1.0
element vertex 49
comment vertices
property float x
property float y
property float z
end_header
0.233745217323303223 3.33349108695983887 -0.501157104969024658
0.227419599890708923 3.33605098724365234 -0.509963154792785645
0.239781767129898071 3.29737520217895508 -0.477633357048034668
0.241289496421813965 3.32843351364135742 -0.449813187122344971
0.236258849501609802 3.34257411956787109 -0.590923786163330078
0.234992936253547668 3.32997560501098633 -0.531394302845001221
0.252649247646331787 3.35152029991149902 -0.480540007352828979
0.241073697805404663 3.32314968109130859 -0.575392663478851318
0.241336211562156677 3.3481903076171875 -0.587780892848968506
0.226679444313049316 3.33089542388916016 -0.478249222040176392
0.223186999559402466 3.33153319358825684 -0.499078869819641113
0.251588761806488037 3.3314979076385498 -0.365036606788635254
0.225991830229759216 3.33502459526062012 -0.489508271217346191
0.255093961954116821 3.33493256568908691 -0.490980952978134155
0.314374297857284546 3.28601670265197754 -0.618490636348724365
0.238146185874938965 3.32251763343811035 -0.530969738960266113
0.251562178134918213 3.33078598976135254 -0.529179692268371582
0.245600327849388123 3.32823538780212402 -0.494851499795913696
0.253203034400939941 3.30853533744812012 -0.569977283477783203
0.234484732151031494 3.34546899795532227 -0.573345303535461426
0.239408671855926514 3.37120199203491211 -0.477450191974639893
0.253267079591751099 3.33893656730651855 -0.497170776128768921
0.236413463950157166 3.32275724411010742 -0.475493729114532471
0.242134317755699158 3.32551240921020508 -0.494402199983596802
0.219159588217735291 3.33542108535766602 -0.507549524307250977
0.248572677373886108 3.33483242988586426 -0.557277500629425049
0.249385863542556763 3.34471750259399414 -0.59511411190032959
0.241753935813903809 3.33808088302612305 -0.555128633975982666
0.243721261620521545 3.33561444282531738 -0.556613385677337646
0.252352923154830933 3.33264589309692383 -0.49706682562828064
0.234585210680961609 3.32418537139892578 -0.510477125644683838
0.278656631708145142 3.30523061752319336 -0.359504103660583496
0.226608991622924805 3.33872556686401367 -0.588128507137298584
0.244190871715545654 3.3368074893951416 -0.482470005750656128
0.247402071952819824 3.34926414489746094 -0.529304683208465576
0.242998331785202026 3.32281088829040527 -0.494113534688949585
0.245901510119438171 3.34417128562927246 -0.50998687744140625
0.245802581310272217 3.3527977466583252 -0.496491044759750366
0.230294257402420044 3.3309786319732666 -0.560513138771057129
0.231626510620117188 3.34170079231262207 -0.530350744724273682
0.251271694898605347 3.33581328392028809 -0.493259996175765991
0.220667198300361633 3.34139442443847656 -0.502390861511230469
0.244497552514076233 3.34760332107543945 -0.530895054340362549
0.225470259785652161 3.33871722221374512 -0.505313575267791748
0.24531148374080658 3.32983636856079102 -0.50449293851852417
0.238742098212242126 3.33898615837097168 -0.526225566864013672
0.246922582387924194 3.18856906890869141 -0.459557950496673584
0.245874091982841492 3.32510924339294434 -0.482762694358825684
0.242463350296020508 3.33589649200439453 -0.477065026760101318
