ply
format ascii 1.0
element vertex 256
comment vertices
property float x
property float y
property float z
end_header
0.0584921538829803467 2.46248769760131836 -0.472788393497467041
-3.25455832481384277 6.47233247756958008 2.96439504623413086
-0.207261711359024048 3.65553760528564453 2.97275972366333008
-1.92838752269744873 5.51570558547973633 -0.442581593990325928
0.993262171745300293 2.64613938331604004 0.115002810955047607
-1.87637841701507568 3.15933489799499512 -0.565746426582336426
-3.09292984008789062 5.15246295928955078 0.819725155830383301
-0.0905975699424743652 3.74015569686889648 -0.60105133056640625
-0.828736007213592529 6.53324747085571289 0.372327983379364014
1.57508909702301025 2.37733364105224609 -0.669289588928222656
-0.75965583324432373 5.14311075210571289 -0.324010312557220459
-1.32671308517456055 4.69791126251220703 3.32736063003540039
0.396481513977050781 3.0111844539642334 0.208794593811035156
-0.746009588241577148 2.74368405342102051 -0.615060865879058838
-1.62748181819915771 5.00104188919067383 0.077140510082244873
-3.24211382865905762 4.91853857040405273 -0.128342881798744202
0.103931635618209839 2.47573399543762207 -0.447861641645431519
-2.00818228721618652 6.51451873779296875 1.42426097393035889
-0.586050927639007568 3.84937691688537598 -0.0642061829566955566
0.203284025192260742 2.34387588500976562 -0.369853615760803223
-1.38659727573394775 4.81416940689086914 0.383669376373291016
0.0360388755798339844 2.61673474311828613 -0.400231242179870605
0.183134019374847412 2.49930000305175781 -0.551398515701293945
-0.0921595096588134766 2.65976905822753906 -0.267325669527053833
-1.72684180736541748 3.12594437599182129 -0.634682118892669678
-0.510759711265563965 4.26747989654541016 -0.408647894859313965
-2.43052363395690918 5.59200429916381836 1.02392733097076416
-1.21782195568084717 5.60620355606079102 -0.142169415950775146
-1.13751757144927979 5.59593009948730469 0.917021393775939941
1.03777754306793213 3.2482903003692627 1.18645322322845459
-2.50790572166442871 5.04151201248168945 -0.00166904926300048828
-2.64129090309143066 5.10483312606811523 -0.249111831188201904
-0.550585627555847168 2.39027690887451172 -0.616626739501953125
0.495333969593048096 3.10164880752563477 2.63210010528564453
-0.759435713291168213 4.97825288772583008 2.04559516906738281
-0.439321339130401611 2.94514632225036621 -0.2198982834815979
0.12065376341342926 2.55857348442077637 -0.410634100437164307
-2.08218240737915039 5.37409162521362305 -0.253421783447265625
-1.68005037307739258 3.31047463417053223 -0.56623530387878418
1.56759798526763916 2.02531623840332031 -0.615138053894042969
0.0903457105159759521 2.48217988014221191 -0.437540024518966675
-2.59677839279174805 5.07012653350830078 4.48624610900878906
0.0090052485466003418 2.49324631690979004 -0.439280807971954346
-1.79345571994781494 3.02493119239807129 -0.552696466445922852
-1.05349302291870117 6.33261585235595703 -0.0555627048015594482
-0.524556517601013184 4.51392364501953125 0.635803341865539551
0.0997939109802246094 2.72878122329711914 -0.0900481343269348145
0.128677845001220703 2.58236980438232422 -0.523224711418151855
-2.4744422435760498 5.49380159378051758 0.402693033218383789
-3.10588526725769043 4.75318622589111328 0.118863999843597412
-0.0548157542943954468 3.82205557823181152 0.38283991813659668
-0.922068893909454346 5.55539464950561523 0.131287813186645508
-1.92459464073181152 4.99320602416992188 3.43009233474731445
-2.16417574882507324 6.01104021072387695 0.784573256969451904
-0.0756652355194091797 2.64645266532897949 -0.483588099479675293
-0.207265928387641907 3.84600067138671875 -0.279639720916748047
0.123661816120147705 2.50949907302856445 -0.483908176422119141
-0.970808327198028564 4.04737043380737305 -0.396326154470443726
0.187111854553222656 2.42449259757995605 -0.189579010009765625
0.0856145620346069336 2.84593439102172852 -0.380406409502029419
0.139755606651306152 2.54585576057434082 -0.395479738712310791
-2.34202933311462402 6.73722743988037109 1.52211594581604004
0.597793281078338623 3.43204998970031738 1.96688425540924072
-1.77592921257019043 3.02883148193359375 -0.632800579071044922
-0.433309733867645264 4.13949394226074219 -0.577599585056304932
-0.952549219131469727 5.29437351226806641 1.12241792678833008
-0.611709415912628174 4.75109291076660156 0.0781963467597961426
0.0697721242904663086 2.50186491012573242 -0.461506903171539307
0.116385325789451599 2.48209190368652344 -0.452318042516708374
-0.720691919326782227 4.31429862976074219 -0.539018154144287109
-0.452056586742401123 3.51726818084716797 -0.34506535530090332
-2.79715514183044434 5.075653076171875 -0.0127376019954681396
-0.71730726957321167 4.49994087219238281 -0.0203703045845031738
-0.0924271345138549805 2.64489507675170898 -0.467870622873306274
-0.860846817493438721 1.51223444938659668 -0.48418349027633667
0.0551165342330932617 2.58700346946716309 -0.588934838771820068
-0.0996557474136352539 2.55025506019592285 -0.200017571449279785
-1.50323045253753662 5.64715480804443359 -0.0260585546493530273
-0.20037628710269928 4.30731439590454102 0.711133062839508057
-0.0162446647882461548 2.54229068756103516 -0.438193619251251221
-0.196912288665771484 2.76893043518066406 -0.193980872631072998
0.0655297040939331055 2.58843636512756348 -0.417694032192230225
-1.96573555469512939 5.36246156692504883 -0.310338199138641357
-2.49272489547729492 5.0097355842590332 -0.187246352434158325
0.0122488141059875488 2.53463363647460938 -0.491469681262969971
0.533940732479095459 2.82075619697570801 0.230950713157653809
-0.760912656784057617 5.85355043411254883 -0.0842280387878417969
-1.71500003337860107 3.17595648765563965 -0.628893554210662842
-2.85494327545166016 5.31826257705688477 -0.134230673313140869
1.5716547966003418 2.33024907112121582 -0.607133269309997559
-2.11942934989929199 5.24473667144775391 0.485709011554718018
-2.55525922775268555 5.18593645095825195 0.696470081806182861
-0.0735415816307067871 2.54771566390991211 -0.464467227458953857
0.0117694735527038574 2.55529022216796875 -0.517233848571777344
1.38302123546600342 3.04515838623046875 0.806011080741882324
1.44309747219085693 2.20535659790039062 -0.504420757293701172
-1.10243630409240723 6.04726886749267578 1.49831998348236084
0.0802409350872039795 2.47029519081115723 -0.498614996671676636
-0.249940812587738037 2.91915178298950195 -0.332217365503311157
-0.906931817531585693 3.59660243988037109 -0.288831263780593872
1.63663601875305176 2.11154937744140625 -0.555075228214263916
-2.42858290672302246 5.03274297714233398 -0.191422566771507263
-1.78839468955993652 2.95484113693237305 -0.678686618804931641
-0.892842411994934082 4.99500894546508789 0.504369139671325684
0.0500557422637939453 2.48418164253234863 -0.44090878963470459
-2.69904518127441406 5.0786285400390625 0.039645850658416748
-0.815059781074523926 4.92199563980102539 0.88211524486541748
-0.262828528881072998 3.15623569488525391 -0.0352825522422790527
-0.63725578784942627 3.37295293807983398 -0.135171175003051758
-1.88431096076965332 6.85966682434082031 1.58739638328552246
-2.73470544815063477 5.70632362365722656 3.7590179443359375
-0.0999043583869934082 2.50912618637084961 -0.50716322660446167
-2.62248730659484863 4.96189212799072266 0.326552212238311768
0.0350946635007858276 3.85580587387084961 2.03416180610656738
0.562995195388793945 2.19161009788513184 -0.628333151340484619
0.107285559177398682 2.5422661304473877 -0.472278773784637451
-0.378803461790084839 4.80768871307373047 1.78378558158874512
0.536597073078155518 3.61080193519592285 0.656059563159942627
0.129193633794784546 2.57474994659423828 -0.443654000759124756
-1.98431706428527832 5.03798484802246094 -0.140538334846496582
-1.79339981079101562 3.05502986907958984 -0.632663965225219727
0.151039838790893555 2.5920109748840332 -0.0910400152206420898
0.0575643777847290039 2.49243736267089844 -0.441369771957397461
-0.356304436922073364 4.32592439651489258 0.344264388084411621
-1.19191825389862061 4.49422359466552734 3.11257410049438477
0.115777134895324707 2.54050731658935547 -0.0121799707412719727
0.0966455340385437012 2.45104551315307617 -0.544076442718505859
-2.08385658264160156 5.61247682571411133 0.171862363815307617
-0.638359248638153076 3.63649320602416992 -0.23852267861366272
0.0886633396148681641 2.58717918395996094 -0.410208582878112793
-2.4890594482421875 5.1581273078918457 0.0419417023658752441
0.0860300660133361816 2.47395038604736328 -0.504044651985168457
0.0246368646621704102 2.47491216659545898 -0.114833474159240723
-1.45199334621429443 4.38872718811035156 -0.424977004528045654
-1.62100076675415039 6.33894729614257812 0.683281540870666504
-0.0470642447471618652 2.73895788192749023 -0.386422514915466309
0.640848875045776367 2.82094812393188477 0.291081488132476807
-0.710445940494537354 5.34291601181030273 0.016531527042388916
-1.77787911891937256 3.24888253211975098 -0.559179306030273438
1.65221762657165527 2.40837454795837402 -0.577231884002685547
-2.2275996208190918 5.0826416015625 0.0614262819290161133
-0.995507240295410156 6.08608436584472656 0.266433179378509521
-0.594564378261566162 2.43023228645324707 -0.565937697887420654
-0.88225853443145752 4.57768440246582031 0.546316564083099365
-2.14338302612304688 6.81868791580200195 1.60128462314605713
0.0845861881971359253 2.55195236206054688 -0.456524372100830078
0.0409935116767883301 2.61060929298400879 -0.422957658767700195
1.5140373706817627 2.29419875144958496 -0.615366220474243164
-3.14768457412719727 4.78400659561157227 -0.0446862876415252686
0.103466272354125977 2.48859405517578125 -0.565957009792327881
0.182760536670684814 4.20165157318115234 0.814835488796234131
-0.290136665105819702 3.46529173851013184 -0.385501623153686523
-3.04027032852172852 4.99267911911010742 0.590254426002502441
0.0201104283332824707 2.55027580261230469 -0.409068465232849121
-1.81341946125030518 3.07381010055541992 -0.587901055812835693
0.0824809074401855469 2.5260765552520752 -0.499379247426986694
0.136248230934143066 2.60052585601806641 -0.372341960668563843
-1.3762439489364624 5.42522048950195312 -0.288236469030380249
-2.29117965698242188 5.68585968017578125 0.00520843267440795898
0.0758757293224334717 2.41560196876525879 -0.520080745220184326
0.071286618709564209 2.47931289672851562 -0.498396307229995728
-2.29125857353210449 5.83623456954956055 1.01457715034484863
-2.50915718078613281 4.98349905014038086 -0.163546532392501831
-2.51627278327941895 5.50539445877075195 0.499871194362640381
0.896270394325256348 3.5962371826171875 0.849890232086181641
-1.1359177827835083 5.72951221466064453 0.474020004272460938
-1.84932494163513184 2.97150683403015137 -0.619231820106506348
0.0639271736145019531 2.61519575119018555 -0.264116227626800537
0.000669062137603759766 2.76982760429382324 -0.412121951580047607
-0.333743363618850708 4.10921096801757812 -0.18283456563949585
-1.82911789417266846 5.65089321136474609 2.82999539375305176
-0.313258230686187744 3.96245408058166504 0.0365006327629089355
0.0933586955070495605 2.59538578987121582 -0.532700419425964355
0.0310385525226593018 2.50203728675842285 -0.453284800052642822
0.808838009834289551 2.27812290191650391 -0.0665617585182189941
-1.48026108741760254 4.8197636604309082 0.27756810188293457
0.0422349870204925537 2.50094890594482422 -0.394761085510253906
-3.16294956207275391 4.8415827751159668 -0.0917030125856399536
-0.248443812131881714 2.964447021484375 -0.308724552392959595
-0.368467211723327637 4.64938163757324219 0.923604965209960938
-1.10807693004608154 5.40932846069335938 1.01806354522705078
-0.188070714473724365 2.37589812278747559 -0.518741905689239502
-0.984648644924163818 5.11290359497070312 -0.110828220844268799
1.44764995574951172 2.33863449096679688 -0.709344625473022461
-0.0097128748893737793 2.52176761627197266 -0.454787939786911011
-2.69345521926879883 7.32937526702880859 1.7630612850189209
-1.64198482036590576 4.71298933029174805 3.5679168701171875
-0.901023626327514648 5.19488143920898438 1.15480351448059082
-0.127536535263061523 2.6316990852355957 -0.298072397708892822
-0.259301126003265381 4.08197498321533203 -0.47372591495513916
0.54462820291519165 2.76086211204528809 0.178361713886260986
0.0236669778823852539 2.48998785018920898 -0.481536895036697388
0.0339721739292144775 2.4924921989440918 -0.459810793399810791
0.602750897407531738 3.28241395950317383 2.04314827919006348
-1.94398736953735352 5.56343841552734375 -0.346276283264160156
-1.06382381916046143 5.84340667724609375 1.56764006614685059
-2.25740432739257812 5.26632833480834961 0.22991710901260376
0.0900939702987670898 2.22466111183166504 -0.278174638748168945
-0.742818474769592285 6.19073009490966797 -0.0999840497970581055
0.111754417419433594 2.50641918182373047 -0.497783094644546509
-2.7419893741607666 5.29460811614990234 -0.18892689049243927
0.703986525535583496 3.31936120986938477 0.602623283863067627
-1.10698902606964111 5.58797454833984375 -0.271354079246520996
0.154204785823822021 2.59663248062133789 -0.4622458815574646
-0.216563045978546143 2.73343062400817871 -0.182864904403686523
0.0310382843017578125 2.49926066398620605 -0.463662505149841309
0.0406215786933898926 2.50205707550048828 -0.477918773889541626
-0.820848822593688965 4.6781458854675293 0.562669992446899414
1.63053035736083984 2.40756320953369141 -0.605056941509246826
-2.63326001167297363 5.33841943740844727 0.175145506858825684
-0.211092084646224976 3.32048177719116211 -0.400738239288330078
0.150497317314147949 2.53350210189819336 -0.470562636852264404
-2.86117768287658691 5.17181825637817383 -0.123809069395065308
0.160605788230895996 2.53114151954650879 -0.524822473526000977
0.2055472731590271 2.72295188903808594 0.0991004109382629395
-1.88297414779663086 6.23413801193237305 1.17048549652099609
0.143666625022888184 2.46725344657897949 -0.428124189376831055
-0.525004029273986816 5.25379514694213867 -0.0267780423164367676
-0.610262155532836914 4.90380954742431641 0.952107250690460205
-1.77036011219024658 3.15767693519592285 -0.605344712734222412
0.0767461061477661133 2.49584317207336426 -0.418958038091659546
0.141783297061920166 3.45420289039611816 0.385179817676544189
-2.06113147735595703 5.15733051300048828 -0.239802345633506775
0.0557194650173187256 2.46784830093383789 -0.504884600639343262
-0.305754035711288452 3.57388854026794434 -0.200091719627380371
-0.745523810386657715 6.24867630004882812 0.0290996432304382324
0.0211113691329956055 2.65275287628173828 -0.160198062658309937
-1.45658767223358154 5.33543777465820312 -0.328690707683563232
-0.0568492412567138672 2.58756709098815918 -0.299459218978881836
-0.259708166122436523 2.93213868141174316 -0.158742427825927734
-1.72531318664550781 2.9138185977935791 -0.67706906795501709
-0.565247058868408203 4.0390629768371582 0.0135134458541870117
-1.87751364707946777 5.50616788864135742 -0.569420218467712402
-0.24867720901966095 4.22887706756591797 -0.401008278131484985
-1.54038476943969727 2.75481700897216797 -0.573431789875030518
-0.550377070903778076 4.01946878433227539 3.00264406204223633
-0.744925260543823242 4.52271080017089844 0.452290236949920654
-1.63430452346801758 5.861358642578125 0.320971846580505371
-0.0484346896409988403 4.48020458221435547 1.5004805326461792
0.105969369411468506 2.604766845703125 -0.472356021404266357
-0.101115301251411438 4.30822038650512695 0.591214239597320557
-2.99756002426147461 4.62916755676269531 0.310626685619354248
-1.96145617961883545 6.45641756057739258 1.39109182357788086
1.56027078628540039 2.39598870277404785 -0.562613368034362793
-0.0769450664520263672 2.52846264839172363 -0.210120081901550293
0.00659909844398498535 2.51923990249633789 -0.453319698572158813
-1.22105801105499268 6.18556308746337891 1.10187220573425293
-1.49873042106628418 5.04343414306640625 -0.117713451385498047
0.0432682186365127563 2.47733068466186523 -0.414806067943572998
-0.729474306106567383 3.65473747253417969 -0.152897000312805176
-0.203568741679191589 3.61126923561096191 -0.37117430567741394
-1.1631932258605957 5.65746736526489258 -0.0733810067176818848
-2.33331441879272461 5.0887451171875 -0.257118105888366699
0.370119571685791016 2.23881053924560547 -0.30238303542137146
-0.309378683567047119 4.23647069931030273 0.612637698650360107
-1.92691206932067871 5.3660283088684082 0.378914237022399902
