ply
format ascii 1.0
element vertex 256
comment vertices
property float x
property float y
property float z
end_header
1.23814129829406738 3.37480330467224121 -0.489785879850387573
-4.65338754653930664 5.69652462005615234 2.84919977188110352
3.41930413246154785 7.36976861953735352 3.99170684814453125
-0.880677938461303711 1.18831634521484375 -0.693324446678161621
-0.685447573661804199 8.04333305358886719 2.14371681213378906
-1.04074215888977051 3.44992589950561523 0.467177271842956543
3.89132571220397949 5.80579471588134766 -0.591736793518066406
1.34124076366424561 5.82348346710205078 1.76991939544677734
0.741986632347106934 3.23213481903076172 -0.713808596134185791
-1.16296482086181641 3.35855484008789062 -0.683207035064697266
-2.77071976661682129 7.59779024124145508 2.18096089363098145
1.55978310108184814 8.166290283203125 2.27438998222351074
0.983282208442687988 3.37625265121459961 -0.635042726993560791
0.574753761291503906 4.2492365837097168 0.436470091342926025
-0.38217577338218689 5.71422052383422852 1.8988349437713623
-4.19726324081420898 6.41993045806884766 -0.287696540355682373
2.20392322540283203 5.2626495361328125 0.791122257709503174
2.99660682678222656 6.1603093147277832 4.46145915985107422
0.482306778430938721 3.20533180236816406 -0.71126258373260498
-0.95305025577545166 3.67381000518798828 -0.531813383102416992
0.990902960300445557 3.41366338729858398 -0.606780290603637695
0.475583910942077637 6.72642898559570312 2.05223178863525391
-1.59908127784729004 3.79771757125854492 -0.252333402633666992
-1.41698980331420898 6.36954879760742188 1.94411218166351318
-1.49100732803344727 2.73511552810668945 -0.845859527587890625
0.944409072399139404 3.10828065872192383 -0.228639870882034302
0.764527678489685059 3.29346513748168945 -0.409765571355819702
1.869712233543396 6.62416982650756836 1.86541509628295898
0.959598541259765625 3.29578471183776855 -0.53122556209564209
-0.944680690765380859 3.60564923286437988 -0.724171817302703857
1.29068851470947266 4.15054512023925781 0.16154932975769043
0.652574717998504639 8.31543636322021484 2.34908485412597656
0.881968140602111816 3.26023530960083008 -0.54048311710357666
0.428896486759185791 3.76358938217163086 -0.0335847139358520508
-0.570770442485809326 6.57335901260375977 2.00240063667297363
2.18620395660400391 4.90291738510131836 -0.672280013561248779
2.45497488975524902 4.36147022247314453 -0.202673107385635376
2.55852818489074707 8.50983905792236328 2.82883930206298828
0.811604857444763184 5.65741491317749023 2.02030396461486816
-0.640763640403747559 2.45909476280212402 -0.837812304496765137
1.03774023056030273 3.32003450393676758 -0.320197433233261108
-1.26288235187530518 3.53596353530883789 -0.382169842720031738
-1.83212900161743164 3.28549575805664062 0.40192180871963501
1.34660243988037109 4.6886749267578125 3.30448269844055176
-1.35232710838317871 7.59621095657348633 1.95383262634277344
1.33057057857513428 6.42461109161376953 2.08115696907043457
0.953531742095947266 3.2694389820098877 -0.674764096736907959
0.991667330265045166 3.36471748352050781 -0.61335599422454834
0.26399606466293335 3.25761723518371582 -0.718755066394805908
1.04703927040100098 7.34727954864501953 1.97647273540496826
0.844619214534759521 3.40931892395019531 -0.48487544059753418
1.10006356239318848 3.42199039459228516 -0.515158534049987793
-0.759888589382171631 3.32579183578491211 -0.224792778491973877
-0.684684514999389648 3.71633195877075195 0.0124923586845397949
0.383017748594284058 6.22332620620727539 2.11710143089294434
-3.04427695274353027 6.4890131950378418 1.87314200401306152
-0.200203776359558105 2.66654872894287109 -0.797174334526062012
0.0191721916198730469 7.41665935516357422 1.98760724067687988
-2.0564725399017334 7.20037651062011719 1.92795252799987793
2.44835662841796875 7.55521202087402344 2.31345081329345703
0.869501948356628418 3.4727180004119873 -0.535493373870849609
-1.19019436836242676 3.15994787216186523 -0.750115633010864258
0.962995767593383789 3.30599546432495117 -0.561995506286621094
-0.793769299983978271 3.78080344200134277 -0.56739884614944458
2.17738485336303711 7.76525640487670898 3.21450948715209961
0.951156020164489746 3.19818925857543945 -0.0514376163482666016
0.862134575843811035 3.36819052696228027 -0.533156394958496094
0.838733136653900146 3.2284996509552002 -0.508878767490386963
-0.831236422061920166 3.58653855323791504 -0.403836607933044434
-0.479478269815444946 3.26347494125366211 -0.0249658823013305664
-0.193918764591217041 3.45903730392456055 -0.559600830078125
1.66225528717041016 4.47919893264770508 -0.426245450973510742
-1.10800004005432129 3.63507366180419922 -0.59862220287322998
1.65480577945709229 7.20743036270141602 1.81917273998260498
1.02157807350158691 3.10195755958557129 -0.67149883508682251
-1.2876124382019043 7.11534500122070312 1.92014563083648682
1.43833446502685547 4.72979736328125 0.183746993541717529
1.90432858467102051 4.49810075759887695 -0.692866086959838867
1.03758656978607178 3.56826353073120117 -0.531687021255493164
-0.635603785514831543 3.7195441722869873 0.471573889255523682
-0.00641302391886711121 3.81430482864379883 0.440233707427978516
0.837076485157012939 4.54401206970214844 0.468019306659698486
0.997690320014953613 3.35352897644042969 -0.500359773635864258
1.56754386425018311 3.67581629753112793 -0.287967324256896973
1.83342492580413818 4.584381103515625 -0.496147215366363525
-0.797828793525695801 3.78445339202880859 -0.718094944953918457
1.52879106998443604 5.89753580093383789 1.92370247840881348
-0.149919390678405762 6.61963558197021484 1.93284308910369873
-1.67417430877685547 3.73762249946594238 -0.491743952035903931
0.806586384773254395 3.35150146484375 -0.547219336032867432
0.50398409366607666 7.46895551681518555 1.99842154979705811
1.03181982040405273 3.36717915534973145 -0.681374192237854004
1.15234005451202393 8.28043651580810547 2.15944814682006836
2.50925493240356445 6.3617854118347168 1.96862924098968506
1.29250454902648926 3.30783534049987793 -0.046640932559967041
0.778970718383789062 3.26117944717407227 -0.192311525344848633
0.416005373001098633 3.15517520904541016 -0.751958370208740234
0.868971943855285645 3.26548957824707031 -0.532592296600341797
-4.6816096305847168 5.76335430145263672 1.93373703956604004
-0.578412234783172607 6.20517063140869141 1.90030717849731445
-1.62581086158752441 3.60191130638122559 -0.488220512866973877
0.910189390182495117 3.33814287185668945 -0.569965600967407227
-1.36152613162994385 2.5427706241607666 -0.843179225921630859
1.76051974296569824 5.44276046752929688 1.20737075805664062
1.12117373943328857 3.409027099609375 -0.46642988920211792
-0.830550849437713623 3.54300189018249512 -0.317595362663269043
-1.27435088157653809 3.43468689918518066 -0.580713748931884766
-2.24158787727355957 6.70025205612182617 1.88936948776245117
1.4053725004196167 6.82073497772216797 1.99290561676025391
-1.25390279293060303 3.59763598442077637 -0.525684356689453125
0.939697384834289551 3.45644402503967285 -0.514325141906738281
1.02849674224853516 3.30831289291381836 -0.582573831081390381
-0.0320980250835418701 5.83089780807495117 2.26970791816711426
-0.464838474988937378 2.85539865493774414 -0.830476999282836914
0.977432787418365479 6.10541200637817383 2.10546422004699707
-1.02331376075744629 3.63100504875183105 0.348258078098297119
-1.89286863803863525 6.42048883438110352 2.02455568313598633
-0.848995566368103027 3.61321043968200684 0.019055783748626709
0.317893624305725098 8.05845355987548828 2.60982322692871094
-1.11572062969207764 3.5097806453704834 -0.705766081809997559
-0.431272268295288086 7.13956117630004883 2.01677274703979492
0.755250453948974609 3.54124164581298828 -0.402355492115020752
1.01171708106994629 3.54741883277893066 -0.590628981590270996
0.863655507564544678 3.17407679557800293 -0.673246502876281738
-0.699256479740142822 2.68800902366638184 -0.77421039342880249
0.917615056037902832 3.3514103889465332 -0.42858278751373291
1.65557801723480225 4.68349170684814453 -0.684667110443115234
0.851917624473571777 3.36372756958007812 -0.570004463195800781
1.40415692329406738 3.45116519927978516 -0.117799162864685059
0.807164430618286133 3.2706298828125 -0.666601121425628662
0.893437623977661133 6.72453022003173828 2.05373287200927734
1.89655816555023193 5.47032403945922852 1.77212321758270264
0.910416126251220703 3.33264732360839844 -0.568772971630096436
-0.629699349403381348 3.84427571296691895 -0.236599385738372803
0.991576611995697021 3.18611288070678711 -0.672870755195617676
-0.831720411777496338 2.52942276000976562 -0.876165688037872314
1.42957746982574463 4.75966358184814453 0.576242923736572266
0.284925758838653564 2.83951807022094727 -0.761727213859558105
-1.23368251323699951 3.1867823600769043 -0.0713701248168945312
0.788190126419067383 3.29210853576660156 -0.501494467258453369
-0.693612873554229736 2.9871368408203125 -0.702550113201141357
1.06365394592285156 3.43603134155273438 -0.551984965801239014
0.766538739204406738 3.36506056785583496 -0.566037654876708984
2.27172708511352539 6.75773954391479492 1.88595306873321533
2.44372653961181641 4.65054130554199219 0.137861013412475586
2.20380377769470215 4.24591541290283203 -0.475337982177734375
1.2783358097076416 4.04909706115722656 -0.601702690124511719
-1.03508150577545166 7.5523524284362793 1.93435871601104736
-0.202031910419464111 3.39495038986206055 -0.116405308246612549
-0.506225168704986572 3.67380023002624512 0.150087714195251465
1.00516390800476074 3.33396148681640625 0.0597091913223266602
0.991007506847381592 5.66203927993774414 2.02024960517883301
-0.54683452844619751 3.49413824081420898 -0.327146649360656738
0.884456872940063477 3.32455611228942871 -0.539458572864532471
0.960635185241699219 3.35656499862670898 -0.540211319923400879
0.106327638030052185 6.73443603515625 2.05880236625671387
-0.966426551342010498 6.32231044769287109 1.95211827754974365
-1.44864404201507568 6.96038389205932617 2.1001584529876709
0.991191089153289795 3.5002284049987793 -0.351539254188537598
0.910536408424377441 3.40739703178405762 -0.551736891269683838
1.53099775314331055 6.44528341293334961 1.93497395515441895
0.839506864547729492 3.16468334197998047 -0.532084345817565918
-0.809209465980529785 7.20507240295410156 1.97052597999572754
-0.877791047096252441 3.76110744476318359 -0.649790763854980469
0.597140133380889893 6.39092493057250977 2.09704041481018066
-0.609045267105102539 3.38039755821228027 0.281231224536895752
0.0414242148399353027 3.40848445892333984 -0.714434027671813965
2.18594789505004883 7.06490993499755859 1.93028354644775391
-0.931061089038848877 3.71587181091308594 -0.698509931564331055
1.71798384189605713 5.00755643844604492 0.804291248321533203
0.866671144962310791 3.39891791343688965 -0.590301752090454102
-0.809080004692077637 3.59994316101074219 -0.407730728387832642
-0.259627074003219604 7.59195709228515625 1.94099211692810059
0.396152734756469727 7.57002830505371094 2.00974774360656738
1.61660027503967285 8.03146171569824219 1.99988579750061035
0.868285596370697021 3.31916618347167969 -0.528185904026031494
-2.91158604621887207 7.15462493896484375 1.90968728065490723
-1.09434843063354492 3.65024757385253906 -0.642344534397125244
-1.08868265151977539 3.68832588195800781 -0.477379918098449707
1.93528687953948975 4.59189748764038086 -0.569977998733520508
1.50182366371154785 4.74830436706542969 -0.00231754779815673828
-0.975405216217041016 3.39642786979675293 -0.750465750694274902
0.933787107467651367 3.32680797576904297 -0.56246185302734375
-0.798626482486724854 3.69837498664855957 -0.226948350667953491
1.18814074993133545 3.16734051704406738 -0.199277579784393311
-0.351626783609390259 3.71502900123596191 0.53662031888961792
-0.842982113361358643 3.50152182579040527 -0.689611077308654785
-0.70541083812713623 3.62792706489562988 -0.62854921817779541
1.03794229030609131 3.52908039093017578 -0.534067630767822266
-0.967901706695556641 3.59515094757080078 -0.537860453128814697
-0.613685965538024902 3.78610658645629883 -0.71724390983581543
0.894244968891143799 3.36496806144714355 -0.408519625663757324
0.807118117809295654 3.29365134239196777 -0.225072085857391357
0.498215645551681519 3.69496607780456543 0.2129402756690979
1.40357565879821777 5.49840211868286133 1.92796778678894043
-0.810726404190063477 3.6957399845123291 -0.617627382278442383
-0.266474336385726929 6.42200374603271484 1.90430676937103271
0.62122952938079834 3.31430888175964355 -0.645356595516204834
0.987564802169799805 3.80202770233154297 0.15233767032623291
-1.26887881755828857 3.60668468475341797 -0.508874356746673584
-0.743991851806640625 3.63654828071594238 -0.479214280843734741
0.265552043914794922 7.03599643707275391 2.04544615745544434
1.57203340530395508 4.30257987976074219 -0.209564328193664551
1.01430761814117432 3.40764045715332031 -0.49700281023979187
1.11257457733154297 3.41047859191894531 -0.581384181976318359
-0.311838060617446899 3.48702144622802734 0.121047317981719971
1.9706655740737915 4.68006086349487305 0.913677573204040527
1.22090482711791992 4.6045985221862793 0.50666433572769165
-1.12092411518096924 3.6192018985748291 -0.655733168125152588
-0.892579913139343262 3.73318099975585938 -0.462265163660049438
0.8566131591796875 3.37347316741943359 -0.575174570083618164
0.898234963417053223 3.4425811767578125 -0.585323572158813477
0.952555298805236816 3.32078981399536133 -0.535567164421081543
1.1815178394317627 6.7018733024597168 2.04829239845275879
1.23549771308898926 6.13638162612915039 1.84582352638244629
-1.17910754680633545 3.60490989685058594 -0.546560823917388916
-0.2171487957239151 6.12525653839111328 1.87070190906524658
-1.24953794479370117 6.57367706298828125 1.93962287902832031
-0.889663457870483398 3.56679105758666992 -0.731196165084838867
1.02748286724090576 3.34037685394287109 -0.667333602905273438
1.20431685447692871 6.24123716354370117 2.05260372161865234
1.85193753242492676 5.33997631072998047 1.51245522499084473
0.985673367977142334 3.34999656677246094 -0.54890817403793335
-0.194089233875274658 6.71091890335083008 2.04546689987182617
-1.22417974472045898 7.30290365219116211 2.01714348793029785
-0.49296116828918457 2.86143207550048828 -0.76632237434387207
0.928951144218444824 3.31595659255981445 -0.616171956062316895
-2.32283782958984375 7.06534051895141602 1.93198108673095703
2.05893945693969727 3.81279850006103516 -0.591875791549682617
0.319963634014129639 6.37870025634765625 2.12267684936523438
1.92536711692810059 4.79519033432006836 -0.410449802875518799
1.79917359352111816 6.96137428283691406 1.92587888240814209
2.16452836990356445 3.57896184921264648 -0.47618517279624939
0.852377891540527344 3.44778871536254883 -0.61300206184387207
0.976024150848388672 3.2360389232635498 -0.705957293510437012
0.594020843505859375 5.96039104461669922 2.07372570037841797
0.818398535251617432 4.05779504776000977 0.308087646961212158
-1.71735286712646484 3.05635452270507812 0.240713357925415039
0.842958271503448486 7.17912435531616211 1.99746823310852051
2.03510594367980957 4.43972873687744141 0.352437317371368408
2.07599043846130371 4.86309003829956055 -0.703084111213684082
0.863579869270324707 3.43122577667236328 -0.403273701667785645
0.362473130226135254 4.03306293487548828 0.396863460540771484
-0.036419793963432312 7.75882101058959961 1.96057558059692383
0.914498329162597656 3.3463139533996582 -0.546200990676879883
0.858577430248260498 3.15930342674255371 -0.615318179130554199
0.824980020523071289 3.17414760589599609 -0.67188185453414917
-1.22031748294830322 3.6114661693572998 -0.62279057502746582
1.82666659355163574 3.76784324645996094 -0.0955436229705810547
0.824074804782867432 3.3879392147064209 -0.482931524515151978
0.4310932457447052 3.10710477828979492 -0.26761925220489502
1.0313410758972168 3.43343830108642578 -0.436087429523468018
-0.949386715888977051 6.82109975814819336 1.97470366954803467
-4.17061042785644531 6.45134401321411133 -0.359692007303237915
2.15598845481872559 7.61645746231079102 3.79453706741333008
0.161538243293762207 3.17826652526855469 -0.699580907821655273
