ply
format ascii 1.0
element vertex 256
comment vertices
property float x
property float y
property float z
end_header
0.318844735622406006 3.25446891784667969 0.390115141868591309
-4.30772733688354492 7.41744709014892578 -3.9493715763092041
-2.31375598907470703 7.83491182327270508 3.49218535423278809
-2.55004620552062988 4.32417058944702148 -0.489617854356765747
-0.494048386812210083 0.511549174785614014 -0.312222421169281006
2.16118025779724121 6.62676715850830078 4.04461956024169922
0.940863609313964844 2.70478439331054688 -0.740712583065032959
-0.0680468231439590454 6.09381675720214844 2.08698153495788574
-0.881266951560974121 5.35560464859008789 -0.147310554981231689
-1.31196939945220947 2.74656200408935547 0.46561896800994873
0.487592875957489014 7.64527177810668945 3.41237783432006836
0.130308866500854492 3.0902101993560791 -0.67468106746673584
0.20700642466545105 3.31764745712280273 -0.494976282119750977
-1.94121181964874268 4.62495756149291992 0.85037529468536377
-0.732681989669799805 3.53546643257141113 -0.703635454177856445
1.43456840515136719 2.31231689453125 -0.225852012634277344
0.64321291446685791 5.55656337738037109 1.06330633163452148
-1.55050170421600342 6.40109920501708984 2.1772925853729248
0.879634737968444824 4.53989839553833008 -0.404773801565170288
1.25064539909362793 5.732940673828125 2.38321328163146973
-0.734679639339447021 7.49331998825073242 2.11034321784973145
-1.42541241645812988 4.35860395431518555 -0.527844905853271484
1.09075284004211426 6.64082431793212891 2.16216897964477539
0.259508997201919556 3.36556077003479004 -0.51452934741973877
1.39328181743621826 3.07228183746337891 0.879292845726013184
-0.880493998527526855 5.26374959945678711 0.896755337715148926
0.239929795265197754 3.14374375343322754 -0.504131138324737549
0.236130714416503906 3.27857637405395508 -0.400180846452713013
0.203635036945343018 2.92272686958312988 4.22662830352783203
0.0875679552555084229 6.73691749572753906 2.2128751277923584
0.418044894933700562 5.12444019317626953 -0.0710509121417999268
0.288770318031311035 4.31470918655395508 -0.244423508644104004
-1.22073471546173096 2.61467981338500977 -0.726192712783813477
1.52865481376647949 8.30995941162109375 2.45527338981628418
-1.78493607044219971 4.47086715698242188 -0.761410832405090332
1.18391561508178711 2.86243176460266113 -0.552814185619354248
-1.62519979476928711 2.88032007217407227 -0.450247257947921753
-2.20342612266540527 4.66271448135375977 0.0203662514686584473
-1.48269057273864746 3.88883829116821289 -0.0200328230857849121
0.0377696044743061066 4.73007965087890625 -0.173012062907218933
1.66854798793792725 2.03380346298217773 -0.655456662178039551
0.235538706183433533 3.25450372695922852 -0.634507954120635986
2.88934850692749023 6.25647258758544922 3.81391477584838867
0.765520751476287842 3.40175843238830566 0.0257268548011779785
0.974807620048522949 3.05457687377929688 2.69953298568725586
-0.954124689102172852 5.28372764587402344 -0.23998028039932251
0.311648964881896973 3.24319553375244141 -0.53251117467880249
-1.77899777889251709 4.25288248062133789 -0.548074126243591309
0.481472432613372803 6.08800029754638672 2.17339920997619629
0.569912731647491455 4.89736175537109375 0.782820463180541992
-1.56103062629699707 7.34136343002319336 2.09557867050170898
0.174598067998886108 3.44395279884338379 -0.488454282283782959
-0.426348626613616943 5.59575510025024414 0.494101375341415405
-1.08555865287780762 6.98233222961425781 2.21784591674804688
-0.545782327651977539 0.804014682769775391 -0.181137323379516602
0.288218915462493896 3.19538307189941406 -0.608255743980407715
-1.17555499076843262 4.66713523864746094 -0.662265539169311523
0.269681036472320557 3.46409440040588379 -0.629125475883483887
0.22870934009552002 3.43787741661071777 -0.47876313328742981
0.503134429454803467 5.31328916549682617 2.10929632186889648
0.275546818971633911 3.37632846832275391 -0.48683476448059082
-0.786590933799743652 5.16504383087158203 -0.237594291567802429
-0.0572683736681938171 7.52410411834716797 2.11692237854003906
0.346286296844482422 3.3331143856048584 -0.233381956815719604
0.80145561695098877 7.5542912483215332 2.17164993286132812
1.557792067527771 2.14874148368835449 -0.424924194812774658
0.270718514919281006 3.33888125419616699 -0.46676209568977356
-2.03825259208679199 7.31859111785888672 2.21746683120727539
-2.06557083129882812 4.17108345031738281 0.32097095251083374
-1.38579142093658447 4.85709142684936523 0.761250913143157959
-0.11286163330078125 5.30243825912475586 -0.0660021305084228516
-1.10505318641662598 1.7647559642791748 -0.700454950332641602
-1.93401515483856201 4.85692405700683594 -0.418422043323516846
-0.667569339275360107 5.95333290100097656 2.0507359504699707
0.165988743305206299 3.34941387176513672 -0.496261954307556152
-0.404583752155303955 5.37544345855712891 0.159903407096862793
-0.162548467516899109 5.65194129943847656 0.903812527656555176
-1.44561386108398438 4.06212186813354492 -0.0105174779891967773
1.56177711486816406 2.37962222099304199 0.202200353145599365
0.125609755516052246 2.94269990921020508 -0.378918170928955078
-1.44983208179473877 2.26226401329040527 -0.673122525215148926
-0.357904016971588135 6.50659084320068359 2.15237712860107422
0.450608253479003906 3.31356334686279297 -0.137557327747344971
-2.57908821105957031 4.4517359733581543 -0.170783013105392456
0.259349942207336426 5.62651157379150391 0.351883947849273682
0.441582024097442627 3.2010653018951416 -0.662460565567016602
0.683337152004241943 4.50217628479003906 1.08773899078369141
-0.316406339406967163 8.21681118011474609 3.02038359642028809
0.286467850208282471 3.20177721977233887 -0.541855692863464355
-0.515173971652984619 0.795958459377288818 -0.58574753999710083
0.317593097686767578 3.59856677055358887 0.570270240306854248
1.85541629791259766 2.61878132820129395 -0.373582720756530762
-0.195533096790313721 3.10619115829467773 -0.669293224811553955
1.03702270984649658 5.38604402542114258 3.476898193359375
-1.50701761245727539 2.99156713485717773 -0.738722920417785645
0.175986349582672119 4.61312007904052734 -0.343551993370056152
0.650816202163696289 6.38944911956787109 2.18278312683105469
0.162782996892929077 3.35029506683349609 -0.555734992027282715
0.128817617893218994 3.35503315925598145 -0.506467461585998535
-1.34415042400360107 4.18805551528930664 -0.768999576568603516
0.424751698970794678 3.92418956756591797 0.302472293376922607
0.236653655767440796 7.24590492248535156 2.15143013000488281
-1.94153308868408203 4.99638271331787109 -0.549562275409698486
0.247434794902801514 3.17570734024047852 -0.626808762550354004
0.195594817399978638 3.32705378532409668 -0.611041486263275146
0.214085847139358521 6.19077253341674805 2.16541171073913574
0.145903930068016052 3.4566042423248291 -0.490823298692703247
1.08554315567016602 6.05140542984008789 2.19436883926391602
-2.10219645500183105 4.67841768264770508 -0.123815387487411499
-0.458752542734146118 0.735046029090881348 -0.204881936311721802
0.41793099045753479 4.74995231628417969 0.452001452445983887
0.216879904270172119 2.92595005035400391 -0.732476294040679932
-0.151193141937255859 3.06411600112915039 -0.61774212121963501
-1.4405360221862793 4.48066234588623047 -0.636448085308074951
0.184407234191894531 3.33740854263305664 -0.502798497676849365
0.236506938934326172 3.07273125648498535 -0.143361151218414307
-1.7503889799118042 8.3204498291015625 2.48229122161865234
-1.69228076934814453 2.79156494140625 -0.350217103958129883
-1.51261579990386963 4.39018678665161133 0.333753585815429688
0.103296011686325073 3.32421231269836426 -0.478626638650894165
-0.839682400226593018 5.12584209442138672 -0.409684062004089355
0.808599352836608887 3.35094094276428223 3.31604099273681641
0.1254768967628479 3.30202102661132812 -0.503298580646514893
-0.312592297792434692 5.41708564758300781 -0.0527369678020477295
-0.427215814590454102 5.14466619491577148 -0.101193904876708984
-1.31067180633544922 6.78862476348876953 2.2962498664855957
-0.827103137969970703 5.20757007598876953 0.257888078689575195
-2.36208581924438477 4.6405634880065918 -0.212554857134819031
0.314161419868469238 3.3763120174407959 -0.500622987747192383
1.04270315170288086 4.81864595413208008 -0.526634156703948975
0.160632118582725525 3.37828612327575684 -0.59943091869354248
1.13388514518737793 3.3913424015045166 1.13014602661132812
0.893141627311706543 3.1432645320892334 0.464443564414978027
1.29594922065734863 7.58895730972290039 2.17089128494262695
-1.80502223968505859 4.0997767448425293 -0.807190537452697754
1.04071605205535889 7.27346658706665039 3.78593993186950684
0.170610368251800537 3.39072513580322266 -0.651274919509887695
-0.264077633619308472 6.97898769378662109 2.1269080638885498
1.82299244403839111 2.68692350387573242 -0.643014669418334961
0.756588637828826904 3.06069087982177734 -0.112551510334014893
-1.6590503454208374 4.27907371520996094 -0.616788566112518311
0.150359272956848145 3.2854912281036377 -0.595542371273040771
0.100240081548690796 5.85116434097290039 2.06667637825012207
0.471956968307495117 2.86439013481140137 -0.343080043792724609
-0.533420205116271973 5.40241050720214844 0.862954258918762207
0.728562474250793457 4.13445663452148438 0.977997303009033203
-1.27289235591888428 4.68330049514770508 -0.543543159961700439
0.131871283054351807 3.29485607147216797 -0.598449945449829102
1.02958428859710693 3.01232814788818359 0.1273002028465271
0.153071165084838867 3.36779570579528809 -0.506955265998840332
-0.413494408130645752 0.789994955062866211 -0.235979855060577393
0.000841170549392700195 6.35917377471923828 0.828115344047546387
0.286623001098632812 3.20881104469299316 -0.507194221019744873
-2.15094685554504395 7.71173286437988281 2.01963233947753906
0.858177363872528076 6.05634975433349609 2.06892728805541992
0.409757316112518311 4.6540074348449707 -0.157609373331069946
0.485764265060424805 5.05543994903564453 1.31449341773986816
0.36074364185333252 4.17516183853149414 0.640556931495666504
0.379689574241638184 3.31051778793334961 -0.240850567817687988
2.49557399749755859 6.92085599899291992 3.31321454048156738
0.0878260135650634766 3.25461792945861816 -0.650980830192565918
1.24832844734191895 4.03831577301025391 -0.301732361316680908
0.826544880867004395 6.90326547622680664 2.20294523239135742
0.0312294363975524902 7.36282777786254883 2.15446853637695312
-1.44418144226074219 4.55566692352294922 -0.756874978542327881
0.187486663460731506 3.33244705200195312 -0.485415905714035034
-0.0525327026844024658 2.86666369438171387 -0.720437884330749512
0.334209680557250977 3.47289156913757324 -0.534720361232757568
0.209692955017089844 4.8881840705871582 -0.161533474922180176
-1.7515411376953125 4.37846279144287109 0.314956188201904297
-1.54452848434448242 3.45275163650512695 -0.729011416435241699
-1.82362794876098633 6.70821046829223633 2.12119722366333008
0.16730201244354248 3.22770404815673828 -0.502727031707763672
-1.17442798614501953 4.77445363998413086 -0.216222643852233887
0.496136248111724854 3.21623897552490234 -0.197821840643882751
-0.886624336242675781 5.39063739776611328 0.0939382538199424744
0.2360706627368927 3.32362914085388184 -0.514822840690612793
0.413831591606140137 3.420196533203125 -0.476652204990386963
-1.21638011932373047 7.40599679946899414 2.16908764839172363
-0.909742236137390137 5.32490396499633789 -0.21683947741985321
-0.205379486083984375 3.09812092781066895 -0.680593788623809814
-0.930582702159881592 2.98813819885253906 -0.674091339111328125
0.0938037633895874023 3.26927542686462402 -0.605916857719421387
0.284932255744934082 3.30266833305358887 -0.53303450345993042
0.413343966007232666 7.59918308258056641 2.21618151664733887
-0.521125912666320801 5.49156332015991211 0.0665658116340637207
0.181014955043792725 3.96727204322814941 -0.169954225420951843
0.18501909077167511 3.30778717994689941 -0.49422144889831543
-0.0739332139492034912 5.4348602294921875 2.07796931266784668
1.78102695941925049 2.21963906288146973 -0.551396489143371582
1.58648383617401123 7.72199440002441406 2.21289849281311035
-2.13100957870483398 4.72660970687866211 -0.116144850850105286
0.628299415111541748 4.27115869522094727 0.301256179809570312
-0.160627707839012146 5.62326288223266602 0.544562041759490967
1.03468501567840576 4.91467714309692383 -0.094287574291229248
-0.545095384120941162 7.15371847152709961 2.27200961112976074
0.34690779447555542 3.38923120498657227 -0.49042975902557373
-0.485838770866394043 3.28533363342285156 -0.651025116443634033
-0.280346155166625977 5.06293582916259766 -0.00800907611846923828
0.5177878737449646 4.92395687103271484 1.40735518932342529
0.321528315544128418 3.47518682479858398 -0.54029393196105957
-1.15611982345581055 5.25294780731201172 -0.447102099657058716
0.515491306781768799 5.44322443008422852 2.07520484924316406
-0.710529983043670654 5.41365766525268555 0.422929644584655762
0.0391900613903999329 5.29349946975708008 0.227446198463439941
-0.557565867900848389 7.95496749877929688 2.04860734939575195
0.309576153755187988 3.26600742340087891 -0.505438923835754395
0.141830861568450928 3.2847902774810791 -0.517187356948852539
-1.72938573360443115 4.23247575759887695 0.00414311885833740234
-1.24533092975616455 7.08124446868896484 2.29463028907775879
-0.0680564641952514648 3.04771709442138672 -0.627297639846801758
0.201404929161071777 3.30671405792236328 -0.536675214767456055
-0.223851859569549561 5.78153467178344727 2.05991601943969727
-0.437651634216308594 0.776435256004333496 -0.227637350559234619
1.44518506526947021 2.86120390892028809 0.511956691741943359
0.451501369476318359 3.46339750289916992 0.114697396755218506
0.2423553466796875 3.04589462280273438 -0.363743126392364502
0.186265900731086731 8.0565032958984375 2.42110562324523926
0.812293648719787598 5.37749814987182617 0.332448720932006836
-0.287757128477096558 6.26507711410522461 2.15644931793212891
-1.07890129089355469 5.04336118698120117 0.824587702751159668
-0.0138190388679504395 6.48009920120239258 2.20788025856018066
0.0139751434326171875 3.03655052185058594 -0.300186991691589355
0.379773139953613281 6.38600349426269531 2.16289305686950684
-1.7327960729598999 4.61455297470092773 -0.510401129722595215
-1.68100440502166748 4.75838994979858398 0.826958358287811279
-0.694647729396820068 5.27434396743774414 -0.102060019969940186
-0.527050137519836426 2.97379422187805176 -0.647024452686309814
0.443612813949584961 2.88400816917419434 -0.282510697841644287
-0.0565745830535888672 3.0407860279083252 -0.555169641971588135
-0.483694314956665039 5.01136922836303711 0.116062402725219727
0.684523880481719971 6.31496524810791016 2.25773239135742188
0.771974861621856689 2.88437962532043457 0.0420408248901367188
-1.58089649677276611 6.87165117263793945 2.18918895721435547
0.184787452220916748 3.23777174949645996 -0.481734633445739746
-0.861072838306427002 3.94929075241088867 -0.693866848945617676
-0.1629132479429245 7.06397628784179688 2.11722135543823242
-1.58348894119262695 4.17651176452636719 -0.773369789123535156
0.665484130382537842 5.01454544067382812 0.347481012344360352
-1.52522444725036621 4.42906618118286133 -0.567291140556335449
0.389947175979614258 2.98169398307800293 -0.320573627948760986
-1.12003970146179199 2.67914056777954102 -0.635635077953338623
0.683507800102233887 4.26139307022094727 1.47294378280639648
0.990236401557922363 3.91555190086364746 1.0729668140411377
0.200892537832260132 3.339874267578125 -0.471855461597442627
0.131934702396392822 4.81694889068603516 -0.375863075256347656
0.37997087836265564 6.70651102066040039 2.27455878257751465
1.10673630237579346 2.39457106590270996 -0.129915714263916016
-1.62906825542449951 3.75083255767822266 -0.0728335380554199219
-0.452237308025360107 7.21982097625732422 2.19447970390319824
-1.70615589618682861 2.92356395721435547 -0.411062002182006836
1.06299853324890137 7.07609796524047852 2.05334997177124023
0.5482674241065979 3.14822292327880859 -0.73222053050994873
1.14806568622589111 6.28940153121948242 2.07361316680908203
-0.972764194011688232 7.22099542617797852 2.2377476692199707
-0.661463022232055664 5.29234218597412109 -0.460455119609832764
