ply
format ascii 1.0
element vertex 202
comment vertices
property float x
property float y
property float z
end_header
-0.551442205905914307 2.53169369697570801 -0.551498532295227051
2.7585299015045166 7.82848167419433594 0.627948284149169922
-1.00339949131011963 7.52088212966918945 3.21385478973388672
-3.04613709449768066 2.78265738487243652 -0.584865212440490723
2.41253757476806641 3.2724912166595459 0.727434694766998291
3.39493012428283691 4.76811504364013672 -0.412207096815109253
-0.425108671188354492 3.46813750267028809 1.02761673927307129
1.15255856513977051 6.96470069885253906 3.56031179428100586
-0.630587339401245117 2.55690264701843262 -0.587890326976776123
3.34442472457885742 6.17161321640014648 2.97954010963439941
-0.519883394241333008 2.47570991516113281 -0.601598203182220459
1.68716931343078613 2.19928455352783203 0.154934734106063843
-1.8811182975769043 3.11674022674560547 -0.765780329704284668
-0.564677774906158447 2.50508022308349609 -0.488598227500915527
-0.518272280693054199 2.51677727699279785 -0.589421749114990234
0.22929731011390686 6.16152572631835938 1.87910926342010498
2.34988236427307129 7.04047584533691406 2.45878505706787109
1.28577256202697754 2.922821044921875 -0.776662290096282959
1.39982402324676514 3.52112269401550293 -0.279679208993911743
-0.522054374217987061 2.5090484619140625 -0.58301931619644165
-1.39638006687164307 2.42183518409729004 -0.645741403102874756
-2.20087265968322754 3.3804316520690918 -0.374060094356536865
3.15261983871459961 4.68612861633300781 0.739332795143127441
-0.526709616184234619 2.44674539566040039 -0.568441033363342285
1.36987876892089844 2.98164129257202148 -0.832364439964294434
-0.549398124217987061 2.57259368896484375 -0.576561093330383301
-2.34874844551086426 4.30832242965698242 -0.68927997350692749
-1.17166852951049805 3.6615450382232666 1.01004862785339355
2.15169811248779297 5.95113086700439453 0.195859149098396301
1.9686506986618042 2.90601348876953125 -0.66218721866607666
-1.79899239540100098 3.64763641357421875 0.4132729172706604
1.30775690078735352 2.52976322174072266 -0.502996563911437988
0.123738318681716919 2.42156314849853516 -0.285463124513626099
-0.0198634117841720581 4.16875457763671875 1.10408258438110352
-0.518644213676452637 2.5031578540802002 -0.567580640316009521
3.23014974594116211 1.80555891990661621 -0.546947360038757324
-0.526220619678497314 2.47747898101806641 -0.596060752868652344
2.09856176376342773 4.75872135162353516 -0.456760406494140625
1.34640133380889893 3.0947265625 0.991642355918884277
-1.55175626277923584 1.99649453163146973 -0.551058053970336914
-0.548723995685577393 2.55105996131896973 -0.58236241340637207
0.82577204704284668 0.22821807861328125 -0.477590858936309814
1.55707502365112305 6.1184229850769043 1.82058870792388916
-0.546176016330718994 2.58124518394470215 -0.591696202754974365
-0.64347386360168457 7.93816089630126953 2.37564468383789062
-0.533181071281433105 2.42949724197387695 -0.576396465301513672
1.26078391075134277 2.95040345191955566 -0.885680079460144043
-1.57019686698913574 3.55593752861022949 -0.804842352867126465
-0.521744668483734131 2.50190138816833496 -0.574717938899993896
1.70602607727050781 2.0698695182800293 -0.779097437858581543
-0.539777278900146484 2.42149782180786133 -0.543713867664337158
-1.69150137901306152 3.55928587913513184 0.420766651630401611
-0.58301246166229248 2.54944849014282227 -0.61410832405090332
1.07371532917022705 2.16822934150695801 -0.42026674747467041
1.68171799182891846 3.3036501407623291 0.49383389949798584
-0.482479721307754517 2.52871799468994141 -0.558683156967163086
1.40775012969970703 3.6284031867980957 -0.350237816572189331
1.7117006778717041 7.16227340698242188 2.37551093101501465
-0.553992569446563721 2.53778839111328125 -0.565931499004364014
-0.54726111888885498 2.56177616119384766 -0.607564926147460938
-0.570065498352050781 2.51789736747741699 -0.531889498233795166
1.28847289085388184 2.95227169990539551 -0.782432734966278076
-0.547637879848480225 2.55513358116149902 -0.592509031295776367
-1.76722097396850586 2.57494306564331055 -0.609994113445281982
3.07758927345275879 4.30671787261962891 -0.456649869680404663
-0.157959491014480591 2.42960453033447266 0.225949749350547791
1.79141449928283691 2.92107200622558594 -0.694575190544128418
-0.550036489963531494 2.54993367195129395 -0.575477540493011475
0.154640629887580872 2.51045751571655273 0.0166815966367721558
1.28210043907165527 2.94933557510375977 -0.882742643356323242
-0.555164694786071777 2.55481195449829102 -0.591290056705474854
-0.19316527247428894 2.95903158187866211 -0.710530459880828857
1.2294914722442627 2.79850268363952637 -0.421075522899627686
1.61635732650756836 1.68368148803710938 -0.450362265110015869
1.27151250839233398 2.92233800888061523 -0.812352240085601807
-0.750423133373260498 2.46770477294921875 -0.0065609365701675415
-1.45949137210845947 2.49330234527587891 -0.376614362001419067
-2.66114163398742676 3.58298492431640625 -0.662443816661834717
-0.557635247707366943 2.55154967308044434 -0.54462897777557373
2.37262129783630371 7.79844856262207031 0.902296304702758789
-1.16987705230712891 2.48688578605651855 -0.408732593059539795
-0.521439790725708008 2.48918533325195312 -0.579859614372253418
-0.522296607494354248 2.52529335021972656 -0.62519603967666626
-0.616868376731872559 2.49472522735595703 -0.494504541158676147
1.19453656673431396 2.22592449188232422 -0.344035685062408447
0.0928754806518554688 3.27199101448059082 0.850729227066040039
2.54467582702636719 0.468436479568481445 -0.559607207775115967
1.88200008869171143 3.24448227882385254 0.461224526166915894
-2.29864120483398438 3.24234867095947266 -0.350889116525650024
0.465928256511688232 3.25628519058227539 0.850036978721618652
1.46643352508544922 3.29009389877319336 -0.149084955453872681
0.980132043361663818 3.22796940803527832 1.03737723827362061
2.74272465705871582 2.94601678848266602 -0.67752540111541748
1.25892043113708496 2.96042609214782715 -0.865439951419830322
-0.59891819953918457 2.57864999771118164 -0.564450681209564209
-0.556389212608337402 2.51998686790466309 -0.525507211685180664
-0.519580245018005371 2.54185676574707031 -0.595152318477630615
1.60433554649353027 3.03843235969543457 -0.447643280029296875
1.61045324802398682 2.65351247787475586 -0.644528508186340332
1.26458120346069336 2.95845723152160645 -0.878589928150177002
-2.27388310432434082 3.01927947998046875 -0.641554474830627441
-0.551421940326690674 2.54249978065490723 -0.580439090728759766
-0.513267874717712402 2.46847677230834961 -0.555258572101593018
0.055763930082321167 2.65376615524291992 -0.603752970695495605
1.37403202056884766 2.89784717559814453 -0.778232812881469727
0.31126856803894043 2.39245700836181641 -0.238675385713577271
2.49151277542114258 1.89995884895324707 -0.168114930391311646
-0.564141511917114258 2.52349185943603516 -0.520936489105224609
1.44463849067687988 3.10241484642028809 0.803046464920043945
-0.559074878692626953 2.53019046783447266 -0.595183253288269043
-0.554665505886077881 2.52210545539855957 -0.532128095626831055
2.23647618293762207 2.86530780792236328 -0.707640409469604492
1.60151016712188721 3.43069791793823242 -0.350471556186676025
-1.53545331954956055 2.57594037055969238 -0.559814035892486572
1.11182856559753418 2.39430093765258789 -0.778397977352142334
-0.561158359050750732 2.54494333267211914 -0.544580280780792236
-2.0530545711517334 2.1223292350769043 -0.429850190877914429
-0.521863818168640137 2.46395111083984375 -0.552337527275085449
-0.498411118984222412 2.48317217826843262 -0.573850870132446289
1.39787757396697998 2.95409297943115234 -0.855556249618530273
3.14011502265930176 4.80727720260620117 -0.408211439847946167
-1.63428056240081787 2.59906601905822754 -0.719613611698150635
-0.551873445510864258 2.56422305107116699 -0.558695673942565918
-0.522245585918426514 2.5053868293762207 -0.583234310150146484
0.305759787559509277 6.09369659423828125 1.73831260204315186
0.4988841712474823 3.43014860153198242 1.09259140491485596
-0.555655419826507568 2.55845355987548828 -0.58033829927444458
-0.556102275848388672 2.53200125694274902 -0.534894466400146484
1.27687180042266846 2.95156049728393555 -0.87097620964050293
1.2644730806350708 2.94261503219604492 -0.883146703243255615
-0.474646627902984619 2.46724867820739746 -0.608893871307373047
-0.52556157112121582 2.50959682464599609 -0.554078936576843262
-0.00809276103973388672 2.98508167266845703 0.403165072202682495
2.99025225639343262 5.14858531951904297 -0.425445735454559326
-0.902123391628265381 7.80244827270507812 2.20749974250793457
1.55951130390167236 3.52575898170471191 -0.260085850954055786
1.47965168952941895 3.03221368789672852 0.0293728113174438477
3.47462368011474609 4.65572309494018555 -0.421200156211853027
2.38113236427307129 2.69114065170288086 0.0527667999267578125
-1.41749656200408936 3.57846498489379883 0.686570167541503906
0.289634644985198975 1.96016538143157959 -0.672114253044128418
-0.52148061990737915 2.46410632133483887 -0.55185544490814209
-2.49286270141601562 2.7694861888885498 -0.661811113357543945
-0.514806568622589111 2.51307272911071777 -0.60191112756729126
-0.557022809982299805 2.56383824348449707 -0.591301798820495605
-2.64760255813598633 2.7046966552734375 -0.26866602897644043
-1.1943657398223877 2.56565713882446289 -0.202400684356689453
-0.507218718528747559 2.51199746131896973 -0.579539716243743896
1.26221680641174316 2.92441725730895996 -0.75095665454864502
-0.428210020065307617 2.47618865966796875 -0.552416622638702393
-0.521690487861633301 2.48498964309692383 -0.570767104625701904
-0.549525201320648193 2.56186890602111816 -0.584588408470153809
-0.52448570728302002 2.4682610034942627 -0.545004427433013916
-0.549633383750915527 2.55478334426879883 -0.59173893928527832
-0.0141493380069732666 1.44756186008453369 -0.64211726188659668
-1.7776648998260498 2.99634695053100586 -0.096596837043762207
-0.544627547264099121 2.55972456932067871 -0.615362942218780518
-0.291132271289825439 2.14559674263000488 -0.164636820554733276
3.17799878120422363 3.80781126022338867 -0.437273502349853516
0.266561329364776611 2.60326409339904785 -0.0104708969593048096
2.37352776527404785 6.36465978622436523 1.99791955947875977
-0.487326145172119141 2.45249533653259277 -0.64520949125289917
1.61674511432647705 3.10917520523071289 -0.156251311302185059
-0.548464298248291016 2.54243803024291992 -0.579941093921661377
-0.497505456209182739 2.48653173446655273 -0.60599827766418457
0.898724079132080078 3.80965828895568848 -0.229613497853279114
1.4017413854598999 2.94775915145874023 -0.385307163000106812
0.133187711238861084 3.19884181022644043 0.551523089408874512
2.01048088073730469 2.91243767738342285 -0.647228598594665527
-0.457431882619857788 2.50124812126159668 -0.621881842613220215
-0.707042515277862549 3.44010829925537109 0.931602239608764648
1.28643715381622314 2.91634559631347656 -0.821637749671936035
1.26243710517883301 2.96726155281066895 -0.868529677391052246
2.34765100479125977 0.750092744827270508 -0.574354708194732666
-0.919364631175994873 3.47175502777099609 0.967736721038818359
2.0296330451965332 2.91947650909423828 -0.796529650688171387
1.71570706367492676 3.3679804801940918 -0.605896949768066406
2.84545421600341797 7.55726337432861328 0.727631926536560059
-0.54913020133972168 2.54247784614562988 -0.574578523635864258
-0.548151552677154541 2.5774378776550293 -0.602614402770996094
-1.96106517314910889 3.66077637672424316 0.698582768440246582
-0.52271425724029541 2.49105501174926758 -0.577431201934814453
-0.515950977802276611 2.51318836212158203 -0.597565352916717529
-1.48389875888824463 2.88868856430053711 -0.686542391777038574
-0.571874260902404785 2.52205896377563477 -0.620705962181091309
-0.526225090026855469 2.51284265518188477 -0.545438826084136963
-1.81269657611846924 2.40168499946594238 -0.529288768768310547
0.145230501890182495 3.26440572738647461 0.979383230209350586
-0.551129162311553955 2.53568840026855469 -0.579121232032775879
1.03326189517974854 2.60178613662719727 -0.743112146854400635
1.66615843772888184 2.90252327919006348 -0.173925161361694336
1.27372205257415771 2.92348527908325195 -0.820942223072052002
-0.547383427619934082 2.53266167640686035 -0.593208611011505127
-0.230208739638328552 3.30862784385681152 0.757044136524200439
-1.99056553840637207 2.45343852043151855 -0.60621488094329834
-0.0383238829672336578 2.52946972846984863 -0.116143874824047089
-0.726096391677856445 3.34832930564880371 0.737700104713439941
-0.504462063312530518 2.54983377456665039 -0.62417900562286377
0.0768339335918426514 2.76216673851013184 -0.599716603755950928
0.175676360726356506 4.22597885131835938 1.11193382740020752
-0.549569487571716309 2.53694963455200195 -0.587052047252655029
-1.56003439426422119 4.07023334503173828 0.939552605152130127
