ply
format ascii 1.0
element vertex 84
comment vertices
property float x
property float y
property float z
end_header
-0.26147162914276123 2.84692692756652832 -0.490982711315155029
-0.248989000916481018 2.89078283309936523 -0.460074812173843384
-1.75369751453399658 3.52540206909179688 -0.642680048942565918
-0.244342684745788574 2.89603352546691895 -0.477853387594223022
-0.249393358826637268 2.91118454933166504 -0.497182399034500122
-1.7077251672744751 3.60768795013427734 -0.786392152309417725
-0.322820782661437988 2.92247104644775391 -0.45141226053237915
-0.472522139549255371 2.88463234901428223 -0.31304815411567688
-0.252425700426101685 2.88727998733520508 -0.457133442163467407
-0.257597535848617554 2.89608263969421387 -0.474225103855133057
-0.139440536499023438 2.83258438110351562 -0.342922747135162354
-0.252646058797836304 2.91429567337036133 -0.501284539699554443
-0.255749404430389404 2.90465140342712402 -0.482164949178695679
-0.516943693161010742 2.8314964771270752 -0.463592410087585449
-0.251532316207885742 2.90906047821044922 -0.490563631057739258
-1.68823862075805664 3.57489800453186035 -0.712621748447418213
-1.71254968643188477 3.5747225284576416 -0.75443190336227417
-0.258337646722793579 2.92280030250549316 -0.482878178358078003
-0.242650195956230164 2.90164685249328613 -0.485429525375366211
-0.287907123565673828 2.8992314338684082 -0.320789754390716553
-0.307530462741851807 2.80073690414428711 -0.512042701244354248
-1.79463934898376465 3.49426388740539551 -0.684636950492858887
-0.242571115493774414 2.86501312255859375 -0.470798373222351074
-0.239712357521057129 2.87227773666381836 -0.447226554155349731
-0.248950660228729248 2.92071104049682617 -0.498332738876342773
-0.237959235906600952 2.88683748245239258 -0.458784669637680054
-0.210133820772171021 2.74851012229919434 -0.53793567419052124
-0.123827807605266571 2.87326359748840332 -0.351977318525314331
-0.239847883582115173 2.85789632797241211 -0.410096466541290283
-0.259587466716766357 2.90138840675354004 -0.480013042688369751
-0.245803594589233398 2.9160163402557373 -0.484416306018829346
-0.240827813744544983 2.8925166130065918 -0.475797057151794434
-0.241184309124946594 2.89641618728637695 -0.50767892599105835
-0.252833813428878784 2.90782260894775391 -0.489566177129745483
-0.255797296762466431 2.91104888916015625 -0.493649333715438843
-0.244613617658615112 2.88580536842346191 -0.478539466857910156
-0.247389286756515503 2.88565802574157715 -0.523208141326904297
-0.245908662676811218 2.90380859375 -0.480691730976104736
-0.22467041015625 2.83944487571716309 -0.497561454772949219
-1.74799048900604248 3.57670378684997559 -0.691595315933227539
-1.79343569278717041 3.5441901683807373 -0.526647806167602539
-0.2459392249584198 2.88888263702392578 -0.4667510986328125
-0.208474859595298767 2.92923903465270996 -0.367544978857040405
-1.7375037670135498 3.58507704734802246 -0.747919559478759766
-0.260770350694656372 2.90248274803161621 -0.497232109308242798
-0.249514535069465637 2.91602969169616699 -0.488642334938049316
-0.245190322399139404 2.90814065933227539 -0.469148367643356323
-1.69949519634246826 3.56336665153503418 -0.728498339653015137
-0.251943826675415039 2.89409613609313965 -0.495315700769424438
-0.142134532332420349 2.92774677276611328 -0.479734152555465698
-1.69613075256347656 3.58002424240112305 -0.727141141891479492
-0.240111485123634338 2.87323164939880371 -0.452122747898101807
-0.255149811506271362 2.87547826766967773 -0.458374142646789551
-0.240042850375175476 2.88788318634033203 -0.44677850604057312
-1.70678377151489258 3.57738232612609863 -0.733615636825561523
-1.70308184623718262 3.54859781265258789 -0.389319628477096558
-0.246852293610572815 2.89701080322265625 -0.370272040367126465
-0.239238083362579346 2.88085150718688965 -0.414246231317520142
-0.244058459997177124 2.93008327484130859 -0.422570705413818359
-0.251457482576370239 2.89638805389404297 -0.470875173807144165
-1.76570236682891846 3.51259946823120117 -0.565180361270904541
-0.244295790791511536 2.89043688774108887 -0.476972699165344238
-0.248682126402854919 2.90713858604431152 -0.514617443084716797
-0.246855854988098145 2.91270351409912109 -0.393093615770339966
-1.76454043388366699 3.50498676300048828 -0.68049854040145874
-0.252083510160446167 2.76331830024719238 -0.520748734474182129
-0.245036467909812927 2.89796090126037598 -0.492534399032592773
-0.23895205557346344 2.88304853439331055 -0.446100443601608276
-0.243909776210784912 2.89631080627441406 -0.477877646684646606
-0.236254394054412842 2.87882184982299805 -0.419621020555496216
-1.79324328899383545 3.50303959846496582 -0.712905228137969971
-0.25347563624382019 2.90746164321899414 -0.499487072229385376
-0.247570961713790894 2.89864015579223633 -0.463462114334106445
-0.241696760058403015 2.91045045852661133 -0.415024131536483765
-0.244594529271125793 2.90570926666259766 -0.476372182369232178
-0.242422401905059814 2.89039969444274902 -0.474366128444671631
-0.26075899600982666 2.84801316261291504 -0.493654549121856689
-0.231975659728050232 2.84897947311401367 -0.493494719266891479
-0.251823663711547852 2.89727997779846191 -0.459934920072555542
-0.243796452879905701 2.9044187068939209 -0.511464357376098633
-0.34226033091545105 2.89015984535217285 -0.479310035705566406
-1.7707439661026001 3.50572466850280762 -0.650737524032592773
-1.7498551607131958 3.56796073913574219 -0.646937966346740723
-0.243954971432685852 2.91057658195495605 -0.467963725328445435
