ply
format ascii 1.0
element vertex 256
comment vertices
property float x
property float y
property float z
end_header
-0.171653866767883301 2.87498307228088379 -0.493729591369628906
1.44091248512268066 7.89892959594726562 1.92822682857513428
1.95416200160980225 5.60737323760986328 -0.826877713203430176
-1.78212606906890869 3.52591967582702637 0.0646277666091918945
0.62889552116394043 4.13159036636352539 1.27399373054504395
-1.12848746776580811 2.53919100761413574 -0.632044196128845215
1.5197608470916748 7.77453231811523438 -0.6176949143409729
2.0295250415802002 4.12151527404785156 -0.788362860679626465
2.95735859870910645 5.29512166976928711 -0.135977447032928467
-0.254835605621337891 2.95982933044433594 -0.442999184131622314
1.79808235168457031 7.4434208869934082 -0.0549299418926239014
-0.0608081817626953125 2.38433933258056641 -0.649409890174865723
1.46817505359649658 6.84526586532592773 2.64723777770996094
-1.87646770477294922 3.429473876953125 -0.511913657188415527
-0.048281252384185791 4.33706808090209961 -0.557227194309234619
2.52313399314880371 7.05244588851928711 -0.710767447948455811
2.80858850479125977 4.40141201019287109 -0.890371203422546387
-0.793893218040466309 3.74267148971557617 0.42322242259979248
-0.298981904983520508 2.89546513557434082 -0.500130295753479004
1.88323092460632324 2.45648813247680664 -0.759305834770202637
-0.261082947254180908 2.95103907585144043 -0.53536069393157959
1.57846379280090332 4.77349519729614258 -0.783629298210144043
1.89396929740905762 7.49834060668945312 -0.304813802242279053
0.174973011016845703 2.16733121871948242 -0.758348584175109863
-1.60818040370941162 3.5525517463684082 -0.797355115413665771
-0.519680917263031006 3.04432368278503418 -0.41099780797958374
-0.628353416919708252 2.93443965911865234 -0.207176685333251953
2.69049787521362305 4.99585962295532227 -0.363379448652267456
-0.0766015052795410156 2.39064311981201172 -0.72730565071105957
1.68127584457397461 7.81349086761474609 0.503370940685272217
3.20472121238708496 4.75419044494628906 -0.641052484512329102
-0.251056849956512451 2.99337100982666016 -0.424736648797988892
0.464568853378295898 3.26587080955505371 -0.60914081335067749
-0.180667340755462646 3.90528655052185059 0.31242215633392334
1.91241717338562012 6.28076791763305664 -0.67369002103805542
-2.39023327827453613 3.15676116943359375 -0.65757441520690918
-0.763434231281280518 2.5033416748046875 -0.531949043273925781
-2.28153491020202637 3.23276805877685547 -0.287800639867782593
-0.195844650268554688 2.99083948135375977 -0.458537817001342773
1.51348662376403809 7.69354152679443359 -0.536830902099609375
1.54533815383911133 7.56271505355834961 -0.631342411041259766
-0.0565143227577209473 2.85372781753540039 -0.193247675895690918
-1.08722901344299316 3.64441466331481934 0.332024216651916504
-0.243031948804855347 2.93785214424133301 -0.547147035598754883
2.22188639640808105 3.5379180908203125 -0.842927455902099609
2.13548588752746582 7.53793048858642578 -0.658977270126342773
-0.187831491231918335 2.91480684280395508 -0.494788795709609985
0.0671003758907318115 2.22944355010986328 -0.718844413757324219
-0.618916988372802734 2.77739715576171875 -0.443173885345458984
-0.235702261328697205 2.93425512313842773 -0.520474910736083984
2.46722078323364258 4.97014904022216797 -0.671521008014678955
1.95454823970794678 7.3917083740234375 0.539774537086486816
-1.77342784404754639 3.50600576400756836 -0.61108022928237915
-1.78445100784301758 3.00702166557312012 -0.582561194896697998
-1.7534034252166748 3.52739691734313965 -0.685039043426513672
0.12255433201789856 2.32621908187866211 -0.631824314594268799
0.918617188930511475 4.04428625106811523 -0.777263283729553223
0.041540980339050293 2.2930912971496582 -0.698693752288818359
2.70847988128662109 4.88962459564208984 0.504009902477264404
2.20869064331054688 7.45022964477539062 -0.408743977546691895
0.210569024085998535 2.5841212272644043 -0.688156545162200928
-0.402725338935852051 3.01722240447998047 -0.501569986343383789
-0.0403451323509216309 2.37160611152648926 -0.715648949146270752
0.367891311645507812 3.15530157089233398 -0.327355176210403442
1.20947599411010742 3.54808187484741211 -0.132937014102935791
1.89448678493499756 7.445465087890625 -0.127267345786094666
2.69092226028442383 5.16748952865600586 -0.645155072212219238
-1.57467043399810791 3.52225494384765625 -0.187120437622070312
1.85580277442932129 5.70759487152099609 -0.6841583251953125
-0.33205336332321167 2.8929133415222168 -0.521306872367858887
-0.244599342346191406 3.03763294219970703 -0.171794235706329346
2.33201718330383301 4.37043333053588867 -0.827563762664794922
1.59349727630615234 7.28127908706665039 -0.658751606941223145
2.62834262847900391 5.35683250427246094 -0.757268428802490234
3.00143218040466309 5.31751012802124023 -0.311529457569122314
1.53528690338134766 7.78240346908569336 0.110558450222015381
-0.887147068977355957 2.74621748924255371 -0.608365535736083984
-0.45075678825378418 2.6980128288269043 -0.574360013008117676
-1.92717981338500977 3.37679100036621094 -0.561596155166625977
1.81241858005523682 7.97523593902587891 -0.470406055450439453
2.73317718505859375 5.23027896881103516 -0.248322010040283203
1.15499281883239746 4.3970026969909668 -0.768593847751617432
0.103794023394584656 2.65850687026977539 -0.608357787132263184
-0.35338747501373291 2.75566411018371582 -0.514141619205474854
-0.228337198495864868 2.82538056373596191 -0.422929227352142334
1.79802823066711426 7.48011875152587891 0.18810582160949707
1.48953747749328613 8.25459671020507812 0.638835906982421875
-1.66080880165100098 3.52718114852905273 -0.265877693891525269
-0.281422436237335205 2.96859455108642578 -0.543004035949707031
-1.15205812454223633 3.0466153621673584 -0.574780941009521484
-0.131402134895324707 4.1038360595703125 0.180906414985656738
-0.315781176090240479 2.88637471199035645 -0.45874449610710144
-0.127358615398406982 2.610260009765625 -0.552055597305297852
-0.755760073661804199 2.46069002151489258 -0.581331193447113037
-0.0123297497630119324 2.89536094665527344 -0.212181508541107178
-0.362955808639526367 2.90365052223205566 -0.330933451652526855
-0.174357801675796509 2.97388076782226562 -0.472526371479034424
1.9987647533416748 7.6379241943359375 -0.246254503726959229
1.67131030559539795 5.90850925445556641 -0.635152935981750488
-1.64870226383209229 3.53408288955688477 0.124903112649917603
-0.254225432872772217 3.65102410316467285 0.115511119365692139
0.446045279502868652 2.9053504467010498 -0.605010092258453369
-0.280431389808654785 2.95649456977844238 -0.512259840965270996
-0.246055915951728821 2.85300302505493164 -0.49322432279586792
1.19577562808990479 7.89700412750244141 -0.601881861686706543
-1.80955708026885986 3.14902758598327637 -0.131182074546813965
-2.22953176498413086 3.18698430061340332 -0.505456089973449707
1.63915300369262695 4.31511402130126953 -0.801088690757751465
-1.99683511257171631 2.95554637908935547 -0.693323493003845215
-2.42549419403076172 3.15282225608825684 -0.649311065673828125
-0.25509333610534668 2.84356546401977539 -0.55632704496383667
-0.230246230959892273 2.93976306915283203 -0.515038907527923584
2.59624862670898438 4.96793794631958008 -0.484302878379821777
-0.205813288688659668 2.90491533279418945 -0.530636310577392578
1.77164340019226074 7.55973958969116211 -0.609994471073150635
-0.197284102439880371 2.8321690559387207 -0.497032076120376587
-2.19432663917541504 3.35522341728210449 -0.358402669429779053
-0.211221039295196533 2.82591748237609863 -0.574757933616638184
-0.251617074012756348 2.93534946441650391 -0.49755561351776123
-0.132682874798774719 2.71577143669128418 -0.530870437622070312
2.35617804527282715 3.95783329010009766 -0.834414839744567871
-1.8702232837677002 3.49857735633850098 -0.601083159446716309
1.46002292633056641 7.87012958526611328 -0.522637009620666504
-1.15834987163543701 2.30964422225952148 -0.573126077651977539
1.75030231475830078 7.27249670028686523 -0.385616302490234375
-0.655044734477996826 3.54496574401855469 0.0879571437835693359
0.0422952175140380859 2.39231014251708984 -0.656951606273651123
2.01741552352905273 3.02444648742675781 -0.90039372444152832
-1.71077644824981689 3.54930710792541504 -0.388460457324981689
1.74916267395019531 7.63827800750732422 -0.381422221660614014
-0.277993381023406982 2.90546751022338867 -0.469547420740127563
2.02779531478881836 4.84276103973388672 -0.796270608901977539
-0.102109849452972412 3.11120796203613281 -0.263386040925979614
2.77598166465759277 5.07785701751708984 -0.291298747062683105
1.76444673538208008 7.57279491424560547 0.986876904964447021
0.0659822970628738403 2.36147785186767578 -0.670670986175537109
-1.6924583911895752 3.59399914741516113 -0.719265341758728027
2.64200377464294434 5.30323457717895508 -0.702169954776763916
0.00611215829849243164 2.25665068626403809 -0.694061875343322754
2.22399663925170898 3.8434755802154541 -0.800574660301208496
-0.210837841033935547 3.01496410369873047 -0.50411069393157959
2.31742429733276367 5.19638967514038086 -0.0993851423263549805
1.51284074783325195 3.7635810375213623 -0.774680137634277344
2.65643978118896484 4.96484088897705078 -0.801942825317382812
-0.267729014158248901 2.96654081344604492 -0.516854166984558105
1.24271523952484131 2.20904040336608887 -0.77066349983215332
2.5747368335723877 4.8771214485168457 -0.435198128223419189
-0.271123230457305908 2.9690244197845459 -0.471221804618835449
2.77565884590148926 5.20604324340820312 0.130564451217651367
-1.73114669322967529 3.6215057373046875 -0.652521312236785889
-0.393027126789093018 2.92181611061096191 -0.534789979457855225
0.063649296760559082 2.93683385848999023 -0.399446785449981689
-1.82401549816131592 3.48986053466796875 -0.63816523551940918
1.89753198623657227 7.60389471054077148 0.0122786462306976318
-0.682521820068359375 2.80164217948913574 -0.465032637119293213
-0.212069034576416016 2.80879783630371094 -0.440954804420471191
2.5384371280670166 4.93174076080322266 -0.648655295372009277
1.91941916942596436 7.17655134201049805 0.290864884853363037
-0.418034911155700684 3.11089348793029785 -0.0954476594924926758
-0.138939142227172852 3.15731477737426758 0.0616252422332763672
2.05132126808166504 5.19324445724487305 -0.724865972995758057
1.87945389747619629 7.48732900619506836 -0.483048439025878906
-1.57106423377990723 3.42921304702758789 0.105715394020080566
-0.749021649360656738 3.6717994213104248 -0.136479496955871582
-0.66861957311630249 2.8724205493927002 -0.627547860145568848
-0.406522393226623535 2.81907367706298828 -0.48245692253112793
0.00847347080707550049 2.39636373519897461 -0.620731949806213379
0.166611969470977783 2.50672101974487305 -0.692468166351318359
2.57363700866699219 5.28202581405639648 -0.645472109317779541
2.15678715705871582 7.79424047470092773 -0.0143700987100601196
0.363440990447998047 2.79204416275024414 -0.673084378242492676
1.98312520980834961 7.48569440841674805 -0.300259560346603394
1.12684392929077148 4.1776423454284668 -0.824892520904541016
-0.305212020874023438 2.92651200294494629 -0.428540349006652832
1.72624731063842773 7.45374917984008789 0.474482297897338867
-0.115876972675323486 2.36829686164855957 -0.717097878456115723
1.66402721405029297 4.23912858963012695 -1.01466226577758789
2.45881271362304688 4.98657083511352539 -0.0711921453475952148
1.6533970832824707 2.10041308403015137 -0.797963738441467285
2.31887030601501465 6.77262115478515625 -0.709619641304016113
2.14181423187255859 7.94074678421020508 -0.562377810478210449
-1.82146906852722168 3.43305730819702148 -0.658975958824157715
2.05849003791809082 4.46506786346435547 -0.844919085502624512
-1.67207074165344238 3.55182600021362305 -0.255668818950653076
2.51291227340698242 4.9518275260925293 -0.510176360607147217
-0.130263745784759521 2.91833186149597168 -0.224351167678833008
-0.239896982908248901 2.948272705078125 -0.307640314102172852
2.83929562568664551 5.27270269393920898 -0.27087816596031189
-0.19771161675453186 3.11162281036376953 -0.313425660133361816
1.94346523284912109 7.50624752044677734 -0.627367496490478516
-0.145431861281394958 4.28237819671630859 0.443833351135253906
-0.21965324878692627 2.96427583694458008 -0.45894622802734375
1.71767497062683105 8.16994953155517578 0.601515769958496094
2.80127167701721191 5.13881635665893555 -0.14342421293258667
-1.43214786052703857 2.95984649658203125 -0.714927911758422852
-2.2203667163848877 2.87751150131225586 -0.201107442378997803
1.73525941371917725 7.22180795669555664 2.29001140594482422
1.56994533538818359 7.51085948944091797 -0.482312232255935669
-1.72449445724487305 3.48250007629394531 -0.418543636798858643
-0.222220361232757568 2.86043834686279297 -0.488978207111358643
-0.330253422260284424 2.96338701248168945 -0.571698844432830811
-0.156890928745269775 2.84289455413818359 -0.276050448417663574
-0.136855423450469971 3.75918674468994141 -0.427944302558898926
0.523673534393310547 4.08328485488891602 0.121152937412261963
-1.73224735260009766 3.29275774955749512 -0.589228153228759766
2.54704165458679199 5.05777263641357422 -0.756701946258544922
2.84157800674438477 5.21378231048583984 -0.646648406982421875
-0.0809830576181411743 3.10301065444946289 -0.032592475414276123
-0.864917099475860596 3.96619772911071777 0.167266368865966797
2.61102533340454102 5.20304059982299805 -0.6399039626121521
1.6695249080657959 7.85310888290405273 0.249532401561737061
2.77562832832336426 5.20749521255493164 -0.55568993091583252
-2.08560752868652344 3.28332304954528809 -0.419140160083770752
-0.354781150817871094 2.6180272102355957 -0.56385338306427002
1.75224113464355469 7.40524148941040039 -0.0190509408712387085
-0.358169645071029663 2.95620822906494141 -0.52216637134552002
-2.02228617668151855 3.26597046852111816 -0.216977149248123169
-0.366174012422561646 2.94762802124023438 -0.420050233602523804
-2.27566242218017578 3.37028050422668457 -0.581251561641693115
-1.53432774543762207 3.54788351058959961 -0.0345197319984436035
-0.56619793176651001 2.65809178352355957 -0.560394883155822754
-0.30130845308303833 2.89065909385681152 -0.501656532287597656
-0.334114611148834229 2.89052438735961914 -0.361021131277084351
-1.97877895832061768 3.45273828506469727 -0.631563782691955566
-0.113992929458618164 2.29615020751953125 -0.662707746028900146
-0.248705267906188965 2.97422528266906738 -0.530720174312591553
-0.210734933614730835 2.90432453155517578 -0.452493876218795776
2.63657712936401367 5.01241016387939453 -0.343402504920959473
2.66285014152526855 4.75287628173828125 0.191827535629272461
-0.137551337480545044 2.86182117462158203 -0.348423302173614502
1.65300464630126953 4.25541925430297852 -0.87179720401763916
1.76832711696624756 8.01279449462890625 -0.486088454723358154
-0.241808623075485229 2.90223026275634766 -0.4964713454246521
-0.255916833877563477 2.88287353515625 -0.479180783033370972
2.86792469024658203 5.26872062683105469 -0.197068750858306885
-0.188856065273284912 2.89351367950439453 -0.495350927114486694
1.458931565284729 7.62199258804321289 -0.622083961963653564
-0.144665062427520752 2.75185394287109375 -0.516713917255401611
1.60549712181091309 7.59388017654418945 -0.553829789161682129
-0.160973936319351196 2.90185976028442383 -0.441063404083251953
1.75890147686004639 7.71770143508911133 -0.556294560432434082
-0.897053956985473633 2.70374131202697754 -0.586709022521972656
0.201600700616836548 4.04180335998535156 0.248167634010314941
-0.210742846131324768 3.73981022834777832 0.343576133251190186
2.0113375186920166 7.49965333938598633 -0.646856427192687988
-0.780404210090637207 3.45355820655822754 0.0795233249664306641
1.60143792629241943 7.51932430267333984 -0.375047922134399414
-0.27215200662612915 2.88400840759277344 -0.561323404312133789
-0.539444983005523682 2.89508223533630371 -0.505785465240478516
-0.778726041316986084 2.48309040069580078 -0.616218209266662598
-1.86090171337127686 3.37400913238525391 -0.516720592975616455
3.14691042900085449 5.01390600204467773 -0.361649811267852783
1.73634326457977295 7.39474678039550781 -0.0377973318099975586
1.58394622802734375 3.19936943054199219 -0.72890627384185791
-1.85587143898010254 3.46037721633911133 -0.512491822242736816
-0.261473000049591064 2.93522143363952637 -0.477856993675231934
