ply
format ascii 1.0
element vertex 256
comment vertices
property float x
property float y
property float z
end_header
0.954487800598144531 3.11467099189758301 -0.703662574291229248
3.57255268096923828 7.60306692123413086 3.99606680870056152
-0.766158163547515869 8.22528076171875 3.82931947708129883
3.836669921875 5.17428684234619141 -0.75223243236541748
-2.2586517333984375 4.55059051513671875 -0.445358544588088989
1.43684518337249756 5.49550342559814453 1.02980005741119385
-1.50348484516143799 1.46937429904937744 -0.401260584592819214
0.195198595523834229 4.73552322387695312 -0.718799114227294922
1.4312741756439209 6.97521543502807617 1.97719144821166992
-1.01711726188659668 3.61227321624755859 0.495119571685791016
-0.925304830074310303 3.30290889739990234 -0.691738903522491455
2.25363779067993164 3.58118557929992676 -0.750408530235290527
3.26320099830627441 4.93655109405517578 0.492816686630249023
1.18612635135650635 3.86958122253417969 -0.632132351398468018
-0.421579658985137939 5.84447002410888672 1.30620002746582031
0.868059396743774414 2.55280160903930664 -0.81696164608001709
-0.64801335334777832 4.34413051605224609 -0.418561071157455444
2.66238903999328613 4.78451681137084961 -0.579348325729370117
1.14553070068359375 4.20750951766967773 -0.316891908645629883
0.445628255605697632 3.77271127700805664 -0.713358879089355469
0.896614372730255127 2.60285615921020508 -0.812505781650543213
0.831751346588134766 4.51194953918457031 1.5093228816986084
2.56705069541931152 7.01570320129394531 3.43274879455566406
0.874994039535522461 8.80382537841796875 2.61741018295288086
-1.01442050933837891 4.86293649673461914 0.960912346839904785
-0.847208738327026367 2.41359710693359375 -0.315340667963027954
-1.1363825798034668 1.73105764389038086 -0.59485393762588501
-1.43385100364685059 4.79105854034423828 -0.612196743488311768
-0.955404818058013916 3.43678617477416992 -0.609397649765014648
0.718317508697509766 3.46956038475036621 -0.667898833751678467
0.838785111904144287 2.69977974891662598 -0.801826655864715576
2.21473383903503418 2.9402470588684082 -0.428410887718200684
1.17641317844390869 3.93630647659301758 -0.621338427066802979
-1.11950993537902832 6.03682088851928711 1.2929072380065918
1.23264110088348389 3.92986178398132324 -0.362718284130096436
0.853721439838409424 2.60282611846923828 -0.819174468517303467
-0.940609216690063477 4.79111337661743164 -0.862634658813476562
1.05264031887054443 3.04114580154418945 -0.765126526355743408
1.66237032413482666 8.55010795593261719 3.33627796173095703
0.63374781608581543 5.16863870620727539 0.87735283374786377
3.79793334007263184 1.53004741668701172 -0.862427234649658203
-0.754410207271575928 4.44344568252563477 -0.565119326114654541
-0.855701208114624023 5.02019929885864258 0.101943515241146088
1.22556078433990479 4.07024765014648438 -0.584820806980133057
0.730048775672912598 3.27905917167663574 -0.672383546829223633
0.125389605760574341 1.87420845031738281 -0.833383798599243164
-1.63291621208190918 5.60402965545654297 0.644056737422943115
0.786561489105224609 4.60401344299316406 -0.68669593334197998
1.19047653675079346 4.00024223327636719 -0.441745996475219727
0.838717997074127197 2.52024292945861816 -0.819631278514862061
0.831063628196716309 4.44615411758422852 -0.0609232634305953979
-0.987556934356689453 2.8470008373260498 -0.210222423076629639
-1.04418540000915527 4.11257743835449219 0.12997397780418396
2.87811994552612305 7.96148920059204102 3.90265822410583496
1.70888221263885498 7.00724697113037109 2.86591792106628418
2.43637394905090332 4.91871786117553711 -0.856140732765197754
-0.57308351993560791 3.58953666687011719 -0.65378570556640625
-0.555730640888214111 7.73294353485107422 3.09041643142700195
-1.00205159187316895 2.00868129730224609 -0.0802265480160713196
2.71296215057373047 4.52535486221313477 -0.678057372570037842
-1.04578351974487305 2.18943500518798828 -0.486699044704437256
2.01789045333862305 7.88520383834838867 3.21518921852111816
3.01000523567199707 4.85584163665771484 -0.718792736530303955
2.67553615570068359 4.7744145393371582 -0.411046802997589111
-0.977750599384307861 5.04204654693603516 0.657767057418823242
1.50829172134399414 3.10408568382263184 -0.763783574104309082
2.62316989898681641 5.10640859603881836 1.09846901893615723
0.451032966375350952 4.34369373321533203 -0.675163090229034424
1.24067866802215576 3.95048880577087402 -0.518373429775238037
-1.11144757270812988 3.19717073440551758 -0.583768129348754883
-0.934905350208282471 4.25435352325439453 -0.454336881637573242
0.882912039756774902 2.60330891609191895 -0.802592992782592773
4.1386713981628418 4.09230518341064453 -0.385753870010375977
1.35300338268280029 7.76507043838500977 2.0163264274597168
1.13152110576629639 3.88532090187072754 -0.668782234191894531
-0.5582236647605896 2.00232672691345215 -0.405632913112640381
-1.21648168563842773 4.4395294189453125 -0.730561554431915283
0.0632423162460327148 4.16087532043457031 -0.5894431471824646
1.35292530059814453 4.17091608047485352 -0.268858492374420166
2.40569353103637695 5.33559942245483398 2.4528040885925293
1.34086883068084717 4.06919717788696289 -0.395617157220840454
0.832109689712524414 2.58967828750610352 -0.837282240390777588
-0.400364011526107788 2.05094337463378906 -0.790465712547302246
0.262366384267807007 3.25365471839904785 -0.744468986988067627
2.07048511505126953 4.97635650634765625 1.13300204277038574
-0.122856311500072479 4.82144021987915039 -0.698071777820587158
1.25905108451843262 4.84262275695800781 -0.638279974460601807
0.595176100730895996 3.19463729858398438 -0.706586241722106934
-1.66847014427185059 5.26986980438232422 -0.377991318702697754
-1.08415985107421875 3.20201563835144043 -0.476471245288848877
0.852212846279144287 2.66956472396850586 -0.756233811378479004
1.81382131576538086 3.94947075843811035 -0.68841475248336792
1.10392272472381592 7.80720615386962891 3.59805083274841309
-1.15355765819549561 4.00768899917602539 0.877745389938354492
-1.4318312406539917 5.35590219497680664 0.202365279197692871
-0.899950504302978516 5.16075849533081055 -0.162620723247528076
2.22341394424438477 3.33211326599121094 -0.567937850952148438
0.786632239818572998 2.72308993339538574 -0.816768288612365723
-0.766941428184509277 3.75702095031738281 -0.670341312885284424
-0.863269686698913574 5.07253408432006836 -0.029459664598107338
-1.37980079650878906 4.77139663696289062 -0.688338220119476318
1.56148397922515869 4.26781940460205078 -0.0814382731914520264
-0.447079211473464966 3.54653835296630859 -0.595413148403167725
0.842981100082397461 2.59951019287109375 -0.833272397518157959
1.33993625640869141 4.36856603622436523 -0.619482994079589844
2.37945365905761719 3.33922362327575684 1.24213635921478271
0.646425008773803711 4.84007740020751953 0.397650599479675293
1.39113378524780273 4.15799808502197266 -0.557337701320648193
0.835713505744934082 2.56053256988525391 -0.81018984317779541
0.0462806075811386108 2.82166123390197754 -0.734953463077545166
2.00371432304382324 7.06773710250854492 2.12230753898620605
1.54943621158599854 3.63726377487182617 -0.714349746704101562
1.11226534843444824 3.12201094627380371 -0.732691109180450439
0.859873294830322266 2.58441948890686035 -0.803735494613647461
-0.816752612590789795 1.60598528385162354 -0.612379372119903564
0.93753504753112793 7.08855724334716797 2.12840700149536133
-0.533185243606567383 5.10324382781982422 0.178268939256668091
-0.96764826774597168 4.86018657684326172 0.459766894578933716
1.16458427906036377 3.97529745101928711 -0.464884430170059204
2.5634009838104248 3.83210134506225586 -0.758187472820281982
-0.946262061595916748 3.42625546455383301 -0.61303335428237915
-1.07955276966094971 4.54890727996826172 -0.187593445181846619
-0.924037396907806396 4.26943874359130859 -0.617379665374755859
2.2145841121673584 4.33397531509399414 -0.6572151780128479
0.832176685333251953 2.57625341415405273 -0.827050864696502686
1.18964922428131104 3.94690442085266113 -0.473768323659896851
-0.886343002319335938 2.51692581176757812 -0.156664147973060608
-1.03029286861419678 4.22955417633056641 -0.507958948612213135
1.08323884010314941 4.15695810317993164 -0.364964604377746582
-1.41506457328796387 1.86406576633453369 -0.669576048851013184
-0.953510642051696777 2.04098844528198242 -0.190307170152664185
-1.07741856575012207 6.11157846450805664 1.33945059776306152
1.20600259304046631 3.89098882675170898 -0.547915637493133545
0.190860122442245483 3.48253464698791504 -0.720703005790710449
1.74576425552368164 3.72337055206298828 -0.424514353275299072
2.86614608764648438 4.98460102081298828 0.824089288711547852
0.440512806177139282 3.97803473472595215 -0.683926522731781006
-0.630395710468292236 2.38559865951538086 -0.185029000043869019
-1.0394209623336792 1.84506189823150635 -0.404544949531555176
1.18385457992553711 3.93992137908935547 -0.543481171131134033
3.28930211067199707 4.93714284896850586 0.338609397411346436
0.447695076465606689 5.16875505447387695 -0.582490503787994385
0.192445635795593262 5.7397456169128418 0.969189286231994629
2.91749668121337891 4.46230506896972656 -0.386298656463623047
-0.724333524703979492 4.77306127548217773 0.202901303768157959
0.544085204601287842 2.54360413551330566 -0.73962557315826416
0.853343784809112549 2.52433013916015625 -0.810021340847015381
0.833767056465148926 2.56702566146850586 -0.821237921714782715
-0.934280991554260254 2.03895235061645508 -0.544940948486328125
1.2362053394317627 8.61472702026367188 3.41962766647338867
0.315977990627288818 8.18225002288818359 2.40164613723754883
3.04377412796020508 6.12448596954345703 1.79495859146118164
2.57517838478088379 3.84409332275390625 -0.67243725061416626
-0.100796177983283997 5.22150468826293945 0.593668341636657715
1.22134673595428467 5.4812474250793457 1.02406144142150879
-0.156553000211715698 4.78511619567871094 -0.744220554828643799
0.79143977165222168 3.16538429260253906 -0.730649888515472412
-0.348005175590515137 3.43616962432861328 -0.726469159126281738
-0.523155570030212402 5.00862550735473633 -0.671506881713867188
2.3665306568145752 4.92540454864501953 -0.659849643707275391
-0.79639732837677002 1.97555887699127197 -0.809380173683166504
-0.769814252853393555 4.28629636764526367 -0.688022613525390625
0.726540088653564453 2.9348609447479248 -0.704321861267089844
0.855962872505187988 2.97631573677062988 -0.672081947326660156
3.57778716087341309 1.22402358055114746 -0.897232174873352051
1.28864860534667969 3.90026760101318359 -0.45864066481590271
-0.585319817066192627 3.45050215721130371 -0.646908164024353027
-1.07140433788299561 4.35744094848632812 0.456252574920654297
-0.510065078735351562 5.44926071166992188 0.81884300708770752
-0.0397687703371047974 6.04945611953735352 1.94756221771240234
-1.1092149019241333 3.57132530212402344 0.77564924955368042
2.03662204742431641 3.21175336837768555 -0.555416285991668701
2.7804405689239502 5.08671379089355469 1.13317477703094482
-1.19671344757080078 5.05712366104125977 -0.340904653072357178
-0.731002986431121826 2.12967729568481445 -0.455932945013046265
-1.01043260097503662 2.06427264213562012 -0.315786361694335938
0.8768463134765625 2.51874518394470215 -0.769126772880554199
1.92616391181945801 4.02351045608520508 0.482039421796798706
1.01453554630279541 4.33173084259033203 -0.302926301956176758
2.74251484870910645 4.69495344161987305 0.615120649337768555
-1.17698526382446289 2.99919319152832031 -0.58832395076751709
1.68941080570220947 4.02768707275390625 -0.304209798574447632
3.07610273361206055 3.22563838958740234 -0.51468348503112793
-0.969091236591339111 4.16976213455200195 -0.515496611595153809
1.30773401260375977 3.30408835411071777 -0.652122378349304199
-1.11212801933288574 3.19604897499084473 -0.609366476535797119
1.31494534015655518 4.15628623962402344 -0.280903279781341553
-1.08675301074981689 3.33585882186889648 -0.250439316034317017
-1.09323394298553467 1.90383350849151611 -0.347084879875183105
-0.971062421798706055 3.47434377670288086 -0.543302714824676514
-1.03807175159454346 3.22934746742248535 -0.638516843318939209
0.752251088619232178 2.9038996696472168 -0.774900436401367188
0.857596099376678467 2.58517122268676758 -0.817757189273834229
1.51124870777130127 4.33529138565063477 -0.171773090958595276
0.833391368389129639 2.56641888618469238 -0.823865950107574463
1.47533714771270752 2.61568617820739746 -0.728205859661102295
0.66184234619140625 3.05229854583740234 -0.758993625640869141
1.07651329040527344 4.07114887237548828 -0.451845914125442505
-1.21995103359222412 3.86648082733154297 0.979982733726501465
3.38286781311035156 4.40686321258544922 -0.412139803171157837
0.899464428424835205 3.13483643531799316 -0.722617447376251221
0.589652001857757568 2.84524273872375488 -0.810823976993560791
1.18697869777679443 3.91783571243286133 -0.554147958755493164
1.35604488849639893 3.54873371124267578 -0.685157716274261475
1.2421872615814209 3.98663425445556641 -0.468609929084777832
-0.0260815396904945374 4.66520357131958008 -0.698125183582305908
-0.180123522877693176 3.0475766658782959 -0.727796614170074463
1.24743080139160156 4.28808307647705078 -0.242251455783843994
-0.147974178194999695 4.74166727066040039 -0.774884045124053955
1.46900820732116699 3.67577290534973145 -0.502522528171539307
-0.797073185443878174 5.01475858688354492 -0.122190937399864197
-1.63760006427764893 5.33371162414550781 -0.0540732666850090027
1.52976047992706299 3.6030433177947998 -0.864298462867736816
-0.224389895796775818 4.82051610946655273 -0.662043571472167969
0.835392117500305176 2.5666050910949707 -0.821013748645782471
0.449063807725906372 3.75529623031616211 -0.609306275844573975
1.25352644920349121 4.04132175445556641 -0.563374161720275879
0.875318408012390137 2.61306023597717285 -0.777849853038787842
-0.37684100866317749 1.59087681770324707 -0.787531018257141113
0.96026688814163208 3.31791949272155762 -0.67416834831237793
0.961660385131835938 3.13287806510925293 -0.7705116868019104
0.488549143075942993 3.95684123039245605 -0.696576952934265137
3.25678014755249023 4.99229574203491211 0.188915327191352844
0.808816909790039062 2.52987504005432129 -0.798209249973297119
1.15400946140289307 7.693572998046875 3.11675643920898438
1.16638731956481934 4.01505851745605469 -0.37631639838218689
1.11363112926483154 5.46272087097167969 1.63327383995056152
-1.38628780841827393 2.57683110237121582 -0.763534963130950928
0.834974467754364014 2.53696751594543457 -0.825620114803314209
0.767554044723510742 3.07662248611450195 -0.760950684547424316
-1.08561134338378906 1.90566694736480713 -0.570756316184997559
3.34140992164611816 1.2504887580871582 -0.361046731472015381
2.64602875709533691 4.63221502304077148 -0.224325254559516907
0.826393723487854004 2.60306811332702637 -0.828042328357696533
-1.17521286010742188 5.10711526870727539 1.20166552066802979
0.78863447904586792 2.5667572021484375 -0.807122170925140381
-0.923150241374969482 1.7677614688873291 -0.54162067174911499
1.00378227233886719 3.56023550033569336 -0.639864027500152588
-0.979245662689208984 1.93008530139923096 -0.0909105464816093445
-0.787042558193206787 3.60848784446716309 -0.696352958679199219
1.22995924949645996 3.9062507152557373 -0.626048505306243896
-0.91775047779083252 4.38272476196289062 -0.559619486331939697
1.31495606899261475 3.91043615341186523 -0.452455639839172363
-0.868662834167480469 5.16713333129882812 -0.611327111721038818
2.44368076324462891 4.92896890640258789 -0.830644667148590088
-0.853997230529785156 5.0145115852355957 0.0460599362850189209
1.23496294021606445 3.84135961532592773 -0.661426842212677002
-0.232355430722236633 5.54670000076293945 1.18820595741271973
-0.926720201969146729 4.95944690704345703 0.309226721525192261
1.27885949611663818 3.90732955932617188 -0.579295158386230469
-0.639782428741455078 4.97819805145263672 -0.68438410758972168
-1.19430899620056152 6.04462671279907227 2.05041170120239258
-0.877037465572357178 4.13880538940429688 -0.0736782476305961609
0.861185550689697266 2.5993659496307373 -0.823572397232055664
-1.48574447631835938 4.75611686706542969 0.920679390430450439
-0.145864129066467285 3.99194812774658203 -0.681535542011260986
