ply
format ascii 1.0
element vertex 92
comment vertices
property float x
property float y
property float z
end_header
0.0812653154134750366 2.55387520790100098 -0.467691183090209961
-1.84406816959381104 3.14606165885925293 -0.598923683166503906
1.59744811058044434 2.28539657592773438 -0.687805712223052979
0.0742374733090400696 2.54604840278625488 -0.459425389766693115
0.0899987965822219849 2.50336337089538574 -0.411089628934860229
0.0625199154019355774 2.55697059631347656 -0.420520007610321045
0.0649723559617996216 2.52411150932312012 -0.51233285665512085
0.0050315558910369873 2.5194542407989502 -0.379445761442184448
-1.80500125885009766 3.13514232635498047 -0.603409051895141602
0.0450428426265716553 2.5370638370513916 -0.430731087923049927
-1.75706183910369873 3.25837349891662598 -0.592922985553741455
1.63184225559234619 2.10236430168151855 -0.630400538444519043
0.0755215063691139221 2.54745578765869141 -0.451674938201904297
0.0732654035091400146 2.5534358024597168 -0.44684174656867981
-1.83421087265014648 3.12131667137145996 -0.586585700511932373
0.0570689886808395386 2.55750060081481934 -0.517059624195098877
0.0480139106512069702 2.57062435150146484 -0.470852911472320557
0.0635783076286315918 2.55087041854858398 -0.479906857013702393
0.0819095522165298462 2.49904704093933105 -0.315022557973861694
0.0623757988214492798 2.60506892204284668 -0.405269891023635864
0.0463328957557678223 2.53975319862365723 -0.420290499925613403
-1.82083821296691895 3.12933969497680664 -0.600870132446289062
0.0659128949046134949 2.55394887924194336 -0.466948181390762329
0.070367179811000824 2.54459095001220703 -0.464009672403335571
0.0417157560586929321 2.5691993236541748 -0.455940574407577515
0.0568921454250812531 2.58171343803405762 -0.555144190788269043
0.0562953054904937744 2.51190471649169922 -0.311762183904647827
0.0642004907131195068 2.56610393524169922 -0.43753698468208313
0.0607010573148727417 2.54439663887023926 -0.432554662227630615
0.0746584385633468628 2.55839133262634277 -0.485661178827285767
-1.79736769199371338 3.14977741241455078 -0.601778566837310791
1.58473992347717285 2.27555346488952637 -0.659733951091766357
0.0526821017265319824 2.56229329109191895 -0.452203243970870972
0.0722036659717559814 2.57567358016967773 -0.499253779649734497
1.57543110847473145 2.2667241096496582 -0.629703879356384277
0.0776892527937889099 2.55067205429077148 -0.486291706562042236
1.69548940658569336 2.15335392951965332 -0.606651723384857178
-1.84582281112670898 3.11320161819458008 -0.618905484676361084
0.0729532390832901001 2.55002665519714355 -0.445552676916122437
0.0419284403324127197 2.5617673397064209 -0.480508089065551758
0.0628266483545303345 2.5532534122467041 -0.473607957363128662
0.0497411787509918213 2.54500842094421387 -0.457225382328033447
-1.81698238849639893 3.13079309463500977 -0.60002511739730835
0.0713175982236862183 2.54978442192077637 -0.446831792593002319
0.0754010602831840515 2.54238247871398926 -0.517980694770812988
0.0465999282896518707 2.53685903549194336 -0.430006086826324463
0.0762742459774017334 2.55026960372924805 -0.490462779998779297
0.0689562857151031494 2.46844100952148438 -0.208125784993171692
-0.00874691084027290344 2.5430142879486084 -0.421283364295959473
-1.81314432621002197 3.17297935485839844 -0.584209561347961426
1.61820113658905029 2.29542136192321777 -0.659721970558166504
0.0570399202406406403 2.5496366024017334 -0.465289384126663208
0.0641155317425727844 2.55882024765014648 -0.438042253255844116
1.55382621288299561 2.29515624046325684 -0.667437851428985596
0.0691367089748382568 2.54788661003112793 -0.532324671745300293
0.0717180818319320679 2.54759788513183594 -0.427228569984436035
-1.82482004165649414 3.12810111045837402 -0.593547463417053223
0.0694899559020996094 2.55671906471252441 -0.491591095924377441
0.0368008017539978027 2.52924776077270508 -0.407279789447784424
0.0843162834644317627 2.53791618347167969 -0.502212643623352051
0.0771986022591590881 2.55420041084289551 -0.485957920551300049
0.0486889965832233429 2.52111625671386719 -0.362208187580108643
0.0216959435492753983 2.56225228309631348 -0.443923234939575195
0.0661202892661094666 2.57927608489990234 -0.523810625076293945
0.0747056752443313599 2.55595278739929199 -0.458837956190109253
0.0739760473370552063 2.54474496841430664 -0.410418868064880371
-0.0218850821256637573 2.49160289764404297 -0.487140059471130371
1.56674790382385254 2.28472995758056641 -0.713816225528717041
0.0689109265804290771 2.5554044246673584 -0.456232577562332153
-0.00282534956932067871 2.50332021713256836 -0.369768381118774414
0.0748858153820037842 2.55873560905456543 -0.478283345699310303
0.0743957757949829102 2.55624485015869141 -0.463551759719848633
0.0697298794984817505 2.46165943145751953 -0.346265465021133423
0.0675082504749298096 2.5515286922454834 -0.488904744386672974
0.0481535047292709351 2.54695796966552734 -0.478990793228149414
0.0742549002170562744 2.55733036994934082 -0.466370314359664917
0.0719085410237312317 2.55725669860839844 -0.476848632097244263
1.6152721643447876 2.29532337188720703 -0.673653781414031982
0.0552693307399749756 2.55264115333557129 -0.473137736320495605
0.0555017590522766113 2.55083179473876953 -0.511345326900482178
0.0639831870794296265 2.5376441478729248 -0.448060184717178345
-1.80991518497467041 3.14494442939758301 -0.601058602333068848
0.0675205811858177185 2.54715967178344727 -0.431726664304733276
0.0802857130765914917 2.55432820320129395 -0.489966839551925659
0.0569899119436740875 2.53541803359985352 -0.284081935882568359
0.0414329022169113159 2.52481341361999512 -0.376240521669387817
-1.84962153434753418 3.08142209053039551 -0.622622191905975342
0.0557577833533287048 2.55033707618713379 -0.479180485010147095
1.5845876932144165 2.27401876449584961 -0.641815185546875
0.0112913250923156738 2.49597883224487305 -0.353463143110275269
0.0720179229974746704 2.55605649948120117 -0.457231372594833374
0.0747086554765701294 2.54714798927307129 -0.425202846527099609
