ply
format ascii 1.0
element vertex 224
comment vertices
property float x
property float y
property float z
end_header
-0.26147162914276123 2.84692692756652832 -0.490982711315155029
1.41034531593322754 8.32633018493652344 1.69951498508453369
1.74655413627624512 5.66694831848144531 -0.826295673847198486
-1.76907587051391602 3.57798528671264648 0.0117738060653209686
0.632545053958892822 4.52725934982299805 1.04196667671203613
-1.27484679222106934 2.62802791595458984 -0.65974128246307373
1.22532963752746582 7.9049224853515625 -0.623337209224700928
2.84280657768249512 3.75653362274169922 -0.780964314937591553
3.49572610855102539 5.24449348449707031 -0.186724871397018433
-0.248989000916481018 2.89078283309936523 -0.460074812173843384
1.63686108589172363 7.52789640426635742 -0.0858100727200508118
-0.00795050710439682007 2.37113571166992188 -0.665233194828033447
1.4443129301071167 7.26645946502685547 2.42162251472473145
-0.101009756326675415 4.57129859924316406 -0.640722036361694336
2.83129787445068359 6.8228459358215332 -0.726071357727050781
3.53110480308532715 4.16228008270263672 -0.901849925518035889
-0.767102837562561035 3.54006457328796387 0.685897707939147949
-0.244342684745788574 2.89603352546691895 -0.477853387594223022
2.68459677696228027 1.43757808208465576 -0.76859438419342041
-0.249393358826637268 2.91118454933166504 -0.497182399034500122
1.4491574764251709 4.83745527267456055 -0.702920258045196533
1.90531229972839355 7.39576101303100586 -0.302591919898986816
0.141928911209106445 2.18174839019775391 -0.767560184001922607
-1.7077251672744751 3.60768795013427734 -0.786392152309417725
-0.322820782661437988 2.92247104644775391 -0.45141226053237915
2.89514899253845215 4.86119461059570312 -0.540613949298858643
-0.0229131504893302917 2.37417125701904297 -0.722425878047943115
1.61057460308074951 7.61762905120849609 0.643770933151245117
3.74921584129333496 4.52468109130859375 -0.717431187629699707
-0.252425700426101685 2.88727998733520508 -0.457133442163467407
0.265052229166030884 3.26752853393554688 -0.638179004192352295
-0.256228327751159668 3.87158942222595215 0.546400845050811768
1.62019705772399902 6.35334920883178711 -0.652058064937591553
-2.54314208030700684 3.13853883743286133 -0.657490372657775879
-0.690381765365600586 2.53843426704406738 -0.549408614635467529
-2.30995893478393555 3.21195554733276367 -0.326747417449951172
-0.257597535848617554 2.89608263969421387 -0.474225103855133057
1.23666715621948242 7.76164436340332031 -0.565050303936004639
1.35095906257629395 7.53558635711669922 -0.649477899074554443
-1.13585841655731201 3.42296862602233887 0.433318912982940674
-0.252646058797836304 2.91429567337036133 -0.501284539699554443
3.12464141845703125 3.06194424629211426 -0.766647577285766602
2.27481651306152344 7.53642034530639648 -0.699666023254394531
-0.255749404430389404 2.90465140342712402 -0.482164949178695679
0.0485953092575073242 2.25629448890686035 -0.72781217098236084
-0.251532316207885742 2.90906047821044922 -0.490563631057739258
2.44321703910827637 4.98452043533325195 -0.663881540298461914
1.89575076103210449 7.17838335037231445 0.687197983264923096
-1.68823862075805664 3.57489800453186035 -0.712621748447418213
-1.78022050857543945 3.11351108551025391 -0.645844995975494385
-1.71254968643188477 3.5747225284576416 -0.75443190336227417
0.0674394816160202026 2.34623265266418457 -0.663716912269592285
0.330604612827301025 4.17074012756347656 -0.771890223026275635
0.0553802475333213806 2.29584693908691406 -0.706993520259857178
2.82491540908813477 5.14298820495605469 0.262996435165405273
2.64033126831054688 7.20147562026977539 -0.582121133804321289
0.161285087466239929 2.54728174209594727 -0.683432102203369141
-0.258337646722793579 2.92280030250549316 -0.482878178358078003
0.0185863375663757324 2.35019350051879883 -0.715674161911010742
1.41079294681549072 1.92641568183898926 -0.721305727958679199
3.11707210540771484 1.20076489448547363 -0.798433899879455566
2.07564878463745117 7.14826774597167969 -0.154985338449478149
2.73768758773803711 5.17532014846801758 -0.669051110744476318
1.80102252960205078 5.59112119674682617 -0.806814610958099365
-0.242650195956230164 2.90164685249328613 -0.485429525375366211
-0.287907123565673828 2.8992314338684082 -0.320789754390716553
2.79600191116333008 4.08014440536499023 -0.833498835563659668
1.33525955677032471 6.8508906364440918 -0.730888962745666504
2.61716842651367188 5.45362138748168945 -0.711859226226806641
3.61761999130249023 5.25924587249755859 -0.392735153436660767
1.54279673099517822 7.65440988540649414 0.180112272500991821
-0.838154375553131104 2.76603937149047852 -0.628315150737762451
1.7386699914932251 7.95209741592407227 -0.50392305850982666
2.80439949035644531 5.28196954727172852 -0.236611172556877136
0.732367277145385742 4.42797088623046875 -0.737933218479156494
-0.239712357521057129 2.87227773666381836 -0.447226554155349731
1.77430784702301025 7.45317363739013672 0.159080013632774353
1.49291610717773438 8.04697322845458984 0.824643194675445557
-0.248950660228729248 2.92071104049682617 -0.498332738876342773
-1.28333818912506104 2.78592324256896973 -0.658730685710906982
-0.163559973239898682 4.02503013610839844 0.327616423368453979
-0.237959235906600952 2.88683748245239258 -0.458784669637680054
-0.71765059232711792 2.4962458610534668 -0.579385519027709961
-0.239847883582115173 2.85789632797241211 -0.410096466541290283
-0.259587466716766357 2.90138840675354004 -0.480013042688369751
2.38814234733581543 7.52913093566894531 -0.26821628212928772
1.11139297485351562 6.13000059127807617 -0.724440395832061768
-1.70457839965820312 3.54803776741027832 0.119167499244213104
-0.183212697505950928 3.56184673309326172 0.03445453941822052
0.0453278124332427979 3.06497073173522949 -0.624721646308898926
-0.245803594589233398 2.9160163402557373 -0.484416306018829346
-0.240827813744544983 2.8925166130065918 -0.475797057151794434
0.435217976570129395 8.07306289672851562 -0.649000823497772217
-1.76453924179077148 2.80338621139526367 -0.363909065723419189
-2.34436535835266113 3.23950767517089844 -0.584632158279418945
1.45643055438995361 4.27476406097412109 -0.843234539031982422
-2.00775456428527832 3.05290603637695312 -0.756048381328582764
-2.58840537071228027 3.13160347938537598 -0.636560201644897461
-0.241184309124946594 2.89641618728637695 -0.50767892599105835
-0.252833813428878784 2.90782260894775391 -0.489566177129745483
2.6267545223236084 4.92896413803100586 -0.624226808547973633
-0.255797296762466431 2.91104888916015625 -0.493649333715438843
1.7407609224319458 7.54067707061767578 -0.612651467323303223
-0.244613617658615112 2.88580536842346191 -0.478539466857910156
-2.24170255661010742 3.32027435302734375 -0.387035578489303589
-0.245908662676811218 2.90380859375 -0.480691730976104736
2.75760030746459961 3.93991255760192871 -0.758564651012420654
-1.74799048900604248 3.57670378684997559 -0.691595315933227539
1.27212953567504883 7.9972834587097168 -0.555133342742919922
-1.35956668853759766 2.10504388809204102 -0.604941308498382568
1.63962972164154053 6.87966632843017578 -0.519226253032684326
-0.597739458084106445 3.5539250373840332 0.0367856286466121674
0.0494458675384521484 2.44294238090515137 -0.683032214641571045
2.57719850540161133 2.8214271068572998 -0.849197745323181152
1.68557918071746826 7.63768243789672852 -0.425366133451461792
-0.2459392249584198 2.88888263702392578 -0.4667510986328125
1.61917281150817871 4.63836956024169922 -0.774539053440093994
-0.208474859595298767 2.92923903465270996 -0.367544978857040405
2.9279177188873291 5.05299520492553711 -0.413495540618896484
1.79167234897613525 7.6801300048828125 1.1788489818572998
0.0540440268814563751 2.35532236099243164 -0.687236011028289795
-1.7375037670135498 3.58507704734802246 -0.747919559478759766
2.67027378082275391 5.36057138442993164 -0.671120166778564453
0.0430877953767776489 2.27524948120117188 -0.70755457878112793
2.5439305305480957 3.72161054611206055 -0.721664130687713623
-0.260770350694656372 2.90248274803161621 -0.497232109308242798
1.93712425231933594 5.22972869873046875 -0.0138802602887153625
1.04554867744445801 3.46184492111206055 -0.757435023784637451
2.88820457458496094 4.88413476943969727 -0.757384538650512695
-0.249514535069465637 2.91602969169616699 -0.488642334938049316
1.09632277488708496 2.26888012886047363 -0.748894035816192627
2.50682926177978516 4.59930229187011719 -0.623434662818908691
-0.245190322399139404 2.90814065933227539 -0.469148367643356323
2.88161611557006836 5.18402433395385742 0.138458326458930969
-1.69949519634246826 3.56336665153503418 -0.728498339653015137
-0.251943826675415039 2.89409613609313965 -0.495315700769424438
-1.69613075256347656 3.58002424240112305 -0.727141141891479492
1.86075270175933838 7.66857385635375977 0.041788145899772644
-0.240111485123634338 2.87323164939880371 -0.452122747898101807
2.56947112083435059 4.97086000442504883 -0.668224215507507324
2.23174166679382324 6.4314727783203125 0.190920501947402954
1.89555048942565918 5.39645767211914062 -0.740081846714019775
1.85193765163421631 7.38816547393798828 -0.490885287523269653
-1.6703108549118042 3.52047252655029297 0.0416943281888961792
-0.738555312156677246 3.65022897720336914 -0.228476300835609436
0.0374917313456535339 2.43177032470703125 -0.656007289886474609
0.130914628505706787 2.49895381927490234 -0.697434425354003906
2.54367876052856445 5.30755138397216797 -0.649010360240936279
3.59367156028747559 7.19691133499145508 -0.253535985946655273
0.300493061542510986 2.782196044921875 -0.675113916397094727
2.19859004020690918 7.40930604934692383 -0.326522886753082275
0.974739611148834229 4.13069391250610352 -0.730129539966583252
-0.240042850375175476 2.88788318634033203 -0.44677850604057312
1.75393664836883545 7.33017921447753906 0.56696629524230957
-0.0391883254051208496 2.356201171875 -0.7168121337890625
1.67613756656646729 4.15780162811279297 -0.845954418182373047
2.5024712085723877 4.74333381652832031 -0.0520818978548049927
2.52568864822387695 1.77450656890869141 -0.780564308166503906
2.19355630874633789 6.64546871185302734 -0.655778408050537109
2.25758504867553711 7.95705556869506836 -0.59957587718963623
-1.70678377151489258 3.57738232612609863 -0.733615636825561523
2.12720036506652832 4.53331565856933594 -0.797593176364898682
2.39408326148986816 4.89051389694213867 -0.634774327278137207
-0.246852293610572815 2.89701080322265625 -0.370272040367126465
-0.239238083362579346 2.88085150718688965 -0.414246231317520142
3.06529426574707031 5.30771446228027344 -0.297864466905593872
-0.244058459997177124 2.93008327484130859 -0.422570705413818359
2.03884053230285645 7.53966808319091797 -0.701565325260162354
-0.184453859925270081 4.05881977081298828 0.798902928829193115
-0.251457482576370239 2.89638805389404297 -0.470875173807144165
1.7594839334487915 7.95895719528198242 0.807033300399780273
2.88711047172546387 5.18432140350341797 -0.181802153587341309
-1.54862070083618164 2.28317975997924805 -0.879105567932128906
-2.44614028930664062 2.23267412185668945 -0.459952235221862793
1.71510517597198486 7.63982534408569336 2.05783462524414062
1.41079580783843994 7.42544174194335938 -0.524735927581787109
-0.244295790791511536 2.89043688774108887 -0.476972699165344238
-0.248682126402854919 2.90713858604431152 -0.514617443084716797
-0.246855854988098145 2.91270351409912109 -0.393093615770339966
-0.719715118408203125 3.40755224227905273 -0.604773819446563721
1.35778224468231201 3.50592184066772461 -0.146574467420578003
2.57448601722717285 5.05907154083251953 -0.695879161357879639
3.28073835372924805 5.22853660583496094 -0.6952248215675354
-1.10533285140991211 3.44232463836669922 0.0587553232908248901
2.66186141967773438 5.19506406784057617 -0.643902420997619629
1.61876511573791504 7.70060348510742188 0.370529741048812866
2.98713040351867676 5.23505353927612305 -0.587881684303283691
-2.15640044212341309 3.32847762107849121 -0.512686312198638916
1.58584880828857422 7.38192319869995117 -0.0400820709764957428
-0.245036467909812927 2.89796090126037598 -0.492534399032592773
-2.0813901424407959 3.28553175926208496 -0.272786766290664673
-0.23895205557346344 2.88304853439331055 -0.446100443601608276
-2.38546037673950195 3.30694985389709473 -0.610858559608459473
-1.64482426643371582 3.57650852203369141 -0.129241406917572021
-0.243909776210784912 2.89631080627441406 -0.477877646684646606
-0.236254394054412842 2.87882184982299805 -0.419621020555496216
-0.0356226414442062378 2.28708148002624512 -0.679010272026062012
-0.25347563624382019 2.90746164321899414 -0.499487072229385376
-0.247570961713790894 2.89864015579223633 -0.463462114334106445
2.69683957099914551 4.97162866592407227 -0.451752245426177979
3.54219174385070801 3.94510126113891602 -0.0756758749485015869
-0.241696760058403015 2.91045045852661133 -0.415024131536483765
1.64434397220611572 4.17461013793945312 -0.835628867149353027
1.6436082124710083 8.03484439849853516 -0.495758622884750366
-0.244594529271125793 2.90570926666259766 -0.476372182369232178
-0.242422401905059814 2.89039969444274902 -0.474366128444671631
3.1976625919342041 5.24491167068481445 -0.230305656790733337
-0.26075899600982666 2.84801316261291504 -0.493654549121856689
1.15176951885223389 7.67909097671508789 -0.653030633926391602
1.51782023906707764 7.55290412902832031 -0.560888886451721191
-0.251823663711547852 2.89727997779846191 -0.459934920072555542
1.71687793731689453 7.69176197052001953 -0.570316493511199951
-0.836673915386199951 2.72850847244262695 -0.607238650321960449
0.151861578226089478 3.74582767486572266 0.272187232971191406
-0.225275695323944092 3.70590353012084961 0.420479685068130493
2.13307476043701172 7.50748205184936523 -0.664486229419708252
-0.734765410423278809 3.47590970993041992 -0.0634751468896865845
1.40866553783416748 7.45144128799438477 -0.427712827920913696
-0.243796452879905701 2.9044187068939209 -0.511464357376098633
-0.726091146469116211 2.5200192928314209 -0.612339675426483154
4.0821995735168457 4.65564823150634766 -0.540893137454986572
1.43279445171356201 7.38335561752319336 -0.108310118317604065
1.0418325662612915 2.7646021842956543 -0.743046224117279053
-0.243954971432685852 2.91057658195495605 -0.467963725328445435
