ply
format ascii 1.0
element vertex 256
comment vertices
property float x
property float y
property float z
end_header
0.993057727813720703 3.09758758544921875 -0.624314367771148682
3.58754563331604004 7.20393037796020508 4.24006462097167969
-0.752993941307067871 7.82819128036499023 4.07287788391113281
3.82523989677429199 5.06035614013671875 -0.693423211574554443
-1.79757034778594971 5.12528038024902344 -0.146240532398223877
1.47811627388000488 5.58269977569580078 0.836415588855743408
-1.203102707862854 1.79966938495635986 -0.350250810384750366
0.115164034068584442 4.76654338836669922 -0.732035219669342041
1.25960445404052734 7.47927045822143555 2.08752942085266113
-1.01595985889434814 3.63628220558166504 0.374621570110321045
-0.73739546537399292 3.23144340515136719 -0.715712368488311768
1.99319744110107422 3.63803386688232422 -0.764281272888183594
3.25306868553161621 5.04165887832641602 0.362172961235046387
1.21811842918395996 3.82681918144226074 -0.605260968208312988
-0.351564615964889526 6.14252471923828125 0.902825474739074707
0.727385520935058594 2.50619697570800781 -0.769563853740692139
-0.659292995929718018 4.29848432540893555 -0.382932543754577637
2.79479742050170898 4.77500152587890625 -0.459863960742950439
1.05689024925231934 4.34694433212280273 -0.245912700891494751
0.377920031547546387 3.73172998428344727 -0.715973615646362305
1.03633403778076172 2.71688437461853027 -0.822995424270629883
0.177373543381690979 7.08145284652709961 2.11795616149902344
2.57457685470581055 6.62415981292724609 3.67495131492614746
0.666440010070800781 8.65458106994628906 2.89221882820129395
-1.08437943458557129 4.78299093246459961 0.82621467113494873
-0.869039714336395264 2.39893031120300293 -0.391077429056167603
-0.928341150283813477 1.75645947456359863 -0.584457218647003174
-1.04148232936859131 5.27132225036621094 -0.407525241374969482
-0.925837457180023193 3.42580509185791016 -0.626357078552246094
0.614501595497131348 3.47892260551452637 -0.647836804389953613
0.733135521411895752 2.7972099781036377 -0.850452601909637451
2.56563496589660645 4.10325336456298828 0.0243995189666748047
1.1397784948348999 3.91010475158691406 -0.589970946311950684
-1.38318681716918945 5.97732830047607422 1.47155416011810303
1.269020676612854 4.02167606353759766 -0.211633920669555664
0.791401982307434082 2.68717026710510254 -0.781535029411315918
-0.680808901786804199 5.03052425384521484 -0.81991422176361084
1.15193331241607666 3.05832099914550781 -0.739903688430786133
1.67051100730895996 8.16219425201416016 3.5785369873046875
0.647188782691955566 5.40818643569946289 0.584764480590820312
3.35057353973388672 3.98297405242919922 -0.45307081937789917
-0.670531809329986572 4.37387800216674805 -0.514320135116577148
-0.821704685688018799 5.12707185745239258 0.0984527468681335449
1.28041386604309082 4.09414529800415039 -0.585403501987457275
0.714451253414154053 3.30083823204040527 -0.622128665447235107
-0.164356201887130737 2.22212505340576172 -0.714535951614379883
-1.61411595344543457 5.67637395858764648 0.643079459667205811
0.453839302062988281 5.02025032043457031 -0.469024360179901123
1.14993810653686523 4.07872962951660156 -0.332263797521591187
0.962965488433837891 2.57963442802429199 -0.794050633907318115
0.141592979431152344 5.30717372894287109 0.12548181414604187
-0.952468931674957275 2.72497367858886719 -0.133378326892852783
-1.01969063282012939 4.18127775192260742 0.134615898132324219
2.89231300354003906 7.5634002685546875 4.14666843414306641
1.7100902795791626 6.63988161087036133 3.10056853294372559
2.44122314453125 4.87067127227783203 -0.73385465145111084
-0.526840388774871826 3.59334826469421387 -0.626335740089416504
-0.547105193138122559 7.34719467163085938 3.32974672317504883
-1.01165211200714111 2.02664494514465332 -0.117236912250518799
2.75871801376342773 4.5489349365234375 -0.574912905693054199
-0.961992025375366211 2.27855610847473145 -0.549571990966796875
2.02989721298217773 7.49323272705078125 3.45530128479003906
3.07691574096679688 4.78449869155883789 -0.666552066802978516
2.6995246410369873 4.80168628692626953 -0.29408419132232666
-0.864949584007263184 5.23920345306396484 0.643608927726745605
1.46316719055175781 3.13882279396057129 -0.761676967144012451
2.54845476150512695 5.24232101440429688 0.729542315006256104
0.330659687519073486 4.31619405746459961 -0.696130633354187012
1.30183601379394531 3.98598980903625488 -0.438652008771896362
-1.0224001407623291 3.22382640838623047 -0.565250217914581299
-0.844046115875244141 4.23084831237792969 -0.332785308361053467
0.723118066787719727 2.61255168914794922 -0.806659102439880371
3.33138751983642578 4.66336965560913086 -0.0832670331001281738
0.605474650859832764 8.00587272644042969 2.16516733169555664
1.12640833854675293 3.83939099311828613 -0.633195161819458008
-0.671539247035980225 1.98726999759674072 -0.401204168796539307
-0.818499624729156494 4.68624258041381836 -0.733563542366027832
0.0491754636168479919 4.09758901596069336 -0.584065794944763184
1.37770676612854004 4.35515975952148438 -0.043267667293548584
2.428436279296875 4.91833114624023438 2.68828248977661133
1.37688493728637695 4.26411962509155273 -0.219624638557434082
0.881629288196563721 2.65955162048339844 -0.831761002540588379
-0.366203278303146362 2.13321685791015625 -0.783575773239135742
0.155437946319580078 3.25344419479370117 -0.768536686897277832
1.98390603065490723 5.13615703582763672 0.810251832008361816
-0.160516753792762756 4.85094785690307617 -0.680834114551544189
0.546324372291564941 5.18798732757568359 -0.456908464431762695
0.501756429672241211 3.18167519569396973 -0.687377333641052246
-1.56268191337585449 5.34747076034545898 -0.209965944290161133
-0.96955794095993042 3.22908949851989746 -0.402723103761672974
0.777689337730407715 2.81247043609619141 -0.720918893814086914
0.931455373764038086 4.75519466400146484 -0.45037311315536499
1.1172412633895874 7.4063568115234375 3.8371429443359375
-1.18198287487030029 4.10222625732421875 0.674514412879943848
-1.40869534015655518 5.52667856216430664 0.205295026302337646
-0.924768507480621338 5.25686550140380859 -0.0998444557189941406
2.22484922409057617 4.02994155883789062 -0.293157070875167847
0.61813586950302124 2.78264236450195312 -0.826822757720947266
-0.686013698577880859 3.70477914810180664 -0.705618619918823242
-0.829842746257781982 5.19605398178100586 -0.0180155336856842041
-0.923615992069244385 5.02589273452758789 -0.555837452411651611
1.32411348819732666 4.73923254013061523 0.267580628395080566
-0.398827493190765381 3.5314943790435791 -0.531061649322509766
0.833067417144775391 2.67602109909057617 -0.825976908206939697
1.39799749851226807 4.33735752105712891 -0.637436270713806152
1.27142143249511719 6.64889621734619141 2.05308723449707031
0.336308538913726807 5.23809671401977539 0.366070568561553955
1.50636553764343262 4.16098546981811523 -0.567398548126220703
0.926693141460418701 2.58132839202880859 -0.765097200870513916
0.159439027309417725 2.74034428596496582 -0.733688771724700928
2.14934468269348145 7.18322086334228516 2.38769006729125977
1.81526803970336914 4.31031370162963867 -0.436317890882492065
1.23642301559448242 3.12230563163757324 -0.700556516647338867
0.816066145896911621 2.53977274894714355 -0.744202077388763428
-0.766837894916534424 1.72380328178405762 -0.609350144863128662
0.796118617057800293 7.12151288986206055 2.26065778732299805
-0.525935888290405273 5.27756261825561523 0.236624777317047119
-0.93675696849822998 4.98051309585571289 0.439856052398681641
1.15048384666442871 4.04148197174072266 -0.392373472452163696
2.49431514739990234 3.86727476119995117 -0.775128960609436035
-0.865318834781646729 3.40501260757446289 -0.596739351749420166
-0.905006706714630127 4.3474273681640625 -0.133908659219741821
-0.883495151996612549 4.22502899169921875 -0.576064109802246094
2.37318110466003418 4.50873708724975586 -0.566877543926239014
0.871420025825500488 2.59045767784118652 -0.836050271987915039
1.23632335662841797 4.00793075561523438 -0.371239185333251953
-0.880969345569610596 2.45498013496398926 -0.169188231229782104
-0.989282846450805664 4.23097133636474609 -0.428846806287765503
0.958827197551727295 4.34189510345458984 -0.195869326591491699
-1.11052560806274414 1.88464629650115967 -0.696414709091186523
-0.97918403148651123 2.04262733459472656 -0.28987497091293335
-0.952591300010681152 6.34376144409179688 1.01300203800201416
1.25878047943115234 3.92256784439086914 -0.479140222072601318
0.0846718549728393555 3.45410490036010742 -0.744065046310424805
1.80179595947265625 4.01189184188842773 -0.235440671443939209
2.82612466812133789 5.16451072692871094 0.435567855834960938
-0.399194031953811646 5.0892791748046875 -0.230975687503814697
-0.682533740997314453 2.33378744125366211 -0.24766838550567627
-0.979190468788146973 1.80872654914855957 -0.453217566013336182
1.1616816520690918 4.0280609130859375 -0.464937120676040649
3.2413637638092041 5.0735015869140625 0.22104606032371521
0.197017103433609009 5.29836273193359375 -0.394141495227813721
0.188501656055450439 5.88257503509521484 0.768245518207550049
2.93439912796020508 4.51003742218017578 -0.234876126050949097
-0.74044954776763916 4.79020595550537109 0.183754414319992065
0.431753993034362793 2.52776050567626953 -0.700941920280456543
0.99485933780670166 2.60811471939086914 -0.77783203125
0.9434814453125 2.61698770523071289 -0.822603523731231689
-0.882127583026885986 2.11200904846191406 -0.585041522979736328
1.24665153026580811 8.22563648223876953 3.66222357749938965
0.30093008279800415 7.8319091796875 2.63676261901855469
1.82605504989624023 7.37814044952392578 2.1338348388671875
2.7497560977935791 4.33592653274536133 -0.480885446071624756
-0.166712403297424316 5.37125492095947266 0.435260653495788574
1.07285702228546143 5.63060140609741211 0.81201094388961792
-0.203275769948959351 4.80076885223388672 -0.74874567985534668
0.772904455661773682 3.18230915069580078 -0.695890188217163086
-0.311818301677703857 3.41927146911621094 -0.71904301643371582
-0.410322755575180054 5.15422534942626953 -0.602294802665710449
2.44583463668823242 4.85698986053466797 -0.468281298875808716
-0.696852445602416992 2.0131380558013916 -0.826059281826019287
-0.711869657039642334 4.19482994079589844 -0.732825696468353271
0.695173442363739014 2.95604228973388672 -0.63167273998260498
0.908829927444458008 3.0146477222442627 -0.569293737411499023
3.34409999847412109 3.90947628021240234 -0.476604253053665161
1.36205971240997314 3.95172023773193359 -0.346025615930557251
-0.5305899977684021 3.4561464786529541 -0.595400452613830566
-1.04606509208679199 4.54272651672363281 0.351649761199951172
-0.506610870361328125 5.72139120101928711 0.540672242641448975
-0.00419200770556926727 7.44911098480224609 2.15120601654052734
-1.13383185863494873 3.60987496376037598 0.568792581558227539
1.85332083702087402 3.90466499328613281 -0.278767675161361694
2.82155132293701172 5.29772043228149414 0.750204384326934814
-1.46633720397949219 5.31934833526611328 -0.120519280433654785
-0.666189134120941162 2.1343379020690918 -0.466825485229492188
-0.999284625053405762 2.09520697593688965 -0.412097066640853882
0.989033102989196777 2.57155036926269531 -0.667128443717956543
1.85886156558990479 4.87419271469116211 0.48374408483505249
1.24133729934692383 4.67962360382080078 0.0100913643836975098
2.40230703353881836 4.88486194610595703 0.457916796207427979
-1.02242803573608398 3.06374001502990723 -0.58040463924407959
1.64946222305297852 4.31886386871337891 -0.0172474980354309082
2.97508883476257324 4.2016139030456543 -0.122167229652404785
-0.941207349300384521 4.1409907341003418 -0.42983284592628479
0.724840760231018066 4.37816715240478516 -0.325238823890686035
-1.03764200210571289 3.22712445259094238 -0.628301143646240234
1.29648852348327637 4.3369746208190918 -0.0572192668914794922
-0.943740785121917725 3.21691679954528809 -0.204417169094085693
-1.03285586833953857 1.90727913379669189 -0.427564054727554321
-0.96494293212890625 3.47553491592407227 -0.511483848094940186
-0.944215059280395508 3.23386192321777344 -0.644999682903289795
0.723531544208526611 2.94162130355834961 -0.81010901927947998
0.831147134304046631 2.60534811019897461 -0.737343490123748779
1.50466775894165039 4.53993940353393555 0.0703881978988647461
0.947967052459716797 2.61139869689941406 -0.833558917045593262
1.36332893371582031 2.73806500434875488 -0.740668892860412598
0.603133559226989746 3.01870608329772949 -0.741260051727294922
0.992030501365661621 4.16421985626220703 -0.376822501420974731
-1.2443699836730957 4.02260541915893555 0.686834037303924561
3.17546892166137695 4.62230968475341797 -0.182429313659667969
0.900216639041900635 3.1074669361114502 -0.673266291618347168
0.4686279296875 2.90668821334838867 -0.829654216766357422
1.17849302291870117 3.95993471145629883 -0.487495720386505127
1.4741508960723877 3.5303199291229248 -0.742235898971557617
1.26208698749542236 4.07372903823852539 -0.358186900615692139
-0.0987728163599967957 4.68833589553833008 -0.70058751106262207
-0.221741288900375366 2.97983050346374512 -0.745084226131439209
1.24043118953704834 4.58048295974731445 0.0247966647148132324
-0.201187163591384888 4.74843215942382812 -0.793664813041687012
1.60904145240783691 3.80393600463867188 -0.377316594123840332
-0.728483021259307861 5.09290933609008789 -0.0581445395946502686
-1.61316144466400146 5.37366104125976562 0.0337439179420471191
0.639881551265716553 4.79263114929199219 -0.556360006332397461
-0.247652962803840637 4.92599105834960938 -0.582649171352386475
0.947890222072601318 2.61701083183288574 -0.821645677089691162
0.405516505241394043 3.73573064804077148 -0.598143577575683594
1.32056427001953125 4.07329082489013672 -0.543588876724243164
0.70772254467010498 2.67895841598510742 -0.767814934253692627
-0.432030200958251953 2.05867528915405273 -0.724491357803344727
1.02303826808929443 3.32447361946105957 -0.606406867504119873
1.02139663696289062 3.10659885406494141 -0.735330283641815186
0.445278644561767578 3.91332721710205078 -0.687120199203491211
3.16135358810424805 5.01132440567016602 0.107843875885009766
0.670312881469726562 2.47284197807312012 -0.760801255702972412
1.16352736949920654 7.29727029800415039 3.35254073143005371
1.09596633911132812 4.09891033172607422 -0.262961685657501221
1.11672747135162354 6.89633321762084961 2.03727293014526367
-0.809733271598815918 2.63316965103149414 -0.773578405380249023
0.858649373054504395 2.52824926376342773 -0.779406189918518066
0.781890690326690674 3.10530400276184082 -0.755598485469818115
-0.998446226119995117 1.95316803455352783 -0.638019442558288574
2.72687292098999023 4.3306727409362793 0.186292171478271484
2.65678977966308594 4.59312057495117188 -0.0985656976699829102
0.89027094841003418 2.7106928825378418 -0.816842079162597656
-1.15169310569763184 4.6964421272277832 1.42050766944885254
0.624347507953643799 2.59577798843383789 -0.836321592330932617
-0.829705119132995605 1.78458559513092041 -0.516553699970245361
1.05056679248809814 3.49383187294006348 -0.633484721183776855
-0.999907255172729492 1.86408472061157227 -0.169941961765289307
-0.677261471748352051 3.57793235778808594 -0.698273718357086182
1.28112053871154785 3.89208269119262695 -0.600576817989349365
-0.790428459644317627 4.3525996208190918 -0.495804965496063232
1.38027691841125488 3.96823787689208984 -0.324587374925613403
-0.751090824604034424 5.2052149772644043 -0.573484063148498535
2.44511914253234863 4.89171838760375977 -0.688004553318023682
-0.819022834300994873 5.11056900024414062 0.0632232725620269775
1.34079635143280029 3.79034280776977539 -0.630041003227233887
-0.13908974826335907 5.82270956039428711 0.683175325393676758
-0.898842036724090576 5.06011629104614258 0.324090778827667236
1.38489532470703125 3.93634796142578125 -0.519744157791137695
-0.558286488056182861 5.0198826789855957 -0.651150405406951904
-1.16403532028198242 5.62996530532836914 2.27390289306640625
-0.878453493118286133 4.18808603286743164 -0.00220823287963867188
0.778771519660949707 2.64299392700195312 -0.778955817222595215
-1.24815511703491211 5.62877225875854492 0.892944753170013428
-0.228334337472915649 3.97539520263671875 -0.706019222736358643
