ply
format ascii 1.0
element vertex 68
comment vertices
property float x
property float y
property float z
end_header
-0.112403139472007751 -0.231572970747947693 0.175243690609931946
-0.163057193160057068 0.0252855662256479263 0.29398345947265625
-0.154604271054267883 0.152807936072349548 -0.431484997272491455
0.0186575464904308319 0.0248273070901632309 -0.0528944917023181915
0.351669490337371826 0.624203979969024658 -0.532420754432678223
0.526295006275177002 0.371244162321090698 -0.505292832851409912
-0.186999902129173279 -0.0456723570823669434 0.447125464677810669
0.00960156228393316269 0.00819782260805368423 -0.989163696765899658
-0.0140604441985487938 -0.0981151312589645386 0.0169140305370092392
0.403973758220672607 -0.32553178071975708 -0.36089208722114563
-0.0723231658339500427 -0.222634866833686829 0.108131743967533112
-0.0407914221286773682 0.032284274697303772 0.0632249563932418823
-0.230514541268348694 -0.0903089419007301331 0.460416465997695923
-0.0798833519220352173 0.072273552417755127 0.115900546312332153
0.0261800345033407211 0.150911122560501099 -0.124693840742111206
-0.0708847492933273315 -0.091415800154209137 0.133248567581176758
-0.121044687926769257 -0.220645755529403687 -0.0139277689158916473
-0.135691806674003601 0.124208964407444 0.24248059093952179
0.035657588392496109 0.0296366438269615173 -0.217263415455818176
0.521634340286254883 0.459086149930953979 -0.49126124382019043
-0.0949868038296699524 -0.203043147921562195 0.13419438898563385
0.466594785451889038 0.270100533962249756 -0.529510200023651123
-0.215726464986801147 -0.264009684324264526 0.402187973260879517
-0.203653633594512939 0.134583011269569397 0.482520312070846558
-0.109727315604686737 0.146351724863052368 0.10376276820898056
0.0388262495398521423 0.0489315055310726166 -0.0706200301647186279
-0.0918853357434272766 0.0331566184759140015 0.0836857333779335022
-0.0348887555301189423 0.213601946830749512 0.0736655369400978088
-0.0371323972940444946 -0.126072943210601807 0.0575359687209129333
0.0433238856494426727 -0.0369646325707435608 -0.22846008837223053
-0.159179136157035828 0.0835675671696662903 0.353765934705734253
-0.183335095643997192 0.151611447334289551 0.244912073016166687
-0.194020017981529236 -0.133623600006103516 0.429215937852859497
-0.1263771653175354 0.00777030689641833305 0.244578972458839417
-0.214368775486946106 -0.158091291785240173 0.447445839643478394
0.0437568090856075287 -0.0052998838946223259 -0.151433229446411133
0.210547342896461487 -0.0181220341473817825 -0.538529157638549805
-0.0861172676086425781 -0.169804766774177551 0.069665081799030304
-0.226927191019058228 0.102837145328521729 0.281386196613311768
-0.0509832054376602173 -0.097201906144618988 0.157248586416244507
0.356772780418395996 -0.50089108943939209 -0.327831655740737915
-0.214797183871269226 -0.18596474826335907 0.345920294523239136
0.0667650327086448669 0.0225402060896158218 -0.191862031817436218
-0.0591586567461490631 0.269493430852890015 0.0340795405209064484
-0.0563040971755981445 -0.0626153051853179932 0.0919981226325035095
0.332356423139572144 -0.00822537951171398163 -0.522421717643737793
-0.104925327003002167 -0.0826413780450820923 0.228318840265274048
-0.0222875569015741348 0.127251863479614258 0.0345034152269363403
-0.121189981698989868 -0.248738884925842285 0.147597059607505798
0.0258583594113588333 -0.085508301854133606 -0.0726183950901031494
0.0411622859537601471 0.201932415366172791 -0.161989226937294006
-0.025690566748380661 -0.118992477655410767 0.012148004025220871
-0.112235032021999359 0.00233679939992725849 0.268317520618438721
-0.141093164682388306 0.13886106014251709 0.293227672576904297
0.261041730642318726 0.781899571418762207 -0.566118538379669189
-0.0565392710268497467 0.2608451247215271 0.0808962732553482056
0.315299928188323975 -0.199811309576034546 -0.301611930131912231
0.0407191738486289978 -0.0188484806567430496 -0.201689094305038452
-0.057742193341255188 0.035613376647233963 0.182244807481765747
0.296244502067565918 0.0377415716648101807 -0.261527895927429199
0.321149051189422607 -0.250520110130310059 -0.263760745525360107
-0.166122987866401672 -0.18174956738948822 0.301253974437713623
-0.0342595726251602173 -0.122288122773170471 0.0346766114234924316
-0.0694745928049087524 0.0105394609272480011 0.200612887740135193
0.121519632637500763 -0.221399575471878052 -0.230652153491973877
0.0379268601536750793 -0.0249950531870126724 -0.0367583557963371277
-0.102871105074882507 -0.144743457436561584 0.192564725875854492
-0.15727563202381134 -0.160469397902488708 0.305889040231704712
