ply
format ascii 1.0
element vertex 631
comment vertices
property float x
property float y
property float z
end_header
0.0841211304068565369 0.0587001293897628784 0.416116267442703247
-0.150983884930610657 -0.166558012366294861 -0.611906349658966064
-0.549672067165374756 -0.156493633985519409 0.534749269485473633
0.0656055361032485962 0.34275740385055542 0.365597069263458252
0.0458388663828372955 0.321527391672134399 0.406988054513931274
0.104876510798931122 -0.528823018074035645 0.345448017120361328
0.129307329654693604 -0.206499829888343811 -0.108989052474498749
0.0550814792513847351 -0.145660653710365295 0.437773674726486206
0.0123027879744768143 -0.09465065598487854 -0.638408899307250977
0.0780142918229103088 0.138376057147979736 -0.288898110389709473
-0.0410336554050445557 -0.0563976503908634186 -0.64449620246887207
0.059881947934627533 0.150728985667228699 -0.46432119607925415
0.083349958062171936 -0.0499498248100280762 -0.460103005170822144
0.0503345876932144165 0.0088841952383518219 0.402436554431915283
0.116424389183521271 -0.458857089281082153 -0.409922808408737183
0.16388288140296936 -0.371330320835113525 -0.379340708255767822
0.0552379526197910309 0.407743513584136963 0.0328891463577747345
0.029462302103638649 -0.258119404315948486 -0.239417284727096558
0.0468863509595394135 0.473795294761657715 0.382578045129776001
0.0176384933292865753 0.326277077198028564 -0.11748822033405304
0.063189387321472168 0.25961005687713623 0.225673064589500427
0.0681567937135696411 -0.0989249125123023987 -0.170008078217506409
-0.0415650010108947754 0.0276295896619558334 -0.648980796337127686
0.106446109712123871 -0.561197519302368164 -0.0470463968813419342
0.0737287253141403198 0.374214798212051392 0.355140328407287598
-0.19526827335357666 -0.156885415315628052 -0.613059163093566895
0.112876646220684052 -0.096341453492641449 -0.38263469934463501
0.125196501612663269 -0.288108080625534058 -0.628821849822998047
-0.559919297695159912 -0.487238973379135132 0.503397762775421143
0.105264134705066681 0.0640603974461555481 -0.391720801591873169
0.0513532087206840515 0.153325498104095459 -0.160590097308158875
0.0965695902705192566 -0.150992318987846375 0.463548094034194946
0.0927250310778617859 0.118705205619335175 -0.318342834711074829
0.109665326774120331 -0.0899160951375961304 -0.0843212306499481201
0.0934822335839271545 0.00861393939703702927 0.0516984537243843079
0.138789355754852295 -0.361180573701858521 -0.397411614656448364
-0.539884328842163086 0.512246668338775635 0.033893633633852005
-0.56243056058883667 0.528347015380859375 0.152093946933746338
0.190272122621536255 -0.304732054471969604 -0.189919829368591309
0.0634323582053184509 0.301557987928390503 -0.152177184820175171
0.0905249416828155518 0.0100757498294115067 -0.0365819297730922699
0.10917789489030838 -0.510997593402862549 0.229752376675605774
0.0247401520609855652 0.233028292655944824 0.253601908683776855
0.0657395198941230774 0.125028803944587708 -0.291259914636611938
0.0674670040607452393 0.0869480744004249573 -0.379732787609100342
0.033319469541311264 0.0911806896328926086 -0.480119407176971436
-0.668389439582824707 0.502017855644226074 0.516418218612670898
0.0572137758135795593 0.202581003308296204 0.291487425565719604
0.0772364437580108643 -0.246038421988487244 -0.362701207399368286
0.0496784001588821411 0.393011957406997681 0.395283669233322144
0.049084831029176712 0.413526147603988647 -0.0130607299506664276
0.0406906940042972565 0.376869112253189087 0.208558648824691772
0.0535612553358078003 0.429001063108444214 0.043095707893371582
0.138962045311927795 -0.423811674118041992 -0.142545461654663086
0.0917161479592323303 -0.00926095247268676758 -0.257275313138961792
-0.246332079172134399 0.00398084893822669983 -0.611270129680633545
0.0725379064679145813 -0.142801791429519653 0.31182706356048584
0.0877621099352836609 0.0411604344844818115 0.320622175931930542
0.126168340444564819 -0.301490366458892822 -0.35900568962097168
0.0737470835447311401 0.385076284408569336 -0.175521820783615112
-0.0973598361015319824 0.0266737975180149078 -0.629864335060119629
0.0579193383455276489 0.287313222885131836 -0.186593785881996155
0.120905183255672455 -0.541394352912902832 -0.549472033977508545
0.0528668910264968872 0.118714287877082825 0.271041214466094971
0.00934301689267158508 0.156831711530685425 0.362361997365951538
0.139954626560211182 -0.538865625858306885 -0.12724575400352478
0.105648815631866455 0.0925867483019828796 0.171044796705245972
0.0416882522404193878 0.04988127201795578 -0.498869001865386963
0.129158318042755127 -0.424364298582077026 -0.59790337085723877
-0.625306248664855957 0.43365323543548584 0.424875169992446899
0.0533519908785820007 0.237477764487266541 0.355328887701034546
0.0741356685757637024 -0.150474563241004944 0.226356685161590576
0.130469441413879395 -0.240034326910972595 -0.151223942637443542
0.0592180900275707245 0.254719793796539307 0.0492636710405349731
-0.586950957775115967 0.526096880435943604 0.343010127544403076
0.0694224685430526733 0.0159478485584259033 -0.489705801010131836
0.074902653694152832 0.477971374988555908 0.0898080989718437195
0.0530786924064159393 0.375495016574859619 -0.111976534128189087
0.196487575769424438 -0.0885748341679573059 -0.65162360668182373
0.0688449442386627197 0.325442701578140259 0.137173518538475037
-0.0608426257967948914 0.023581748828291893 -0.642681241035461426
0.159689947962760925 -0.41106867790222168 -0.0845344811677932739
0.0883056372404098511 0.281117945909500122 -0.213424503803253174
0.0701604112982749939 0.524925947189331055 0.318982690572738647
0.0773673132061958313 0.293145895004272461 -0.295367956161499023
0.111285597085952759 0.163406208157539368 0.0392854101955890656
-0.531982719898223877 -0.522162735462188721 0.49489167332649231
0.112758420407772064 -0.530746757984161377 0.124689653515815735
0.128371372818946838 -0.106024004518985748 -0.422974526882171631
-0.614726126194000244 0.346042513847351074 0.451239049434661865
0.065144270658493042 0.363120108842849731 0.234423935413360596
0.110492616891860962 0.0469783619046211243 -0.367118775844573975
-0.424451529979705811 0.517161369323730469 0.00428306311368942261
-0.61864626407623291 0.152896001935005188 0.453688591718673706
0.075194820761680603 0.265873193740844727 0.270812332630157471
0.0701401308178901672 -0.00813941564410924911 -0.648783266544342041
0.0667189434170722961 -0.172502309083938599 0.225794434547424316
0.116734698414802551 -0.515746653079986572 0.0715881809592247009
0.125574588775634766 -0.512189507484436035 -0.196516171097755432
-0.0918677449226379395 -0.400777131319046021 -0.595099985599517822
0.0856483504176139832 0.058018416166305542 -0.647606253623962402
0.0451866835355758667 0.476150929927825928 -0.00454296870157122612
0.0910130441188812256 0.0398529060184955597 -0.394299596548080444
0.0630080997943878174 -0.451727628707885742 0.295974552631378174
-0.601333200931549072 0.17823752760887146 0.443078368902206421
-0.0185966510325670242 -0.0919731631875038147 -0.636058807373046875
0.0504817105829715729 0.314495354890823364 0.0459471568465232849
0.0743880122900009155 0.179075762629508972 0.326742172241210938
0.11298748105764389 -0.124751284718513489 -0.471167296171188354
0.0724201798439025879 -0.307983338832855225 0.431964099407196045
0.0711333677172660828 0.297584056854248047 0.0390342921018600464
0.0312629230320453644 0.129445895552635193 -0.517007887363433838
-0.573839783668518066 0.208502858877182007 0.469014167785644531
0.0607170313596725464 -0.157843902707099915 0.0835801362991333008
0.0154510689899325371 -0.101855888962745667 -0.158945649862289429
0.0512891709804534912 0.352483898401260376 0.265538781881332397
0.0600944571197032928 0.025722825899720192 -0.469877451658248901
0.00400236574932932854 0.478230059146881104 0.267207622528076172
0.089553534984588623 -0.173673689365386963 0.452629566192626953
0.0908134281635284424 -0.0791937932372093201 0.194777563214302063
0.0568866468966007233 0.112084701657295227 0.0640975311398506165
0.0822930783033370972 0.238858863711357117 0.294077247381210327
0.0807283446192741394 -0.273709535598754883 -0.450360894203186035
0.0917229726910591125 -0.188941612839698792 0.389723360538482666
0.0448479615151882172 0.0620451383292675018 -0.487120509147644043
0.0548170395195484161 -0.202567771077156067 -0.157959073781967163
0.169332802295684814 -0.59242546558380127 -0.35700419545173645
0.0415354222059249878 0.426999688148498535 -0.0935558676719665527
-0.581934809684753418 0.305324763059616089 0.431154638528823853
0.0719538629055023193 -0.066490471363067627 -0.270773023366928101
-0.151100799441337585 -0.188869193196296692 -0.622661352157592773
-0.605296492576599121 0.346963673830032349 0.440165489912033081
0.145007520914077759 -0.477367520332336426 0.339127004146575928
-0.130481332540512085 -0.0343098603188991547 -0.624487400054931641
0.0491083934903144836 0.217390015721321106 0.246475592255592346
-0.57035374641418457 -0.639058291912078857 0.516043722629547119
0.112254597246646881 0.0599413216114044189 0.461703777313232422
0.0892652720212936401 0.0746901631355285645 0.469625264406204224
0.147639870643615723 -0.223718449473381042 -0.137195482850074768
-0.112440995872020721 -0.459347724914550781 -0.598061740398406982
0.0464971438050270081 0.067466050386428833 -0.0692350715398788452
0.0891481339931488037 -0.522339046001434326 -0.0843703150749206543
0.0762762948870658875 -0.353165656328201294 0.359280884265899658
-0.543036699295043945 -0.268733978271484375 0.478723317384719849
-0.651211857795715332 0.475092858076095581 0.42166370153427124
0.105626918375492096 -0.235709801316261292 -0.445452183485031128
0.0640053227543830872 -0.129557758569717407 0.267444372177124023
0.101991444826126099 -0.537849783897399902 0.27160915732383728
0.122219495475292206 0.021249847486615181 -0.229175612330436707
0.110189855098724365 -0.10927184671163559 -0.405172646045684814
0.0925382226705551147 0.0910919234156608582 0.190716058015823364
0.0837400704622268677 -0.115592077374458313 -0.17707999050617218
-0.15264168381690979 -0.136240974068641663 -0.625734806060791016
-0.592310309410095215 0.168025046586990356 0.432225167751312256
0.0791603326797485352 -0.25362318754196167 0.368250221014022827
-0.586160659790039062 0.541770517826080322 0.233761265873908997
0.097910761833190918 -0.179902762174606323 0.464174032211303711
0.0974204614758491516 -0.157613679766654968 -0.451300472021102905
0.140842631459236145 -0.553044915199279785 0.444005101919174194
0.0746072530746459961 0.401695579290390015 0.311251640319824219
0.0403022244572639465 0.483228713274002075 -0.0393637381494045258
0.0953291654586791992 -0.135106205940246582 -0.0966602042317390442
0.0703149288892745972 0.280401736497879028 0.0835872143507003784
0.0347615145146846771 0.182369440793991089 0.354121237993240356
0.0838899165391921997 0.205438986420631409 -0.369420289993286133
0.0370904430747032166 0.0104641672223806381 -0.225733086466789246
0.044034913182258606 0.190750241279602051 -0.0626961812376976013
0.0590325109660625458 0.456617355346679688 0.120998874306678772
0.0575232282280921936 0.350429892539978027 -0.0429904907941818237
0.175448432564735413 -0.169054329395294189 0.241819187998771667
0.104457125067710876 0.367096245288848877 0.445036619901657104
0.149651214480400085 -0.568094611167907715 0.279104828834533691
0.0386277139186859131 0.205496907234191895 -0.120245441794395447
0.186569899320602417 0.0399688631296157837 -0.661640763282775879
0.0657388642430305481 -0.15808655321598053 0.171299755573272705
0.0850470215082168579 0.541997671127319336 0.233066529035568237
0.100139416754245758 -0.523865938186645508 0.228714153170585632
0.0263514202088117599 -0.0997625961899757385 -0.167873099446296692
0.199099898338317871 -0.652091145515441895 -0.554122686386108398
0.147735416889190674 0.0723714530467987061 -0.652523458003997803
0.0164641272276639938 0.404397487640380859 -0.0526308715343475342
0.116716288030147552 -0.237666711211204529 0.414692819118499756
0.100111141800880432 0.327797979116439819 -0.0451645143330097198
0.103818036615848541 -0.483034968376159668 -0.412145435810089111
0.0763244852423667908 -0.383278310298919678 0.444254189729690552
0.0852959826588630676 0.303189367055892944 0.454761505126953125
0.143905326724052429 -0.442517101764678955 -0.626206159591674805
0.0323871299624443054 0.195092186331748962 0.145806163549423218
0.0769356563687324524 0.405178606510162354 0.0811516419053077698
0.115413486957550049 -0.26484447717666626 -0.0553136281669139862
-0.630054116249084473 0.444274812936782837 0.424240320920944214
0.127078130841255188 -0.554737448692321777 0.212439671158790588
-0.650849521160125732 0.432546079158782959 0.470639586448669434
0.0836227983236312866 0.112802043557167053 -0.241615802049636841
0.07782745361328125 0.353023916482925415 0.0717511698603630066
0.0757467150688171387 0.347430169582366943 0.00509200198575854301
0.0300966724753379822 -0.374130815267562866 -0.493260949850082397
0.0488127246499061584 0.321202278137207031 0.265902340412139893
0.0614090003073215485 0.245455324649810791 0.182004913687705994
0.0704471617937088013 0.0256080217659473419 0.307919055223464966
-0.242415457963943481 -0.319289654493331909 -0.606425166130065918
0.0819216147065162659 0.155281513929367065 0.263425886631011963
0.134455084800720215 -0.581697225570678711 -0.599276483058929443
0.135553285479545593 -0.414504349231719971 -0.618990242481231689
0.0714157149195671082 0.0107107730582356453 0.362055599689483643
0.0649646967649459839 0.150202840566635132 0.369266659021377563
0.0509646497666835785 0.483924746513366699 0.229519456624984741
0.113825507462024689 -0.161740273237228394 -0.435478359460830688
0.0606312938034534454 0.215874716639518738 0.0727481767535209656
-0.409324884414672852 0.531872689723968506 0.0184440203011035919
0.0958042889833450317 0.221818387508392334 0.29627382755279541
0.0712619572877883911 0.179757356643676758 -0.269615381956100464
0.0618333220481872559 0.0581187494099140167 0.359931111335754395
0.0849091187119483948 0.396720975637435913 -0.050378747284412384
0.0442612357437610626 -0.0615090727806091309 0.306312203407287598
0.0327963940799236298 0.419918805360794067 0.250445246696472168
0.163364365696907043 -0.00702223088592290878 -0.666255950927734375
0.160884037613868713 -0.486837148666381836 0.289265453815460205
-0.0684623867273330688 -0.343723863363265991 -0.614492118358612061
0.0632307380437850952 0.515704751014709473 0.35103878378868103
0.0232533253729343414 0.316064894199371338 -0.263437658548355103
0.149970889091491699 -0.302735567092895508 -0.14465583860874176
0.0748150795698165894 0.491552740335464478 0.133682310581207275
0.0748884603381156921 0.126226484775543213 0.413839936256408691
-0.0729574486613273621 -0.115744777023792267 -0.627370238304138184
-0.00360595458187162876 -0.0981350094079971313 -0.631328344345092773
0.133699461817741394 -0.333156555891036987 -0.10354238748550415
0.159537941217422485 -0.125521302223205566 -0.615749001502990723
0.0505643375217914581 0.300693780183792114 0.00190149317495524883
0.0771266520023345947 0.351160675287246704 0.0495681054890155792
0.0844588354229927063 -0.326507151126861572 0.11413843184709549
-0.662979364395141602 0.535083889961242676 0.480199515819549561
0.141972094774246216 -0.438607454299926758 -0.582131028175354004
0.192620605230331421 -0.676346719264984131 -0.57682114839553833
0.0721727684140205383 0.0755279064178466797 0.414445817470550537
0.0672757253050804138 0.150724813342094421 0.00964385736733675003
0.0571838356554508209 0.0309528708457946777 -0.166048169136047363
0.0765840187668800354 -0.043006066232919693 -0.136957943439483643
0.0861325860023498535 -0.550787568092346191 0.0241554789245128632
0.0469670519232749939 0.438535183668136597 -0.0928621068596839905
0.104182958602905273 -0.251265794038772583 -0.603050887584686279
0.198908612132072449 -0.543326973915100098 0.429875314235687256
0.0869502276182174683 -0.231467559933662415 -0.450662881135940552
0.0996857434511184692 -0.281212210655212402 -0.377796411514282227
0.0796745270490646362 -0.178692564368247986 0.430487722158432007
0.175275206565856934 -0.103825218975543976 -0.646033227443695068
-0.165355712175369263 0.056726161390542984 0.520576953887939453
0.0821308940649032593 0.231944113969802856 0.455612450838088989
0.0937653183937072754 0.12198244035243988 -0.161524146795272827
0.0953827202320098877 -0.306418925523757935 -0.0143659114837646484
0.0382826030254364014 0.147308558225631714 -0.0735417082905769348
0.0943658426403999329 0.137739583849906921 -0.34128260612487793
0.0788716897368431091 0.129986971616744995 0.446293950080871582
0.141609713435173035 -0.50539475679397583 -0.368072509765625
0.0611415207386016846 -0.216475382447242737 -0.111870795488357544
0.0465030446648597717 -0.354328125715255737 0.440452158451080322
0.0722658038139343262 0.156586751341819763 -0.0560299083590507507
0.0646407976746559143 0.122048385441303253 -0.201398134231567383
0.105001002550125122 0.0162666644901037216 -0.122042238712310791
0.0636463463306427002 -0.151249021291732788 0.353624552488327026
0.154479324817657471 -0.380501121282577515 -0.637534677982330322
0.149007916450500488 -0.499269872903823853 -0.333499819040298462
0.101106256246566772 0.0920669138431549072 -0.292748421430587769
0.12168758362531662 -0.593207716941833496 -0.39132457971572876
0.0227984283119440079 0.321598678827285767 0.33896365761756897
-0.0960313677787780762 -0.444654017686843872 -0.605731070041656494
0.0488615967333316803 0.462560534477233887 0.0858408138155937195
-0.639803290367126465 -0.433127164840698242 0.530593037605285645
0.136023730039596558 -0.302955389022827148 -0.104134827852249146
0.0652283281087875366 -0.20837835967540741 0.471728026866912842
0.0999834537506103516 -0.13846471905708313 0.379151076078414917
0.0725038200616836548 0.182956472039222717 -0.35994565486907959
0.124343536794185638 -0.572552263736724854 0.233548805117607117
0.089592278003692627 0.258568286895751953 0.142316341400146484
0.0758263096213340759 0.113485440611839294 0.263528227806091309
0.0950393006205558777 -0.183017835021018982 -0.0731128454208374023
-0.658351719379425049 0.469997614622116089 0.52970808744430542
0.134708181023597717 -0.304463952779769897 -0.11523108184337616
0.0633622631430625916 -0.253956913948059082 -0.615010082721710205
-0.0837573409080505371 -0.148224771022796631 -0.605409622192382812
0.0819316208362579346 -0.0461335666477680206 0.47083011269569397
0.0196260865777730942 0.495505779981613159 0.0351271070539951324
0.1741781085729599 -0.455877512693405151 -0.372836917638778687
0.0840133652091026306 0.406044036149978638 -0.0620163902640342712
0.0383149199187755585 0.141749113798141479 0.104143254458904266
-0.23193030059337616 -0.18882441520690918 -0.621837258338928223
-0.517890334129333496 0.406088083982467651 0.412292540073394775
-0.0506906397640705109 0.4476451575756073 0.271558403968811035
0.0833329483866691589 -0.0364366024732589722 -0.654822230339050293
0.0974887087941169739 0.00551201542839407921 0.117832362651824951
0.0478018373250961304 0.316658914089202881 0.21107850968837738
0.0773507729172706604 0.456727981567382812 0.353953540325164795
-0.614033699035644531 0.494644373655319214 0.449131935834884644
0.0961388498544692993 0.00805709604173898697 0.150092050433158875
0.0688909813761711121 -0.0286889839917421341 -0.295467495918273926
0.134663701057434082 -0.586257278919219971 -0.278621107339859009
-0.621360480785369873 0.45983964204788208 0.460961431264877319
0.0666611865162849426 0.117660693824291229 -0.381279647350311279
0.129228502511978149 0.0916709601879119873 -0.375567197799682617
0.0763732343912124634 -0.144825145602226257 -0.144381120800971985
0.115148715674877167 -0.384213417768478394 0.406742244958877563
0.0697311088442802429 0.00773689383640885353 -0.466451346874237061
0.0374763086438179016 0.0593436285853385925 -0.137726053595542908
0.10105588287115097 -0.0472406260669231415 -0.142673030495643616
0.0505749545991420746 0.0629405379295349121 0.2176685631275177
0.0541429147124290466 0.0359880439937114716 -0.0999925583600997925
0.111448526382446289 -0.171297162771224976 -0.639171063899993896
0.0976330563426017761 -0.324995160102844238 -0.612502813339233398
0.0554850324988365173 -0.0206128302961587906 0.392872840166091919
-0.0233587976545095444 -0.20538465678691864 0.256901323795318604
-0.53179633617401123 -0.343330204486846924 0.457674026489257812
0.0365581326186656952 0.387390643358230591 0.085883408784866333
0.142300859093666077 -0.211083516478538513 -0.403330802917480469
0.0406192503869533539 0.136871993541717529 0.398949563503265381
0.118436925113201141 -0.187349706888198853 -0.399494946002960205
-0.611035764217376709 0.401935309171676636 0.426780462265014648
0.121254041790962219 -0.258225083351135254 0.193342059850692749
0.129075661301612854 -0.212262868881225586 -0.0652440786361694336
-0.461972236633300781 0.504778385162353516 0.238672152161598206
0.0833691060543060303 -0.34534791111946106 -0.468773722648620605
0.106164053082466125 -0.568416714668273926 -0.385464012622833252
0.105086468160152435 -0.567884504795074463 -0.0147616267204284668
0.0625304132699966431 -0.00734268734231591225 -0.152347162365913391
0.133213996887207031 -0.149665966629981995 -0.363908499479293823
-0.0176765024662017822 -0.39113086462020874 -0.620378732681274414
0.112952336668968201 -0.140898346900939941 -0.103792421519756317
-0.629067957401275635 0.164732575416564941 0.488294512033462524
0.0950413569808006287 -0.369515657424926758 0.425105273723602295
-0.641556143760681152 0.491651296615600586 0.470671415328979492
0.0896707400679588318 0.00377377844415605068 0.343075007200241089
0.0731707215309143066 -0.0651360377669334412 -0.259354233741760254
-0.671392917633056641 0.513069331645965576 0.516024887561798096
0.0618374943733215332 0.371951639652252197 0.0905930325388908386
0.100762844085693359 -0.40418890118598938 0.352854520082473755
-0.133244216442108154 -0.0360776335000991821 -0.637050151824951172
0.122130356729030609 -0.321856111288070679 0.237641304731369019
0.054590567946434021 -0.175384059548377991 0.438236087560653687
0.127828925848007202 -0.315257728099822998 -0.402381002902984619
0.148955851793289185 -0.2399577796459198 -0.411377996206283569
0.0977043583989143372 -0.528830051422119141 0.100712545216083527
0.0549326092004776001 0.292226642370223999 0.0140894809737801552
0.122702613472938538 -0.262765109539031982 0.436818122863769531
0.0589923001825809479 0.204818457365036011 -0.183293208479881287
0.058478526771068573 0.242799654603004456 -0.354612886905670166
0.0730820000171661377 0.0776403173804283142 0.435883045196533203
-0.634229779243469238 0.309013962745666504 0.461906909942626953
0.0664965733885765076 0.543340921401977539 0.296234726905822754
0.0328544750809669495 -0.154249206185340881 0.414103507995605469
-0.597877442836761475 0.224001601338386536 0.442730545997619629
0.0651721805334091187 0.22773781418800354 0.204898357391357422
0.0137634333223104477 -0.0385115481913089752 0.0940553247928619385
0.0267394538968801498 0.267587900161743164 -0.0911011099815368652
0.111614301800727844 0.208362102508544922 -0.40783083438873291
-0.589406907558441162 0.124803274869918823 0.445042431354522705
0.100840069353580475 -0.530864536762237549 -0.201402649283409119
0.0588798262178897858 0.00281384377740323544 -0.491954386234283447
0.0681162476539611816 0.144551187753677368 0.294229596853256226
0.143655121326446533 -0.181247591972351074 -0.304464191198348999
0.0423047654330730438 0.412485867738723755 -0.149335771799087524
0.116081990301609039 -0.141706869006156921 -0.0157448649406433105
-0.632912814617156982 0.501259684562683105 0.423083394765853882
0.12171810120344162 -0.533502876758575439 -0.109708771109580994
0.0871051251888275146 -0.291778385639190674 -0.447805821895599365
0.123405031859874725 -0.197916820645332336 -0.209263846278190613
0.0702521279454231262 -0.271104902029037476 -0.18525378406047821
0.0685744807124137878 -0.0565132535994052887 0.071080431342124939
0.113199397921562195 0.0168745927512645721 0.42019730806350708
0.0875527933239936829 -0.538470029830932617 -0.138542279601097107
0.170226648449897766 -0.560761988162994385 0.364917635917663574
0.193848073482513428 -0.406716704368591309 -0.0561968311667442322
0.0733136534690856934 0.259267628192901611 0.194417566061019897
0.0181999877095222473 0.429017603397369385 0.270245522260665894
0.11954786628484726 -0.0408911369740962982 -0.349801927804946899
-0.00465257372707128525 -0.419135510921478271 0.446566283702850342
0.0533649399876594543 0.323486417531967163 -0.245494842529296875
0.0895636230707168579 -0.193480014801025391 -0.485578685998916626
0.0711488500237464905 0.28646773099899292 0.410515874624252319
0.0950289592146873474 -0.00335392705164849758 -0.664528071880340576
0.103292368352413177 0.100531131029129028 -0.0811740010976791382
0.0501424483954906464 0.242940306663513184 0.430471926927566528
-0.561599671840667725 0.513623833656311035 0.103789933025836945
0.0299985483288764954 0.0154535407200455666 -0.148916929960250854
0.108269050717353821 -0.302113175392150879 -0.109978683292865753
0.213350236415863037 -0.174620881676673889 -0.652978479862213135
0.0546821169555187225 0.332515865564346313 -0.132634684443473816
-0.655765414237976074 0.523870885372161865 0.468913942575454712
0.134858801960945129 -0.500586092472076416 0.421644777059555054
-0.576041698455810547 0.503322124481201172 0.320536583662033081
0.129819035530090332 -0.0690472126007080078 0.189802259206771851
-0.044686097651720047 -0.0458767898380756378 -0.634405910968780518
0.0679179802536964417 -0.524041652679443359 0.330003321170806885
0.0462004505097866058 0.204294860363006592 -0.0292744282633066177
0.105758145451545715 0.198345884680747986 -0.262327253818511963
0.107523806393146515 -0.128692984580993652 -0.17137482762336731
0.181219756603240967 -0.109010159969329834 -0.177766084671020508
-0.0579311884939670563 -0.0389753431081771851 -0.63863140344619751
-0.0482464656233787537 0.0173288900405168533 -0.626950204372406006
-0.168392762541770935 0.0333121754229068756 0.49855688214302063
0.0107134180143475533 0.480876356363296509 0.000225679250434041023
0.0668453499674797058 0.258244603872299194 0.0725960135459899902
0.118462227284908295 -0.443271100521087646 0.292841941118240356
0.0824914351105690002 0.0891079828143119812 0.426056563854217529
-0.200221404433250427 -0.296794652938842773 -0.607563793659210205
0.0674933940172195435 0.382760882377624512 -0.0532986558973789215
0.102073512971401215 -0.260260134935379028 -0.0690444409847259521
0.0939367562532424927 0.0154931182041764259 0.460487514734268188
0.0349839664995670319 0.192570462822914124 0.353946655988693237
0.185514941811561584 0.0813334137201309204 -0.652847826480865479
-0.581301093101501465 0.538325786590576172 0.00185821333434432745
0.00366159086115658283 0.326727718114852905 -0.211239561438560486
0.149774074554443359 -0.500961959362030029 0.193500414490699768
-0.0575676150619983673 -0.432887464761734009 -0.606802642345428467
-0.614531874656677246 -0.328552961349487305 0.519726037979125977
0.0474663488566875458 0.372085839509963989 0.395412176847457886
0.0429602339863777161 0.45730513334274292 0.0292086917906999588
0.0738470479846000671 0.151355072855949402 -0.369591057300567627
0.0537070408463478088 0.220566973090171814 0.14853319525718689
0.0426849760115146637 0.479270070791244507 0.327336251735687256
0.0806316286325454712 0.00998383015394210815 0.437894284725189209
0.0521860420703887939 0.303275763988494873 -0.233647793531417847
0.0832855701446533203 0.00549088511615991592 -0.181725785136222839
0.0797981619834899902 0.094234958291053772 -0.208170533180236816
0.130433082580566406 -0.347221165895462036 0.0582481659948825836
0.122666463255882263 -0.53577953577041626 0.400065064430236816
0.158546522259712219 0.0313790701329708099 0.0084997955709695816
0.101168029010295868 -0.0470529831945896149 -0.365360736846923828
0.0676274970173835754 0.394416689872741699 0.23404228687286377
-0.171424925327301025 -0.267931729555130005 -0.6126861572265625
0.0449591130018234253 -0.0509488731622695923 -0.021304156631231308
0.121079780161380768 -0.48852837085723877 -0.33000299334526062
-0.64300382137298584 0.261763393878936768 0.461757779121398926
0.0793270468711853027 0.531338810920715332 0.385328531265258789
0.0685023069381713867 0.140716865658760071 -0.234931617975234985
0.106643341481685638 -0.500592231750488281 -0.0274602174758911133
0.096658758819103241 -0.136493131518363953 -0.00872370041906833649
0.118198804557323456 -0.391593694686889648 -0.0504551753401756287
0.132913455367088318 -0.524598360061645508 -0.336456626653671265
0.00272617465816438198 -0.220434248447418213 -0.623164772987365723
0.136253505945205688 -0.275612443685531616 -0.637444555759429932
0.0863684713840484619 0.0561841912567615509 -0.430190950632095337
0.04891953244805336 -0.050843406468629837 -0.031598258763551712
-0.585862994194030762 -0.240574896335601807 0.439123779535293579
0.102940797805786133 0.121836312115192413 0.0499899834394454956
0.0593184791505336761 0.346512109041213989 0.429686546325683594
0.0474744252860546112 0.350792914628982544 0.384956091642379761
0.0515147671103477478 -0.198064073920249939 0.41702917218208313
0.11891581118106842 0.00648563029244542122 0.0671736449003219604
0.0639373064041137695 0.390499621629714966 0.0571724660694599152
0.124481335282325745 0.0251860879361629486 -0.65708458423614502
0.0950967967510223389 -0.128731176257133484 -0.352118790149688721
0.0633159652352333069 -0.11711806058883667 0.0828506723046302795
0.118172712624073029 -0.0962931662797927856 0.037564154714345932
0.0844209194183349609 -0.388045936822891235 0.466206461191177368
-0.597672939300537109 0.543981790542602539 0.122187100350856781
0.120003581047058105 -0.183897644281387329 0.255282461643218994
0.0774714648723602295 0.0859637781977653503 0.0574935227632522583
0.0291471276432275772 0.468968808650970459 -0.0635707303881645203
0.082759372889995575 -0.322461724281311035 -0.136541768908500671
0.101962491869926453 -0.119501069188117981 -0.272702395915985107
0.126309841871261597 -0.370805263519287109 -0.355912268161773682
0.0865138918161392212 0.410753488540649414 -0.0060007115826010704
-0.0530042089521884918 -0.46999320387840271 -0.580509364604949951
0.0849663987755775452 0.347732454538345337 0.248547613620758057
0.13279038667678833 -0.344494879245758057 -0.410849601030349731
0.0612549372017383575 0.251614481210708618 0.00539810815826058388
-0.670074343681335449 0.479500502347946167 0.528620660305023193
0.0140501381829380989 -0.0339349359273910522 0.366648465394973755
0.136285543441772461 -0.0634065046906471252 -0.422839969396591187
0.126354992389678955 -0.0883629173040390015 -0.334890365600585938
0.0307738985866308212 0.422832340002059937 0.294078558683395386
0.105586066842079163 -0.202242612838745117 0.210885435342788696
-0.530777573585510254 -0.561958611011505127 0.518519461154937744
-0.419228345155715942 0.510099411010742188 0.0534293502569198608
0.0603548437356948853 0.405430316925048828 0.396295636892318726
0.0325354002416133881 0.428138494491577148 0.0840528681874275208
0.120153337717056274 0.210874259471893311 0.460028558969497681
0.089778214693069458 -0.118759393692016602 -0.120404988527297974
0.135451182723045349 -0.061487194150686264 0.360831022262573242
0.0398675538599491119 0.464095026254653931 0.12877693772315979
-0.609745204448699951 0.47246435284614563 0.449866950511932373
-0.35455206036567688 0.514248430728912354 0.123017877340316772
0.156655579805374146 -0.513211309909820557 -0.396787494421005249
0.0590385235846042633 0.348152399063110352 0.32123112678527832
0.10580676794052124 0.116944938898086548 -0.015132456086575985
-0.589302361011505127 -0.387422740459442139 0.511034011840820312
-0.568957746028900146 0.536406338214874268 0.284527748823165894
-0.554394781589508057 0.524034261703491211 0.23823896050453186
0.0498724617063999176 0.0747481510043144226 0.239039823412895203
0.0868473723530769348 -0.29424169659614563 -0.369333237409591675
0.112127818167209625 -0.549834370613098145 0.0396860465407371521
0.0787142589688301086 0.171998366713523865 0.110052421689033508
-0.649035453796386719 0.531547248363494873 0.396753311157226562
0.086776144802570343 0.0136355943977832794 -0.214674115180969238
0.0413672737777233124 -0.0740407407283782959 -0.493079841136932373
0.127142459154129028 -0.424020290374755859 0.356622964143753052
-0.580634176731109619 -0.545181095600128174 0.52545630931854248
0.0750854760408401489 0.494139969348907471 0.309354066848754883
0.0760943517088890076 -0.04214458167552948 -0.126009523868560791
-0.255822628736495972 0.0442024990916252136 -0.627960026264190674
-0.539829254150390625 0.517538070678710938 0.276411265134811401
0.106261283159255981 -0.377009451389312744 0.0332331247627735138
0.0918999612331390381 0.535289227962493896 0.267040431499481201
-0.634502947330474854 -0.50867760181427002 0.520323634147644043
0.0957334563136100769 -0.158335179090499878 0.389619350433349609
0.0350467078387737274 0.141812831163406372 -0.25387921929359436
0.155325144529342651 -0.188171982765197754 -0.412073135375976562
-0.610517561435699463 0.164982914924621582 0.442380189895629883
0.0839181393384933472 0.0240318775177001953 0.36333802342414856
-0.14409300684928894 0.0359917245805263519 -0.643810033798217773
0.0907510146498680115 -0.297317683696746826 0.189598754048347473
0.039972454309463501 0.123103462159633636 -0.491311758756637573
0.172778323292732239 -0.1136007159948349 -0.634972333908081055
-0.615370750427246094 0.265559732913970947 0.440400809049606323
0.100170820951461792 0.505084633827209473 0.115380957722663879
0.062620900571346283 0.211558178067207336 0.139223217964172363
0.0596045069396495819 0.068945661187171936 -0.088903382420539856
0.112160108983516693 -0.468871891498565674 -0.589396893978118896
0.0746440812945365906 0.368424057960510254 0.40943416953086853
0.0413400828838348389 0.103828787803649902 0.248014882206916809
0.0804289579391479492 -0.174783453345298767 0.366845250129699707
0.102639652788639069 -0.525902211666107178 0.112165659666061401
0.106756992638111115 -0.524251937866210938 0.293048471212387085
0.133391499519348145 -0.5712088942527771 0.129320099949836731
0.115524694323539734 -0.016185542568564415 -0.0637313574552536011
0.0839301422238349915 0.0662204548716545105 -0.307026922702789307
0.114217124879360199 -0.115699723362922668 -0.159377962350845337
0.0288153346627950668 -0.369995474815368652 -0.0470474809408187866
-0.114834502339363098 -0.106467396020889282 -0.640001058578491211
0.0669061541557312012 -0.320955663919448853 -0.17305929958820343
0.0468847081065177917 0.335141241550445557 -0.21340237557888031
0.082188531756401062 -0.212190404534339905 -0.340544700622558594
0.0693596526980400085 0.280515789985656738 0.215152725577354431
0.0400568284094333649 0.0711692199110984802 -0.488845229148864746
0.074972882866859436 -0.27183222770690918 0.197235569357872009
0.081568695604801178 0.360728412866592407 -0.105662800371646881
0.0507330596446990967 -0.415689587593078613 0.399727076292037964
0.0607854127883911133 0.478510946035385132 0.131767183542251587
0.116868048906326294 -0.0327639356255531311 -0.139827191829681396
0.0562207251787185669 -0.515155434608459473 0.36002814769744873
0.0636116042733192444 -0.397388666868209839 0.347980678081512451
0.105897337198257446 0.0526074469089508057 0.397451162338256836
0.0615777932107448578 0.304877281188964844 0.0260153301060199738
0.182203307747840881 -0.382100045680999756 -0.640142500400543213
0.122456900775432587 -0.523135781288146973 0.253130257129669189
-0.558787524700164795 0.500378251075744629 0.238164201378822327
0.112659849226474762 -0.0670512765645980835 -0.0625772550702095032
0.0547429583966732025 0.290688753128051758 0.124806903302669525
0.175009682774543762 0.0470253117382526398 -0.665589034557342529
0.0193949565291404724 0.535451650619506836 0.443839937448501587
0.0455683283507823944 0.448719233274459839 -0.0934873074293136597
0.0546965561807155609 0.0942410677671432495 -0.258772015571594238
0.103215068578720093 -0.285252690315246582 -0.0244136136025190353
0.0795574188232421875 -0.261287719011306763 0.0898314118385314941
0.106331788003444672 0.548087716102600098 0.409809798002243042
0.0557659827172756195 -0.331708341836929321 0.345634013414382935
0.0679418221116065979 -0.0525265969336032867 -0.105182789266109467
0.0583098940551280975 -0.129599392414093018 0.0714277550578117371
0.0149248931556940079 0.430907338857650757 0.0249934345483779907
0.0549852736294269562 0.183240145444869995 -0.183361276984214783
0.0444613844156265259 0.370615214109420776 0.384228259325027466
0.103583596646785736 0.12506142258644104 -0.394864678382873535
0.0865039750933647156 -0.128258213400840759 0.10888652503490448
0.0810377970337867737 -0.324550062417984009 0.338105261325836182
0.070185534656047821 0.300405740737915039 -0.184415921568870544
-0.160063877701759338 0.0364071056246757507 0.510332643985748291
0.120462805032730103 0.0382481105625629425 -0.0317000672221183777
0.0329092182219028473 0.052752271294593811 -0.0825765654444694519
-0.23173464834690094 -0.305341929197311401 -0.604112803936004639
0.0923616215586662292 -0.200077012181282043 -0.138955295085906982
0.0827805772423744202 0.499492287635803223 0.222780793905258179
0.1386212557554245 -0.424890667200088501 0.493329524993896484
-0.524948239326477051 -0.4249439537525177 0.482653230428695679
0.121459737420082092 -0.105265289545059204 0.0384394899010658264
0.0560016632080078125 0.334656804800033569 0.156897306442260742
0.113003477454185486 -0.343238949775695801 0.0549806393682956696
0.155602991580963135 -0.239576131105422974 0.471337229013442993
0.0515333563089370728 -0.0207229256629943848 0.403121203184127808
0.0411106720566749573 -0.269071221351623535 0.427752524614334106
0.094657503068447113 0.00630924385040998459 -0.0907128751277923584
-0.536544084548950195 -0.131174564361572266 0.535542786121368408
0.0471339337527751923 0.365359634160995483 0.17676214873790741
0.0691761225461959839 -0.0228386316448450089 -0.117054246366024017
0.0504857376217842102 -0.404038280248641968 -0.351356267929077148
-0.656541943550109863 0.546871542930603027 0.468521863222122192
-0.166373670101165771 0.0441872701048851013 0.498591214418411255
0.181360453367233276 -0.0583163909614086151 0.0479260310530662537
0.0752520710229873657 0.277451425790786743 0.161425650119781494
0.164529278874397278 -0.570159256458282471 -0.315575569868087769
0.0634872689843177795 0.275489330291748047 0.420614570379257202
0.0739607065916061401 0.384464859962463379 0.354965925216674805
0.177795916795730591 -0.0671060755848884583 0.175943180918693542
0.0748765170574188232 -0.0421253293752670288 0.42752683162689209
0.0720063298940658569 0.230555325746536255 0.0963042005896568298
0.0509771928191184998 -0.0152451340109109879 0.132505208253860474
0.0661143958568572998 0.493009865283966064 0.0322729013860225677
0.162033125758171082 -0.548094093799591064 -0.0150297647342085838
0.052746254950761795 -0.311704725027084351 0.162467524409294128
0.108188778162002563 -0.217849075794219971 -0.26721423864364624
0.0589433424174785614 0.328472912311553955 0.2014751136302948
0.119104541838169098 -0.44121667742729187 -0.343590795993804932
0.045376114547252655 0.378688246011734009 0.220209479331970215
0.112959183752536774 0.253174185752868652 -0.240423932671546936
0.0601655431091785431 -0.169805020093917847 -0.472069770097732544
0.0199698843061923981 -0.23215782642364502 0.263607800006866455
0.0985546857118606567 0.055390525609254837 0.449705541133880615
-0.656821966171264648 0.364409804344177246 0.495102256536483765
0.106857553124427795 -0.205669373273849487 -0.345834940671920776
0.117145508527755737 0.0621680542826652527 0.47275841236114502
0.0297974608838558197 -0.12012067437171936 -0.177553117275238037
-0.570428550243377686 -0.3492622971534729 0.512196242809295654
0.0672995671629905701 -0.167554751038551331 0.171793133020401001
0.0868901610374450684 0.458787530660629272 0.0813209265470504761
0.0427793711423873901 0.0484644733369350433 0.0745076015591621399
0.0827270224690437317 -0.174245074391365051 -0.477062493562698364
0.0385989472270011902 0.419787615537643433 0.0964386612176895142
-0.608687698841094971 0.54388737678527832 0.315995514392852783
0.0419089160859584808 -0.173478111624717712 -0.239898964762687683
0.0876556113362312317 0.0539903491735458374 0.125730246305465698
0.206288993358612061 0.00386984669603407383 -0.664899289608001709
0.0962596386671066284 0.131862476468086243 -0.172484263777732849
0.144760057330131531 -0.315246254205703735 -0.353666841983795166
0.183168902993202209 -0.524719178676605225 0.479043692350387573
0.0102296257391571999 0.0510759837925434113 -0.519033253192901611
0.0878029018640518188 -0.158391818404197693 -0.431295841932296753
0.0422805622220039368 0.16883811354637146 -0.0734737366437911987
0.0631972327828407288 0.217102229595184326 0.204864814877510071
0.132990181446075439 -0.294522464275360107 -0.614830076694488525
0.106207549571990967 -0.590603470802307129 0.0398616231977939606
0.0605150498449802399 0.254572957754135132 -0.0839115455746650696
-0.636601805686950684 0.273509383201599121 0.450205028057098389
0.089179500937461853 -0.0282575394958257675 0.428889751434326172
