ply
format ascii 1.0
element vertex 524
comment vertices
property float x
property float y
property float z
end_header
0.0102744903415441513 -0.0784188210964202881 0.570627748966217041
-0.0231213588267564774 0.020202958956360817 0.564303219318389893
0.0520856902003288269 0.233260080218315125 0.0458229072391986847
0.0463925302028656006 -0.205289065837860107 -0.344721734523773193
0.0299106240272521973 -0.330013781785964966 -0.244318798184394836
-0.38954964280128479 0.175059735774993896 0.498698055744171143
-0.0209683924913406372 0.0624101124703884125 0.334034234285354614
-0.083950333297252655 0.202803298830986023 -0.334386587142944336
0.0305434707552194595 -0.158497035503387451 -0.583361148834228516
0.0190214868634939194 0.0535829178988933563 0.491440325975418091
-0.00453255511820316315 0.0680884122848510742 -0.772582709789276123
-0.0603607967495918274 0.209878996014595032 0.39896237850189209
0.0447645261883735657 -0.36032828688621521 -0.382695138454437256
-0.0154862254858016968 0.223802447319030762 0.179818525910377502
-0.0109614618122577667 0.178082287311553955 -0.331431716680526733
0.0358371958136558533 -0.2178526371717453 0.453226238489151001
0.0222515668720006943 -0.133948013186454773 -0.711726784706115723
0.050535786896944046 0.1033979132771492 0.277811825275421143
0.0150052299723029137 -0.093323148787021637 -0.211720496416091919
0.0306866113096475601 0.237185299396514893 0.134756192564964294
-0.0684575214982032776 0.152307271957397461 0.336742550134658813
-0.0224472135305404663 -0.129994988441467285 0.424100607633590698
-0.0649534761905670166 0.197457492351531982 -0.0269550643861293793
0.0435225851833820343 -0.0151087576523423195 -0.312291085720062256
0.0187443811446428299 0.124961882829666138 0.390895873308181763
-0.0151984468102455139 0.0544837862253189087 -0.352248132228851318
0.0392845645546913147 -0.096199527382850647 -0.24760010838508606
0.0312351249158382416 -0.103328995406627655 0.499937444925308228
0.0483721308410167694 -0.0368948616087436676 0.087067142128944397
0.0137746762484312057 0.265857517719268799 -0.770226120948791504
0.0187936127185821533 -0.138364613056182861 -0.753629446029663086
-0.0316674411296844482 0.0553556680679321289 0.414866924285888672
-0.118994466960430145 0.429206758737564087 -0.342050045728683472
-0.0209150463342666626 0.143187269568443298 -0.169660270214080811
-0.00460588233545422554 -0.0648201927542686462 0.498080343008041382
0.0322633609175682068 0.065258808434009552 0.0987108424305915833
0.0532327443361282349 -0.159910291433334351 -0.200995489954948425
-0.00681079179048538208 -0.183947086334228516 0.411362648010253906
-0.030887870118021965 0.0945630669593811035 0.258860409259796143
-0.0606116950511932373 0.0894771888852119446 0.338420867919921875
0.0229518506675958633 -0.154776886105537415 -0.135702818632125854
0.0142161212861537933 -0.21181902289390564 -0.707530200481414795
0.0202645733952522278 -0.162901923060417175 0.0350295081734657288
-0.0801072940230369568 0.0753889605402946472 0.333017438650131226
0.0393111705780029297 0.209041029214859009 -0.0911682993173599243
0.0488062053918838501 0.202646702527999878 0.252221345901489258
0.0204041600227355957 0.00815589167177677155 -0.35467994213104248
-0.00237222947180271149 0.125631347298622131 -0.117483928799629211
0.00987881608307361603 -0.125506192445755005 0.417661815881729126
0.0491779856383800507 0.201520293951034546 0.260934919118881226
-0.0507918894290924072 0.177280023694038391 0.482026457786560059
0.0442035794258117676 -0.230142727494239807 -0.119646124541759491
0.0300032682716846466 -0.323738634586334229 -0.222256064414978027
-0.0308817550539970398 0.00309401913546025753 0.6064339280128479
0.00163584842812269926 0.153558060526847839 -0.301670074462890625
-0.0756259337067604065 0.181457489728927612 0.508952617645263672
-0.093258194625377655 0.281447231769561768 -0.342067986726760864
0.0027571478858590126 0.0846785157918930054 0.064440116286277771
0.0143835395574569702 0.0727957263588905334 0.117681793868541718
-0.0111469468101859093 0.0217053797096014023 0.351535588502883911
-0.0372700914740562439 0.158443465828895569 0.532703399658203125
0.0508681647479534149 -0.265100717544555664 0.0744752958416938782
-0.0185925029218196869 -0.140157997608184814 0.0186331477016210556
-0.00181712745688855648 0.147241309285163879 -0.323316037654876709
0.0106265060603618622 0.246542900800704956 0.243640676140785217
0.0215504374355077744 -0.0742560029029846191 -0.203970059752464294
0.0504652038216590881 0.110731236636638641 0.170108526945114136
0.0264335200190544128 -0.0890915766358375549 0.210770592093467712
0.0352983996272087097 -0.0763238295912742615 -0.394417464733123779
-0.034282635897397995 0.215238571166992188 0.528869569301605225
0.0227606557309627533 -0.201970338821411133 0.370187163352966309
0.0490503385663032532 0.0889085233211517334 -0.543468654155731201
-0.0029218865092843771 0.00532254204154014587 0.543145835399627686
0.0472717992961406708 -0.0180312413722276688 -0.104649379849433899
0.0465361811220645905 0.169825747609138489 -0.306259185075759888
0.0279476772993803024 0.115171246230602264 -0.545927822589874268
0.0500863939523696899 0.00701947789639234543 0.0822987258434295654
-0.0358131937682628632 0.11633475124835968 0.549860239028930664
-0.0356411002576351166 0.0798956006765365601 0.577859103679656982
0.046388678252696991 -0.267625659704208374 0.141396075487136841
0.00787150301039218903 -0.0240749511867761612 -0.947859346866607666
0.0502713844180107117 -0.105755306780338287 0.565953493118286133
0.04747820645570755 -0.225630238652229309 -0.706700265407562256
0.00299696088768541813 -0.221109107136726379 -0.298376977443695068
-0.054463069885969162 0.0189621485769748688 0.497294068336486816
-0.0156668554991483688 0.0630847811698913574 0.39946022629737854
-0.0244930796325206757 -0.131112009286880493 0.1844683438539505
-0.0650428533554077148 0.122156858444213867 0.328605204820632935
0.0031943637877702713 0.129817500710487366 0.207864090800285339
-0.0211307425051927567 0.31421196460723877 0.403505265712738037
0.0447631962597370148 -0.446734189987182617 -0.658758819103240967
-0.0549204275012016296 0.114896722137928009 0.345877796411514282
0.00087395060108974576 0.0486218370497226715 0.136660441756248474
-0.049052264541387558 0.0809803605079650879 0.595936477184295654
-0.00347631564363837242 -0.0142908534035086632 -0.501501798629760742
0.0317290946841239929 -0.0659441649913787842 -0.113724499940872192
0.0351925864815711975 -0.256872475147247314 0.0364155545830726624
0.0283307135105133057 0.114012248814105988 -0.536956965923309326
0.052852187305688858 -0.0197767056524753571 -0.255680859088897705
-0.0518446378409862518 0.0220246631652116776 -0.697984695434570312
-0.000851015967782586813 -0.139590591192245483 0.184133037924766541
-0.0360866934061050415 0.114383786916732788 0.393257081508636475
-0.0345892235636711121 0.00485935807228088379 0.410784244537353516
-0.0703727826476097107 0.0387145243585109711 -0.800992429256439209
-0.0702692940831184387 0.427053689956665039 -0.333857625722885132
0.0209816582500934601 -0.119757615029811859 0.467089265584945679
0.0517458356916904449 -0.0165758486837148666 -0.339972376823425293
-0.0539453588426113129 0.263536691665649414 -0.351408988237380981
0.0188063438981771469 0.0775223150849342346 0.267573773860931396
0.0544114448130130768 0.0097699994221329689 0.0743114873766899109
0.0269484817981719971 -0.201736465096473694 -0.928792834281921387
0.000352475384715944529 0.205845952033996582 0.230416074395179749
0.0396493300795555115 0.138241991400718689 0.122554339468479156
-0.0267019346356391907 -0.138892859220504761 -0.941861808300018311
0.0456395745277404785 -0.0191302020102739334 0.251420050859451294
-0.0185948591679334641 0.121887408196926117 0.606803476810455322
0.0289812814444303513 0.0564376898109912872 -0.137527018785476685
0.0160134993493556976 0.00632157269865274429 -0.176005184650421143
0.00800997763872146606 -0.0490482039749622345 -0.292562276124954224
-0.0160835273563861847 0.206222996115684509 -0.256609648466110229
0.0478622950613498688 -0.441112101078033447 -0.686497211456298828
0.0110161053016781807 -0.0185862910002470016 -0.195118561387062073
-0.0350054129958152771 0.0958458483219146729 0.581662297248840332
-0.0190161392092704773 0.0940915122628211975 0.517784714698791504
0.0285500288009643555 -0.0480380244553089142 0.0530985519289970398
0.0302856341004371643 -0.239859089255332947 -0.281462132930755615
-0.0324163883924484253 0.16588321328163147 0.379961729049682617
0.0298983063548803329 0.0501108914613723755 -0.677705645561218262
-0.0181364696472883224 0.326930373907089233 -0.328674256801605225
0.0370278880000114441 -0.234011173248291016 -0.553956151008605957
-0.0182313136756420135 0.1714487224817276 -0.0758125558495521545
0.0149815203621983528 0.154027193784713745 -0.215845316648483276
0.0372111611068248749 -0.182739779353141785 0.155791804194450378
-0.153209328651428223 0.163533672690391541 0.462938934564590454
-0.0343558117747306824 0.063495829701423645 0.351873248815536499
0.02479562908411026 0.110861890017986298 0.277704119682312012
0.00810141023248434067 -0.0414359904825687408 -0.404688447713851929
-0.0242613554000854492 0.0096094207838177681 -0.36163705587387085
0.038379862904548645 -0.0860848724842071533 0.042131226509809494
0.000168426515301689506 -0.0955447107553482056 0.603870689868927002
0.0229744166135787964 0.0130499051883816719 0.379570901393890381
0.0485960207879543304 -0.289314925670623779 -0.336101531982421875
0.0132071031257510185 -0.0246940497308969498 0.0304644759744405746
0.0228579044342041016 -0.134636789560317993 -0.829694390296936035
-0.139958411455154419 0.27242666482925415 -0.15901494026184082
0.0112242782488465309 -0.309284508228302002 -0.568967103958129883
-0.0400556474924087524 -0.0897438004612922668 -0.568400144577026367
0.0175441671162843704 -0.12447047233581543 0.0084615638479590416
0.0485823117196559906 -0.067995317280292511 0.537371039390563965
-0.0550931133329868317 0.0186477024108171463 0.206478238105773926
-0.00762784434482455254 -0.185074374079704285 -0.198873385787010193
0.0201764591038227081 -0.213889628648757935 -0.0490469895303249359
-0.0117583582177758217 -0.164809852838516235 -0.348554551601409912
-0.0512889251112937927 0.00460409000515937805 -0.396913051605224609
-0.0437855422496795654 -0.341248065233230591 -0.846165299415588379
-0.00478868652135133743 0.182023391127586365 0.440826982259750366
0.0333695225417613983 0.0991960838437080383 0.265919655561447144
0.0444054529070854187 0.269661307334899902 -0.724270880222320557
-0.00455714156851172447 -0.364603936672210693 -0.766588270664215088
0.0284257419407367706 -0.294412612915039062 -0.941200375556945801
0.0122681139037013054 0.180037826299667358 -0.289650857448577881
0.0178472809493541718 0.126239806413650513 -0.244336336851119995
0.0539880171418190002 -0.458310991525650024 -0.887150704860687256
0.049767516553401947 -0.175447702407836914 0.625466585159301758
-0.0447630174458026886 0.148615479469299316 0.584593474864959717
0.0467567108571529388 0.00625884439796209335 -0.569405555725097656
-0.00335563812404870987 -0.2080564945936203 -0.531071722507476807
-0.0212394669651985168 0.0918923765420913696 0.47116464376449585
0.00427918322384357452 -0.139964520931243896 0.442178189754486084
0.0360439792275428772 -0.404833614826202393 0.0206376742571592331
0.0441206023097038269 -0.150054112076759338 0.194688215851783752
0.0395987555384635925 -0.372950434684753418 -0.771389961242675781
-0.0346849150955677032 0.0601118393242359161 -0.0887114033102989197
-0.045488990843296051 -0.0208456628024578094 -0.386602103710174561
0.0417559780180454254 -0.267636924982070923 -0.566657423973083496
-0.0228075925260782242 -0.153420090675354004 -0.5815543532371521
0.0186766311526298523 0.032979380339384079 0.115035988390445709
-0.028566654771566391 -0.0388066470623016357 0.493806362152099609
0.0505992360413074493 -0.282782405614852905 0.505601644515991211
-0.072491966187953949 0.150281831622123718 -0.864774525165557861
0.0444142036139965057 -0.224870368838310242 -0.657521963119506836
0.0158465523272752762 -0.314803093671798706 0.438098371028900146
-0.0153928585350513458 0.0570175796747207642 -0.0777954384684562683
0.00508512277156114578 0.0731948912143707275 -0.313307732343673706
-0.0244431681931018829 -0.193163901567459106 0.427240550518035889
0.00617365632206201553 -0.0120248999446630478 -0.671723842620849609
0.0173754449933767319 0.0804025828838348389 0.129644155502319336
0.0264162570238113403 -0.096301645040512085 0.557766079902648926
0.0466181710362434387 -0.17129795253276825 -0.0803022831678390503
0.040610775351524353 -0.061186131089925766 -0.483592331409454346
0.0526409335434436798 -0.214190021157264709 0.474115222692489624
0.00871921516954898834 -0.0276529453694820404 -0.437516003847122192
0.0108825135976076126 -0.0576966069638729095 -0.285746574401855469
0.0299873128533363342 -0.185971811413764954 0.58452373743057251
-0.0459491796791553497 0.149016737937927246 0.411009132862091064
0.0533425994217395782 0.0639106780290603638 0.04506712406873703
-0.00359574751928448677 0.0117466654628515244 0.030836794525384903
0.0512704215943813324 -0.481811970472335815 -0.671813607215881348
-0.0497812367975711823 0.214547082781791687 -0.734565377235412598
0.0343483835458755493 0.0772374793887138367 -0.617450237274169922
0.0538896322250366211 -0.0619133114814758301 0.15524563193321228
0.0462893582880496979 -0.0912126824259757996 -0.872987985610961914
0.0515955127775669098 -0.375860452651977539 -0.127774879336357117
0.0133662009611725807 0.0859856680035591125 0.195696368813514709
0.0200484767556190491 -0.369565963745117188 -0.723146975040435791
-0.00134151929523795843 -0.0178063083440065384 0.416392654180526733
-0.0425282120704650879 0.158107280731201172 0.523223042488098145
0.0121677955612540245 -0.116704992949962616 0.363166272640228271
0.0500882416963577271 -0.493672102689743042 0.00506471702829003334
0.0354637280106544495 -0.175923794507980347 -0.141279280185699463
0.0176942478865385056 0.270007073879241943 -0.399827420711517334
-0.000691033957991749048 0.105710327625274658 -0.669138014316558838
-0.0524219758808612823 0.263769388198852539 -0.517365336418151855
0.0144365793094038963 0.207017958164215088 0.0323415659368038177
0.0422192364931106567 -0.0106129301711916924 -0.168823421001434326
0.00439733033999800682 -0.092660069465637207 -0.184159815311431885
0.0340629331767559052 -0.0412456728518009186 -0.0386332124471664429
0.0480171963572502136 -0.233339324593544006 -0.149484500288963318
0.0542804785072803497 0.382715970277786255 0.0784183889627456665
0.0101835085079073906 0.261914283037185669 0.62301480770111084
0.0225579515099525452 0.141756519675254822 0.0575339682400226593
0.0216697510331869125 0.279593586921691895 0.361680716276168823
-0.0650686398148536682 0.0810340046882629395 0.558309257030487061
0.0211768001317977905 0.202797487378120422 0.0772841423749923706
-0.0447903722524642944 -0.0702261030673980713 0.314593493938446045
0.0320033766329288483 0.0986443385481834412 -0.0757576152682304382
-0.0641134381294250488 0.171066895127296448 0.607237696647644043
0.0317218750715255737 -0.235236778855323792 -0.943236589431762695
0.0471511520445346832 0.180878490209579468 -0.100056812167167664
0.0480905771255493164 0.0706308633089065552 -0.129796057939529419
0.0484914369881153107 0.0743325427174568176 -0.502677798271179199
-0.0440849326550960541 0.080189920961856842 -0.309318661689758301
0.0514800623059272766 -0.236115232110023499 -0.120728492736816406
0.0471250899136066437 -0.212760671973228455 0.388107657432556152
0.00472436053678393364 -0.142101362347602844 -0.768120527267456055
-0.0316646955907344818 0.123219013214111328 -0.460065156221389771
-0.00558110838755965233 -0.153480485081672668 -0.284840285778045654
-0.0264164730906486511 0.131261929869651794 -0.502846598625183105
-0.11155255138874054 0.385080128908157349 -0.176844596862792969
-0.0105559825897216797 -0.157426223158836365 0.341304123401641846
0.0522852018475532532 -0.0165906921029090881 0.0750913470983505249
0.0370714105665683746 -0.0271896477788686752 -0.365528523921966553
0.00848784763365983963 -0.230020135641098022 -0.222165003418922424
0.0216546468436717987 -0.121736533939838409 0.542186975479125977
-0.00953254476189613342 -0.0505125075578689575 0.209284082055091858
0.0151263298466801643 0.135959148406982422 -0.203991323709487915
-0.0294467676430940628 -0.309801965951919556 0.338883459568023682
0.0354238264262676239 0.166654780507087708 -0.652961909770965576
0.00354876555502414703 0.0201405901461839676 -0.362388461828231812
0.0399906262755393982 -0.18493005633354187 0.604103028774261475
0.0489846169948577881 -0.157442718744277954 0.619975388050079346
-0.0282240565866231918 -0.0639960765838623047 0.609957754611968994
-0.125959038734436035 0.113573752343654633 -0.625388085842132568
0.0492243468761444092 -0.144475966691970825 -0.74984055757522583
0.0425340980291366577 -0.207518041133880615 0.522941291332244873
0.0361256301403045654 0.031050240620970726 -0.589563369750976562
-0.00434483494609594345 -0.182281970977783203 0.161732062697410583
-0.037746768444776535 0.0871151760220527649 0.579471588134765625
0.0132697224617004395 -0.221351131796836853 -0.267483115196228027
-0.0247892327606678009 0.152020350098609924 0.549983501434326172
0.00850227568298578262 -0.0973706915974617004 0.519083499908447266
0.00338607002049684525 -0.134005337953567505 -0.392990320920944214
0.053730793297290802 -0.0697118043899536133 0.0301176458597183228
-0.0111865447834134102 0.185344651341438293 0.0127163948491215706
0.0148908179253339767 -0.0932789891958236694 0.388422340154647827
-0.0108538297936320305 0.0571888498961925507 -0.359926730394363403
0.0304310563951730728 -0.0541346073150634766 -0.138374760746955872
-0.0956033840775489807 0.0934801846742630005 0.457792580127716064
-0.083481520414352417 0.238652095198631287 0.477623999118804932
-0.0834585130214691162 0.11576109379529953 0.501194536685943604
0.00582315074279904366 -0.11323026567697525 0.38262706995010376
0.0207127984613180161 0.102865859866142273 0.549442470073699951
0.0108504751697182655 0.0550227314233779907 0.518944084644317627
0.0360271558165550232 0.154388770461082458 0.282141059637069702
-0.306106299161911011 0.175120130181312561 0.503438413143157959
-0.334233641624450684 0.172875285148620605 -0.0611846782267093658
0.0285731274634599686 0.0472095608711242676 0.444376170635223389
-0.0295954477041959763 0.02267487533390522 0.415756553411483765
0.0456168726086616516 -0.379714846611022949 0.266503125429153442
0.00903336144983768463 -0.124255053699016571 -0.877281606197357178
-0.0558158904314041138 0.178565606474876404 0.57304072380065918
0.0292651336640119553 0.0799354463815689087 -0.241195127367973328
-0.0581880025565624237 0.048597920686006546 0.513712704181671143
-0.0257487650960683823 0.329960674047470093 0.336392134428024292
-0.0320450104773044586 -0.0449660643935203552 0.3507823646068573
0.0167855937033891678 -0.281683146953582764 0.465621232986450195
0.0178524460643529892 -0.223680004477500916 -0.553285539150238037
-0.0065960390493273735 -0.114995650947093964 0.362344920635223389
-4.67275895061902702e-05 -0.0246705822646617889 -0.361231297254562378
0.0212449934333562851 -0.300360441207885742 -0.663720250129699707
0.029961172491312027 -0.139109209179878235 0.443846642971038818
-0.0102637242525815964 0.266273975372314453 -0.0506702326238155365
0.0264138635247945786 0.102472953498363495 -0.636421322822570801
-0.0655540674924850464 0.0971161946654319763 0.330862671136856079
-0.0029070279560983181 -0.0206111259758472443 0.490303725004196167
-0.0105068348348140717 0.100592270493507385 0.492365807294845581
0.0444792583584785461 0.194563433527946472 0.0773716196417808533
0.00223384820856153965 -0.217803314328193665 0.422586381435394287
0.0132991783320903778 0.183926790952682495 0.079322226345539093
0.0522124767303466797 -0.0482663288712501526 0.234264761209487915
0.0275116898119449615 0.118237525224685669 -0.394921064376831055
-0.00410208757966756821 0.137443870306015015 -0.318189769983291626
0.0515695847570896149 -0.138582348823547363 -0.473976850509643555
-0.0637577027082443237 0.103816606104373932 0.573037564754486084
-0.00276249763555824757 -0.270239502191543579 0.457719951868057251
0.0431931018829345703 0.261545747518539429 -0.117108538746833801
0.0157255008816719055 0.213382929563522339 0.432519972324371338
0.0533481091260910034 -0.483669430017471313 0.408758401870727539
-0.0146980434656143188 0.0691746920347213745 -0.393746614456176758
0.000612641102634370327 -0.271461069583892822 0.350750476121902466
0.02032485231757164 0.00906880199909210205 -0.183849230408668518
0.0281526483595371246 -0.187223747372627258 -0.644885897636413574
0.0179885812103748322 -0.0158857144415378571 -0.136247143149375916
-0.0226540975272655487 0.359930992126464844 -0.461072742938995361
0.0200243163853883743 -0.158684849739074707 -0.48755192756652832
-0.00813316460698843002 -0.126336514949798584 -0.911818206310272217
0.0143585698679089546 0.0951053053140640259 0.419194251298904419
-0.0548166856169700623 0.0814895480871200562 0.521972000598907471
-0.0652925595641136169 0.164208710193634033 0.0914314836263656616
-0.0451269969344139099 0.193107515573501587 -0.00739841349422931671
0.0438991524279117584 0.0253459978848695755 -0.118271857500076294
0.0293779037892818451 0.0993145555257797241 -0.0295295305550098419
-0.0540123246610164642 0.147097915410995483 -0.276048362255096436
0.01271040178835392 -0.255500316619873047 0.46207699179649353
0.0366121269762516022 -0.0377168469130992889 0.590457499027252197
0.00704226270318031311 -0.214834392070770264 -0.581369400024414062
0.00191167439334094524 -0.135879367589950562 -0.569677948951721191
0.0173978935927152634 -0.101064920425415039 0.149441704154014587
0.0530385896563529968 0.253730088472366333 0.178386121988296509
0.0324487723410129547 -0.186832129955291748 -0.447549402713775635
-0.133580252528190613 0.422013044357299805 -0.374974042177200317
0.0400005877017974854 -0.127966746687889099 -0.394284278154373169
0.0325906835496425629 0.0254603885114192963 -0.918021738529205322
0.0418976061046123505 0.0639718174934387207 -0.273247838020324707
-0.0666884481906890869 0.177697360515594482 0.4994029700756073
-0.00584207428619265556 0.349833011627197266 -0.0834078788757324219
0.0331824310123920441 -0.0232609827071428299 -0.402803808450698853
-0.0380746237933635712 0.0154143022373318672 0.329104751348495483
0.0503400079905986786 0.07903318852186203 0.389952212572097778
0.0502592809498310089 -0.214987188577651978 -0.455469787120819092
0.0319875068962574005 0.109721124172210693 0.0758650526404380798
0.000971580913756042719 0.160710453987121582 -0.0124135073274374008
-0.0278301090002059937 0.0454484522342681885 -0.262996315956115723
0.0134601322934031487 0.402792781591415405 0.167998909950256348
-0.352890491485595703 0.16964857280254364 0.499420017004013062
0.0282278172671794891 -0.047202039510011673 -0.0129098035395145416
-0.0321898274123668671 0.169114008545875549 0.133569821715354919
-0.0306067336350679398 0.230046287178993225 0.487787187099456787
-0.045179612934589386 0.0180287007242441177 -0.295016735792160034
-0.011679232120513916 0.122183695435523987 0.452026933431625366
-0.06795482337474823 0.302619755268096924 0.495204299688339233
0.0472896881401538849 -0.15037691593170166 -0.159898027777671814
0.0241609774529933929 0.0646712854504585266 -0.0326081067323684692
0.00939219724386930466 -0.295997440814971924 0.354703992605209351
-0.105173826217651367 0.202134057879447937 0.521576166152954102
-0.00933767948299646378 -0.122688621282577515 -0.94004589319229126
0.0390433818101882935 0.0637972354888916016 -0.395821571350097656
0.0181607361882925034 0.130625680088996887 -0.503835856914520264
0.0274203792214393616 0.0805819109082221985 0.0381544493138790131
0.0121186571195721626 -0.116345763206481934 0.599607884883880615
0.0340940952301025391 -0.116638094186782837 -0.672484517097473145
0.0537980906665325165 -0.31435692310333252 -0.92440342903137207
-0.211175337433815002 0.199702009558677673 0.533484995365142822
0.0503615811467170715 -0.0110806627199053764 -0.0265844110399484634
0.0473819337785243988 -0.163146272301673889 -0.503974020481109619
0.00441864831373095512 0.154760733246803284 -0.189440548419952393
0.0210109390318393707 0.238998711109161377 0.591394007205963135
-0.0605743676424026489 0.0253621097654104233 -0.266066312789916992
-0.0175998955965042114 -0.197900623083114624 0.416818439960479736
0.042483549565076828 -0.137286260724067688 0.102854117751121521
0.0416180305182933807 0.309255510568618774 -0.073131658136844635
-0.0419670268893241882 0.411248832941055298 -0.0576379820704460144
-0.407227843999862671 0.162149965763092041 0.494466781616210938
0.0472099706530570984 -0.290333002805709839 0.0468959324061870575
0.0276546422392129898 -0.238174766302108765 -0.935538113117218018
0.0391475185751914978 -0.262415945529937744 0.210269749164581299
-0.0755813866853713989 0.135256677865982056 0.552446186542510986
-0.00703932438045740128 0.148537322878837585 -0.230637520551681519
-0.0699183642864227295 0.335055172443389893 0.316090583801269531
0.0391309037804603577 -0.0723449438810348511 0.188446402549743652
0.0502965450286865234 -0.31929740309715271 -0.000972556066699326038
0.0185888800770044327 0.303999722003936768 -0.141399413347244263
-0.0542308613657951355 0.381470263004302979 0.339877605438232422
0.00448397733271121979 -0.108157455921173096 -0.199247241020202637
-0.0204084776341915131 0.161980375647544861 0.434480190277099609
0.0162921864539384842 0.0989827290177345276 -0.0591855309903621674
0.0249364376068115234 0.381041973829269409 -0.451455593109130859
0.0227087251842021942 -0.116952851414680481 0.571621119976043701
-0.0023029041476547718 -0.120122075080871582 0.408802449703216553
0.0274566356092691422 -0.245752632617950439 0.436295419931411743
-0.00137620896566659212 0.0455125235021114349 -0.0798803940415382385
-0.0750137418508529663 0.150797724723815918 0.501270413398742676
-0.00607770727947354317 -0.0924627631902694702 0.566684722900390625
-0.0689488127827644348 0.223810315132141113 -0.332828164100646973
0.0292385686188936234 -0.244383230805397034 -0.253767639398574829
-0.00863451231271028519 0.294642180204391479 0.621056139469146729
0.0262338444590568542 -0.185766488313674927 -0.223629564046859741
0.01334390789270401 0.149364069104194641 -0.301318883895874023
-0.0151628153398633003 0.148897677659988403 0.257666915655136108
-0.0504965931177139282 0.131362453103065491 0.580216825008392334
-0.00016934228187892586 0.0198683999478816986 0.333227217197418213
-0.0111615285277366638 -0.207535415887832642 0.192514881491661072
0.0337433069944381714 -0.00107721355743706226 -0.374994933605194092
0.0477642379701137543 0.0065581086091697216 0.13791443407535553
-0.0156541932374238968 0.0812386125326156616 -0.304240822792053223
0.0212385095655918121 0.286338955163955688 -0.0662787929177284241
0.0124626243487000465 0.0363825485110282898 0.134096980094909668
0.0508876107633113861 0.00823369249701499939 0.481898099184036255
0.0528494454920291901 -0.435366272926330566 -0.642464995384216309
0.0274681076407432556 -0.100140392780303955 0.169690996408462524
-0.337431639432907104 0.191708207130432129 -0.0839697569608688354
0.0507416985929012299 -0.0115755284205079079 0.0952345877885818481
0.0383771322667598724 -0.152842253446578979 -0.41384848952293396
0.0175071116536855698 0.0614895150065422058 0.0307452194392681122
0.0357623733580112457 0.282690525054931641 -0.336691051721572876
0.0255722943693399429 -0.0392752774059772491 -0.133871838450431824
0.0512729212641716003 -0.323142170906066895 -0.808020472526550293
0.0331378467381000519 -0.138950824737548828 -0.215736716985702515
0.0527116656303405762 -0.338838338851928711 -0.503278434276580811
0.0539150983095169067 -0.181209132075309753 -0.549139618873596191
-0.0131179485470056534 0.254584848880767822 0.189592882990837097
-0.0498354583978652954 0.195612311363220215 0.577445685863494873
0.019046977162361145 -0.0586441867053508759 -0.438373982906341553
0.0536748133599758148 -0.353134602308273315 -0.598970472812652588
-0.0113807749003171921 -0.116279654204845428 0.418729215860366821
-0.0674668028950691223 -0.0807184353470802307 0.329113006591796875
-0.0120746530592441559 -0.16704992949962616 0.09790831059217453
0.0322567485272884369 -0.0360203944146633148 -0.198277831077575684
-0.0073232743889093399 -0.0182225257158279419 -0.245314836502075195
0.0454272516071796417 0.230885475873947144 0.430352598428726196
0.0389359891414642334 -0.14764733612537384 -0.324426591396331787
0.00104805408045649529 0.0465756990015506744 -0.0229105334728956223
0.0278630945831537247 -0.237716853618621826 0.196930199861526489
0.0391903407871723175 0.127586200833320618 0.42036205530166626
-0.0438714474439620972 0.188310101628303528 -0.0273045841604471207
0.0178183987736701965 0.182175189256668091 -0.122154116630554199
0.0223988853394985199 -0.409866482019424438 -0.313562750816345215
0.030990874394774437 -0.0612404383718967438 0.622076213359832764
0.0207732357084751129 0.117821857333183289 0.389116644859313965
-0.000719998788554221392 -0.0535241365432739258 -0.526654839515686035
0.0430603213608264923 -0.114811725914478302 -0.292288720607757568
-0.0897036492824554443 0.123335905373096466 0.20614992082118988
0.0204354412853717804 0.221232295036315918 -0.0530908778309822083
-0.0111803021281957626 0.0617299862205982208 0.074135124683380127
-0.00649509299546480179 0.218202963471412659 0.459258139133453369
0.0176662299782037735 -0.193219870328903198 0.112276837229728699
0.0376125834882259369 -0.0829664915800094604 -0.463999032974243164
0.0331993401050567627 -0.270975470542907715 -0.124915830790996552
0.0150206517428159714 0.192663043737411499 0.300413429737091064
0.0372113846242427826 0.0103877773508429527 0.490902036428451538
-0.0367324575781822205 -0.149411559104919434 0.399176269769668579
-0.024460112676024437 0.168480396270751953 -0.468223273754119873
-0.0740694180130958557 0.162166401743888855 0.311438709497451782
0.044856928288936615 0.327219456434249878 -0.0840788781642913818
0.0382191501557826996 -0.202718049287796021 0.600073814392089844
0.0396782495081424713 0.0358387194573879242 -0.67239910364151001
0.0289419274777173996 -0.143893808126449585 0.593999028205871582
0.0507350824773311615 0.0742776542901992798 -0.672003209590911865
-0.0266996752470731735 -0.085529036819934845 0.40668797492980957
0.00135877623688429594 0.219000831246376038 -0.248863339424133301
0.0256972070783376694 -0.349984198808670044 0.00660445308312773705
-0.0697733163833618164 0.209197476506233215 0.160413071513175964
0.0227941218763589859 -0.0938414782285690308 0.114100262522697449
0.0522926934063434601 -0.0576592870056629181 -0.355625659227371216
-0.0422170162200927734 -0.0195344891399145126 0.619494915008544922
-0.00205100304447114468 -0.0881199091672897339 -0.415005773305892944
-0.066481269896030426 0.217246875166893005 0.554707586765289307
-0.0425046570599079132 0.240136757493019104 0.336197197437286377
0.0143551798537373543 -0.200065776705741882 -0.534542202949523926
-0.025624249130487442 0.205372929573059082 0.617007076740264893
-0.0152275050058960915 -0.0720803812146186829 0.580431163311004639
0.0329026021063327789 -0.0694985538721084595 -0.0862204432487487793
-0.0409092754125595093 -0.156796425580978394 -0.923693597316741943
0.0160414911806583405 -0.112607240676879883 0.164930775761604309
-0.0152985295280814171 -0.0945199877023696899 -0.468328922986984253
0.0394487492740154266 -0.125927835702896118 -0.471099734306335449
-0.0122212804853916168 0.0526512525975704193 0.480198800563812256
-0.0129888588562607765 0.258845984935760498 -0.33674997091293335
-0.0866313353180885315 0.0971558764576911926 0.338516771793365479
0.00746318744495511055 0.0766226276755332947 0.588198542594909668
0.0071928584948182106 -0.0367974378168582916 0.393281161785125732
0.00613050535321235657 -0.371029764413833618 -0.493462800979614258
-0.00111124536488205194 0.192818969488143921 0.26272234320640564
0.0533244572579860687 0.137827232480049133 0.60461878776550293
0.0227203052490949631 0.0114240599796175957 0.0994024574756622314
0.0231838598847389221 -0.118469394743442535 0.163868442177772522
0.023904167115688324 -0.0422498658299446106 -0.297084033489227295
-0.00304357032291591167 -0.0444808751344680786 0.596628546714782715
-0.0455206744372844696 0.165177047252655029 -0.784756660461425781
0.0456124953925609589 -0.0922850966453552246 -0.0160785466432571411
-0.0425768420100212097 0.109816223382949829 0.410001635551452637
0.0490040183067321777 -0.209582820534706116 0.187508121132850647
0.0536619462072849274 -0.0383466035127639771 -0.424253672361373901
-0.0805475339293479919 0.175684019923210144 0.314727455377578735
-0.0666592493653297424 -0.243499025702476501 -0.217493027448654175
0.0401916764676570892 -0.0197595395147800446 0.00693796481937170029
0.0275590717792510986 -0.0213549211621284485 -0.912651598453521729
-0.0141140660271048546 0.209040597081184387 0.175395011901855469
0.0301826205104589462 -0.138654083013534546 -0.0426511019468307495
0.047329980880022049 0.371333032846450806 -0.0677616670727729797
0.0337397344410419464 -0.166200369596481323 0.579661369323730469
0.0352569855749607086 0.294616073369979858 0.499742239713668823
0.00766518153250217438 -0.156259641051292419 0.0164557173848152161
0.00990356411784887314 0.287417620420455933 0.442982763051986694
0.0183503869920969009 0.255619078874588013 -0.132049560546875
0.0298456847667694092 -0.292397081851959229 0.0738887041807174683
0.0223815776407718658 -0.238157421350479126 0.370429247617721558
0.0454935245215892792 -0.0832531005144119263 -0.501240253448486328
0.00910928193479776382 0.0796939283609390259 0.570697367191314697
-0.00896561890840530396 0.318480044603347778 -0.140305891633033752
-0.00278758816421031952 -0.0950291827321052551 0.234992057085037231
-0.352341532707214355 0.232262849807739258 0.515117824077606201
0.0418130122125148773 -0.232943624258041382 0.141449227929115295
0.0541185475885868073 -0.208709463477134705 0.072613447904586792
-0.00183140509761869907 -0.0397974550724029541 0.625723600387573242
0.0326458066701889038 -0.0914591774344444275 0.540416955947875977
0.00152548751793801785 0.38295280933380127 0.33648151159286499
0.0461083576083183289 -0.131557315587997437 -0.230512529611587524
0.0327426455914974213 -0.282918006181716919 0.456434071063995361
-0.00329427490942180157 0.230687215924263 0.59713590145111084
0.0261823013424873352 -0.0170317515730857849 -0.107134319841861725
0.0460881926119327545 0.310454756021499634 -0.12580302357673645
0.0181715767830610275 0.106124512851238251 -0.392078429460525513
0.0520947091281414032 -0.220605775713920593 0.577507555484771729
