ply
format ascii 1.0
element vertex 725
comment vertices
property float x
property float y
property float z
end_header
0.452131122350692749 0.184449002146720886 -0.521134078502655029
-0.231359183788299561 0.251653522253036499 0.298419296741485596
0.480992138385772705 -0.0915890485048294067 -0.269159227609634399
0.465943127870559692 -0.107614502310752869 -0.392968952655792236
-0.270235151052474976 0.580408811569213867 0.386542141437530518
-0.209070459008216858 -0.563620567321777344 0.564346015453338623
0.425877839326858521 -0.36815345287322998 -0.33594319224357605
0.208342686295509338 -0.0930383801460266113 0.209250852465629578
-0.206495374441146851 -0.246476694941520691 -0.117664791643619537
0.230553850531578064 -0.168912634253501892 -0.00203668954782187939
-0.199222564697265625 -0.458612680435180664 0.152500778436660767
0.155806213617324829 -0.179788172245025635 0.312692344188690186
0.495595961809158325 0.29540666937828064 -0.401733428239822388
-0.236779257655143738 0.739696919918060303 -0.0424491539597511292
-0.270941764116287231 0.551600039005279541 0.224952295422554016
-0.194135621190071106 -0.523839056491851807 -0.158377751708030701
0.487859129905700684 -0.0230740383267402649 -0.546195089817047119
-0.248120397329330444 0.683851838111877441 0.0618185512721538544
0.486079037189483643 -0.400873750448226929 -0.3429604172706604
-0.185059532523155212 -0.676957190036773682 -0.18052750825881958
-0.252955198287963867 0.263424545526504517 0.340918272733688354
-0.209422692656517029 -0.630191504955291748 0.540426850318908691
-0.189142987132072449 -0.0570337995886802673 0.0854665637016296387
0.493632704019546509 0.0607035271823406219 -0.518310904502868652
-0.252688586711883545 0.570204734802246094 -0.0853814259171485901
0.140254050493240356 -0.115838721394538879 0.429329484701156616
0.482827603816986084 0.129449114203453064 -0.378327518701553345
-0.272397845983505249 0.684774577617645264 0.430384725332260132
-0.220221444964408875 -0.201085001230239868 0.231854811310768127
-0.224068030714988708 -0.227129638195037842 -0.0451933518052101135
-0.204467535018920898 -0.597093522548675537 0.231529340147972107
-0.246598228812217712 0.25712248682975769 -0.233705013990402222
-0.255556166172027588 0.707706809043884277 0.264487743377685547
0.442888170480728149 0.00341301108710467815 -0.41976359486579895
0.118720538914203644 -0.0663226917386054993 0.394207626581192017
0.485936164855957031 -0.265150994062423706 -0.308553725481033325
0.48411223292350769 0.319086790084838867 -0.452892929315567017
0.12442915141582489 0.78538668155670166 0.115436546504497528
0.445560425519943237 0.285736739635467529 -0.50642085075378418
-0.216810151934623718 -0.341097921133041382 0.225582897663116455
-0.269917041063308716 0.496919125318527222 0.216828286647796631
0.503496527671813965 -0.333072066307067871 -0.381542742252349854
-0.241420701146125793 0.16982443630695343 0.213716551661491394
0.212615519762039185 -0.100171461701393127 0.249070510268211365
-0.24551980197429657 0.398133903741836548 -0.153978869318962097
-0.181614801287651062 -0.674635529518127441 0.0789765864610671997
-0.159786984324455261 0.753529965877532959 -0.170285686850547791
0.510967731475830078 -0.331156432628631592 -0.563869953155517578
0.172604858875274658 -0.0352110117673873901 -0.112307585775852203
-0.228602379560470581 0.221357673406600952 0.0512245334684848785
-0.209162592887878418 -0.604854583740234375 0.558353662490844727
0.335607409477233887 -0.365135729312896729 0.5527152419090271
0.172141611576080322 -0.129730984568595886 0.063919849693775177
0.467363178730010986 0.3316783607006073 -0.428310275077819824
-0.263615518808364868 0.615477979183197021 0.163888469338417053
-0.210523277521133423 -0.218793943524360657 -0.200441703200340271
-0.244427844882011414 0.224835887551307678 -0.0365437939763069153
-0.268098622560501099 0.773484289646148682 0.472386538982391357
0.258174896240234375 0.203310728073120117 0.498843520879745483
-0.207015171647071838 -0.654569268226623535 0.422968238592147827
0.501168668270111084 -0.270604729652404785 -0.451022118330001831
0.488895446062088013 -0.0357555001974105835 -0.547988474369049072
-0.224129915237426758 -0.290511041879653931 0.446754097938537598
-0.228628620505332947 -0.153658062219619751 0.295331329107284546
-0.244732797145843506 0.191180363297462463 0.345190167427062988
0.278841137886047363 0.0846257507801055908 0.562319457530975342
-0.204578205943107605 0.713328301906585693 -0.270193964242935181
0.466682672500610352 0.327845007181167603 -0.481691896915435791
-0.234362214803695679 0.245512142777442932 0.254404604434967041
-0.211824923753738403 -0.367136716842651367 0.207864433526992798
-0.223663434386253357 0.178903520107269287 -0.299643725156784058
0.484996408224105835 -0.123643442988395691 -0.31279948353767395
0.442270815372467041 0.726613223552703857 0.125207394361495972
-0.189350977540016174 -0.294837892055511475 -0.0938780605792999268
0.0817889422178268433 -0.0132116843014955521 0.439979821443557739
0.126960873603820801 -0.146038010716438293 0.383077800273895264
0.18855498731136322 -0.0492588020861148834 -0.125602960586547852
-0.189279034733772278 -0.492497801780700684 0.362512379884719849
0.465746074914932251 -0.187345221638679504 -0.537801921367645264
0.151488795876502991 -0.0317391976714134216 0.388516604900360107
-0.199232742190361023 0.192566052079200745 0.448701024055480957
0.321545720100402832 0.179886385798454285 0.552739799022674561
-0.232507377862930298 0.21739622950553894 -0.266338080167770386
-0.236212506890296936 0.193196341395378113 -0.198584660887718201
-0.247098267078399658 0.166030585765838623 -0.103554636240005493
-0.272998303174972534 0.610049605369567871 0.547352015972137451
-0.242847621440887451 0.240419089794158936 -0.0483136847615242004
-0.262135624885559082 0.65176159143447876 0.0262797996401786804
-0.175155624747276306 -0.21145901083946228 -0.27996373176574707
-0.235986858606338501 -0.239157974720001221 0.310577720403671265
-0.170022010803222656 -0.373890519142150879 0.12547735869884491
-0.256626337766647339 0.598212003707885742 0.00451785512268543243
0.172094747424125671 -0.0596070438623428345 0.37262919545173645
-0.197123661637306213 0.715017378330230713 -0.125658363103866577
-0.184487268328666687 -0.662297725677490234 -0.0918020978569984436
-0.238490462303161621 0.437397748231887817 -0.23314356803894043
-0.146321520209312439 0.786841511726379395 -0.0636499151587486267
0.435814708471298218 0.751041531562805176 0.141003429889678955
0.465845406055450439 -0.0848514437675476074 -0.455356627702713013
-0.267213970422744751 0.462397217750549316 0.0828335881233215332
-0.273032069206237793 0.615099966526031494 -0.327216804027557373
-0.186095699667930603 -0.577648580074310303 0.0930702686309814453
-0.244170457124710083 0.151835173368453979 -0.0188999995589256287
-0.289803892374038696 0.581091046333312988 0.41342848539352417
0.422265708446502686 0.786364376544952393 0.105446137487888336
-0.222659796476364136 0.181057363748550415 -0.227045223116874695
-0.205210193991661072 -0.475212186574935913 0.263898134231567383
-0.219588920474052429 0.110085204243659973 -0.0505664646625518799
-0.262933164834976196 0.345411777496337891 -0.150510624051094055
-0.232990637421607971 0.440465062856674194 -0.174154728651046753
0.481540113687515259 0.228879153728485107 -0.362852662801742554
-0.249676451086997986 -0.21113942563533783 0.413794636726379395
-0.247821852564811707 0.384980440139770508 -0.0700104907155036926
0.485146075487136841 0.440102458000183105 -0.420250385999679565
0.482089102268218994 -0.61610335111618042 -0.364274919033050537
-0.134643733501434326 0.0625943392515182495 -0.202153518795967102
0.497276365756988525 -0.533995985984802246 -0.322249710559844971
0.307605206966400146 0.168503671884536743 0.563290417194366455
0.190229043364524841 -0.0763445422053337097 0.290818572044372559
-0.238489910960197449 0.366557270288467407 0.286382228136062622
-0.176856651902198792 -0.309421360492706299 -0.281053453683853149
-0.222858026623725891 -0.182060524821281433 0.291627168655395508
-0.258057951927185059 0.464364886283874512 0.227574616670608521
-0.224509596824645996 -0.397449910640716553 0.502327084541320801
-0.239112257957458496 0.542893052101135254 0.312726229429244995
0.314459443092346191 -0.34294399619102478 0.515121579170227051
-0.133850499987602234 0.120867930352687836 -0.307014793157577515
0.160257920622825623 -0.134160414338111877 0.0208094231784343719
0.517096281051635742 0.053377687931060791 -0.501063883304595947
-0.212786182761192322 -0.527788162231445312 0.426924973726272583
-0.207492128014564514 -0.547914743423461914 0.552481532096862793
-0.206045374274253845 -0.493932366371154785 0.203803747892379761
-0.182911530137062073 -0.0521902479231357574 -0.127445057034492493
-0.189487412571907043 0.766996562480926514 -0.20187908411026001
-0.236782461404800415 0.391244709491729736 0.0473544076085090637
0.183977052569389343 -0.0589510425925254822 -0.0597100704908370972
-0.214515388011932373 -0.447819441556930542 0.0951150283217430115
-0.199036076664924622 -0.296062946319580078 -0.167353034019470215
-0.208061277866363525 0.110081560909748077 0.0226803552359342575
-0.222724154591560364 -0.336839914321899414 0.382965922355651855
-0.264596015214920044 0.526738107204437256 0.450322151184082031
0.504072666168212891 0.442611187696456909 -0.31132623553276062
-0.158380463719367981 -0.605251908302307129 -0.295039534568786621
0.486498653888702393 0.223740234971046448 -0.572775661945343018
0.455829352140426636 -0.292224615812301636 -0.516935884952545166
-0.262858182191848755 0.562335371971130371 0.484194964170455933
-0.177968323230743408 -0.591563940048217773 0.17765122652053833
0.513176858425140381 -0.254199773073196411 -0.485322117805480957
0.46814119815826416 -0.595742344856262207 -0.403396248817443848
-0.238770976662635803 0.464291602373123169 0.029577307403087616
-0.224648758769035339 -0.263014614582061768 0.450759381055831909
-0.192805007100105286 -0.531938076019287109 -0.0155652137473225594
-0.190257996320724487 -0.515628516674041748 -0.214196667075157166
-0.253806382417678833 0.32263559103012085 0.321105718612670898
-0.20428505539894104 -0.158752709627151489 0.12547580897808075
-0.176548823714256287 -0.362248241901397705 -0.303589284420013428
0.485484689474105835 0.0379204265773296356 -0.2873343825340271
-0.260046839714050293 0.752990543842315674 0.498420953750610352
-0.181819409132003784 -0.679810702800750732 0.0208158604800701141
-0.187794551253318787 -0.676128268241882324 0.0924137681722640991
0.256788372993469238 -0.168137386441230774 -0.200758665800094604
-0.208397045731544495 -0.448767483234405518 0.367527306079864502
-0.244500011205673218 0.379596829414367676 -0.0415929816663265228
-0.255849361419677734 0.257296383380889893 0.382579594850540161
-0.272287547588348389 0.781686663627624512 0.43057134747505188
0.490730255842208862 -0.105993807315826416 -0.269609749317169189
0.47549167275428772 0.286019802093505859 -0.315737068653106689
-0.238439351320266724 0.371150732040405273 0.17287580668926239
-0.191680952906608582 -0.486401647329330444 0.234881371259689331
-0.225244119763374329 -0.23601125180721283 0.369112700223922729
0.317730903625488281 -0.336882680654525757 0.555837392807006836
-0.231069639325141907 0.130526363849639893 -0.164199188351631165
0.517969846725463867 -0.417378276586532593 -0.510230898857116699
0.324041754007339478 -0.350601553916931152 0.554188370704650879
-0.270960956811904907 0.721047937870025635 0.293340086936950684
-0.258092314004898071 0.685061931610107422 -0.0972622781991958618
0.482790887355804443 -0.573064506053924561 -0.47631913423538208
0.508246362209320068 0.107016943395137787 -0.350475788116455078
-0.205722227692604065 -0.248809993267059326 -0.103524565696716309
0.50784754753112793 0.317198693752288818 -0.552656114101409912
0.101189382374286652 -0.195933729410171509 -0.120625860989093781
-0.184906646609306335 -0.610144376754760742 0.302717596292495728
-0.249054253101348877 0.414754599332809448 0.00622746953740715981
-0.213854357600212097 -0.432773590087890625 0.269440799951553345
0.497073531150817871 -0.525234222412109375 -0.5450783371925354
-0.220699086785316467 -0.329539358615875244 0.15527711808681488
0.488290637731552124 -0.410252481698989868 -0.449442923069000244
-0.204630866646766663 0.166074797511100769 0.017366405576467514
0.259247511625289917 -0.267927378416061401 0.509377896785736084
0.200086936354637146 -0.11151537299156189 0.00250414176844060421
-0.208351373672485352 -0.387943118810653687 0.248007401823997498
-0.184162899851799011 -0.573556602001190186 0.0652509629726409912
-0.258985668420791626 0.492620706558227539 -0.199237868189811707
-0.198749974370002747 -0.230078220367431641 -0.229148164391517639
0.507629513740539551 -0.34914851188659668 -0.527948141098022461
-0.247508466243743896 0.287114709615707397 0.273564457893371582
0.493274569511413574 -0.560563564300537109 -0.313976109027862549
0.476226389408111572 -0.467295408248901367 -0.48739922046661377
-0.138530358672142029 -0.163668021559715271 0.0896614342927932739
0.114753879606723785 -0.0866491347551345825 -0.0604876689612865448
-0.24285423755645752 0.399847984313964844 -0.254170149564743042
-0.231152758002281189 0.305964171886444092 -0.209093824028968811
0.438589930534362793 -0.509840607643127441 -0.435468494892120361
0.503544211387634277 0.756651759147644043 -0.0158895999193191528
0.464073032140731812 -0.469526231288909912 -0.463778287172317505
0.484441220760345459 0.436377376317977905 -0.473429113626480103
-0.223581746220588684 -0.315340310335159302 0.157102525234222412
-0.0739504247903823853 -0.624425709247589111 -0.312800705432891846
0.143279209733009338 -0.000305564550217241049 0.202453479170799255
-0.266453057527542114 0.68111109733581543 0.359151154756546021
-0.268659323453903198 0.677779316902160645 0.215631157159805298
-0.265635520219802856 0.683528602123260498 0.259721726179122925
0.0727673545479774475 -0.373958677053451538 0.523004472255706787
0.504510223865509033 -0.43636050820350647 -0.542520225048065186
-0.205292597413063049 -0.241976544260978699 0.298563361167907715
-0.249444931745529175 0.487845778465270996 -0.183948397636413574
0.474099993705749512 -0.476441174745559692 -0.343883216381072998
-0.237699389457702637 0.177798077464103699 -0.0140364309772849083
-0.215596988797187805 -0.254852473735809326 -0.235671713948249817
-0.198106765747070312 0.748748660087585449 -0.0778226777911186218
-0.253443986177444458 0.156649231910705566 0.310665875673294067
0.478499114513397217 -0.501650512218475342 -0.267930150032043457
-0.236233189702033997 0.172718256711959839 -0.158503800630569458
-0.195896059274673462 -0.213056579232215881 0.46004253625869751
-0.171563386917114258 -0.170565158128738403 -0.186921820044517517
-0.214779108762741089 -0.275482207536697388 0.164016678929328918
-0.257983207702636719 0.489564567804336548 0.073831215500831604
0.202240779995918274 -0.0445049740374088287 0.242855340242385864
0.289889156818389893 -0.021122414618730545 0.560738980770111084
0.468827694654464722 -0.201873466372489929 -0.367707639932632446
-0.182668894529342651 -0.60077357292175293 -0.125330373644828796
-0.273620069026947021 0.581081271171569824 0.471874028444290161
-0.178024008870124817 -0.593189060688018799 0.00567874312400817871
-0.198880970478057861 -0.193265214562416077 -0.194687709212303162
-0.208877250552177429 -0.360397636890411377 0.252062231302261353
-0.198441430926322937 -0.166398391127586365 0.167841598391532898
-0.268849492073059082 0.668253660202026367 0.35699424147605896
0.473933309316635132 -0.121697776019573212 -0.393573135137557983
0.508901059627532959 -0.130875632166862488 -0.453508764505386353
0.496033579111099243 -0.512504696846008301 -0.543278157711029053
-0.27174907922744751 0.559173941612243652 0.0107366861775517464
0.499126195907592773 -0.182866260409355164 -0.437544345855712891
-0.19678950309753418 -0.484260499477386475 -0.138290658593177795
-0.249361932277679443 0.430967986583709717 -0.178341984748840332
0.489541143178939819 0.210378527641296387 -0.337940186262130737
-0.153425872325897217 -0.384721279144287109 0.536529779434204102
-0.222869873046875 -0.202383428812026978 0.331457018852233887
-0.269365847110748291 0.592705130577087402 -0.0269325580447912216
-0.253629207611083984 0.415311366319656372 0.520059764385223389
0.493977129459381104 -0.011523841880261898 -0.306569427251815796
-0.268651634454727173 0.590983927249908447 0.487973213195800781
-0.199391007423400879 -0.561474025249481201 0.180043429136276245
0.511277079582214355 0.153659448027610779 -0.407821148633956909
-0.235886946320533752 0.259259670972824097 -0.173895835876464844
-0.1484861820936203 -0.419069796800613403 -0.322053819894790649
-0.230618670582771301 0.119327649474143982 -0.00762271136045455933
0.466952681541442871 -0.407436937093734741 -0.532858729362487793
-0.193849727511405945 -0.57567131519317627 0.449607312679290771
-0.216294184327125549 -0.192462429404258728 0.262110054492950439
-0.214891478419303894 -0.317243337631225586 0.0716838911175727844
-0.211001694202423096 -0.169927477836608887 -0.0634485334157943726
-0.131420359015464783 0.703531622886657715 -0.329147696495056152
0.473468691110610962 0.46593812108039856 -0.405591964721679688
-0.194915786385536194 -0.460673123598098755 0.252695769071578979
-0.198085799813270569 -0.455004394054412842 -0.234917387366294861
-0.242760226130485535 0.281389504671096802 -0.0420234352350234985
-0.248983055353164673 0.717379331588745117 0.195398151874542236
-0.242846488952636719 0.354117333889007568 0.112536594271659851
-0.19323316216468811 -0.561637759208679199 -0.00575528061017394066
-0.240823164582252502 0.362787842750549316 -0.029271172359585762
-0.200522169470787048 -0.270003736019134521 -0.0629152059555053711
0.276734203100204468 0.110406823456287384 0.56596529483795166
-0.255810827016830444 -0.269569516181945801 0.433375537395477295
-0.177747845649719238 -0.666447699069976807 0.0233122371137142181
-0.242353036999702454 0.253829419612884521 -0.305736005306243896
0.308096796274185181 0.128540664911270142 0.570623159408569336
-0.265418767929077148 0.54407501220703125 -0.0769951865077018738
-0.189981713891029358 -0.645685195922851562 0.354115962982177734
-0.26039886474609375 0.482674241065979004 0.458377033472061157
-0.229261294007301331 0.199124708771705627 0.362012237310409546
-0.216705322265625 0.0958195030689239502 -0.0523389503359794617
-0.24150422215461731 0.529998600482940674 0.310550898313522339
-0.239006713032722473 0.207688197493553162 -0.0240216869860887527
-0.189768314361572266 -0.502555668354034424 0.2469291090965271
-0.265343010425567627 0.431810081005096436 0.521652936935424805
-0.243521809577941895 0.365887075662612915 -0.302901297807693481
0.460036635398864746 0.134775221347808838 -0.61986231803894043
0.45158812403678894 0.313412129878997803 -0.606341719627380371
0.440760284662246704 0.390712887048721313 -0.517138183116912842
-0.239631861448287964 0.226316004991531372 0.293820023536682129
-0.252667546272277832 0.349617362022399902 0.239513546228408813
-0.202000468969345093 -0.224155262112617493 -0.084849230945110321
0.324748188257217407 0.00102154479827731848 0.539832770824432373
-0.21425984799861908 0.113116607069969177 -0.250577479600906372
-0.211099237203598022 -0.271667808294296265 0.136340677738189697
0.493348896503448486 -0.104482829570770264 -0.281985849142074585
-0.267989873886108398 0.46003037691116333 0.268759429454803467
0.457789212465286255 0.340491592884063721 -0.468505561351776123
0.400304168462753296 0.234403178095817566 -0.286000996828079224
-0.208043679594993591 -0.242305353283882141 -0.232524558901786804
-0.235933825373649597 0.311621218919754028 0.106957778334617615
0.505831003189086914 -0.142969429492950439 -0.534959197044372559
0.468146264553070068 -0.689478099346160889 -0.299004644155502319
-0.247866898775100708 0.405584275722503662 -0.196444645524024963
-0.169987738132476807 -0.687842726707458496 0.24967058002948761
0.163215070962905884 -0.135237425565719604 0.441744178533554077
-0.24566882848739624 0.336734980344772339 -0.20675639808177948
-0.257279455661773682 0.23021148145198822 0.206746801733970642
-0.214528411626815796 -0.429157674312591553 0.427030622959136963
-0.208811923861503601 -0.379442900419235229 -0.167212367057800293
-0.21979580819606781 -0.15478457510471344 0.38155481219291687
-0.250887393951416016 0.672422885894775391 -0.285180270671844482
0.462206065654754639 -0.167142271995544434 -0.337167948484420776
-0.179187208414077759 -0.203695774078369141 -0.236308440566062927
-0.201586455106735229 -0.177321776747703552 0.151573449373245239
0.468110769987106323 -0.120787866413593292 -0.473787903785705566
-0.046497739851474762 -0.168997839093208313 0.0297341439872980118
-0.213604047894477844 -0.309162944555282593 0.287838757038116455
0.163521990180015564 0.000176570436451584101 0.340215593576431274
-0.207311481237411499 -0.304666727781295776 0.0744736045598983765
-0.267295926809310913 0.478195667266845703 0.156980037689208984
0.453254580497741699 0.395055115222930908 -0.329257041215896606
-0.225529178977012634 0.146150708198547363 0.340228140354156494
-0.0575661584734916687 -0.224745959043502808 -0.304760366678237915
-0.219668403267860413 0.346454799175262451 -0.301609814167022705
-0.259114921092987061 0.468637615442276001 0.541730821132659912
0.145746812224388123 -0.190366774797439575 -0.0307672079652547836
-0.252889007329940796 0.483657658100128174 0.102275088429450989
-0.201994359493255615 -0.640053808689117432 0.325494766235351562
-0.244281858205795288 0.179819077253341675 0.414849817752838135
0.471100270748138428 -0.394003778696060181 -0.291975557804107666
0.463610410690307617 -0.519354403018951416 -0.392263323068618774
-0.234894156455993652 -0.41256365180015564 0.42809295654296875
-0.211681753396987915 -0.247527554631233215 0.339970856904983521
0.507834494113922119 -0.452868074178695679 -0.439017981290817261
-0.234636694192886353 0.425084859132766724 -0.248796150088310242
-0.251714944839477539 0.592775166034698486 -0.139266699552536011
0.5156288743019104 -0.490450382232666016 -0.285861790180206299
0.305296093225479126 -0.256523817777633667 0.553656399250030518
-0.230053991079330444 0.181203722953796387 0.387750953435897827
-0.231421172618865967 -0.176168963313102722 0.263111919164657593
-0.202459052205085754 -0.394154071807861328 -0.168528333306312561
-0.25127527117729187 0.530294656753540039 0.32385292649269104
-0.183285742998123169 -0.652457833290100098 0.210919946432113647
-0.184938892722129822 -0.650536298751831055 0.382262080907821655
-0.183487460017204285 -0.558298110961914062 0.239202454686164856
0.45243459939956665 0.757884085178375244 0.144420802593231201
-0.283411175012588501 0.653082609176635742 0.0522224567830562592
-0.209478199481964111 -0.532533466815948486 0.454959362745285034
-0.211105227470397949 -0.390364736318588257 0.175823226571083069
-0.263387024402618408 0.440562009811401367 0.380612790584564209
0.471447974443435669 0.320651471614837646 -0.600326895713806152
0.51918494701385498 0.0735951811075210571 -0.392714589834213257
0.144820928573608398 -0.15879996120929718 0.192387804388999939
0.515064001083374023 0.119835294783115387 -0.360123306512832642
-0.229440167546272278 0.716341733932495117 0.169145271182060242
-0.267636954784393311 0.510111391544342041 0.133088827133178711
-0.197822704911231995 -0.665552794933319092 0.121623195707798004
-0.186054587364196777 -0.399335682392120361 -0.238858416676521301
-0.257450014352798462 0.348633378744125366 -0.0914539247751235962
0.198084577918052673 -0.152738198637962341 -0.153689190745353699
0.503701150417327881 -0.430224686861038208 -0.581327140331268311
-0.229218587279319763 0.310059964656829834 -0.236938983201980591
-0.263632833957672119 0.661768853664398193 -0.11614120751619339
-0.221334695816040039 0.183568835258483887 0.189404681324958801
-0.206966355443000793 -0.217958301305770874 0.0589508824050426483
-0.213235676288604736 0.326652169227600098 -0.0165109783411026001
0.320673078298568726 0.182186305522918701 0.539876878261566162
0.432607293128967285 -0.00898420903831720352 -0.410628706216812134
0.461127132177352905 -0.508989334106445312 -0.457361012697219849
-0.251470953226089478 0.520048558712005615 -0.121695920825004578
-0.179620444774627686 -0.490869909524917603 -0.108119510114192963
-0.213542342185974121 -0.227897107601165771 0.128331482410430908
0.504666686058044434 -0.111710958182811737 -0.569711685180664062
-0.262764066457748413 0.597318291664123535 0.103940680623054504
-0.188691750168800354 -0.597289562225341797 0.404071539640426636
0.473301857709884644 0.0447303839027881622 -0.314848780632019043
-0.201283425092697144 -0.446072041988372803 0.254291951656341553
0.494163364171981812 -0.49590378999710083 -0.316862940788269043
0.50350189208984375 -0.642684042453765869 -0.456690937280654907
0.47688758373260498 0.265209704637527466 -0.423680007457733154
0.112764753401279449 -0.151892542839050293 0.435491651296615601
0.324817061424255371 -0.143983915448188782 0.558072090148925781
0.113835521042346954 -0.0145827429369091988 -0.0907974317669868469
0.458499252796173096 -0.380402117967605591 -0.450824499130249023
-0.194822177290916443 -0.6760978102684021 0.463323235511779785
-0.245352596044540405 0.331957489252090454 0.337573379278182983
-0.165557414293289185 0.747078537940979004 0.12533096969127655
-0.199496209621429443 -0.346657365560531616 -0.204017147421836853
0.464487642049789429 -0.140514373779296875 -0.345717400312423706
0.309704899787902832 -0.318776190280914307 0.531592488288879395
-0.201850980520248413 -0.26046183705329895 -0.0329196341335773468
0.26771092414855957 -0.0739359110593795776 -0.224811390042304993
-0.207483306527137756 -0.410080075263977051 -0.243904411792755127
0.488630354404449463 0.012294369749724865 -0.369421213865280151
0.478795170783996582 -0.437409788370132446 -0.350070536136627197
-0.199440419673919678 -0.186082720756530762 -0.150509387254714966
-0.208899199962615967 -0.301682561635971069 -0.212967410683631897
-0.176945343613624573 -0.370951086282730103 -0.247422397136688232
-0.267917066812515259 0.464733153581619263 0.154867410659790039
-0.198635116219520569 -0.62364727258682251 0.399526804685592651
0.519807517528533936 -0.561430811882019043 -0.493219524621963501
0.498307734727859497 0.228938981890678406 -0.464122235774993896
-0.184374243021011353 -0.4408988356590271 -0.245007321238517761
-0.214095607399940491 -0.180468976497650146 0.00635985005646944046
0.161665737628936768 -0.161145776510238647 -0.147122189402580261
0.492820918560028076 -0.20086216926574707 -0.560322403907775879
-0.253971308469772339 0.738514840602874756 0.32627338171005249
-0.238445982336997986 0.396301060914993286 -0.0668608620762825012
-0.220323830842971802 -0.184703156352043152 0.305745154619216919
0.473881751298904419 -0.129851892590522766 -0.342207223176956177
0.455696970224380493 0.210458859801292419 -0.371112972497940063
-0.203511089086532593 -0.317929089069366455 -0.113788947463035583
-0.171919271349906921 -0.633915960788726807 -0.100169077515602112
0.30747532844543457 -0.120139144361019135 -0.225096225738525391
-0.235179007053375244 -0.279928088188171387 0.0317497625946998596
-0.266445308923721313 0.141407012939453125 0.421666532754898071
-0.197838246822357178 -0.507277727127075195 0.373942136764526367
-0.214872345328330994 -0.178121075034141541 -0.00774546293541789055
0.483971893787384033 0.475586086511611938 -0.480372309684753418
0.489282429218292236 -0.305658459663391113 -0.380025237798690796
0.432325780391693115 0.359670430421829224 -0.471156150102615356
0.308893412351608276 0.000208226090762764215 0.565038204193115234
-0.276498794555664062 0.554510414600372314 0.553154289722442627
0.48020017147064209 -0.631739377975463867 -0.261532038450241089
-0.266062796115875244 0.42317509651184082 0.320642679929733276
-0.204073056578636169 -0.310680866241455078 -0.0696080476045608521
0.184991836547851562 -0.0987699404358863831 0.354445606470108032
-0.24994012713432312 0.135487809777259827 0.350719183683395386
-0.2708701491355896 0.587487220764160156 0.344725847244262695
0.494507551193237305 -0.646805047988891602 -0.340400785207748413
-0.162442564964294434 0.782505810260772705 -0.0102306166663765907
-0.195992767810821533 -0.408683538436889648 0.459723442792892456
-0.216615989804267883 -0.397036522626876831 0.403084635734558105
-0.139017641544342041 0.392216950654983521 -0.351083874702453613
-0.218721672892570496 -0.165942728519439697 0.00797014124691486359
0.136665597558021545 -0.0958137959241867065 0.391324698925018311
0.462038218975067139 -0.403643757104873657 -0.387600302696228027
-0.246223688125610352 -0.290891885757446289 0.201509371399879456
0.479625850915908813 -0.127389177680015564 -0.525145828723907471
-0.216330841183662415 -0.331234782934188843 0.341460883617401123
-0.281379610300064087 0.662220537662506104 0.497501343488693237
-0.225656956434249878 -0.403830558061599731 0.544072628021240234
-0.190609082579612732 -0.521267592906951904 0.186914741992950439
0.470719516277313232 -0.216775998473167419 -0.356502026319503784
-0.168111830949783325 0.0767797082662582397 0.00867977272719144821
-0.175528749823570251 -0.596460342407226562 -0.0662293955683708191
-0.263373196125030518 0.645469844341278076 -0.0179417748004198074
-0.272732466459274292 0.516046285629272461 0.104635849595069885
-0.20621846616268158 -0.319712430238723755 -0.100054256618022919
0.471484631299972534 0.419232696294784546 -0.426589906215667725
-0.189367905259132385 -0.355149269104003906 0.111875049769878387
-0.239999502897262573 0.221731066703796387 0.150127723813056946
-0.248384758830070496 0.587249219417572021 -0.11081983894109726
-0.193352445960044861 -0.155006378889083862 0.355200588703155518
-0.258280187845230103 0.618904769420623779 0.0504883304238319397
-0.157358527183532715 -0.0503844805061817169 -0.166174635291099548
-0.169671490788459778 0.718923866748809814 -0.277107685804367065
-0.210845291614532471 0.165179163217544556 0.0307005047798156738
-0.268631279468536377 0.533800005912780762 -0.180039182305335999
0.480041474103927612 0.410322070121765137 -0.308277636766433716
0.451472818851470947 -0.355160951614379883 -0.2762603759765625
-0.17669379711151123 0.741350948810577393 -0.317741364240646362
0.518721163272857666 -0.459577292203903198 -0.569463908672332764
0.504537642002105713 -0.0931048989295959473 -0.606273353099822998
-0.196595668792724609 -0.618632793426513672 -0.000425162725150585175
0.498208492994308472 -0.621387720108032227 -0.25683102011680603
0.374595224857330322 -0.0595156252384185791 -0.270537495613098145
-0.177760377526283264 -0.549918949604034424 -0.275202155113220215
-0.266355186700820923 0.660214662551879883 -0.102423407137393951
-0.242738395929336548 0.481835931539535522 -0.327947258949279785
-0.249920547008514404 0.710227370262145996 -0.178289145231246948
0.214205995202064514 -0.0855051949620246887 0.237969785928726196
-0.190371870994567871 -0.5952414870262146 0.118615321815013885
-0.164337456226348877 -0.153919488191604614 0.230202242732048035
0.491642355918884277 -0.052890092134475708 -0.523752748966217041
0.49204707145690918 -0.539126753807067871 -0.535147130489349365
0.490200221538543701 0.169011503458023071 -0.396752923727035522
0.21826210618019104 -0.100532926619052887 -0.16955721378326416
-0.259523004293441772 0.704938888549804688 0.120736643671989441
-0.243460759520530701 0.613412797451019287 0.479101806879043579
0.506710588932037354 -0.141106754541397095 -0.547622382640838623
-0.246148869395256042 0.375247806310653687 0.244067102670669556
-0.219091981649398804 -0.492217987775802612 0.474532395601272583
0.50526726245880127 -0.0657560080289840698 -0.378377348184585571
-0.240805014967918396 0.367513954639434814 -0.316598892211914062
-0.239445433020591736 0.323747992515563965 0.379635900259017944
-0.242861166596412659 0.297350704669952393 0.0322217196226119995
0.154213175177574158 -0.0573066174983978271 -0.0365442037582397461
-0.156723469495773315 0.0883306264877319336 0.18228478729724884
-0.210248664021492004 -0.431927412748336792 0.441161930561065674
-0.196039482951164246 -0.366916418075561523 -0.077090337872505188
0.475984394550323486 0.255026489496231079 -0.35986173152923584
-0.269499421119689941 0.67042243480682373 0.42850804328918457
-0.204192236065864563 -0.253979146480560303 -0.161659806966781616
-0.248047977685928345 0.184471771121025085 -0.129701554775238037
0.467347055673599243 0.0728769600391387939 -0.482723027467727661
0.132335320115089417 -0.228494331240653992 -0.286164432764053345
-0.223026067018508911 -0.322592705488204956 0.113016374409198761
-0.217227935791015625 -0.410685241222381592 0.401031166315078735
-0.262533485889434814 0.658187985420227051 0.156183019280433655
-0.203679293394088745 -0.243233010172843933 0.127124518156051636
-0.19060768187046051 -0.679584801197052002 0.391849994659423828
-0.213773578405380249 -0.391531437635421753 0.275579005479812622
-0.25677528977394104 0.630307197570800781 0.565673828125
-0.188589036464691162 -0.417124956846237183 -0.213188290596008301
0.514020383358001709 -0.658517599105834961 -0.443902105093002319
0.487412989139556885 0.177925288677215576 -0.369704842567443848
-0.236289337277412415 0.24143238365650177 0.282140135765075684
-0.25067901611328125 0.610811114311218262 0.506515383720397949
0.496650367975234985 0.744635045528411865 -0.00599398696795105934
-0.215099334716796875 -0.560731053352355957 0.550249636173248291
-0.214270845055580139 0.78003692626953125 0.0100072817876935005
0.110524974763393402 -0.0655143484473228455 0.147931486368179321
-0.244144231081008911 0.712092697620391846 0.0523842871189117432
0.506711184978485107 -0.607923388481140137 -0.266401946544647217
-0.252752989530563354 0.596364378929138184 0.262308061122894287
-0.205069646239280701 -0.495539933443069458 -0.242257773876190186
-0.195322662591934204 0.719864606857299805 0.173951223492622375
-0.227305427193641663 0.171136289834976196 0.101051747798919678
-0.196208566427230835 -0.370657563209533691 0.0371481031179428101
-0.252111107110977173 0.388320773839950562 -0.0845345184206962585
-0.237575829029083252 -0.176883652806282043 0.362589597702026367
0.195325091481208801 -0.062340129166841507 0.279926687479019165
0.517588138580322266 0.0181637946516275406 -0.519690275192260742
0.423114538192749023 0.160150498151779175 -0.571507930755615234
-0.252210855484008789 0.573961257934570312 0.144702821969985962
-0.28963664174079895 0.775627434253692627 0.413830041885375977
0.50163567066192627 -0.469917207956314087 -0.324564367532730103
0.478261560201644897 -0.280351012945175171 -0.286066412925720215
-0.202015459537506104 -0.363234043121337891 -0.00549247674643993378
-0.257714033126831055 0.23724009096622467 0.336577326059341431
0.426662743091583252 -0.0560804866254329681 -0.512253940105438232
0.486293107271194458 -0.439610391855239868 -0.507341623306274414
-0.261965662240982056 0.471944421529769897 0.356881290674209595
-0.207872256636619568 -0.476320266723632812 0.363501042127609253
-0.232037261128425598 0.335607200860977173 0.211097538471221924
-0.200206160545349121 -0.462909549474716187 0.451504170894622803
-0.199899911880493164 -0.356754034757614136 0.310504764318466187
0.501357138156890869 -0.688129663467407227 -0.411504417657852173
0.418130248785018921 -0.324450820684432983 -0.27745133638381958
0.49977719783782959 -0.609102308750152588 -0.504955589771270752
-0.195909574627876282 -0.601580619812011719 0.345917165279388428
0.505778133869171143 -0.0512397997081279755 -0.310533612966537476
-0.254593878984451294 0.581514656543731689 0.102606840431690216
-0.173400193452835083 0.705409109592437744 -0.523157417774200439
-0.180592432618141174 -0.632129251956939697 0.442157775163650513
-0.210733041167259216 -0.243076249957084656 -0.0458258017897605896
-0.233588069677352905 0.190562427043914795 -0.0115162134170532227
0.477261155843734741 -0.51065826416015625 -0.375054001808166504
-0.193028524518013 -0.279388487339019775 -0.279081821441650391
0.501901626586914062 0.410570472478866577 -0.342920780181884766
0.465032786130905151 -0.269559860229492188 -0.260465800762176514
0.489176452159881592 -0.34565657377243042 -0.452230364084243774
-0.185318157076835632 -0.561223149299621582 -0.105273671448230743
-0.188321337103843689 -0.68715965747833252 0.348124206066131592
-0.132391318678855896 0.706499695777893066 -0.428431808948516846
-0.248037606477737427 0.4215717613697052 -0.208412319421768188
0.168158560991287231 -0.133524239063262939 0.00834447145462036133
0.19912409782409668 -0.0244476757943630219 0.285975813865661621
-0.212948724627494812 -0.433415979146957397 -0.0895508602261543274
-0.188507363200187683 -0.691427707672119141 0.375999242067337036
-0.176179096102714539 -0.37386709451675415 -0.319735467433929443
-0.239424943923950195 -0.1602068692445755 0.436329364776611328
-0.258001029491424561 0.613007009029388428 -0.252483338117599487
0.494744271039962769 -0.68387293815612793 -0.267138868570327759
0.295227944850921631 -0.0139061082154512405 0.509265303611755371
-0.248590916395187378 0.599031329154968262 0.490749120712280273
-0.237328171730041504 0.186757683753967285 -0.0701210424304008484
-0.258648991584777832 0.501925528049468994 -0.342249572277069092
0.176595985889434814 -0.0525240451097488403 0.157655626535415649
-0.230539292097091675 -0.215283289551734924 0.243042871356010437
-0.229178383946418762 -0.184083744883537292 0.133180692791938782
0.451370775699615479 -0.368675798177719116 -0.437171667814254761
0.480305254459381104 -0.431094914674758911 -0.309267997741699219
-0.202713876962661743 -0.419918745756149292 0.357957214117050171
-0.248636931180953979 0.577843248844146729 0.0312242582440376282
0.464123994112014771 0.0903027281165122986 -0.348912030458450317
0.264819204807281494 -0.182488977909088135 -0.201637387275695801
0.497365176677703857 0.760793387889862061 -0.0292007345706224442
-0.202423036098480225 -0.392248362302780151 0.0904993340373039246
-0.197349473834037781 -0.537605226039886475 0.568669736385345459
-0.263032078742980957 0.320302188396453857 0.0905139520764350891
-0.246828183531761169 0.42803800106048584 -0.163968607783317566
0.129131242632865906 -0.189514264464378357 -0.0192539915442466736
-0.197045877575874329 -0.547985315322875977 0.182289674878120422
-0.198951542377471924 -0.513769328594207764 -0.128705322742462158
0.488363534212112427 -0.402226567268371582 -0.500964999198913574
0.436344712972640991 0.718906283378601074 0.0321278013288974762
0.167685061693191528 -0.0356715060770511627 0.145578190684318542
0.226443007588386536 -0.179662436246871948 -0.180466234683990479
-0.265998005867004395 0.407352626323699951 0.24674929678440094
-0.19375978410243988 -0.533224284648895264 0.0845764651894569397
-0.237324118614196777 -0.189340978860855103 0.174555808305740356
0.485496670007705688 0.143295183777809143 -0.467494189739227295
-0.227324575185775757 0.755478262901306152 -0.153044953942298889
-0.187535583972930908 -0.34097975492477417 0.555222213268280029
0.490959107875823975 -0.435247659683227539 -0.373760372400283813
-0.198185354471206665 -0.516043663024902344 -0.114540286362171173
-0.251153737306594849 0.591327548027038574 0.29024699330329895
0.4879436194896698 0.3017120361328125 -0.507318258285522461
-0.21678633987903595 -0.381097108125686646 0.391152888536453247
-0.229141026735305786 0.658990204334259033 -0.153991743922233582
-0.200495094060897827 -0.546782553195953369 0.267972677946090698
-0.180127203464508057 -0.444346576929092407 -0.316925555467605591
0.465760976076126099 0.455774039030075073 -0.408895254135131836
-0.164650723338127136 -0.606858193874359131 0.176673948764801025
0.15650293231010437 -0.179606497287750244 -0.109690360724925995
-0.229629829525947571 0.29652068018913269 0.0195511672645807266
0.414961367845535278 0.724670588970184326 0.186075866222381592
-0.195313259959220886 -0.529451966285705566 -0.0298729334026575089
-0.215189680457115173 -0.166126266121864319 0.0944699123501777649
-0.217759713530540466 0.166806429624557495 0.115868084132671356
-0.258448392152786255 0.425521880388259888 0.54964679479598999
-0.235927537083625793 0.332049638032913208 0.067103460431098938
-0.22450488805770874 0.76687699556350708 0.106270082294940948
0.474378317594528198 -0.0137598030269145966 -0.42908024787902832
-0.201910510659217834 -0.321429789066314697 0.0869055017828941345
-0.275954395532608032 0.773072719573974609 0.571145951747894287
-0.20101657509803772 -0.479369699954986572 0.106212049722671509
-0.273397356271743774 0.764686942100524902 0.285355091094970703
-0.205051839351654053 -0.313291996717453003 -0.142093494534492493
-0.215436473488807678 -0.350067257881164551 0.281595528125762939
-0.181555166840553284 -0.356518805027008057 -0.245930537581443787
-0.188317686319351196 -0.528811216354370117 0.1431112140417099
-0.093778461217880249 0.781008780002593994 -0.281380623579025269
0.209052756428718567 -0.0585064105689525604 0.322237849235534668
0.495969414710998535 -0.583417654037475586 -0.50168001651763916
-0.238918304443359375 -0.285992056131362915 0.43213355541229248
0.123777389526367188 -0.0116714714094996452 0.130302518606185913
0.502669751644134521 0.350978851318359375 -0.365259408950805664
0.421671152114868164 0.21671372652053833 -0.363931894302368164
0.270716220140457153 -0.029745887964963913 -0.257910966873168945
-0.255830466747283936 0.621707677841186523 0.365558028221130371
-0.27252468466758728 0.597672939300537109 0.117066867649555206
-0.174714669585227966 0.229306250810623169 -0.326095163822174072
-0.23175831139087677 0.124893739819526672 0.393495231866836548
-0.164871245622634888 0.719033420085906982 -0.11968638002872467
-0.178457096219062805 0.736844539642333984 -0.204622358083724976
-0.250004500150680542 0.367084681987762451 0.299564003944396973
-0.246166393160820007 0.565195679664611816 0.272600919008255005
0.478346109390258789 0.0433535464107990265 -0.550926566123962402
0.188727810978889465 -0.110294297337532043 0.339578509330749512
-0.222768709063529968 0.217558294534683228 -0.192609280347824097
-0.27236020565032959 0.540679693222045898 0.208821013569831848
-0.185745254158973694 -0.590936899185180664 -0.095482170581817627
0.501495778560638428 -0.576858878135681152 -0.380816847085952759
-0.253957659006118774 0.71807408332824707 0.365902483463287354
0.483249485492706299 0.459261298179626465 -0.456926017999649048
0.0948744490742683411 -0.132268697023391724 0.163461416959762573
0.153772413730621338 -0.0286206863820552826 0.117767639458179474
0.124093413352966309 0.0104313073679804802 0.324498593807220459
0.515220761299133301 -0.341924488544464111 -0.498827576637268066
-0.23538053035736084 0.643192887306213379 -0.301281839609146118
0.494644492864608765 -0.262652456760406494 -0.332784503698348999
-0.222770735621452332 -0.417967796325683594 0.5421639084815979
0.182703316211700439 -0.10282348096370697 0.299633890390396118
-0.182289794087409973 -0.333301037549972534 -0.213686928153038025
-0.186384379863739014 0.082797907292842865 -0.00714591611176729202
0.209215596318244934 -0.217925280332565308 -0.25737413763999939
0.500674962997436523 0.0282260086387395859 -0.403768301010131836
0.44659850001335144 0.376283377408981323 -0.359898924827575684
-0.191549345850944519 -0.60241013765335083 0.0744078010320663452
0.211457818746566772 -0.0227417163550853729 0.26055791974067688
-0.258378088474273682 0.619214177131652832 -0.0355956591665744781
0.497158586978912354 -0.296921759843826294 -0.442864388227462769
-0.159932553768157959 0.784505069255828857 -0.108721122145652771
-0.178475603461265564 -0.506260335445404053 -0.282985448837280273
0.46016228199005127 0.116034239530563354 -0.583142280578613281
0.313089221715927124 -0.17357008159160614 0.513440787792205811
-0.233109816908836365 0.190976783633232117 0.417406082153320312
-0.266741275787353516 0.445980757474899292 0.352558553218841553
0.49331250786781311 -0.619493961334228516 -0.349524438381195068
-0.158743783831596375 0.424171268939971924 -0.349836796522140503
-0.184896811842918396 -0.689993441104888916 0.547119677066802979
0.156838342547416687 -0.0766808390617370605 0.165285080671310425
0.144606694579124451 -0.0506568253040313721 0.0996647179126739502
0.50937044620513916 -0.539633512496948242 -0.294661581516265869
-0.167879879474639893 0.744003772735595703 -0.0169824175536632538
-0.257709860801696777 0.540757179260253906 0.438743770122528076
0.293557643890380859 0.180196642875671387 0.511300206184387207
-0.233415544033050537 -0.359934389591217041 0.450208097696304321
-0.260535359382629395 0.780088126659393311 0.50239264965057373
-0.186032623052597046 -0.164148032665252686 0.141001582145690918
-0.250847846269607544 0.626654565334320068 0.494655430316925049
-0.258904963731765747 0.584989666938781738 0.0882399082183837891
-0.263331025838851929 0.681233882904052734 0.102307476103305817
-0.225004762411117554 0.712307512760162354 -0.231062144041061401
0.284566253423690796 0.192832469940185547 0.525721073150634766
-0.253903955221176147 0.31132739782333374 -0.298834741115570068
-0.265336900949478149 0.708206593990325928 0.277746140956878662
-0.252610385417938232 0.272405475378036499 0.2851390540599823
-0.172554701566696167 -0.68995136022567749 -0.195107355713844299
-0.191826596856117249 -0.391936361789703369 -0.281893551349639893
-0.186815172433853149 -0.673188388347625732 0.164584040641784668
0.499158382415771484 0.327832877635955811 -0.605543613433837891
0.151542812585830688 -0.182578444480895996 -0.00141392066143453121
0.518642127513885498 0.180638015270233154 -0.349774062633514404
-0.193294614553451538 -0.62163543701171875 0.200278908014297485
-0.211376205086708069 -0.439372360706329346 -0.234582707285881042
0.309073358774185181 -0.132737398147583008 0.505961298942565918
0.48970833420753479 -0.162770137190818787 -0.554935693740844727
-0.257604777812957764 0.483056724071502686 -0.142803117632865906
-0.219254985451698303 -0.199039950966835022 0.217951595783233643
0.151976838707923889 -0.175237983465194702 0.204308345913887024
-0.27004164457321167 0.600091993808746338 -0.155562907457351685
-0.219515860080718994 0.720385611057281494 0.128326952457427979
-0.198064088821411133 -0.592404007911682129 0.560678482055664062
0.489497274160385132 0.0574419125914573669 -0.572449922561645508
0.481333494186401367 0.461607873439788818 -0.39146760106086731
0.183580771088600159 -0.17396080493927002 0.329637885093688965
0.29774513840675354 0.183409139513969421 0.564830899238586426
-0.184850364923477173 -0.511967957019805908 -0.241633102297782898
-0.240843042731285095 0.16706337034702301 -0.0304917376488447189
0.475310564041137695 -0.315390706062316895 -0.305250346660614014
-0.258062899112701416 0.433044135570526123 -0.092961333692073822
-0.204078629612922668 -0.56933283805847168 0.506860613822937012
-0.206390216946601868 -0.244991421699523926 0.140869349241256714
-0.26236194372177124 0.235888123512268066 0.178349167108535767
-0.232578247785568237 0.131481587886810303 0.180307313799858093
-0.192463904619216919 -0.563898205757141113 0.00835914630442857742
-0.212377622723579407 -0.597507715225219727 0.330978691577911377
-0.177521482110023499 -0.443486213684082031 0.128471434116363525
0.160833448171615601 -0.0980548262596130371 0.460555344820022583
-0.149297580122947693 0.775738894939422607 -0.321272522211074829
