ply
format ascii 1.0
element vertex 7
comment vertices
property float x
property float y
property float z
end_header
0.734291970729827881 -0.395651429891586304 -0.551611483097076416
0.162124320864677429 -0.00989626534283161163 0.812185287475585938
-0.336985230445861816 0.0969151481986045837 0.112795464694499969
-0.422561794519424438 0.15654367208480835 0.759154975414276123
-0.426815718412399292 0.0121260154992341995 -0.257165729999542236
0.694112122058868408 -0.375224262475967407 -0.596569418907165527
-0.404165685176849365 0.51518714427947998 -0.278789103031158447
