ply
format ascii 1.0
element vertex 449
comment vertices
property float x
property float y
property float z
end_header
-0.0780900642275810242 0.197059527039527893 0.122574701905250549
0.111272461712360382 0.0767243131995201111 -0.229128912091255188
0.133388325572013855 -0.0672421976923942566 -0.374698042869567871
-0.0649295225739479065 -0.057509303092956543 0.354000717401504517
-0.079504944384098053 -0.0714819133281707764 0.240287810564041138
0.0854067578911781311 -0.0254836603999137878 -0.0614598654210567474
-0.128815039992332458 -0.308511704206466675 0.292663037776947021
0.112766049802303314 0.352661728858947754 -0.00968371890485286713
0.0582992024719715118 0.231027707457542419 -0.378071576356887817
0.113129794597625732 -0.160791724920272827 0.0204703547060489655
-0.0328746438026428223 0.296732097864151001 0.232238084077835083
-0.0553275272250175476 0.00500032305717468262 0.0995574593544006348
0.0917373299598693848 -0.102700918912887573 -0.0237507205456495285
0.0787884294986724854 0.440987050533294678 0.0773650556802749634
0.0900707542896270752 0.408741354942321777 -0.376896321773529053
-0.0751773044466972351 -0.341425031423568726 0.286218076944351196
0.103165164589881897 0.343540340662002563 -0.286877691745758057
-0.0459924302995204926 0.0815612152218818665 0.12516765296459198
0.122375912964344025 0.367192566394805908 -0.253504425287246704
0.110761865973472595 -0.174640074372291565 -0.326496511697769165
0.133886247873306274 0.402356505393981934 -0.625745534896850586
-0.0525878556072711945 0.145134449005126953 0.253735214471817017
-0.0454695336520671844 -0.466484129428863525 0.141055062413215637
0.066166512668132782 0.00226033339276909828 -0.205879092216491699
0.119624271988868713 0.279711484909057617 -0.279376238584518433
-0.0451317466795444489 -0.456784069538116455 0.154636666178703308
0.0669749528169631958 0.24312138557434082 -0.109907977283000946
0.0926587134599685669 0.0368317477405071259 -0.0265067294239997864
0.0927171111106872559 0.384369969367980957 -0.164819210767745972
-0.095296904444694519 0.0314622260630130768 0.215678289532661438
-0.0687639415264129639 -0.216935619711875916 0.31781885027885437
-0.0422654822468757629 0.319004803895950317 0.185250699520111084
0.112769320607185364 0.131010547280311584 -0.280030548572540283
-0.0196694880723953247 0.101021967828273773 0.110152564942836761
-0.0792326033115386963 0.290275663137435913 0.136088013648986816
0.111655235290527344 0.369610369205474854 -0.459259718656539917
-0.0559329874813556671 -0.280078381299972534 0.250782191753387451
-0.0489881709218025208 -0.278681635856628418 0.0833239704370498657
-0.345058351755142212 0.00906974263489246368 0.498060911893844604
0.108939200639724731 0.371457546949386597 -0.185706004500389099
0.0991616696119308472 -0.128137692809104919 -0.311168640851974487
0.102719232439994812 0.414896726608276367 -0.157294780015945435
-0.0570202618837356567 0.331361174583435059 0.207828611135482788
-0.0175553783774375916 0.0716089904308319092 0.0701900124549865723
0.103382587432861328 -0.0321860983967781067 -0.0457861125469207764
0.0787116214632987976 -0.192475825548171997 -0.100014664232730865
0.125239044427871704 0.303920328617095947 -0.155393511056900024
-0.0550559163093566895 -0.222672194242477417 0.186968952417373657
-0.054988522082567215 -0.00668085832148790359 0.0979103222489356995
0.098204389214515686 0.112608663737773895 -0.0730735212564468384
-0.033692486584186554 -0.215388625860214233 0.336891204118728638
0.0646668002009391785 -0.267168432474136353 -0.126874655485153198
0.0826508775353431702 0.0055782604031264782 -0.0337955541908740997
0.1081838458776474 -0.0434709712862968445 -0.34340861439704895
0.0734723880887031555 0.0609590299427509308 -0.290720343589782715
0.119688756763935089 0.274445444345474243 -0.458909571170806885
-0.0578292571008205414 0.327878117561340332 0.158800333738327026
0.115079775452613831 0.241792380809783936 -0.3937511146068573
-0.0628025084733963013 -0.0871021077036857605 0.313919365406036377
0.139359906315803528 0.358838200569152832 -0.0251236651092767715
0.103994354605674744 0.235242515802383423 -0.0532209724187850952
-0.33110654354095459 -0.00458374107256531715 0.485849767923355103
-0.0835302025079727173 -0.144600003957748413 0.107266128063201904
0.125272795557975769 0.319404184818267822 -0.31918063759803772
-0.0104708559811115265 -0.312586456537246704 0.0270738415420055389
0.0593873448669910431 -0.211904332041740417 0.0470004454255104065
0.100755780935287476 -0.039074387401342392 -0.071231544017791748
0.0805618986487388611 0.439346015453338623 -0.124431520700454712
0.0591188296675682068 0.0538273602724075317 -0.00898145232349634171
0.0846880227327346802 -0.138678595423698425 -0.0071682315319776535
-0.0784969627857208252 -0.0505993291735649109 0.18298792839050293
0.110849395394325256 0.173270627856254578 -0.465254098176956177
-0.0256742201745510101 -0.566529273986816406 0.154732286930084229
-0.0489742904901504517 0.236391991376876831 0.267948061227798462
0.131082236766815186 0.21729905903339386 0.0104677062481641769
-0.0354819931089878082 0.429948389530181885 0.215231209993362427
0.0615595728158950806 0.214755237102508545 -0.355402886867523193
-0.0892149507999420166 -0.538637399673461914 0.266641795635223389
0.151916980743408203 0.0651014596223831177 -0.077203795313835144
-0.622145235538482666 0.11359027773141861 0.415542006492614746
-0.071326330304145813 -0.464062273502349854 0.305239826440811157
0.0657660737633705139 -0.0790397748351097107 -0.0627607405185699463
0.0187010578811168671 0.457850039005279541 0.0884156674146652222
0.102158792316913605 -0.187333196401596069 -0.235629871487617493
0.151553720235824585 -0.0327415652573108673 -0.470548003911972046
0.110168814659118652 -0.0663906633853912354 -0.203302502632141113
0.104199640452861786 -0.191248580813407898 -0.140447661280632019
-0.618607819080352783 0.166999533772468567 0.319232285022735596
-0.0248253326863050461 0.0737107023596763611 0.141008153557777405
0.0358853563666343689 -0.402942091226577759 0.0249314773827791214
0.0912099629640579224 -0.0581240840256214142 -0.446841180324554443
0.10346648097038269 -0.299813300371170044 0.0329214334487915039
-0.0180018935352563858 0.431336700916290283 0.31527245044708252
-0.0446741916239261627 0.231439575552940369 0.0751445665955543518
-0.0976828411221504211 -0.240315347909927368 0.126430496573448181
-0.0432511940598487854 -0.208204865455627441 0.155466154217720032
-0.101025931537151337 -0.519290030002593994 0.230710878968238831
0.131362378597259521 0.202390208840370178 -0.109651565551757812
-0.0545642375946044922 0.0610578544437885284 0.337307751178741455
0.0819396376609802246 -0.00601754710078239441 -0.322104901075363159
-0.274256318807601929 -0.116907194256782532 0.416823118925094604
-0.0064854845404624939 0.152778655290603638 0.132956236600875854
0.0654166936874389648 0.40774497389793396 0.0927649959921836853
-0.0566924773156642914 -0.0711906552314758301 0.353586912155151367
-0.0517665445804595947 0.289092034101486206 0.311221331357955933
0.125351756811141968 -0.158777818083763123 -0.153412029147148132
0.0889444276690483093 0.435545444488525391 0.0909920632839202881
0.0946520939469337463 0.026369195431470871 -0.46895185112953186
-0.0346073880791664124 -0.235574617981910706 0.0930364429950714111
-0.0467234328389167786 -0.358100384473800659 0.132588699460029602
-0.086496010422706604 -0.499196738004684448 0.163734927773475647
-0.0303558614104986191 0.123334400355815887 0.27931562066078186
-0.0205868910998106003 0.31612861156463623 0.0936233252286911011
-0.418309241533279419 -0.13489869236946106 0.490420997142791748
0.0629363656044006348 -0.283000349998474121 -0.321492016315460205
0.0176186989992856979 0.452366262674331665 0.123216241598129272
0.106478013098239899 0.253511548042297363 -0.16844196617603302
-0.0710898861289024353 -0.456016361713409424 0.100583098828792572
-0.0736010968685150146 -0.350133657455444336 0.188419356942176819
0.105961553752422333 0.262926161289215088 -0.0841082409024238586
0.117759965360164642 0.300254613161087036 0.0192828848958015442
-0.0529174879193305969 -0.295022696256637573 0.116316340863704681
-0.0762777626514434814 -0.488236606121063232 0.31283867359161377
-0.0874167755246162415 -0.401870667934417725 0.153558447957038879
-0.0300494730472564697 -0.210965394973754883 0.230196356773376465
0.132399320602416992 0.364750534296035767 0.0209666229784488678
0.112634919583797455 0.386750966310501099 -0.075611896812915802
0.0999401360750198364 -0.331622689962387085 -0.0556241907179355621
0.113761499524116516 0.433357775211334229 -0.0801771506667137146
-0.123987734317779541 -0.439077585935592651 0.201254159212112427
-0.0986711755394935608 -0.403330743312835693 0.175253063440322876
0.115872673690319061 -0.315064042806625366 -0.17939874529838562
-0.03630809485912323 0.426565766334533691 0.166389256715774536
0.0633600056171417236 0.14185720682144165 -0.34174114465713501
0.133268117904663086 0.305120378732681274 -0.176511749625205994
0.121718272566795349 0.130304574966430664 -0.432205259799957275
-0.599605798721313477 -0.519458889961242676 0.313918232917785645
0.108620941638946533 0.196650087833404541 -0.462487012147903442
0.0839284881949424744 0.310607850551605225 -0.477752089500427246
-0.0599836893379688263 -0.374861538410186768 0.10293259471654892
0.0852551683783531189 -0.127685219049453735 -0.0767062008380889893
-0.0898080691695213318 -0.410156488418579102 0.285370528697967529
0.100223429501056671 0.0267047770321369171 -0.479009836912155151
0.0542026981711387634 -0.0572859831154346466 -0.182291239500045776
-0.0869888216257095337 -0.433490157127380371 0.355129539966583252
0.0773940831422805786 -0.287362545728683472 -0.162223711609840393
-0.0814043432474136353 -0.158073648810386658 0.263489007949829102
0.0571716427803039551 -0.0198945458978414536 -0.127971991896629333
0.11296728253364563 -0.0786239802837371826 -0.275680005550384521
-0.00484485365450382233 -0.000689543492626398802 0.206600174307823181
-0.0728555694222450256 -0.0847841203212738037 0.239732906222343445
0.0513835474848747253 -0.312819778919219971 0.030100163072347641
-0.0412263236939907074 -0.0948879942297935486 0.184685096144676208
-0.0714299231767654419 -0.44429093599319458 0.102236472070217133
-0.0526985935866832733 -0.14210154116153717 0.199347585439682007
0.0865303277969360352 -0.141693219542503357 -0.209517449140548706
0.115468375384807587 0.398703664541244507 -0.0139137795194983482
-0.0425279848277568817 0.219037741422653198 0.290828913450241089
0.115468442440032959 0.414382010698318481 -0.177323251962661743
-0.0491592809557914734 0.0152989542111754417 0.319641351699829102
0.109875790774822235 0.177166670560836792 -0.274003446102142334
0.0788241103291511536 0.244910493493080139 0.000774906307924538851
-0.0253270994871854782 0.165967941284179688 0.22664681077003479
-0.658066630363464355 -0.327516019344329834 0.305419713258743286
0.105671964585781097 0.150135383009910583 -0.315128952264785767
-0.0930361375212669373 -0.346522390842437744 0.111806221306324005
0.0731476247310638428 0.420302659273147583 0.0728497430682182312
0.0912147983908653259 0.333391845226287842 0.0053473510779440403
-0.0449465289711952209 0.454207450151443481 0.228694215416908264
0.0971248894929885864 0.186897248029708862 -0.45589563250541687
-0.0397684723138809204 -0.305773109197616577 0.0935500189661979675
0.138583168387413025 0.338796019554138184 -0.110839508473873138
0.12715013325214386 0.406809777021408081 -0.222352057695388794
-0.043788224458694458 -0.469216704368591309 0.0805821493268013
0.107206583023071289 0.364829540252685547 -0.282405108213424683
0.146241486072540283 0.247053712606430054 -0.406377166509628296
0.0743632391095161438 0.127178102731704712 -0.196765795350074768
0.0934831202030181885 -0.216616183519363403 -0.0402190499007701874
-0.0732344835996627808 0.151118427515029907 0.0318978726863861084
-0.0723696351051330566 0.315368384122848511 0.0443158484995365143
-0.0785733610391616821 0.386789381504058838 0.126244738698005676
0.103819586336612701 0.0147478235885500908 -0.121717505156993866
0.118422679603099823 0.413174837827682495 -0.593930065631866455
0.0338049270212650299 -0.212655067443847656 -0.211317330598831177
-0.0542178638279438019 -0.0699310824275016785 0.342220127582550049
0.125105917453765869 0.435516148805618286 -0.183116927742958069
0.0951367765665054321 -0.296863913536071777 -0.123010247945785522
-0.0653763636946678162 0.339906156063079834 0.170911297202110291
-0.123216085135936737 0.245375648140907288 0.338532388210296631
0.0921160206198692322 -0.189614027738571167 0.0108960652723908424
0.0968930721282958984 -0.10275045782327652 -0.248376801609992981
-0.0446252673864364624 -0.105832181870937347 0.109877049922943115
-0.105541124939918518 -0.605263113975524902 0.326589196920394897
0.100603751838207245 -0.0397097282111644745 -0.428975135087966919
0.139084860682487488 0.415442854166030884 -0.574004411697387695
0.0828813090920448303 -0.397568196058273315 0.0133695593103766441
-0.0858028903603553772 -0.125899523496627808 0.29153817892074585
-0.0781520307064056396 -0.0836688131093978882 0.166059747338294983
0.0932097509503364563 -0.163497835397720337 -0.00866961758583784103
-0.0174581855535507202 -0.536945223808288574 0.184892222285270691
-0.0669044479727745056 0.390169531106948853 0.298803925514221191
-0.565306305885314941 -0.15366971492767334 0.321302860975265503
0.0586767196655273438 -0.157095730304718018 -0.0762551426887512207
0.1012912318110466 0.281606525182723999 -0.18955036997795105
-0.0885842889547348022 -0.334401726722717285 0.333045065402984619
0.128888025879859924 0.295287400484085083 -0.179287329316139221
-0.101498164236545563 -0.449009954929351807 0.24093589186668396
0.109142795205116272 -0.00217271270230412483 -0.384656339883804321
0.12270423024892807 0.0321653857827186584 -0.0428875721991062164
-0.0577307157218456268 -0.39016231894493103 0.197994127869606018
-0.0523940175771713257 -0.42500796914100647 0.338660269975662231
0.0996088683605194092 0.390285134315490723 -0.352608382701873779
0.130592331290245056 0.358196258544921875 -0.0748109817504882812
0.105395182967185974 0.254407912492752075 -0.454872280359268188
0.115543961524963379 0.28902021050453186 -0.470087766647338867
-0.0275553949177265167 -0.588683426380157471 0.223274797201156616
0.0926614850759506226 0.0121152801439166069 -0.160937875509262085
0.0795690715312957764 -0.165690243244171143 0.023159494623541832
0.0707390904426574707 -0.219526752829551697 -0.213753089308738708
0.0850450471043586731 0.0160064231604337692 -0.246078759431838989
-0.0538054555654525757 0.321050554513931274 0.0498401597142219543
-0.0219347495585680008 0.092153109610080719 0.240521430969238281
-0.0234847906976938248 0.134762421250343323 0.270454853773117065
0.093099057674407959 0.165362447500228882 -0.460511207580566406
-0.327355861663818359 -0.0999527052044868469 0.460054010152816772
-0.0604299195110797882 -0.369194895029067993 0.0672904327511787415
0.0969683676958084106 0.0770579352974891663 -0.209531635046005249
0.096298806369304657 -0.419443726539611816 -0.0102775013074278831
-0.105324149131774902 0.0205874498933553696 0.224068239331245422
-0.0344324298202991486 -0.524104416370391846 0.195247754454612732
-0.103275962173938751 -0.439383506774902344 0.181146994233131409
0.0488382205367088318 -0.30121612548828125 -0.040477067232131958
-0.0441859401762485504 -0.0771063193678855896 0.0779586508870124817
0.0943697839975357056 0.0474554784595966339 -0.31020808219909668
0.0923453420400619507 0.235429331660270691 -0.246821507811546326
-0.0654097422957420349 0.0678912699222564697 0.312037199735641479
0.0969195142388343811 0.226589098572731018 -0.342252284288406372
-0.072344757616519928 -0.428974688053131104 0.310187280178070068
-0.0708572417497634888 -0.564049243927001953 0.181762427091598511
-0.0514896847307682037 0.269938051700592041 0.212081268429756165
-0.397965878248214722 0.0308234207332134247 0.517816901206970215
0.109434790909290314 -0.0831130146980285645 -0.170361489057540894
-0.0994858667254447937 -0.321318924427032471 0.187150448560714722
0.103054478764533997 0.0715465247631072998 -0.18476065993309021
-0.0824263021349906921 -0.101586908102035522 0.283685952425003052
0.112574741244316101 0.444718480110168457 -0.00784912332892417908
-0.259696036577224731 -0.0310339629650115967 0.394731909036636353
-0.0529147572815418243 0.0374024100601673126 0.2619151771068573
-0.0836196765303611755 -0.374583989381790161 0.279687792062759399
0.151427507400512695 0.319939911365509033 -0.227907866239547729
-0.0519840456545352936 -0.490311473608016968 0.148212790489196777
0.0636073499917984009 -0.166792541742324829 -0.315888643264770508
-0.0335924439132213593 0.235638350248336792 0.174937158823013306
-0.361163973808288574 -0.105907902121543884 0.466085463762283325
-0.0593494288623332977 -0.158303037285804749 0.0865822061896324158
-0.0732960626482963562 -0.0922604501247406006 0.28690984845161438
-0.0735653787851333618 0.220743358135223389 0.260361403226852417
0.0920346900820732117 -0.0544400885701179504 -0.398053228855133057
-0.225452706217765808 -0.075328141450881958 0.394470304250717163
0.0935461372137069702 -0.388422101736068726 0.0173508692532777786
-0.0348479636013507843 0.462549924850463867 0.160012304782867432
-0.0676480382680892944 -0.254249691963195801 0.252175956964492798
-0.0878061875700950623 0.358724504709243774 0.168476864695549011
0.11189018189907074 0.040874086320400238 -0.00900282710790634155
-0.0917013958096504211 -0.552887380123138428 0.361005872488021851
0.0915527194738388062 0.0690289363265037537 -0.439567863941192627
-0.0793053880333900452 -0.567395210266113281 0.288569003343582153
-0.610262811183929443 0.416125178337097168 0.27875712513923645
-0.0973606854677200317 -0.342806398868560791 0.245218634605407715
0.0830428823828697205 0.224955245852470398 -0.167668759822845459
0.0788240432739257812 0.422294050455093384 -0.438611090183258057
-0.0679089203476905823 -0.0902786552906036377 0.118890091776847839
0.0524571016430854797 -0.265094339847564697 -0.2738761305809021
0.0974576324224472046 0.262240439653396606 -0.277017384767532349
0.111890561878681183 -0.201043739914894104 -0.234821200370788574
-0.0803877860307693481 -0.171833217144012451 0.273780792951583862
0.0469198636710643768 0.391593039035797119 -0.550904035568237305
0.0691126137971878052 0.159038826823234558 -0.097980402410030365
-0.0490183643996715546 0.411465734243392944 0.209408685564994812
0.101222164928913116 -0.301890939474105835 -0.0983458682894706726
0.077958621084690094 0.00488726655021309853 -0.0946647599339485168
0.103139087557792664 -0.290602982044219971 -0.0249934270977973938
0.0394091717898845673 -0.0693433582782745361 -0.453605085611343384
-0.648426532745361328 0.0110634015873074532 0.448586761951446533
-0.0415998212993144989 0.402880460023880005 0.31807243824005127
-0.104713298380374908 -0.297829359769821167 0.347478657960891724
0.140108868479728699 0.377187192440032959 0.0013481643982231617
0.125663623213768005 0.325233936309814453 -0.425335615873336792
0.0832368656992912292 -0.220326080918312073 -0.150607123970985413
-0.0480691604316234589 -0.396840810775756836 0.0781862139701843262
-0.0434070974588394165 -0.0600349567830562592 0.0443786494433879852
-0.0746853426098823547 -0.544261395931243896 0.365323513746261597
0.126618027687072754 0.059073910117149353 -0.357885271310806274
-0.160968348383903503 -0.022961784154176712 0.352734833955764771
0.11155855655670166 0.118168622255325317 -0.341916143894195557
-0.0532953143119812012 -0.0225288551300764084 0.120169587433338165
-0.0763699561357498169 -0.468515992164611816 0.109704434871673584
-0.0439181476831436157 0.181064873933792114 0.236812427639961243
-0.306332111358642578 -0.0530439019203186035 0.445480048656463623
0.113116517663002014 0.191462129354476929 -0.437822848558425903
0.105108238756656647 -0.0745373740792274475 -0.217897266149520874
-0.0437287501990795135 -0.104166179895401001 0.0982465595006942749
0.13150942325592041 0.265898406505584717 -0.00575282052159309387
-0.041419152170419693 -0.0349862240254878998 0.253689438104629517
-0.0263211168348789215 -0.110650874674320221 0.041056949645280838
0.119471900165081024 -0.0578204281628131866 -0.342000871896743774
0.0845301300287246704 -0.190459907054901123 -0.193506047129631042
0.0940961837768554688 0.383395582437515259 -0.0220050308853387833
0.128835052251815796 0.226283594965934753 -0.463038444519042969
-0.0528090968728065491 0.260641753673553467 0.270695090293884277
0.0625386014580726624 -0.353604763746261597 -0.0208865106105804443
-0.0695141777396202087 0.0939939394593238831 0.157853290438652039
0.124434322118759155 0.114313237369060516 0.0169907975941896439
0.115800604224205017 0.401342660188674927 -0.238544493913650513
-0.391312777996063232 -0.166264519095420837 0.33838227391242981
0.164614066481590271 0.308603823184967041 -0.390933901071548462
0.120713844895362854 0.400221973657608032 -0.379935026168823242
0.00433947611600160599 -0.219993576407432556 0.0203349143266677856
-0.0619733445346355438 -0.57907867431640625 0.193508312106132507
-0.0283509511500597 -0.0620238371193408966 0.0356876552104949951
-0.0460447333753108978 0.189374834299087524 0.261654704809188843
-0.0163504183292388916 0.0292080733925104141 0.184461504220962524
0.10530080646276474 0.283980309963226318 -0.140476793050765991
0.0857264697551727295 0.154116451740264893 -0.165552213788032532
-0.0662375837564468384 -0.532322108745574951 0.35653311014175415
0.108594581484794617 -0.368914514780044556 0.0239469781517982483
0.0672601908445358276 0.0723153576254844666 -0.135309040546417236
0.0964105129241943359 -0.0233224648982286453 -0.379987239837646484
0.0652906075119972229 0.0537474639713764191 -0.306320399045944214
0.0992592349648475647 -0.185049831867218018 -0.319671720266342163
0.103875473141670227 0.40320664644241333 -0.648921012878417969
0.113642722368240356 0.0665063410997390747 -0.456488847732543945
-0.0260721612721681595 0.0413894280791282654 0.123900733888149261
-0.105875208973884583 0.176172524690628052 0.0763088688254356384
-0.0642382577061653137 -0.405500560998916626 0.3031139075756073
-0.0765358880162239075 -0.230506747961044312 0.338472336530685425
-0.113047309219837189 -0.022321777418255806 0.13073064386844635
-0.0768487975001335144 -0.376963883638381958 0.135242372751235962
0.0558260306715965271 0.0583622753620147705 -0.248494461178779602
0.143188074231147766 0.0825813338160514832 -0.1714019775390625
-0.0750156939029693604 -0.605627715587615967 0.223263919353485107
-0.13381369411945343 -0.268054842948913574 0.346384823322296143
-0.0726541653275489807 -0.533069074153900146 0.137433826923370361
-0.0402506403625011444 -0.0216968487948179245 0.316000431776046753
0.0985067561268806458 -0.0315160118043422699 -0.404481172561645508
0.133978083729743958 0.0927670896053314209 -0.0780307203531265259
0.074609510600566864 -0.22445601224899292 -0.26124611496925354
-0.0885586068034172058 -0.441692233085632324 0.256741762161254883
0.080712534487247467 -0.252747625112533569 -0.311561554670333862
0.161627382040023804 0.35566866397857666 -0.184057071805000305
-0.0215381346642971039 0.402054250240325928 0.28625449538230896
0.0963455066084861755 -0.159715145826339722 -0.328721821308135986
-0.088148750364780426 -0.219971418380737305 0.361985176801681519
-0.0696739107370376587 -0.29093015193939209 0.185859233140945435
0.0888711586594581604 0.204447656869888306 -0.336201131343841553
-0.0808756500482559204 -0.601404666900634766 0.35585629940032959
0.145566672086715698 0.368978410959243774 -0.305201500654220581
-0.0479461178183555603 -0.454955756664276123 0.0696313232183456421
-0.105458550155162811 -0.310220003128051758 0.199689865112304688
-0.0819301456212997437 -0.368864923715591431 0.317162841558456421
0.147352501749992371 0.0327622108161449432 -0.0126711679622530937
0.0597254522144794464 -0.0757812261581420898 -0.147557809948921204
-0.651535987854003906 -0.600023567676544189 0.464190244674682617
-0.0716300606727600098 0.11013195663690567 0.280751824378967285
-0.267582595348358154 -0.130457460880279541 0.416016042232513428
-0.0324433818459510803 -0.482984781265258789 0.0811424478888511658
-0.0731472298502922058 -0.342775940895080566 0.141098946332931519
-0.302644252777099609 -0.126014545559883118 0.435460656881332397
0.105308219790458679 0.385275572538375854 -0.542977333068847656
0.119406260550022125 0.349687576293945312 -0.352233648300170898
0.122761502861976624 0.160117790102958679 -0.332031816244125366
0.0150742577388882637 0.367692470550537109 0.0741286724805831909
0.118140377104282379 0.422965377569198608 -0.652535736560821533
0.100464150309562683 -0.245282337069511414 -0.161433950066566467
0.0970283299684524536 -0.0949571430683135986 -0.151873558759689331
-0.0494721680879592896 0.157705128192901611 0.171840175986289978
-0.0723588690161705017 -0.373187452554702759 0.257929891347885132
-0.0395891740918159485 0.30288425087928772 0.135263845324516296
0.14843381941318512 0.39159509539604187 -0.586111783981323242
0.100734315812587738 0.106210872530937195 -0.323283016681671143
0.109304279088973999 0.194534569978713989 -0.450607597827911377
0.0870498791337013245 -0.317421883344650269 -0.0568669922649860382
-0.0525059960782527924 0.445256799459457397 0.225660324096679688
0.0765280351042747498 0.321510285139083862 -0.10743703693151474
-0.366789340972900391 -0.122590810060501099 0.500464677810668945
0.128534123301506042 0.385202616453170776 -0.0949839726090431213
0.0216992981731891632 0.376695245504379272 0.148852735757827759
0.0775858834385871887 -0.216527581214904785 -0.0205429922789335251
0.136909171938896179 0.338901996612548828 0.0300843678414821625
-0.116671539843082428 -0.609613716602325439 0.287407159805297852
0.157361015677452087 0.31037101149559021 -0.180338889360427856
-0.0672427713871002197 0.0141932051628828049 0.207121416926383972
0.0512604527175426483 0.173819825053215027 -0.0170716643333435059
0.0700507014989852905 0.436997473239898682 -0.51164400577545166
0.110608391463756561 0.432825386524200439 -0.140416160225868225
0.109725393354892731 0.383262485265731812 -0.398098081350326538
0.0950329378247261047 -0.0929531008005142212 -0.30716368556022644
0.0930210426449775696 0.352228552103042603 -0.181444361805915833
-0.0749081149697303772 -0.509327948093414307 0.140442267060279846
-0.0237070228904485703 0.347360819578170776 0.265737593173980713
-0.104471646249294281 0.228120908141136169 0.266956835985183716
-0.25480884313583374 0.00935142859816551208 0.364331662654876709
-0.650858879089355469 0.268427670001983643 0.301707953214645386
0.0852588340640068054 0.108832523226737976 -0.029634254053235054
0.138921275734901428 0.243665888905525208 -0.373679220676422119
0.0902706533670425415 0.348472684621810913 -0.505869090557098389
-0.0608496442437171936 0.0663852319121360779 0.0952118188142776489
-0.0695231631398200989 -0.503578841686248779 0.251448899507522583
0.0975163504481315613 0.0901329889893531799 -0.219327151775360107
0.0951137244701385498 -0.053232043981552124 -0.33703988790512085
-0.0362976975739002228 0.447611987590789795 0.181546509265899658
0.0352288968861103058 0.394965618848800659 0.154808327555656433
-0.0456065423786640167 -0.288762986660003662 0.14306207001209259
0.121836595237255096 -0.190272852778434753 -0.242166772484779358
-0.0606563463807106018 -0.215063899755477905 0.295564144849777222
0.0950964689254760742 0.0434217676520347595 -0.358410179615020752
-0.320289939641952515 -0.160277858376502991 0.36482471227645874
-0.0410994626581668854 0.0514338463544845581 0.230369150638580322
-0.0224795825779438019 -0.558516144752502441 0.25275382399559021
-0.0739144384860992432 0.373273372650146484 0.270660936832427979
-0.0210084244608879089 0.0284764431416988373 0.123179167509078979
-0.0600028969347476959 -0.246616333723068237 0.194461405277252197
-0.074022926390171051 0.133923470973968506 0.0656233429908752441
0.106195725500583649 0.142431646585464478 -0.339983642101287842
-0.0790845528244972229 -0.542288362979888916 0.280189365148544312
-0.626814484596252441 0.446384280920028687 0.279902487993240356
0.0776368752121925354 -0.197767361998558044 -0.0653501898050308228
-0.0605056993663311005 -0.469816058874130249 0.330578088760375977
0.0998730286955833435 0.0818386301398277283 -0.386981725692749023
0.101702071726322174 -0.422358781099319458 0.0024888163898140192
0.120972700417041779 -0.0035411070566624403 -0.392957746982574463
0.0980918630957603455 0.0577220730483531952 -0.379224330186843872
0.110669702291488647 0.0730475932359695435 -0.420630574226379395
-0.0280436836183071136 0.326301038265228271 0.0450488515198230743
0.0673327818512916565 -0.197143048048019409 -0.0560509413480758667
-0.017271135002374649 0.190357059240341187 0.279960095882415771
-0.0603674724698066711 -0.123215615749359131 0.0915296673774719238
0.160819843411445618 0.42949339747428894 -0.350312501192092896
0.0915173366665840149 0.086239449679851532 -0.0431999750435352325
-0.049942653626203537 0.0787691250443458557 0.0754437297582626343
-0.0379418618977069855 0.449856579303741455 0.241666719317436218
0.128463119268417358 0.0057244887575507164 -0.389125138521194458
0.110889680683612823 0.376827836036682129 -0.291347980499267578
-0.0482448600232601166 -0.588748812675476074 0.243184849619865417
0.0952636003494262695 0.41140979528427124 -0.542631566524505615
0.0714222043752670288 0.185091480612754822 -0.332685917615890503
-0.0809320509433746338 -0.26250225305557251 0.320852845907211304
0.121665477752685547 0.254419416189193726 -0.199412748217582703
0.0920743346214294434 -0.327667742967605591 0.00227269786410033703
