ply
format ascii 1.0
element vertex 39
comment vertices
property float x
property float y
property float z
end_header
0.162203386425971985 0.305949360132217407 0.0632733181118965149
0.0197480916976928711 -0.368896663188934326 0.172107100486755371
0.222587808966636658 0.27512022852897644 -0.0433380492031574249
-0.785436034202575684 -0.549342632293701172 0.285154223442077637
0.214612975716590881 0.372725993394851685 -0.141653433442115784
0.127008944749832153 0.401880890130996704 -0.10104118287563324
0.192047536373138428 0.141084328293800354 -0.103466048836708069
0.172912120819091797 0.146291568875312805 -0.124799430370330811
0.0750614330172538757 0.188986390829086304 -0.143694221973419189
0.112211316823959351 0.429341405630111694 -0.136646464467048645
0.257434964179992676 0.183072283864021301 0.183008298277854919
0.213158160448074341 0.0968592464923858643 0.157314196228981018
0.240238264203071594 0.241202250123023987 -0.133840650320053101
0.0155874732881784439 -0.200406342744827271 -0.041498914361000061
0.176059529185295105 0.265967637300491333 0.074512191116809845
0.244315728545188904 0.0564276613295078278 0.169728443026542664
-0.716238677501678467 -0.620186388492584229 0.0643835291266441345
0.126289963722229004 -0.0688063949346542358 -0.0187518130987882614
0.0892043337225914001 -0.205925211310386658 0.0693381801247596741
-0.707481801509857178 -0.645035266876220703 0.081523410975933075
0.140872299671173096 0.289366662502288818 0.0570454895496368408
0.153418242931365967 0.18200799822807312 -0.116929985582828522
-0.672506630420684814 -0.61268460750579834 -0.0456451401114463806
0.191847503185272217 0.293607205152511597 -0.041185479611158371
0.127833083271980286 -0.0806151404976844788 0.189040794968605042
0.208473905920982361 0.039430275559425354 0.162796974182128906
0.270623534917831421 0.285960078239440918 -0.0152993639931082726
0.223587825894355774 0.0699564665555953979 -0.119838789105415344
0.0996845737099647522 0.597318649291992188 -0.070763714611530304
-0.685687899589538574 -0.679027378559112549 0.0511751696467399597
0.15305975079536438 0.223820209503173828 0.0197179857641458511
0.0773749873042106628 -0.162703290581703186 -0.111718229949474335
0.224544152617454529 -0.0458115376532077789 -0.109295956790447235
0.0317127034068107605 -0.00315199443139135838 -0.136680006980895996
0.263096928596496582 0.244209006428718567 0.15826009213924408
0.128740593791007996 0.275237202644348145 -0.114761509001255035
-0.722408115863800049 -0.630067169666290283 0.0155088445171713829
-0.000143392913741990924 -0.080125860869884491 -0.139128580689430237
-0.665649592876434326 -0.653037130832672119 0.0360887274146080017
