ply
format ascii 1.0
element vertex 53
comment vertices
property float x
property float y
property float z
end_header
-0.266549110412597656 0.49262508749961853 0.321997582912445068
-0.279643088579177856 0.384868532419204712 -0.338492274284362793
-0.216348618268966675 0.195551514625549316 0.101566329598426819
0.520303249359130859 -0.764032959938049316 0.270349472761154175
-0.218633860349655151 0.264629781246185303 -0.0400510281324386597
-0.245347172021865845 0.380721330642700195 0.228256076574325562
-0.249673038721084595 0.416417568922042847 -0.0937389880418777466
-0.231399714946746826 0.446640104055404663 0.206583157181739807
-0.249520450830459595 0.380143702030181885 -0.273410797119140625
0.33208167552947998 -0.77601093053817749 -0.0118272146210074425
-0.278116911649703979 0.424186766147613525 0.343842536211013794
0.522215127944946289 -0.782233774662017822 -0.139666721224784851
-0.23350873589515686 0.456720679998397827 -0.353571206331253052
-0.281081438064575195 0.537981927394866943 0.175499171018600464
-0.262892007827758789 0.379084527492523193 0.313264518976211548
0.476077497005462646 -0.756504714488983154 0.0992581173777580261
-0.225455805659294128 0.398069113492965698 0.233132168650627136
-0.241639316082000732 0.311265945434570312 -0.158688992261886597
0.538815438747406006 -0.819903254508972168 -0.193485304713249207
-0.241964623332023621 0.414604395627975464 0.0550021901726722717
-0.224355250597000122 0.39812999963760376 -0.119588844478130341
0.43414771556854248 -0.479736834764480591 -0.0532739162445068359
0.156900972127914429 -0.667760610580444336 0.0466745682060718536
-0.267647296190261841 0.378502309322357178 -0.0114908702671527863
0.47861182689666748 -0.775600433349609375 0.0162456780672073364
0.475251525640487671 -0.688371062278747559 0.10429728776216507
-0.252513855695724487 0.530188441276550293 -0.263725548982620239
-0.23845304548740387 0.234526380896568298 0.18844228982925415
0.501828134059906006 -0.768968641757965088 -0.115501947700977325
0.528606295585632324 -0.68749845027923584 0.0323465205729007721
-0.268074750900268555 0.329502403736114502 0.22016260027885437
-0.232215002179145813 0.253075242042541504 0.0738248303532600403
0.497397243976593018 -0.579242706298828125 -0.020524563267827034
-0.277783125638961792 0.54858553409576416 -0.237966671586036682
-0.262125372886657715 0.355633407831192017 -0.277688920497894287
0.372042655944824219 -0.789953112602233887 -0.115427508950233459
0.434940367937088013 -0.565881907939910889 0.0234396234154701233
-0.254931151866912842 0.415849149227142334 -0.2425079345703125
0.509630978107452393 -0.703643679618835449 0.191463679075241089
-0.246662557125091553 0.530736327171325684 -0.292121142148971558
0.343787908554077148 -0.645413994789123535 -0.0275947060436010361
-0.220763474702835083 0.460536390542984009 0.268363118171691895
-0.218937069177627563 0.538431644439697266 0.245548471808433533
-0.229896381497383118 0.184025436639785767 0.215161100029945374
-0.219736084342002869 0.192669689655303955 0.129965096712112427
-0.215340033173561096 0.525834619998931885 -0.582190096378326416
0.451142400503158569 -0.772733747959136963 0.120763741433620453
-0.260026395320892334 0.475039243698120117 0.0267187189310789108
0.539277017116546631 -0.725277423858642578 -0.159556359052658081
-0.266333431005477905 0.407155513763427734 0.197259038686752319
-0.247564822435379028 0.316002488136291504 0.193319320678710938
-0.244086027145385742 0.491974771022796631 -0.472037941217422485
0.256160974502563477 -0.701141715049743652 -0.0486174635589122772
