ply
format ascii 1.0
element vertex 338
comment vertices
property float x
property float y
property float z
end_header
0.52165907621383667 -0.0154329454526305199 -0.212265193462371826
-0.0696178004145622253 -0.346838176250457764 0.181024402379989624
-0.0234724543988704681 0.00370984873734414577 -0.222677230834960938
-0.0701659843325614929 -0.200278997421264648 0.239129841327667236
-0.223739728331565857 -0.0204573199152946472 0.358911812305450439
-0.00642090942710638046 0.165402129292488098 -0.807797670364379883
0.508349597454071045 -0.133675098419189453 -0.232874616980552673
-0.0490715838968753815 -0.114938750863075256 -0.227892383933067322
0.16115821897983551 0.256271779537200928 -0.832730710506439209
-0.110426232218742371 0.105604395270347595 0.233313515782356262
-0.0782792717218399048 0.287640154361724854 -0.198457613587379456
-0.108924984931945801 -0.0763385668396949768 -0.012233782559633255
-0.109639972448348999 -0.254218637943267822 0.231591120362281799
-0.114036589860916138 -0.310844302177429199 0.20777912437915802
-0.0540860630571842194 -0.174262851476669312 -0.0880277007818222046
-0.147329971194267273 -0.0920306146144866943 0.329547196626663208
0.495486557483673096 0.0391213744878768921 -0.217462942004203796
-0.0784761309623718262 -0.410691559314727783 0.322142273187637329
-0.0800012946128845215 -0.0676705092191696167 0.205855071544647217
-0.0933664590120315552 -0.203720211982727051 -0.0846850201487541199
-0.172571271657943726 0.515142261981964111 0.339029461145401001
-0.152574926614761353 -0.263855397701263428 0.336392670869827271
-0.0788984969258308411 0.236790463328361511 -0.00827747490257024765
-0.145755887031555176 0.19753749668598175 0.340457707643508911
-0.226412326097488403 0.0327978543937206268 0.383654862642288208
-0.200658529996871948 -0.376642137765884399 0.353284180164337158
0.661825597286224365 -0.0212216898798942566 -0.231995135545730591
-0.186162948608398438 -0.103922232985496521 0.325103849172592163
-0.105632439255714417 0.514452636241912842 0.269391477108001709
0.215772882103919983 0.174522265791893005 -0.853541851043701172
0.547103822231292725 -0.0438323095440864563 -0.216709628701210022
-0.106333926320075989 0.18193855881690979 0.18593500554561615
-0.0971410945057868958 -0.100572094321250916 0.212173923850059509
0.293902009725570679 -0.00473008072003722191 -0.85856252908706665
-0.15636502206325531 0.210379526019096375 0.319273918867111206
0.231251224875450134 -0.025961628183722496 -0.23739345371723175
-0.100595124065876007 -0.0814091041684150696 0.192608103156089783
-0.24925607442855835 -0.169992983341217041 0.396263599395751953
-0.0836486667394638062 0.228353545069694519 -0.00922660622745752335
-0.124596171081066132 -0.231250807642936707 0.301432162523269653
-0.0933690369129180908 -0.0556207858026027679 0.184701189398765564
-0.0508693903684616089 -0.381649047136306763 -0.102128170430660248
0.616155028343200684 0.184625402092933655 -0.204943597316741943
-0.0737724155187606812 -0.449444711208343506 0.290730983018875122
-0.125600337982177734 -0.186944201588630676 0.274353623390197754
-0.10151255875825882 -0.428867936134338379 0.250676333904266357
-0.138219192624092102 -0.385509192943572998 0.25968661904335022
-0.0985892713069915771 0.0839663445949554443 0.253981888294219971
-0.129624336957931519 0.361054480075836182 0.278830528259277344
-0.0764677003026008606 0.466876983642578125 0.0101753789931535721
-0.0796046555042266846 -0.395569384098052979 0.196638882160186768
-0.0893080532550811768 0.430471181869506836 0.00715574063360691071
-0.12102990597486496 -0.254587739706039429 0.260274887084960938
0.768795490264892578 -0.00703690759837627411 -0.238484010100364685
-0.102319143712520599 0.117580190300941467 -0.10969986766576767
-0.198087587952613831 -0.475917935371398926 0.374950200319290161
-0.0948149636387825012 0.395664453506469727 -0.0379323959350585938
-0.121986374258995056 -0.429114818572998047 0.287603706121444702
-0.117888353765010834 0.345205515623092651 0.193479180335998535
-0.173845916986465454 -0.4345969557762146 0.321538537740707397
-0.18366338312625885 -0.0684792548418045044 0.317675560712814331
-0.028438882902264595 -0.124064475297927856 -0.123263418674468994
-0.0933312922716140747 0.0316939614713191986 0.210135102272033691
-0.105225197970867157 0.252278923988342285 0.253291845321655273
-0.147872209548950195 0.371736824512481689 0.320632755756378174
-0.194967135787010193 -0.392507553100585938 0.332740664482116699
0.536986410617828369 -0.08145151287317276 -0.237116098403930664
-0.0758924856781959534 0.19807027280330658 0.00145380338653922081
-0.0901862755417823792 0.338730484247207642 -0.0710137560963630676
-0.136721178889274597 0.0413292720913887024 0.309341996908187866
-0.19347439706325531 0.0721170157194137573 0.399994224309921265
-0.140614733099937439 -0.403155118227005005 0.287683397531509399
-0.0710190683603286743 -0.0937851071357727051 -0.0989641100168228149
-0.23295612633228302 -0.348026156425476074 0.342839270830154419
-0.0745430290699005127 0.402570039033889771 0.212317332625389099
-0.0636081919074058533 -0.150960177183151245 -0.0283945202827453613
-0.0971900001168251038 0.254995346069335938 0.190965011715888977
-0.237025201320648193 -0.338716685771942139 0.333209007978439331
-0.222786441445350647 -0.282706260681152344 0.358880817890167236
0.683005392551422119 -0.249929696321487427 -0.243238463997840881
-0.13901771605014801 -0.383250236511230469 0.220401078462600708
-0.0853938683867454529 0.242468744516372681 0.202180266380310059
-0.131887510418891907 0.466236472129821777 0.328693151473999023
-0.0698451325297355652 -0.428176552057266235 -0.106101863086223602
-0.0141793610528111458 -0.0870446786284446716 -0.763204216957092285
-0.0997832790017127991 0.534653306007385254 0.249476388096809387
0.6245574951171875 -0.180696561932563782 -0.246687605977058411
0.213638573884963989 0.13891814649105072 -0.851473391056060791
-0.0679407417774200439 -0.120839662849903107 0.194046139717102051
-0.0460228584706783295 -0.38974413275718689 0.181244939565658569
0.646350085735321045 -0.190035820007324219 -0.26947978138923645
-0.0888813138008117676 0.132814154028892517 -0.0967850163578987122
-0.0872320011258125305 0.223379537463188171 0.211419731378555298
-0.162462025880813599 0.201469838619232178 0.328624129295349121
-0.10313703864812851 0.265657156705856323 0.190857589244842529
-0.0701841861009597778 -0.347880691289901733 0.200494050979614258
-0.223702415823936462 -0.136748179793357849 0.370406061410903931
-0.0898033976554870605 0.0240010786801576614 -0.0993107184767723083
0.688857197761535645 -0.294222205877304077 -0.268132567405700684
-0.146816015243530273 0.409006655216217041 0.344872534275054932
-0.077792637050151825 0.306534439325332642 -0.0592319704592227936
-0.10190775990486145 -0.312752872705459595 0.218854457139968872
-0.109696201980113983 0.415540367364883423 0.00376533693633973598
-0.042667146772146225 -0.00094219279708340764 -0.102772712707519531
-0.110473714768886566 0.387432485818862915 0.261053860187530518
-0.100568011403083801 0.309696406126022339 0.236077547073364258
-0.113698497414588928 -0.356998354196548462 0.293520241975784302
-0.0953757688403129578 -0.296954065561294556 0.220524057745933533
0.68947446346282959 0.0384929925203323364 -0.227218091487884521
-0.0578526072204113007 -0.193741783499717712 -0.0388831719756126404
-0.227783650159835815 -0.349676251411437988 0.363111793994903564
0.736746072769165039 -0.249900281429290771 -0.23253399133682251
-0.0798671096563339233 0.019062582403421402 -0.0462337471544742584
-0.105384312570095062 0.408076047897338867 0.230618849396705627
-0.144387811422348022 0.479138404130935669 0.328357458114624023
-0.101662002503871918 0.226812422275543213 -0.213692992925643921
-0.135860055685043335 -0.222801476716995239 0.180608466267585754
0.0814696177840232849 0.168922558426856995 -0.816617965698242188
-0.00313154538162052631 -0.3907470703125 -0.0171778630465269089
-0.103970617055892944 0.124086350202560425 0.214309826493263245
0.615255475044250488 -0.396951586008071899 -0.272515952587127686
-0.147302746772766113 0.539969027042388916 0.332254469394683838
0.0280812866985797882 0.215819403529167175 -0.823202311992645264
-0.0648430436849594116 0.346413791179656982 0.018564252182841301
-0.0111015820875763893 0.278971642255783081 -0.816082775592803955
0.0403236821293830872 0.194056004285812378 -0.808007299900054932
-0.230519413948059082 -0.422419518232345581 0.337223738431930542
-0.0918202698230743408 -0.0521610565483570099 0.266486644744873047
-0.21702219545841217 -0.223971754312515259 0.364037066698074341
-0.125653550028800964 -0.324569165706634521 0.324311226606369019
-0.0595008321106433868 0.0448052510619163513 -0.218364357948303223
-0.030034506693482399 -0.373019397258758545 -0.000962158781476318836
-0.117142446339130402 0.27070385217666626 0.295524775981903076
-0.126524195075035095 -0.0913182348012924194 0.270555734634399414
-0.166519880294799805 0.473643690347671509 0.336709827184677124
-0.0975315123796463013 0.169290497899055481 -0.0657190978527069092
-0.0160201005637645721 -0.125232622027397156 -0.131369814276695251
-0.0821849703788757324 0.338494181632995605 -0.0912394821643829346
0.100240886211395264 0.193484276533126831 -0.823760092258453369
-0.0573419071733951569 0.116042725741863251 -0.764897823333740234
-0.145733386278152466 -0.403206676244735718 0.297005206346511841
0.306144118309020996 0.176286086440086365 -0.859338819980621338
0.479624181985855103 0.186756029725074768 -0.211399614810943604
-0.0723000243306159973 0.270466834306716919 -0.798969447612762451
0.268869906663894653 0.181821689009666443 -0.839486598968505859
-0.107980526983737946 0.434172660112380981 0.285752654075622559
-0.167769923806190491 0.287719517946243286 0.334256380796432495
0.761594653129577637 -0.183903396129608154 -0.255182921886444092
-0.111069701611995697 -0.361586123704910278 0.224701106548309326
-0.0822508186101913452 -0.181422591209411621 -0.0521862730383872986
-0.0457839258015155792 -0.0838902741670608521 -0.0339112691581249237
-0.11258620023727417 0.263240128755569458 -0.0229438487440347672
0.346180260181427002 0.13338451087474823 -0.854851424694061279
-0.102027155458927155 0.394217044115066528 0.0041584172286093235
-0.0682011917233467102 -0.391268879175186157 -0.0461567528545856476
-0.189338505268096924 0.357560455799102783 0.369522243738174438
-0.0974318534135818481 0.434707522392272949 -0.0263835210353136063
-0.169721290469169617 0.0994909554719924927 0.341571539640426636
0.0715094655752182007 0.161688819527626038 -0.818773210048675537
0.531280815601348877 -0.0567836686968803406 -0.229032307863235474
-0.209747135639190674 0.274237841367721558 0.372156411409378052
0.401751905679702759 -0.269480317831039429 -0.243002846837043762
-0.247719526290893555 -0.150949448347091675 0.367246925830841064
-0.0469832159578800201 -0.169209405779838562 -0.187507003545761108
0.485217034816741943 0.0494323074817657471 -0.219449609518051147
0.372663885354995728 -0.155058175325393677 -0.230206817388534546
0.449701935052871704 -0.126306965947151184 -0.21588955819606781
-0.00764826126396656036 0.295813769102096558 -0.794713258743286133
-0.184007346630096436 0.347447603940963745 0.358490467071533203
-0.0987708941102027893 0.169126033782958984 0.217499151825904846
0.421867638826370239 0.111361443996429443 -0.212190806865692139
-0.102140985429286957 -0.0342531092464923859 0.28699803352355957
-0.126754239201545715 -0.0297630596905946732 0.274617314338684082
0.654709100723266602 0.119191072881221771 -0.225486472249031067
-0.0914881527423858643 0.214166730642318726 0.220919936895370483
0.705021440982818604 -0.0761394351720809937 -0.232041507959365845
-0.0898070856928825378 -0.291118353605270386 -0.0364532992243766785
-0.0792121365666389465 -0.458804935216903687 -0.117988757789134979
-0.193355187773704529 0.445347964763641357 0.397487521171569824
-0.179138392210006714 0.436088085174560547 0.343733012676239014
-0.100255601108074188 -0.115601763129234314 0.180581510066986084
0.70663219690322876 0.109728030860424042 -0.233964696526527405
-0.0830995962023735046 0.328323036432266235 -0.0808930322527885437
-0.144757211208343506 0.234870702028274536 0.343251436948776245
-0.130798667669296265 0.0320071466267108917 0.298946082592010498
-0.0395723320543766022 -0.280354022979736328 -0.0288281738758087158
-0.118806853890419006 0.299566388130187988 0.297272413969039917
-0.119900397956371307 -0.243419170379638672 0.211215853691101074
-0.248810335993766785 -0.397757053375244141 0.36743396520614624
-0.10611812025308609 0.367062777280807495 0.260264307260513306
0.724592447280883789 0.0323263704776763916 -0.229480549693107605
-0.0383557528257369995 0.235085785388946533 -0.0972128733992576599
-0.130826219916343689 0.0500145740807056427 0.300181388854980469
0.585441112518310547 0.0817036032676696777 -0.219647258520126343
-0.0859342589974403381 -0.341664284467697144 -0.0275363903492689133
-0.0701336264610290527 0.246588453650474548 -0.0384363792836666107
-0.1758832186460495 0.505892932415008545 0.338063418865203857
-0.0877786949276924133 0.0743722468614578247 0.233877494931221008
-0.231487855315208435 0.0433951243758201599 0.373614281415939331
-0.0952916592359542847 0.245806574821472168 -0.792567133903503418
0.391529440879821777 0.0908925607800483704 -0.858616650104522705
-0.025902407243847847 -0.156238242983818054 -0.163668975234031677
-0.0832429826259613037 -0.0258469246327877045 0.248703315854072571
-0.123821422457695007 0.320498228073120117 0.287498533725738525
0.674887657165527344 -0.126153275370597839 -0.237395673990249634
-0.0559169873595237732 -0.34596329927444458 -0.00368821877054870129
-0.172637686133384705 -0.115828424692153931 0.345845490694046021
-0.0846956595778465271 -0.0855495184659957886 -0.0600741617381572723
-0.0835093259811401367 0.180954769253730774 -0.000190681574167683721
-0.0675908699631690979 -0.0326387546956539154 0.178742513060569763
-0.0917415842413902283 -0.136519089341163635 0.220715910196304321
-0.0889650210738182068 -0.300652414560317993 -0.0167396701872348785
-0.220312744379043579 -0.341581404209136963 0.354409784078598022
-0.108395420014858246 -0.405695468187332153 0.280803322792053223
-0.20059455931186676 0.47011151909828186 0.355053216218948364
-0.191139772534370422 0.102580606937408447 0.350306600332260132
-0.0820097103714942932 -0.207191705703735352 0.237449854612350464
-0.120732620358467102 -0.269063055515289307 0.219536229968070984
-0.0796590223908424377 0.101613864302635193 -0.0647426322102546692
-0.0335660502314567566 0.0947754383087158203 -0.77879798412322998
0.303393125534057617 0.150071769952774048 -0.858055531978607178
0.558471798896789551 0.110378675162792206 -0.196370780467987061
0.639973998069763184 -0.0420754551887512207 -0.226802781224250793
0.182639852166175842 0.048898991197347641 -0.206328302621841431
0.377556204795837402 0.0934959203004837036 -0.210582345724105835
-0.0897998660802841187 0.355684220790863037 -0.038305480033159256
-0.138924434781074524 0.16114199161529541 0.307029396295547485
-0.131830900907516479 -0.451237231492996216 0.265621751546859741
-0.13480222225189209 -0.154574096202850342 0.184601679444313049
-0.0613353513181209564 -0.450213313102722168 -0.007991044782102108
-0.067560240626335144 -0.175573289394378662 -0.180953606963157654
-0.084064580500125885 -0.402123779058456421 0.322277188301086426
-0.155117601156234741 -0.39417797327041626 0.296781957149505615
0.134317487478256226 0.20012742280960083 -0.204098403453826904
-0.185594752430915833 0.139183312654495239 0.343031167984008789
-0.0476894117891788483 -0.129917532205581665 -0.1264544278383255
-0.124552428722381592 -0.462481707334518433 0.314105629920959473
-0.108038522303104401 -0.427737295627593994 0.240354388952255249
-0.175713509321212769 0.395147889852523804 0.351954221725463867
-0.0950307026505470276 0.290955871343612671 0.214378759264945984
-0.072283819317817688 0.0110894227400422096 -0.220832973718643188
-0.0356047004461288452 -0.312458962202072144 -0.197052612900733948
0.0917560309171676636 0.148637726902961731 -0.812561571598052979
-0.140866100788116455 0.0893596857786178589 0.281100243330001831
-0.104026749730110168 0.308392614126205444 -0.00963214784860610962
-0.0409928560256958008 -0.0152316931635141373 -0.020990908145904541
-0.057781606912612915 -0.328848540782928467 -0.0132254194468259811
-0.0356260798871517181 -0.194431066513061523 -0.215981915593147278
-0.0829351022839546204 -0.127929806709289551 0.202035173773765564
-0.0980872884392738342 -0.129466727375984192 0.260808348655700684
-0.0373344458639621735 0.22610144317150116 -0.79816514253616333
-0.173556357622146606 -0.475865721702575684 0.337938129901885986
-0.0828962400555610657 0.174375250935554504 -0.0423453524708747864
-0.0847861245274543762 0.289542943239212036 0.204866141080856323
-0.104028664529323578 -0.0852839425206184387 0.263080030679702759
-0.100143618881702423 0.243281885981559753 0.232193693518638611
-0.0698890537023544312 -0.102642953395843506 -0.0989819765090942383
-0.0674323663115501404 -0.152252793312072754 0.00126764795277267694
-0.0446644723415374756 0.0842684432864189148 -0.0288479775190353394
-0.0881235301494598389 0.230686232447624207 -0.0309611838310956955
-0.104119926691055298 0.454516202211380005 0.265862345695495605
-0.109799489378929138 -0.449696332216262817 -0.0931740701198577881
-0.0852802097797393799 -0.187460288405418396 0.198322877287864685
-0.167202562093734741 0.0716589093208312988 0.339756608009338379
-0.0826261714100837708 0.0464369021356105804 -0.0458782464265823364
0.759790778160095215 0.0747879445552825928 -0.232254624366760254
-0.0999766364693641663 -0.339613199234008789 -0.0394019335508346558
-0.0486194193363189697 -0.149871677160263062 0.204576194286346436
-0.0543249323964118958 -0.337410449981689453 -0.0130138574168086052
-0.0751661509275436401 -0.0987856239080429077 -0.00816483423113822937
-0.0455421134829521179 0.125860467553138733 -0.804886221885681152
-0.0721964016556739807 0.0453279577195644379 -0.0547050237655639648
-0.0755979642271995544 -0.2158537358045578 0.2276277095079422
0.698905289173126221 -0.244052991271018982 -0.249075442552566528
-0.0516431219875812531 -0.438246458768844604 0.197179004549980164
-0.079891107976436615 -0.451091647148132324 0.183636084198951721
-0.117257110774517059 -0.395679235458374023 0.26108086109161377
0.588073849678039551 0.033214133232831955 -0.247054398059844971
0.744050979614257812 0.152366980910301208 -0.236419886350631714
-0.0846223980188369751 -0.467607676982879639 0.201495826244354248
0.605638682842254639 0.16327860951423645 -0.235464185476303101
-0.0776430517435073853 0.288914948701858521 -0.0809617191553115845
-0.198120757937431335 0.270407944917678833 0.394259542226791382
-0.0740192979574203491 -0.357077479362487793 -0.0657306909561157227
-0.117883138358592987 0.266492486000061035 0.221020787954330444
0.592808306217193604 0.113805674016475677 -0.218466177582740784
-0.0980023741722106934 -0.109119266271591187 -0.215946853160858154
-0.0184996761381626129 0.252051413059234619 -0.816328763961791992
-0.0796378180384635925 -0.187895163893699646 -0.0922835767269134521
-0.0241527557373046875 0.266129523515701294 -0.178852662444114685
-0.106564469635486603 0.25182640552520752 0.263679653406143188
-0.13880486786365509 0.292735546827316284 0.316088199615478516
0.178850248456001282 0.243982210755348206 -0.83755260705947876
-0.116329915821552277 0.338846355676651001 0.278788834810256958
-0.125792637467384338 0.0964984893798828125 0.272700339555740356
-0.158601418137550354 0.0813069716095924377 0.310030430555343628
-0.194296985864639282 0.102451935410499573 0.360489606857299805
-0.112037502229213715 -0.0471444875001907349 0.234128370881080627
0.260546237230300903 0.0317762084305286407 -0.810474395751953125
0.0360837019979953766 0.0669384822249412537 -0.801045656204223633
-0.0924160778522491455 0.21577569842338562 0.199895396828651428
-0.120273858308792114 0.270617187023162842 0.305793255567550659
-0.0706011280417442322 -0.111213862895965576 -0.0992804840207099915
-0.121328651905059814 -0.343031615018844604 0.20504702627658844
0.00314938533119857311 0.238177105784416199 -0.809842169284820557
-0.0867023095488548279 0.0909307971596717834 0.255669653415679932
0.113644517958164215 0.127667874097824097 -0.826160907745361328
0.406798332929611206 -0.119055368006229401 -0.233442649245262146
-0.208126679062843323 -0.283795326948165894 0.350004225969314575
-0.0825637951493263245 0.119726970791816711 -0.0542696304619312286
-0.0834442451596260071 0.289996832609176636 0.194457143545150757
0.738258123397827148 0.0303001590073108673 -0.235953092575073242
-0.00844094064086675644 0.288669675588607788 -0.82675325870513916
-0.178689122200012207 0.165770754218101501 0.345620840787887573
-0.226267427206039429 -0.358125567436218262 0.362556040287017822
-0.163718268275260925 -0.0360942184925079346 0.32188066840171814
-0.0966204330325126648 0.271648496389389038 -0.0523152388632297516
0.483594208955764771 0.169518753886222839 -0.858720004558563232
0.376322895288467407 0.0930791348218917847 -0.201016560196876526
0.0107409395277500153 -0.423460066318511963 -0.0258600246161222458
-0.222052857279777527 -0.423729211091995239 0.347732484340667725
-0.167138248682022095 -0.344893068075180054 0.319040894508361816
-0.0259589515626430511 -0.132391959428787231 -0.133099034428596497
0.0891959890723228455 0.131611064076423645 -0.822539567947387695
-0.0499997958540916443 -0.184041440486907959 -0.218401551246643066
-0.0946814566850662231 0.356002002954483032 -0.0282728001475334167
-0.113961338996887207 0.406172275543212891 0.283341139554977417
-0.14214809238910675 0.360769450664520264 0.320438563823699951
-0.110332243144512177 -0.32831612229347229 0.216997399926185608
-0.0702932551503181458 -0.146995335817337036 -0.0797819942235946655
-0.191078841686248779 0.0471020601689815521 0.356574058532714844
0.000887845060788094997 0.0906334146857261658 -0.801245033740997314
-0.0403401367366313934 -0.178869649767875671 0.243611469864845276
-0.110410496592521667 -0.443550646305084229 0.239081382751464844
0.178141623735427856 0.217938482761383057 -0.856714308261871338
-0.0269419066607952118 0.261807948350906372 -0.797632455825805664
-0.135907441377639771 -0.322896301746368408 0.313621819019317627
-0.0327262133359909058 -0.192292734980583191 -0.11518077552318573
