ply
format ascii 1.0
element vertex 293
comment vertices
property float x
property float y
property float z
end_header
-0.114060960710048676 0.237477630376815796 0.27502739429473877
-0.118589699268341064 0.279739648103713989 0.209554910659790039
-0.0898967087268829346 0.354456275701522827 0.265827447175979614
0.0813645198941230774 -0.192620277404785156 -0.160099685192108154
0.0365862585604190826 0.240757748484611511 -0.049478922039270401
0.0265823528170585632 -0.171349465847015381 0.0556641928851604462
0.0633891597390174866 -0.458234846591949463 -0.0614343136548995972
0.0513218753039836884 -0.0924225226044654846 -0.0790771543979644775
0.0304237958043813705 0.119491726160049438 -0.0852517187595367432
0.0221294369548559189 -0.609661877155303955 -0.360586374998092651
-0.0759038254618644714 0.251369833946228027 0.118733182549476624
-0.0683925449848175049 0.220779910683631897 0.0970673635601997375
0.0240966249257326126 0.251665592193603516 -0.0316861160099506378
0.0462888218462467194 -0.139122262597084045 -0.235085472464561462
-0.0657713040709495544 0.400868862867355347 0.167418554425239563
0.0386000871658325195 -0.303051263093948364 0.0200573913753032684
0.0724862590432167053 -0.323272973299026489 -0.127975881099700928
0.0829486548900604248 -0.0579073987901210785 -0.027752244845032692
0.00995362456887960434 -0.169976517558097839 0.0547768808901309967
-0.107787936925888062 0.255163460969924927 0.144065201282501221
0.0161426179111003876 -0.32034716010093689 -0.168522432446479797
0.0874907970428466797 -0.149270489811897278 0.0283863283693790436
-0.111050605773925781 0.085758894681930542 0.271329194307327271
0.0491639561951160431 0.0325667262077331543 -0.104665651917457581
0.0356270633637905121 -0.0585854314267635345 0.0289894305169582367
0.0563393756747245789 -0.329312235116958618 0.0174964293837547302
0.0556643716990947723 -0.127304136753082275 -0.223373070359230042
-0.0884736776351928711 0.215450763702392578 0.157261863350868225
-0.0862722024321556091 0.146235138177871704 0.218512833118438721
-0.132044717669487 0.0720704570412635803 0.242000952363014221
0.0299835838377475739 -0.419058263301849365 0.0725815147161483765
-0.107800930738449097 0.0757961124181747437 0.0556030571460723877
0.072416253387928009 -0.201797574758529663 0.0456325747072696686
0.0553645938634872437 -0.362184047698974609 0.0734395459294319153
0.0484336502850055695 0.228697061538696289 -0.0587266385555267334
-0.100742943584918976 0.0979855060577392578 0.121889479458332062
0.0456162095069885254 -0.103435881435871124 -0.002829717006534338
-0.00131453608628362417 -0.412033796310424805 -0.0600836575031280518
-0.0930185914039611816 0.318244308233261108 0.260553866624832153
0.0412463881075382233 0.0226096473634243011 -0.0458914563059806824
0.00348746450617909431 0.219080105423927307 0.0316884890198707581
-0.0839331746101379395 0.111492469906806946 0.293370187282562256
-0.0771978050470352173 0.28098982572555542 0.167272895574569702
0.0170396100729703903 -0.315253317356109619 -0.21178068220615387
0.0604464039206504822 -0.326421350240707397 0.00952068157494068146
0.00941045675426721573 -0.0821376517415046692 -0.0202064663171768188
-0.0330475196242332458 0.343931853771209717 0.0643758773803710938
-0.102446220815181732 0.0833968669176101685 0.164339572191238403
0.0425702333450317383 -0.150397360324859619 -0.228450357913970947
-0.0844420716166496277 0.130565077066421509 0.127509042620658875
0.0711885988712310791 0.106002293527126312 0.0209022872149944305
0.0725392997264862061 -0.333236724138259888 -0.199084445834159851
0.0103334402665495872 0.00731768598780035973 -0.0247016251087188721
-0.000666112755425274372 -0.329254478216171265 -0.162815138697624207
0.060199737548828125 -0.551087915897369385 -0.549551129341125488
-0.0270018149167299271 0.250978708267211914 0.0426016263663768768
-0.0832709744572639465 0.291914105415344238 0.283670544624328613
-0.00285293604247272015 0.171365752816200256 0.0417959727346897125
0.0777221545577049255 -0.100355394184589386 -0.138344690203666687
0.0732423663139343262 -0.140556827187538147 -0.109967492520809174
0.0537388958036899567 -0.275519073009490967 -0.166603639721870422
-0.0834190547466278076 0.319834917783737183 0.199121072888374329
0.0771371126174926758 -0.218838900327682495 -0.26020967960357666
-0.101840808987617493 0.318046838045120239 0.162355110049247742
-0.15658096969127655 0.31235775351524353 0.284457296133041382
-0.101332001388072968 0.34935915470123291 0.202489569783210754
0.0380051061511039734 0.066379643976688385 0.0211290325969457626
0.0265253372490406036 -0.254522144794464111 -0.236992537975311279
0.0631545484066009521 0.0142171550542116165 -0.123230524361133575
-0.0899014472961425781 0.00122717628255486488 0.295309692621231079
0.00478033255785703659 -0.104435943067073822 0.0025119599886238575
0.0171072706580162048 0.223257169127464294 -0.0365029573440551758
0.000678188109304755926 -0.147845685482025146 0.057358715683221817
0.0599782876670360565 -0.263607233762741089 -0.0857178568840026855
-0.102280788123607635 0.147939190268516541 0.0753504335880279541
-0.107473134994506836 0.247922539710998535 0.0535963140428066254
-0.0928918495774269104 0.293928235769271851 0.239350393414497375
-0.0499303117394447327 0.245870962738990784 0.242934539914131165
0.0411147885024547577 -0.211532428860664368 -0.0799251571297645569
0.00268696388229727745 -0.273409128189086914 -0.00450495537370443344
0.040561039000749588 -0.242816239595413208 -0.119505599141120911
-0.111653551459312439 -0.170482754707336426 0.297308385372161865
-0.0932530760765075684 0.105564869940280914 0.159052640199661255
0.00146009458694607019 0.306138485670089722 0.0353723056614398956
0.0593429170548915863 -0.172628477215766907 -0.116082295775413513
0.0627464652061462402 -0.489370435476303101 0.0642536729574203491
-0.099256075918674469 0.366611778736114502 0.213951021432876587
0.0256349146366119385 -0.259632140398025513 -0.193808674812316895
-0.0962237268686294556 0.192384392023086548 0.100032903254032135
-0.0513942539691925049 -0.433907926082611084 -0.0941471010446548462
0.0408113636076450348 0.199129238724708557 -0.0551121197640895844
0.0312548801302909851 -0.0247793439775705338 0.0248309317976236343
0.056036975234746933 0.0485575571656227112 0.0113350758329033852
0.0287747681140899658 -0.105792328715324402 0.0303814131766557693
-0.108478426933288574 0.256028950214385986 0.286721080541610718
-0.0551732815802097321 0.321821540594100952 0.112515076994895935
0.0675580352544784546 -0.393195480108261108 -0.156090661883354187
0.033924344927072525 -0.0843386724591255188 0.0164278969168663025
0.00876008998602628708 0.335062384605407715 -0.0385746844112873077
0.0298761315643787384 -0.315694689750671387 -0.148768305778503418
0.061766505241394043 0.157107427716255188 -0.0764572098851203918
0.0477897301316261292 -0.489361345767974854 -0.180965930223464966
-0.101449757814407349 0.0992097631096839905 0.264595955610275269
0.0433712303638458252 -0.0159259643405675888 -0.0861738249659538269
0.10231076180934906 -0.475842028856277466 -0.199123576283454895
0.0400804169476032257 0.323047012090682983 0.0063441847451031208
-0.112633258104324341 0.342630743980407715 0.227728694677352905
0.0056197349913418293 0.0150251630693674088 0.0461336411535739899
-0.0988602414727210999 0.163118943572044373 0.264880269765853882
0.0296539291739463806 0.243955403566360474 -0.0235404148697853088
0.0871060118079185486 -0.425268977880477905 -0.0893287062644958496
0.0458228960633277893 0.293607085943222046 -0.0234579816460609436
-0.0931481271982192993 0.246081128716468811 0.188089191913604736
-0.0795245468616485596 -0.129198744893074036 0.294689357280731201
0.0639151409268379211 -0.276054084300994873 -0.279161840677261353
0.0423302240669727325 -0.337885200977325439 0.0327087044715881348
-0.00909146387130022049 -0.577226579189300537 -0.14664854109287262
-0.0800401642918586731 0.104119583964347839 0.292406022548675537
-0.0445875488221645355 0.289768308401107788 0.0379564352333545685
0.0297149680554866791 0.275480777025222778 0.00719451857730746269
0.0309051666408777237 0.0406926162540912628 -0.0879422277212142944
0.0505176112055778503 -0.200929984450340271 -0.217322543263435364
0.0588725358247756958 -0.324422508478164673 -0.0163559466600418091
0.0274200122803449631 0.219252750277519226 -0.044808514416217804
-0.0241882465779781342 0.0731912180781364441 0.0523568056523799896
0.0951652154326438904 0.114418052136898041 -0.0446954928338527679
0.0872118696570396423 0.314172506332397461 0.000795610423665493727
0.0126846581697463989 0.220316171646118164 0.0500971823930740356
0.0341437868773937225 -0.293079763650894165 -0.0924296900629997253
0.0252530351281166077 -0.344133704900741577 -0.153403401374816895
0.0468869693577289581 -0.239363223314285278 0.0385047942399978638
0.0267875920981168747 -0.331864118576049805 -0.177835986018180847
0.0282785147428512573 0.0857932120561599731 -0.029195934534072876
-0.0147867584601044655 0.358503997325897217 0.0679197236895561218
-0.103884659707546234 0.289294064044952393 0.0956206396222114563
-0.0786235034465789795 0.197141155600547791 0.190642312169075012
-0.12031266838312149 0.371406048536300659 0.267190098762512207
0.0315807908773422241 0.0888428688049316406 0.0325708910822868347
-0.109041072428226471 0.282903969287872314 0.0585317201912403107
0.0371127910912036896 0.286066293716430664 -0.0602556578814983368
-0.0835515409708023071 0.300648361444473267 0.13422885537147522
0.0339670591056346893 -0.225845187902450562 -0.223044112324714661
0.0419950522482395172 -0.205044493079185486 0.025721600279211998
-0.101070351898670197 0.264736056327819824 0.234866544604301453
0.0142551008611917496 -0.532890021800994873 0.0641598328948020935
-0.08899669349193573 0.201302677392959595 0.199641704559326172
0.0069521833211183548 0.0486700534820556641 -0.0892627313733100891
-0.0947023183107376099 0.227882161736488342 0.185407653450965881
0.0885130986571311951 -0.339148283004760742 -0.232851773500442505
0.0890947580337524414 -0.135308116674423218 -0.0125584052875638008
0.0698668360710144043 -0.438151180744171143 -0.136263921856880188
-0.0755056142807006836 0.165707811713218689 0.239403307437896729
0.0431206263601779938 0.163204848766326904 0.0355517938733100891
0.0531614571809768677 0.114545293152332306 -0.0400992520153522491
-0.0963606983423233032 0.190279915928840637 0.117566712200641632
-0.0957275480031967163 0.223845794796943665 0.140260517597198486
-0.104964859783649445 0.224947050213813782 0.255725860595703125
0.03348565474152565 0.0463447123765945435 0.0265749711543321609
0.0718846842646598816 -0.0635255500674247742 -0.020888330414891243
0.0126810073852539062 -0.170202746987342834 -0.173420935869216919
-0.0898962169885635376 0.178584173321723938 0.160791873931884766
0.0296359043568372726 0.171840131282806396 -0.00785387866199016571
0.0656026676297187805 0.17936117947101593 -0.0294818747788667679
-0.00915749743580818176 0.24840836226940155 0.0436677224934101105
0.0796375349164009094 0.0493224635720252991 0.0133930286392569542
-0.09769478440284729 0.373406887054443359 0.161634430289268494
-0.104049220681190491 0.114949919283390045 0.275656819343566895
-0.0636956095695495605 0.177703455090522766 0.250343978404998779
-0.101682446897029877 0.261370480060577393 0.109611451625823975
0.0427348800003528595 0.136473938822746277 -0.037911679595708847
0.0587491318583488464 -0.163470596075057983 -0.202060043811798096
0.00476324325427412987 0.221542790532112122 0.0146385785192251205
0.0265701543539762497 -0.0391958132386207581 -0.179009765386581421
0.0479911789298057556 0.113560870289802551 -0.0494378805160522461
0.0447258166968822479 -0.281930625438690186 -0.229927375912666321
-0.0470026731491088867 0.350710004568099976 0.117226593196392059
0.00730958348140120506 -0.304499208927154541 -0.273343086242675781
0.0529751181602478027 -0.129047006368637085 0.0201100166887044907
0.0204394049942493439 -0.040795840322971344 0.0478872545063495636
0.065186619758605957 -0.319822788238525391 -0.276674360036849976
0.0705295056104660034 -0.113030873239040375 -0.132303416728973389
0.0235877707600593567 -0.244969174265861511 -0.17429746687412262
-0.123627357184886932 0.25455629825592041 0.178889647126197815
0.0204847697168588638 0.129878699779510498 0.0201757811009883881
0.0559202544391155243 -0.209990084171295166 -0.191737160086631775
0.0715271756052970886 0.154116153717041016 -0.0931928530335426331
0.0212331004440784454 0.0405418574810028076 0.0335024595260620117
0.0388700775802135468 0.189799919724464417 -0.0566684752702713013
0.0168258678168058395 -0.521887421607971191 0.0571183338761329651
-0.0632105618715286255 0.321278154850006104 0.0941844359040260315
0.0469612069427967072 -0.0893737897276878357 0.0340775176882743835
0.0338543765246868134 -0.129031136631965637 -0.21764451265335083
0.00767943589016795158 -0.178134500980377197 -0.122240260243415833
0.0345167070627212524 -0.299992531538009644 0.0550847537815570831
0.0667486265301704407 -0.295789748430252075 -0.246689379215240479
-0.104793943464756012 0.135776340961456299 0.171729624271392822
0.0338825322687625885 0.329598188400268555 0.00672456761822104454
0.0328099243342876434 0.224165201187133789 -0.0697364062070846558
-0.0661906450986862183 0.219495326280593872 0.114760853350162506
0.0105966068804264069 0.182566016912460327 -0.0869265347719192505
0.036827530711889267 -0.187580108642578125 -0.155640974640846252
0.0621607489883899689 -0.0600357428193092346 -0.169036880135536194
0.0353698208928108215 0.11642775684595108 -0.0415329113602638245
-0.116531640291213989 0.350248843431472778 0.228652983903884888
-0.00273069459944963455 -0.214983224868774414 -0.155205637216567993
0.100085623562335968 0.0309740938246250153 -0.0563527978956699371
0.0644407272338867188 -0.0648502930998802185 -0.195622861385345459
0.0379892103374004364 -0.0210253018885850906 -0.0612656325101852417
-0.0923673138022422791 0.181427702307701111 0.205536872148513794
0.00641075894236564636 0.0965609699487686157 0.0317069254815578461
0.0356572866439819336 -0.094251587986946106 -0.0459285415709018707
0.0663726702332496643 -0.055398058146238327 -0.193995013833045959
-0.104050837457180023 0.209629341959953308 0.235781297087669373
0.00731875468045473099 -0.483854949474334717 0.0708323195576667786
-0.0707140713930130005 0.357566267251968384 0.143204450607299805
0.0196034498512744904 -0.304340869188308716 -0.218699619174003601
0.0471186079084873199 -0.0249728765338659286 -0.0696763694286346436
-0.0819915160536766052 0.124355815351009369 0.188942819833755493
0.0556185618042945862 -0.137754455208778381 -0.128822609782218933
0.0539645068347454071 -0.344051897525787354 -0.185338243842124939
0.0180025752633810043 0.0489259958267211914 0.0257302168756723404
-0.0934964492917060852 0.205281496047973633 0.0752994716167449951
0.0544401928782463074 0.289955705404281616 -0.0404970124363899231
0.0108852731063961983 -0.411113142967224121 -0.0941487923264503479
-0.100665107369422913 0.102544777095317841 0.238417550921440125
-0.058109872043132782 0.383644849061965942 0.183030039072036743
0.0924620181322097778 -0.236804381012916565 -0.0269757267087697983
-0.102340169250965118 0.23928619921207428 0.142097949981689453
0.0882606431841850281 -0.205546393990516663 -0.0919179171323776245
0.0969841331243515015 0.021175876259803772 -0.0580818615853786469
0.0326881557703018188 -0.0299378298223018646 -0.080554962158203125
0.023737296462059021 -0.125329524278640747 0.0271937549114227295
-0.0981938391923904419 0.173592865467071533 0.177463561296463013
-0.026670992374420166 -0.00553174596279859543 -0.0475193671882152557
-0.0615320205688476562 0.115560457110404968 0.100097008049488068
0.0344024971127510071 -0.0253386180847883224 -0.193578466773033142
0.0392116643488407135 -0.440391838550567627 -0.183523222804069519
0.0597721822559833527 -0.52027052640914917 -0.333254545927047729
-0.0945812985301017761 0.341631382703781128 0.210590586066246033
0.0429798029363155365 -0.219619855284690857 -0.15963609516620636
0.0507057048380374908 -0.1137990802526474 -0.0474081821739673615
-0.0208428613841533661 0.087193123996257782 0.0193983446806669235
0.0794222727417945862 0.173206284642219543 -0.0808922573924064636
0.0132420938462018967 -0.333455920219421387 0.0226865187287330627
0.0386890098452568054 0.0840932130813598633 -0.054635174572467804
-0.103015996515750885 0.207928180694580078 0.253363609313964844
-0.114243790507316589 0.172015205025672913 0.140696808695793152
-0.076924055814743042 0.167940109968185425 0.0621890835464000702
-0.0513689927756786346 0.396563470363616943 0.167629539966583252
-0.0342428460717201233 0.238729730248451233 0.0490682758390903473
-0.0621625520288944244 0.372164219617843628 0.119299910962581635
0.00254015438258647919 0.103787697851657867 0.0324475578963756561
-0.0973624140024185181 0.112180225551128387 0.0884082317352294922
0.0199753604829311371 0.15666516125202179 0.0152811678126454353
0.0295973252505064011 -0.302783310413360596 -0.270134955644607544
0.0501736514270305634 0.141965463757514954 0.0157011076807975769
0.0537600256502628326 -0.177191078662872314 -0.178449183702468872
0.0517499148845672607 0.0123789682984352112 0.00574320089071989059
0.0583342760801315308 -0.233057066798210144 -0.212312296032905579
-0.0768063291907310486 0.131022170186042786 0.225558921694755554
0.0376441031694412231 -0.191533580422401428 0.0447760596871376038
0.0398266352713108063 0.359381616115570068 -0.00578264612704515457
0.0562461428344249725 -0.120999403297901154 -0.0392603613436222076
0.051260385662317276 -0.435232341289520264 -0.172694995999336243
-0.089885421097278595 0.288189202547073364 0.069685518741607666
0.0785168781876564026 -0.000640228739939630032 -0.0111999763175845146
-0.0298966802656650543 0.196255967020988464 -0.107002057135105133
0.00807633809745311737 -0.295345127582550049 -0.271895498037338257
0.0469587221741676331 -0.383674919605255127 -0.0956493467092514038
-0.0918546393513679504 0.30724334716796875 0.205793559551239014
0.0372902490198612213 -0.330943793058395386 -0.220456734299659729
0.102418214082717896 -0.428158551454544067 -0.235493406653404236
0.0137022808194160461 0.25932610034942627 0.0208873823285102844
-0.108088433742523193 0.362797439098358154 0.221902340650558472
0.0300334673374891281 0.362783610820770264 0.0111890677362680435
0.00753473956137895584 0.364179372787475586 0.00931929424405097961
0.0383416302502155304 -0.0815648511052131653 -0.0700335130095481873
0.0139253837987780571 0.124452576041221619 0.0450689569115638733
-0.122346535325050354 0.241936415433883667 0.212920039892196655
-0.0940469279885292053 0.10803639143705368 0.212758272886276245
0.0386459380388259888 -0.317270100116729736 0.0702586695551872253
0.0650983303785324097 -0.289740145206451416 -0.228528618812561035
0.0405096486210823059 -0.438106119632720947 0.0530057139694690704
0.0705424323678016663 -0.648979306221008301 -0.757528603076934814
0.0950661450624465942 -0.521393001079559326 -0.477144867181777954
0.0285787489265203476 -0.190512537956237793 -0.244951546192169189
0.0329206660389900208 0.133787825703620911 -0.0479705296456813812
0.0389559157192707062 0.0628466829657554626 0.0554676428437232971
0.0247533842921257019 0.0938949212431907654 0.0414835773408412933
0.0646767988801002502 0.309567540884017944 -0.0279436018317937851
0.0963493064045906067 -0.410717606544494629 -0.181607529520988464
-0.00530315469950437546 -0.140953898429870605 -0.109335638582706451
0.0595379099249839783 -0.220763713121414185 -0.157959088683128357
