ply
format ascii 1.0
element vertex 109
comment vertices
property float x
property float y
property float z
end_header
0.00460919179022312164 2.45148873329162598 -1.15723145008087158
-0.451485753059387207 1.89536488056182861 -1.21530759334564209
1.12471854686737061 2.62101125717163086 -1.08448922634124756
-0.275540620088577271 3.89988541603088379 -1.10873496532440186
0.212384864687919617 1.37803661823272705 -1.10664534568786621
0.749844372272491455 3.5334780216217041 -1.1066662073135376
-1.08907079696655273 2.45637083053588867 -1.10561192035675049
0.398189067840576172 2.59683656692504883 -1.14030897617340088
0.767390966415405273 3.56497383117675781 -1.13511991500854492
-0.211700230836868286 2.46079301834106445 -1.14904260635375977
0.0178327672183513641 2.73201417922973633 -1.17261290550231934
0.668761074542999268 2.18951940536499023 -1.11468207836151123
-0.131097465753555298 2.12632846832275391 -1.20094335079193115
1.10606241226196289 2.65241003036499023 -1.08480322360992432
1.16454780101776123 2.60802817344665527 -1.10717761516571045
-1.08671367168426514 2.47334694862365723 -1.05836308002471924
0.0843983590602874756 2.68452310562133789 -1.16501319408416748
-0.320850133895874023 2.15274977684020996 -1.20148646831512451
-0.510837972164154053 2.16575527191162109 -1.17883837223052979
-0.303155958652496338 3.91574311256408691 -1.07397758960723877
0.702367424964904785 2.20652508735656738 -1.10053062438964844
0.189207598567008972 1.37037336826324463 -1.13128829002380371
0.181216388940811157 1.37592983245849609 -1.10922276973724365
0.0308364816009998322 2.67899465560913086 -1.17244076728820801
1.13547706604003906 2.61334848403930664 -1.08567512035369873
0.181392073631286621 2.44248461723327637 -1.14829123020172119
0.103510163724422455 2.91469550132751465 -1.18406391143798828
0.139972597360610962 2.7925724983215332 -1.17803359031677246
0.0483580343425273895 2.38797903060913086 -1.15418899059295654
0.67479020357131958 2.18711113929748535 -1.10495901107788086
-0.0242384970188140869 2.72966742515563965 -1.17976737022399902
-0.0986105203628540039 2.34752750396728516 -1.15986883640289307
0.710475742816925049 3.5482487678527832 -1.11919605731964111
-0.0082063768059015274 2.62841510772705078 -1.17791163921356201
1.10616588592529297 2.63487768173217773 -1.06317532062530518
1.13171327114105225 2.61755037307739258 -1.09639978408813477
-0.285374581813812256 3.9023289680480957 -1.08824074268341064
0.757870852947235107 3.53002357482910156 -1.11697947978973389
0.656790196895599365 2.19049596786499023 -1.12130427360534668
-1.08544933795928955 2.47008848190307617 -1.11041343212127686
-0.246228337287902832 1.98842787742614746 -1.18651044368743896
-0.28569948673248291 3.89465212821960449 -1.1073143482208252
0.74735647439956665 3.53982424736022949 -1.11091506481170654
-0.385551303625106812 3.81467676162719727 -1.11900603771209717
-1.08417677879333496 2.4692845344543457 -1.06923913955688477
0.667408168315887451 2.20002985000610352 -1.1327977180480957
-0.0645730942487716675 2.60192060470581055 -1.17328298091888428
-0.476436048746109009 2.02522373199462891 -1.15585780143737793
0.00657410174608230591 2.79595756530761719 -1.19782781600952148
0.610672175884246826 2.75468707084655762 -1.14348769187927246
-0.677826523780822754 2.53783369064331055 -1.14937007427215576
0.139993235468864441 2.68267345428466797 -1.15378367900848389
0.754171848297119141 3.53883767127990723 -1.1262592077255249
0.210563033819198608 1.36693096160888672 -1.10878658294677734
-0.5160369873046875 1.91524791717529297 -1.16404807567596436
0.163603752851486206 2.8126523494720459 -1.18218612670898438
-0.443578958511352539 1.97158348560333252 -1.21761894226074219
-0.457180321216583252 1.94979071617126465 -1.20407330989837646
0.00682256370782852173 2.50001835823059082 -1.17748653888702393
0.210405409336090088 1.35051453113555908 -1.11829912662506104
1.04221725463867188 2.55974173545837402 -1.10650467872619629
-0.238044455647468567 2.12729644775390625 -1.20964503288269043
0.0751962661743164062 2.61037731170654297 -1.1859898567199707
-1.0854644775390625 2.47029399871826172 -1.09424281120300293
0.206841319799423218 1.36435413360595703 -1.1139906644821167
0.313715249300003052 3.03278374671936035 -1.17137420177459717
0.664334475994110107 2.18802070617675781 -1.10982990264892578
0.213667050004005432 1.35289895534515381 -1.12359416484832764
0.262190580368041992 1.68597781658172607 -1.13753306865692139
0.665636658668518066 2.18361902236938477 -1.10472536087036133
0.368770182132720947 2.71169829368591309 -1.12523102760314941
1.1202695369720459 2.62666726112365723 -1.07229435443878174
0.0406635627150535583 2.75293946266174316 -1.18003296852111816
-0.193489223718643188 2.38954663276672363 -1.17621898651123047
0.75184398889541626 3.52941441535949707 -1.11195158958435059
0.661758720874786377 2.18964862823486328 -1.1142885684967041
1.09418570995330811 2.64111971855163574 -1.07475197315216064
0.0353942811489105225 2.81365513801574707 -1.19181180000305176
-0.249779582023620605 2.04052639007568359 -1.2160341739654541
1.12976670265197754 2.62575626373291016 -1.07708311080932617
-0.0653158202767372131 2.62635517120361328 -1.16980075836181641
-0.029116043820977211 3.19527959823608398 -1.16534090042114258
-0.0812438279390335083 2.60456085205078125 -1.14589107036590576
-0.267399996519088745 2.08191418647766113 -1.16742527484893799
0.696400225162506104 2.19166302680969238 -1.11253833770751953
-0.00930161401629447937 2.57039999961853027 -1.18494880199432373
0.654960751533508301 2.20374941825866699 -1.12940859794616699
0.065010853111743927 2.79150271415710449 -1.18045830726623535
-0.278915077447891235 3.89654445648193359 -1.11623990535736084
0.449113607406616211 2.03536343574523926 -1.13806509971618652
0.304553449153900146 3.05215287208557129 -1.11711800098419189
1.10754537582397461 2.64729952812194824 -1.09596443176269531
0.0294561125338077545 2.83513832092285156 -1.16040074825286865
0.744728803634643555 3.55201292037963867 -1.10643446445465088
0.17637363076210022 1.38911521434783936 -1.11212217807769775
0.0229687709361314774 2.55174970626831055 -1.16992032527923584
0.671838879585266113 2.18488883972167969 -1.10102260112762451
-1.08342516422271729 2.47198915481567383 -1.09582626819610596
-0.0590237937867641449 2.5531916618347168 -1.18758106231689453
-0.00623882655054330826 2.57099533081054688 -1.18249213695526123
-0.456669151782989502 1.92587649822235107 -1.16737878322601318
0.0383182764053344727 2.86515665054321289 -1.18328940868377686
1.1234210729598999 2.62589645385742188 -1.06230008602142334
-1.08382010459899902 2.47062945365905762 -1.08521842956542969
-0.408221006393432617 2.03963565826416016 -1.21257376670837402
-1.08715415000915527 2.46403193473815918 -1.10868704319000244
0.0842432901263237 2.72026252746582031 -1.17146193981170654
-0.286700010299682617 3.89742469787597656 -1.0956575870513916
0.66962134838104248 2.18310236930847168 -1.10016822814941406
