ply
format ascii 1.0
element vertex 256
comment vertices
property float x
property float y
property float z
end_header
0.0176003351807594299 2.43614578247070312 -1.18516266345977783
-0.603340566158294678 4.97394323348999023 -0.266875237226486206
1.33263194561004639 4.10401153564453125 -0.348819613456726074
-2.02247762680053711 2.81538605690002441 -0.484136432409286499
-1.0286400318145752 3.93942666053771973 -1.16102194786071777
1.2332150936126709 3.12908101081848145 -1.17253732681274414
0.516560137271881104 4.60451650619506836 -0.572862744331359863
-1.70460164546966553 2.72717523574829102 -1.17185819149017334
-0.376286208629608154 1.98770642280578613 -1.24163460731506348
0.875234663486480713 4.03624248504638672 -0.506725430488586426
1.12986338138580322 2.64455175399780273 -1.07345283031463623
-0.270437359809875488 3.87639594078063965 -1.13264358043670654
-0.946015298366546631 4.09636211395263672 -0.640138149261474609
-0.0229341387748718262 4.6853327751159668 -0.628191530704498291
0.224623411893844604 1.45092153549194336 -1.09294390678405762
0.763462841510772705 3.5377039909362793 -1.11184263229370117
-1.0788722038269043 2.37477874755859375 -1.11227166652679443
0.462954223155975342 2.54627370834350586 -1.20361602306365967
-1.11312150955200195 3.57044696807861328 -1.1800311803817749
1.5981217622756958 4.16674995422363281 -0.938693821430206299
0.717205047607421875 3.34236979484558105 -1.23530662059783936
0.591586530208587646 4.20067214965820312 -0.824858665466308594
-0.247421115636825562 2.4693596363067627 -1.15827500820159912
-0.0296499133110046387 2.76123785972595215 -1.17217445373535156
-1.55307519435882568 2.77113127708435059 -0.87270665168762207
1.06243455410003662 4.20681190490722656 -0.498656928539276123
-1.08839917182922363 4.45537662506103516 -0.582402169704437256
0.681221187114715576 2.20488238334655762 -1.11314809322357178
-0.121862918138504028 2.13103151321411133 -1.22901654243469238
1.10428428649902344 4.20213937759399414 -0.925844252109527588
1.01460552215576172 2.68739986419677734 -1.10953569412231445
0.343717217445373535 3.99234628677368164 -0.641945958137512207
-1.52405321598052979 3.61194753646850586 -0.370651960372924805
-1.3704526424407959 4.19442939758300781 -0.755380868911743164
-1.11134457588195801 4.61492776870727539 -0.313557267189025879
1.12630903720855713 4.3213801383972168 -0.164573103189468384
1.24774253368377686 2.60614228248596191 -1.11971771717071533
0.602861940860748291 4.62516593933105469 -0.723694801330566406
-1.06038570404052734 2.53347659111022949 -1.025970458984375
0.119356691837310791 2.69653105735778809 -1.16369724273681641
-1.24884271621704102 4.21115016937255859 -0.697689056396484375
0.698094069957733154 4.03216028213500977 -0.847177326679229736
1.30093955993652344 3.63845300674438477 -1.13518047332763672
-0.315786778926849365 2.19815516471862793 -1.20875203609466553
-0.496897429227828979 4.19018888473510742 -0.931878447532653809
-0.385827571153640747 2.19573688507080078 -1.15494883060455322
-0.377674877643585205 3.9214177131652832 -1.08592772483825684
-1.2431873083114624 3.78564620018005371 -1.10631859302520752
0.809477090835571289 4.65375947952270508 -0.398199409246444702
-1.2308201789855957 3.82398009300231934 -0.956487059593200684
0.904626727104187012 2.28579831123352051 -1.15105962753295898
0.103837758302688599 1.37982511520385742 -1.1425706148147583
0.184311181306838989 1.48822474479675293 -1.1279761791229248
0.0726700425148010254 4.25113534927368164 -0.683003544807434082
0.0179227292537689209 2.68841767311096191 -1.17801201343536377
1.15786385536193848 2.63600707054138184 -1.07240951061248779
-0.887410521507263184 4.38132429122924805 -0.923300743103027344
0.830156505107879639 3.04112672805786133 -1.18085908889770508
0.230805918574333191 2.42960834503173828 -1.20845746994018555
0.0507255494594573975 2.9999392032623291 -1.16908943653106689
0.150628030300140381 2.82101130485534668 -1.19001007080078125
-1.20979714393615723 4.36189365386962891 -0.303725212812423706
0.106233894824981689 2.37567234039306641 -1.18343436717987061
0.925459921360015869 3.90590095520019531 -0.663114488124847412
-1.35940909385681152 3.18258357048034668 -1.07456564903259277
0.886726677417755127 3.98946905136108398 -0.997869193553924561
0.981751501560211182 3.78328180313110352 -0.602552831172943115
0.691945314407348633 2.2070772647857666 -1.09100818634033203
0.227056577801704407 5.1903681755065918 -0.124675780534744263
-0.0950805246829986572 2.75097894668579102 -1.18311047554016113
0.430567353963851929 4.74023866653442383 -0.726517856121063232
-1.32756912708282471 3.49532437324523926 -0.720166444778442383
-0.0826420783996582031 2.35809183120727539 -1.19186735153198242
-1.35790324211120605 2.94381523132324219 -1.15912365913391113
0.880193591117858887 3.56909489631652832 -1.10778570175170898
0.733932793140411377 4.83173274993896484 -0.556534767150878906
-0.590717196464538574 4.70556163787841797 -0.25397789478302002
-0.0390239208936691284 2.64784598350524902 -1.19112110137939453
1.06033873558044434 2.66095113754272461 -1.04511892795562744
-1.13999474048614502 3.70208501815795898 -1.18666064739227295
0.499989628791809082 4.20618438720703125 -0.78011023998260498
0.295848965644836426 4.12964916229248047 -0.802085399627685547
-0.991450667381286621 4.49081516265869141 -0.549069404602050781
0.772186160087585449 4.05815982818603516 -1.03630232810974121
-2.06136417388916016 2.61369848251342773 -0.656940102577209473
-1.2184751033782959 4.27459621429443359 -0.70266956090927124
1.14769577980041504 2.63141536712646484 -1.09751629829406738
-0.317787110805511475 3.90178608894348145 -1.10130786895751953
0.712688446044921875 3.56008481979370117 -1.10965073108673096
0.0259708687663078308 5.07058143615722656 -0.35201108455657959
0.642099082469940186 2.17994451522827148 -1.12210237979888916
-1.08154678344726562 2.47376418113708496 -1.13273942470550537
0.942288756370544434 4.50902557373046875 -0.356784731149673462
-0.217117339372634888 2.01376891136169434 -1.19797682762145996
-0.694438636302947998 4.12821769714355469 -0.811554789543151855
-1.83848512172698975 3.38337874412536621 -0.52801215648651123
0.57893836498260498 4.00301408767700195 -0.712148785591125488
-0.321944147348403931 3.89773917198181152 -1.14080381393432617
0.985173940658569336 4.08987665176391602 -0.945054292678833008
0.87880021333694458 4.80882501602172852 -0.11150658130645752
0.757127583026885986 3.52661490440368652 -1.13900744915008545
-0.451558202505111694 3.72497797012329102 -1.15802145004272461
-1.04954385757446289 2.43224787712097168 -1.04302859306335449
0.684200644493103027 2.25983333587646484 -1.17140698432922363
-0.111018121242523193 2.61009931564331055 -1.1745753288269043
-0.414278775453567505 2.11263108253479004 -1.13235867023468018
-0.058226361870765686 2.8302314281463623 -1.21941566467285156
-1.10926973819732666 3.6457219123840332 -0.995943069458007812
-0.907836079597473145 4.32703351974487305 -0.536223232746124268
-0.232911244034767151 4.64885759353637695 -0.487322747707366943
1.35964357852935791 3.04208183288574219 -1.15768051147460938
0.943473637104034424 4.02880620956420898 -0.612230420112609863
1.29420042037963867 3.948272705078125 -0.268383175134658813
-0.80288928747177124 4.33399581909179688 -0.678042411804199219
-1.15047657489776611 4.02503252029418945 -0.492657452821731567
0.621166229248046875 2.7370753288269043 -1.15860652923583984
-0.710841238498687744 2.52076458930969238 -1.13307607173919678
1.24634647369384766 4.3448486328125 -0.860697448253631592
-1.012367844581604 3.26931476593017578 -1.10174059867858887
0.550955653190612793 4.24240875244140625 -0.697291433811187744
0.197955846786499023 2.66202282905578613 -1.19209432601928711
0.0361074656248092651 4.77799797058105469 -0.288164108991622925
0.827742874622344971 3.89088153839111328 -1.02651965618133545
1.52476656436920166 3.94740700721740723 -1.02535223960876465
0.588466942310333252 3.37190055847167969 -1.14387631416320801
-1.25485134124755859 4.22925329208374023 -0.777822494506835938
0.217775776982307434 1.4224017858505249 -1.08696901798248291
-0.479150593280792236 2.02422833442687988 -1.15162754058837891
0.171549856662750244 2.8622899055480957 -1.19482326507568359
-0.377364277839660645 2.05222821235656738 -1.24851274490356445
-0.434248596429824829 2.03838157653808594 -1.22389411926269531
-1.21907603740692139 3.4581456184387207 -1.26400458812713623
0.0162722207605838776 2.49900531768798828 -1.21850943565368652
0.800867915153503418 4.06372451782226562 -0.84028249979019165
0.613399505615234375 4.62407588958740234 -0.625991404056549072
0.199244648218154907 1.37021350860595703 -1.08858835697174072
-0.486270427703857422 4.59817361831665039 -0.845319628715515137
0.984780788421630859 2.55188965797424316 -1.1707770824432373
1.11009776592254639 3.4434511661529541 -1.13545060157775879
-0.228868424892425537 2.13984060287475586 -1.22981655597686768
0.148182302713394165 2.65101194381713867 -1.2383568286895752
0.244352847337722778 3.96696758270263672 -0.857729434967041016
-1.05694401264190674 2.46178412437438965 -1.09640920162200928
-1.53316366672515869 2.8111884593963623 -1.02399659156799316
0.205057263374328613 1.41220486164093018 -1.09461236000061035
0.348246216773986816 3.02761936187744141 -1.18796348571777344
0.666045784950256348 2.22193360328674316 -1.09705960750579834
-1.28858339786529541 3.79659104347229004 -0.70800328254699707
0.219829663634300232 1.39275217056274414 -1.1072012186050415
-0.825363755226135254 4.18918323516845703 -1.13780784606933594
0.0949504077434539795 4.16652107238769531 -0.696081221103668213
0.77292633056640625 4.01905536651611328 -0.622025489807128906
0.84766232967376709 4.16056919097900391 -0.889547646045684814
1.13809525966644287 3.48113083839416504 -0.448189973831176758
0.509921371936798096 4.23890876770019531 -0.740844905376434326
-1.14426958560943604 3.94279003143310547 -1.0046844482421875
0.852965474128723145 4.11958789825439453 -0.829489648342132568
0.248877912759780884 1.75654935836791992 -1.1762537956237793
0.672106027603149414 2.17641615867614746 -1.08546185493469238
-1.23430275917053223 3.85662841796875 -1.18223762512207031
0.441249668598175049 2.70725631713867188 -1.13932883739471436
1.11972510814666748 2.6688230037689209 -1.05689549446105957
-1.61009955406188965 3.70390415191650391 -0.604789555072784424
0.0736365765333175659 3.92148447036743164 -0.688612878322601318
0.752527415752410889 4.76268815994262695 -0.461158215999603271
0.85657966136932373 4.37170743942260742 -0.48196139931678772
0.00994957052171230316 2.79013466835021973 -1.20429730415344238
-0.141909688711166382 2.47040152549743652 -1.19560790061950684
0.738414645195007324 3.55608224868774414 -1.12537848949432373
-0.881541430950164795 4.30290937423706055 -0.665287017822265625
0.659740269184112549 2.21794867515563965 -1.10671472549438477
1.03344917297363281 3.81032586097717285 -0.510165929794311523
-1.18171226978302002 4.25096511840820312 -0.555768370628356934
0.946254909038543701 2.88476848602294922 -1.13171672821044922
0.0137836635112762451 2.89152622222900391 -1.19108331203460693
-0.226261556148529053 2.06264567375183105 -1.24377918243408203
1.02161550521850586 3.9248814582824707 -1.00782310962677002
-1.2226942777633667 3.3962104320526123 -1.13420951366424561
-0.894984245300292969 4.0393524169921875 -1.06847822666168213
-0.864358365535736084 4.83027362823486328 -0.236630648374557495
-1.934356689453125 2.96088075637817383 -0.571088314056396484
0.727693617343902588 4.54705429077148438 -0.583645939826965332
1.14832150936126709 2.68361186981201172 -1.07517647743225098
-0.934731602668762207 4.23172187805175781 -0.787718296051025391
-0.853208184242248535 3.71583294868469238 -0.827116847038269043
0.635996460914611816 3.98502016067504883 -0.749328732490539551
-0.103034734725952148 2.64365863800048828 -1.15318357944488525
-1.21786510944366455 3.83362293243408203 -0.368545204401016235
0.714032411575317383 4.1004481315612793 -1.01538681983947754
0.627254903316497803 3.97086358070373535 -0.684377968311309814
0.543076455593109131 4.55589056015014648 -0.404666125774383545
0.317416071891784668 3.97286748886108398 -0.871616125106811523
-0.230754896998405457 4.89955902099609375 -0.346640348434448242
-0.0309159979224205017 3.22642040252685547 -1.14456319808959961
-0.153513401746749878 2.63596296310424805 -1.1512448787689209
-0.247945249080657959 2.11455345153808594 -1.15958499908447266
0.787410378456115723 2.24422478675842285 -1.14389944076538086
-0.975720226764678955 4.37789297103881836 -0.546886801719665527
-1.40416252613067627 3.76686406135559082 -0.988680481910705566
-1.01928043365478516 4.30264139175415039 -0.457982957363128662
0.604044616222381592 4.78656435012817383 -0.498433530330657959
0.586422204971313477 4.89181280136108398 -0.104981124401092529
-0.0263085588812828064 2.62080693244934082 -1.19519400596618652
0.638822436332702637 2.1789705753326416 -1.16363215446472168
1.10202383995056152 4.43150806427001953 -0.905279934406280518
-1.36486732959747314 4.36510229110717773 -0.530087172985076904
0.0591377019882202148 2.85524678230285645 -1.17041826248168945
-0.283418536186218262 3.8839104175567627 -1.15292239189147949
0.412425637245178223 1.95914149284362793 -1.10474467277526855
-0.346594512462615967 4.58470916748046875 -0.628513753414154053
0.745403826236724854 4.57316446304321289 -0.49562564492225647
0.201662406325340271 4.55129623413085938 -0.319119065999984741
0.33566659688949585 3.05208206176757812 -1.07386946678161621
1.08943772315979004 2.72595548629760742 -1.14039111137390137
-0.0251613706350326538 2.902069091796875 -1.15810132026672363
1.03251016139984131 3.76136469841003418 -0.820865452289581299
-1.20549571514129639 3.1199498176574707 -0.992707014083862305
-1.12619256973266602 4.35558557510375977 -0.353680700063705444
0.769247889518737793 3.48079562187194824 -1.11730992794036865
0.789610505104064941 4.09644126892089844 -0.970632195472717285
-1.12246870994567871 3.13343405723571777 -1.23498868942260742
0.864766240119934082 3.94511127471923828 -0.989817380905151367
0.178459107875823975 1.51778984069824219 -1.14897143840789795
0.0455310717225074768 2.56342291831970215 -1.21039235591888428
1.35948753356933594 4.20605087280273438 -0.914172053337097168
0.70489966869354248 4.1337285041809082 -0.94963228702545166
0.680526793003082275 2.21828508377075195 -1.07684075832366943
0.892845511436462402 3.76494336128234863 -0.546832919120788574
0.940593540668487549 3.20889377593994141 -1.17905735969543457
-1.05565023422241211 2.52489137649536133 -1.1138451099395752
0.810843765735626221 4.34738731384277344 -0.470732986927032471
1.08239364624023438 3.75384235382080078 -0.988423407077789307
-0.0850007534027099609 2.59961557388305664 -1.17844462394714355
-0.0205125361680984497 2.62197995185852051 -1.18333029747009277
-1.30311107635498047 3.86470341682434082 -0.742350101470947266
0.605426371097564697 4.03905296325683594 -0.755584597587585449
1.2362825870513916 3.63550901412963867 -0.4921531081199646
-0.38566279411315918 2.01865768432617188 -1.16586685180664062
0.000711739063262939453 2.94026708602905273 -1.19963538646697998
1.13206005096435547 2.65097379684448242 -1.02883148193359375
-1.06906557083129883 4.76313495635986328 -0.534127891063690186
-0.656820476055145264 4.25409603118896484 -0.682307004928588867
-1.09802472591400146 3.53589177131652832 -0.883800506591796875
-0.900117278099060059 4.52517032623291016 -0.468809366226196289
-1.92593526840209961 2.9374847412109375 -0.50163877010345459
-1.04339909553527832 2.47849750518798828 -1.08163094520568848
0.727709412574768066 4.11240673065185547 -0.652205944061279297
-0.348716944456100464 2.10443711280822754 -1.23642218112945557
-1.11561477184295654 2.42578601837158203 -1.12276482582092285
0.114855669438838959 2.71254396438598633 -1.20168423652648926
-0.320440083742141724 3.90252327919006348 -1.12036895751953125
0.0493734180927276611 4.0020751953125 -0.736294150352478027
0.678066015243530273 2.18879079818725586 -1.0739670991897583
-0.919736146926879883 4.63282489776611328 -0.591420412063598633
-1.70212280750274658 3.61830425262451172 -0.352970868349075317
-1.98739385604858398 2.74908447265625 -0.574930965900421143
