ply
format ascii 1.0
element vertex 256
comment vertices
property float x
property float y
property float z
end_header
0.00460919179022312164 2.45148873329162598 -1.15723145008087158
-0.496784090995788574 4.74896383285522461 -0.120249330997467041
1.87346768379211426 3.63081741333007812 -0.337820082902908325
-2.99344444274902344 0.933703184127807617 -1.00169730186462402
-0.967257320880889893 3.70457839965820312 -1.17755413055419922
1.2229766845703125 3.11652970314025879 -1.12559258937835693
0.380921393632888794 3.82685589790344238 -0.725869059562683105
-2.05474519729614258 2.53908085823059082 -1.16225326061248779
-0.451485753059387207 1.89536488056182861 -1.21530759334564209
1.03983938694000244 2.2763972282409668 -1.14370155334472656
1.12471854686737061 2.62101125717163086 -1.08448922634124756
-0.275540620088577271 3.89988541603088379 -1.10873496532440186
-0.650564789772033691 2.30894041061401367 -1.02347123622894287
0.0932525098323822021 3.74735093116760254 -0.945672750473022461
0.212384864687919617 1.37803661823272705 -1.10664534568786621
0.749844372272491455 3.5334780216217041 -1.1066662073135376
-1.08907079696655273 2.45637083053588867 -1.10561192035675049
0.398189067840576172 2.59683656692504883 -1.14030897617340088
-0.786839604377746582 2.61805963516235352 -1.29284060001373291
2.14224457740783691 3.99608397483825684 -0.96991884708404541
0.767390966415405273 3.56497383117675781 -1.13511991500854492
0.27231559157371521 3.76287102699279785 -1.07345104217529297
-0.211700230836868286 2.46079301834106445 -1.14904260635375977
0.0178327672183513641 2.73201417922973633 -1.17261290550231934
-1.70685172080993652 1.93883132934570312 -1.00873827934265137
1.7986299991607666 3.13491654396057129 -0.811926722526550293
-1.25387763977050781 3.54569292068481445 -0.734882593154907227
0.668761074542999268 2.18951940536499023 -1.11468207836151123
-0.131097465753555298 2.12632846832275391 -1.20094335079193115
1.16644370555877686 4.10207557678222656 -1.00145018100738525
1.10606241226196289 2.65241003036499023 -1.08480322360992432
0.492050290107727051 1.91497993469238281 -1.32770299911499023
-0.867397785186767578 1.67819833755493164 -0.892604351043701172
-2.35511493682861328 2.92271709442138672 -1.01203536987304688
-1.08252513408660889 4.09195375442504883 -0.260469526052474976
1.35860633850097656 4.2102203369140625 -0.0812662467360496521
1.16454780101776123 2.60802817344665527 -1.10717761516571045
0.790277779102325439 4.40911006927490234 -0.852782905101776123
-1.08671367168426514 2.47334694862365723 -1.05836308002471924
0.0843983590602874756 2.68452310562133789 -1.16501319408416748
-1.59644770622253418 3.07361435890197754 -0.872120141983032227
0.550902605056762695 3.44838762283325195 -1.11804485321044922
1.32015204429626465 3.61229395866394043 -1.11861574649810791
-0.320850133895874023 2.15274977684020996 -1.20148646831512451
-0.17059662938117981 2.7097935676574707 -1.19069218635559082
-0.510837972164154053 2.16575527191162109 -1.17883837223052979
-0.303155958652496338 3.91574311256408691 -1.07397758960723877
-1.43118643760681152 3.44358134269714355 -1.17113125324249268
1.01997518539428711 4.35071134567260742 -0.417252600193023682
-1.37651205062866211 3.51331925392150879 -1.1030886173248291
0.702367424964904785 2.20652508735656738 -1.10053062438964844
0.189207598567008972 1.37037336826324463 -1.13128829002380371
0.181216388940811157 1.37592983245849609 -1.10922276973724365
-0.532737851142883301 2.61659812927246094 -1.27443528175354004
0.0308364816009998322 2.67899465560913086 -1.17244076728820801
1.13547706604003906 2.61334848403930664 -1.08567512035369873
-1.00236666202545166 4.24690961837768555 -1.02280211448669434
0.733449041843414307 3.0189354419708252 -1.13761258125305176
0.181392073631286621 2.44248461723327637 -1.14829123020172119
0.103510163724422455 2.91469550132751465 -1.18406391143798828
0.139972597360610962 2.7925724983215332 -1.17803359031677246
-1.218406081199646 3.29804253578186035 -0.468655228614807129
0.0483580343425273895 2.38797903060913086 -1.15418899059295654
1.4539344310760498 2.92038726806640625 -1.1310269832611084
-1.54834866523742676 2.7969672679901123 -1.20767712593078613
0.820876717567443848 3.60564136505126953 -1.14624476432800293
1.72293615341186523 2.29466009140014648 -1.13772106170654297
0.67479020357131958 2.18711113929748535 -1.10495901107788086
0.286870419979095459 5.34019804000854492 -0.0829238295555114746
-0.0242384970188140869 2.72966742515563965 -1.17976737022399902
0.417955249547958374 4.70404767990112305 -0.714422702789306641
-1.50367116928100586 0.910200834274291992 -1.2497258186340332
-0.0986105203628540039 2.34752750396728516 -1.15986883640289307
-1.38736271858215332 1.88369154930114746 -1.26952672004699707
0.710475742816925049 3.5482487678527832 -1.11919605731964111
0.778940498828887939 5.02608203887939453 -0.656811058521270752
-0.485232532024383545 3.9911046028137207 -0.350050121545791626
-0.0082063768059015274 2.62841510772705078 -1.17791163921356201
1.10616588592529297 2.63487768173217773 -1.06317532062530518
-1.13216304779052734 3.22367310523986816 -1.240547776222229
0.571518898010253906 3.68932771682739258 -1.14021539688110352
0.381415367126464844 2.20469117164611816 -1.33316278457641602
-0.845522701740264893 3.36811113357543945 -0.759513616561889648
0.438768535852432251 3.74052643775939941 -1.16086673736572266
-2.31760954856872559 -0.201546192169189453 -1.11088812351226807
-1.75945544242858887 3.57230186462402344 -0.93083488941192627
1.13171327114105225 2.61755037307739258 -1.09639978408813477
-0.285374581813812256 3.9023289680480957 -1.08824074268341064
0.757870852947235107 3.53002357482910156 -1.11697947978973389
0.285609722137451172 4.89390087127685547 -0.22264157235622406
0.656790196895599365 2.19049596786499023 -1.12130427360534668
-1.08544933795928955 2.47008848190307617 -1.11041343212127686
1.78514456748962402 3.48041081428527832 -0.653813362121582031
-0.246228337287902832 1.98842787742614746 -1.18651044368743896
-0.415552616119384766 2.44385170936584473 -1.16120100021362305
-2.66289997100830078 1.77513158321380615 -0.942262411117553711
0.746327579021453857 2.28566074371337891 -1.27260017395019531
-0.28569948673248291 3.89465212821960449 -1.1073143482208252
1.06452488899230957 3.91837191581726074 -1.10793852806091309
1.09786021709442139 4.78754663467407227 -0.0474052727222442627
0.74735647439956665 3.53982424736022949 -1.11091506481170654
-0.385551303625106812 3.81467676162719727 -1.11900603771209717
-1.08417677879333496 2.4692845344543457 -1.06923913955688477
0.667408168315887451 2.20002985000610352 -1.1327977180480957
-0.0645730942487716675 2.60192060470581055 -1.17328298091888428
-0.476436048746109009 2.02522373199462891 -1.15585780143737793
0.00657410174608230591 2.79595756530761719 -1.19782781600952148
-0.934073865413665771 2.77883577346801758 -1.20704996585845947
-0.825021147727966309 2.95638656616210938 -0.861862361431121826
-0.179808631539344788 3.3098292350769043 -0.876478672027587891
1.50635313987731934 2.94362330436706543 -1.10573029518127441
1.36067628860473633 2.87797307968139648 -1.03729057312011719
1.70767509937286377 3.48819303512573242 -0.375629901885986328
-0.658074259757995605 3.23537492752075195 -0.95508873462677002
-1.17653870582580566 3.11203432083129883 -0.707757771015167236
0.610672175884246826 2.75468707084655762 -1.14348769187927246
-0.677826523780822754 2.53783369064331055 -1.14937007427215576
1.43305158615112305 4.22160720825195312 -0.929927408695220947
-0.557571649551391602 2.75785493850708008 -1.29161190986633301
0.852139115333557129 3.57811713218688965 -1.08738350868225098
0.139993235468864441 2.68267345428466797 -1.15378367900848389
0.378992140293121338 4.56057024002075195 -0.165062218904495239
0.413197100162506104 3.38017010688781738 -1.17404592037200928
2.37668442726135254 3.04565191268920898 -1.16591501235961914
0.754171848297119141 3.53883767127990723 -1.1262592077255249
-1.96996510028839111 3.61798882484436035 -0.967603683471679688
0.210563033819198608 1.36693096160888672 -1.10878658294677734
-0.5160369873046875 1.91524791717529297 -1.16404807567596436
0.163603752851486206 2.8126523494720459 -1.18218612670898438
-0.443578958511352539 1.97158348560333252 -1.21761894226074219
-0.457180321216583252 1.94979071617126465 -1.20407330989837646
-1.36150836944580078 2.98453640937805176 -1.28213536739349365
0.00682256370782852173 2.50001835823059082 -1.17748653888702393
0.781246483325958252 3.83570241928100586 -1.08463358879089355
0.73762136697769165 4.23797988891601562 -0.714715898036956787
0.210405409336090088 1.35051453113555908 -1.11829912662506104
-0.259570419788360596 2.97561836242675781 -1.24057340621948242
1.04221725463867188 2.55974173545837402 -1.10650467872619629
0.991988539695739746 3.46558642387390137 -1.11592602729797363
-0.238044455647468567 2.12729644775390625 -1.20964503288269043
0.0751962661743164062 2.61037731170654297 -1.1859898567199707
0.424582749605178833 1.38803887367248535 -1.38512802124023438
-1.0854644775390625 2.47029399871826172 -1.09424281120300293
-1.66524553298950195 2.69459319114685059 -1.09366095066070557
0.206841319799423218 1.36435413360595703 -1.1139906644821167
0.313715249300003052 3.03278374671936035 -1.17137420177459717
0.664334475994110107 2.18802070617675781 -1.10982990264892578
-1.50483870506286621 2.7753300666809082 -0.997290492057800293
0.213667050004005432 1.35289895534515381 -1.12359416484832764
-1.0434795618057251 3.75124645233154297 -1.10958623886108398
-0.515047311782836914 2.4103240966796875 -1.29674291610717773
0.965291738510131836 3.23885679244995117 -1.03994584083557129
0.803194344043731689 4.02336645126342773 -1.05054712295532227
1.52432024478912354 0.829973697662353516 -0.934529483318328857
0.656952559947967529 3.48107647895812988 -1.13489580154418945
-1.54880273342132568 3.55533289909362793 -1.1414872407913208
0.838124573230743408 3.96401882171630859 -1.04690885543823242
0.262190580368041992 1.68597781658172607 -1.13753306865692139
0.665636658668518066 2.18361902236938477 -1.10472536087036133
-1.47897100448608398 3.53517699241638184 -1.20109343528747559
0.368770182132720947 2.71169829368591309 -1.12523102760314941
1.1202695369720459 2.62666726112365723 -1.07229435443878174
-1.75635600090026855 2.31429004669189453 -1.02079498767852783
-0.555517375469207764 1.03212451934814453 -1.39192724227905273
0.76755291223526001 4.59703254699707031 -0.432044148445129395
1.62435579299926758 3.14731502532958984 -0.90105736255645752
0.0406635627150535583 2.75293946266174316 -1.18003296852111816
-0.193489223718643188 2.38954663276672363 -1.17621898651123047
0.75184398889541626 3.52941441535949707 -1.11195158958435059
-1.15002024173736572 2.95743465423583984 -0.979306221008300781
0.661758720874786377 2.18964862823486328 -1.1142885684967041
1.54307365417480469 1.68686556816101074 -1.09904766082763672
-1.32193303108215332 3.30296993255615234 -0.688104569911956787
1.09418570995330811 2.64111971855163574 -1.07475197315216064
0.0353942811489105225 2.81365513801574707 -1.19181180000305176
-0.249779582023620605 2.04052639007568359 -1.2160341739654541
0.972017586231231689 3.77663159370422363 -1.10027289390563965
-1.43088734149932861 3.06389594078063965 -1.26796448230743408
-0.616210103034973145 3.05316996574401855 -1.21549105644226074
-0.883567929267883301 4.27900838851928711 -0.145944029092788696
-2.61526107788085938 1.09917032718658447 -1.068267822265625
0.989925503730773926 3.91010117530822754 -0.77079319953918457
1.12976670265197754 2.62575626373291016 -1.07708311080932617
-1.1881859302520752 3.06782078742980957 -1.04743647575378418
0.400087952613830566 0.905633211135864258 -1.34326601028442383
0.461303591728210449 2.65630388259887695 -1.12610435485839844
-0.0653158202767372131 2.62635517120361328 -1.16980075836181641
-0.862128257751464844 2.96916699409484863 -0.56866919994354248
0.356887936592102051 3.78245234489440918 -1.12919712066650391
1.03509747982025146 2.01259112358093262 -1.31173181533813477
0.541940927505493164 3.66290926933288574 -0.603641927242279053
0.00966191291809082031 1.64905786514282227 -1.34982705116271973
0.230668887495994568 4.63733196258544922 -0.294614911079406738
-0.029116043820977211 3.19527959823608398 -1.16534090042114258
-0.0812438279390335083 2.60456085205078125 -1.14589107036590576
-0.267399996519088745 2.08191418647766113 -1.16742527484893799
0.696400225162506104 2.19166302680969238 -1.11253833770751953
-1.00182509422302246 3.27779912948608398 -0.805108308792114258
-2.11797857284545898 3.29175281524658203 -1.12589919567108154
-0.947164416313171387 3.16533470153808594 -0.701754868030548096
0.603723108768463135 4.63756513595581055 -0.470528602600097656
0.974733173847198486 4.82116889953613281 -0.0666496306657791138
-0.00930161401629447937 2.57039999961853027 -1.18494880199432373
0.654960751533508301 2.20374941825866699 -1.12940859794616699
1.11176669597625732 4.43975591659545898 -0.977590203285217285
-1.94052386283874512 3.46876287460327148 -0.705434978008270264
0.065010853111743927 2.79150271415710449 -1.18045830726623535
-0.278915077447891235 3.89654445648193359 -1.11623990535736084
0.449113607406616211 2.03536343574523926 -1.13806509971618652
0.0511563122272491455 2.70863962173461914 -1.10872459411621094
1.28993570804595947 3.5433807373046875 -0.711022496223449707
0.607922136783599854 3.83709239959716797 -0.476217478513717651
0.304553449153900146 3.05215287208557129 -1.11711800098419189
1.10754537582397461 2.64729952812194824 -1.09596443176269531
0.0294561125338077545 2.83513832092285156 -1.16040074825286865
1.01534378528594971 3.09135603904724121 -1.0644230842590332
-1.12616133689880371 2.48797392845153809 -1.20847535133361816
-1.02402830123901367 3.4926598072052002 -0.502261936664581299
0.744728803634643555 3.55201292037963867 -1.10643446445465088
0.718340158462524414 3.92172503471374512 -1.09780311584472656
-0.909498274326324463 1.78039884567260742 -1.37504434585571289
0.623735964298248291 3.55351614952087402 -1.1345062255859375
0.17637363076210022 1.38911521434783936 -1.11212217807769775
0.0229687709361314774 2.55174970626831055 -1.16992032527923584
1.73708260059356689 4.019775390625 -0.965372979640960693
0.679204106330871582 3.87713193893432617 -1.10875570774078369
0.671838879585266113 2.18488883972167969 -1.10102260112762451
1.30428671836853027 1.51231527328491211 -1.12443113327026367
0.853191614151000977 3.2198951244354248 -1.16270887851715088
-1.08342516422271729 2.47198915481567383 -1.09582626819610596
1.34687089920043945 2.69666528701782227 -0.981293618679046631
1.02906262874603271 3.58822798728942871 -1.08066332340240479
-0.0590237937867641449 2.5531916618347168 -1.18758106231689453
-0.00623882655054330826 2.57099533081054688 -1.18249213695526123
-1.5745776891708374 3.23486757278442383 -0.937063217163085938
0.759998321533203125 3.1956322193145752 -1.10392701625823975
2.34401893615722656 1.1299748420715332 -1.10012054443359375
-0.456669151782989502 1.92587649822235107 -1.16737878322601318
0.0383182764053344727 2.86515665054321289 -1.18328940868377686
1.1234210729598999 2.62589645385742188 -1.06230008602142334
-1.01481938362121582 4.31308889389038086 -0.479742765426635742
-0.511937499046325684 3.16108584403991699 -1.04842472076416016
-0.723718523979187012 2.1058046817779541 -1.22866010665893555
-0.955714702606201172 3.98887848854064941 -0.561176598072052002
-2.55955815315246582 0.968716740608215332 -1.01686656475067139
-1.08382010459899902 2.47062945365905762 -1.08521842956542969
0.816400885581970215 3.64436435699462891 -1.01065325736999512
-0.408221006393432617 2.03963565826416016 -1.21257376670837402
-1.08715415000915527 2.46403193473815918 -1.10868704319000244
0.0842432901263237 2.72026252746582031 -1.17146193981170654
-0.286700010299682617 3.89742469787597656 -1.0956575870513916
-0.820415854454040527 1.70656728744506836 -1.35472249984741211
0.66962134838104248 2.18310236930847168 -1.10016822814941406
-0.883916497230529785 4.01033115386962891 -0.676496624946594238
-2.33745670318603516 1.68909943103790283 -0.800142884254455566
-2.25346827507019043 0.232358455657958984 -1.17233788967132568
